<?xml version="1.0" encoding="UTF-8" standalone="no"?>
<!DOCTYPE svg PUBLIC "-//W3C//DTD SVG 1.1//EN" "http://www.w3.org/Graphics/SVG/1.1/DTD/svg11.dtd">
<svg width="100%" height="100%" viewBox="0 0 98 67" version="1.1" xmlns="http://www.w3.org/2000/svg" xmlns:xlink="http://www.w3.org/1999/xlink" xml:space="preserve" style="fill-rule:evenodd;clip-rule:evenodd;stroke-linejoin:round;stroke-miterlimit:1.41421;">
    <g transform="matrix(1,0,0,1,-1.11426,-16.9957)">
        <path d="M96.7,60.8C97.5,59.7 99.7,56.7 98.8,55.1C98,53.8 98.1,51.1 98.1,51.1C99.2,39.9 98.8,32.6 98.7,30.6C98.4,26.2 93.3,25 92.7,24.9C89,23.6 83.3,23.7 77.3,23.8C73.7,23.9 69.9,23.9 66.3,23.7C61.3,23.4 57.4,23.3 54.2,23.2C51.3,23.1 49,23.1 46.9,22.9C46.2,22.8 45.4,22.7 44.5,22.6C40.7,22 36.1,21.3 31.1,24.2C31.2,23.6 31.1,22.9 31,22.2C30.2,19 26.5,17.9 26.3,17.9C26.1,17.8 25.8,17.9 25.7,18.1C25.6,18.3 25.6,18.6 25.7,18.7L26.9,20.4C27.5,21.1 27.7,21.8 27.6,22.5C27.3,23.9 25.6,24.7 25.3,24.9L23.8,25.4C22.8,24.7 19.1,22.6 14,24.3L12.5,24.9L11.6,24.3L11.5,24.3C10.8,24.1 10.3,23.6 10.1,23C9.2,21 10.5,17.8 10.5,17.8C10.6,17.6 10.6,17.5 10.5,17.3C10.4,17.2 10.3,17.1 10.1,17C9.9,17 7.9,16.7 6.3,21.1C4.9,24.8 8.8,28 10.1,29C9.1,28.7 7.4,28.2 5.6,28C2.7,27.5 1.2,30.4 1.2,30.5L1.2,30.6C0.9,31.7 1.4,32.8 2.5,33.7C3.4,34.4 5,35 6.2,35C6.7,35 7.1,34.9 7.4,34.7C8,34.4 8.9,34 9.5,33.7C9.8,35.1 11.3,43.3 11.4,44.5C11.5,44.9 11.3,45.3 11.1,45.7C10.7,46.5 10.3,47.4 10.8,48.9C11,50 11.9,50.6 13,51L13.1,51C13.7,51.2 14.4,51.4 15,51.5C15.4,51.6 15.9,51.6 16.4,51.6C18.4,51.6 20.6,51 21.7,49.3C21.7,49.2 21.8,49.2 21.8,49.1C21.8,49.1 22.1,47.3 22.9,46.2C23,46 23.2,45.9 23.3,45.7L25.1,48.5L25.1,48.6C25.1,48.6 25.7,49.4 26.3,52.6C26.6,54.2 27.6,55.8 28.9,57.1C29.5,60.8 30.1,64.9 30.1,65.4C30,66 30.3,66.9 31.2,68.4C31.6,69.2 32.1,75.7 31.9,76.5C31.6,77 30.7,78.7 30.7,78.7C30.6,78.8 30.6,79 30.7,79.2C30.8,79.4 30.9,79.5 31,79.5C31.1,79.5 32.2,79.9 33.5,79.9C34.2,79.9 35,79.8 35.7,79.5C35.9,79.4 36,79.3 36,79.1C36.2,78.4 36.6,77.1 37,76.7C38,75.4 36.5,71.3 36.4,71.2C36.1,70.3 36.3,68.2 36.6,66.4C36.7,68 36.7,69.1 37.3,70.2C37.4,70.8 38.1,74.8 37.3,78.5L35.4,81.7C35.3,81.8 35.3,82 35.3,82.2C35.4,82.4 35.5,82.5 35.6,82.5C35.7,82.5 37.2,83.1 39.1,83.1C39.8,83.1 40.6,83 41.3,82.8C41.5,82.7 41.6,82.6 41.7,82.4L42.1,80.9C42.9,80.2 43.1,79.1 42.8,78C42.7,77.8 42.7,77.6 42.7,77.4L42.7,76.9C42.7,75.4 42.7,71.6 43.1,70.1C43.7,68.3 44.1,64.6 44.4,61.9C44.4,61.4 44.5,60.9 44.6,60.4C45.9,60.4 49.7,60.4 52.5,60.7C53.2,60.8 54.1,61 55.2,61.2C60.2,62.3 68.7,64 75.9,60.4L81.3,57.7C82,59.3 83.8,63.9 84.2,66.3C84.5,68.6 82,74.3 81,76.3C79.7,77.7 79.9,78.1 80,78.3C80.1,78.5 80.3,78.7 80.6,78.7C80.7,78.7 80.9,78.8 81.1,78.8C81.6,78.9 82.3,79.1 83.1,79.1C83.7,79.1 84.4,79 85,78.7C85.1,78.7 85.1,78.6 85.2,78.5L86.5,76.7L87.2,76C87.3,75.9 87.3,75.9 87.3,75.8L89.1,70.6C89.1,71.8 89,72.9 88.8,74.1C88.1,77.4 87.3,78.4 86.9,78.7C86.8,78.7 86.8,78.8 86.8,78.8L85.3,81C85.2,81.2 85.2,81.5 85.4,81.7C85.5,81.8 86.7,83.1 89.2,83.1C89.5,83.1 89.8,83.1 90.1,83L92.1,82.6L92.2,82.6C92.7,82.4 93,81.8 92.9,81.3C92.8,80.9 92.8,80.1 93,78.7C93.5,78.5 94.3,77.8 94.4,76.2C94.6,74 95.5,68.5 97.1,63.9C97.3,63.3 97,62.5 96.5,61.2C96.8,61 96.7,60.9 96.7,60.8ZM28.7,22.8C28.9,21.8 28.7,20.9 28,20C28.8,20.6 29.7,21.4 30,22.6C30.5,24.4 29.9,25.8 27.8,27.7C27.6,26.8 27,26 26.6,25.6C27.3,25 28.4,24.1 28.7,22.8ZM26.2,30.4L26.5,30.2C27,30.1 28.8,29.7 31.3,29.4C32.8,29.2 33.9,30 34.6,30.7C35,31.1 35,31.8 34.7,32.2C34.3,32.7 33.6,33.4 32.6,33.7C31.1,34.1 30.5,33.9 29.9,33.6C29.7,33.5 29.5,33.4 29.2,33.4C28.5,33.2 27,33.3 26.1,33.3L26.1,30.4L26.2,30.4ZM7.3,21.5C7.9,19.8 8.6,18.9 9.1,18.5C8.7,19.8 8.4,21.8 9.1,23.4C9.4,24 9.8,24.5 10.4,24.9C10,25.4 9.5,26 9.2,26.7C7.9,25.4 6.6,23.5 7.3,21.5ZM6.9,33.8C6.3,34.2 4.3,33.7 3.1,32.8C2.6,32.4 2,31.7 2.2,30.9C2.4,30.6 3.5,28.8 5.4,29.1C7.3,29.4 9.2,29.9 10,30.2L9.6,32.7C9,32.8 7.7,33.4 6.9,33.8ZM17.9,50.2C17.9,50.3 17.9,50.3 17.9,50.2C17,50.5 16,50.4 15.2,50.3C14.6,50.2 14.1,50.1 13.7,49.9C13.1,48.7 13,48 13,47.6C13.3,47.6 14,47.9 14.1,48.1C14.2,48.3 14.3,48.5 14.3,48.6C14.2,48.8 14.1,49 14.2,49.2C14.3,49.4 14.5,49.5 14.7,49.5C14.8,49.5 14.9,49.5 15,49.4C15.5,49.1 15.6,48.4 15.1,47.5C15.1,47.4 15,47.4 15,47.3C15.2,47.3 15.5,47.4 15.8,47.4C16.3,47.4 16.8,47.3 17.2,47.3C17.1,47.3 17.1,47.4 17.1,47.4C16.8,47.6 16.6,47.9 16.5,48.2C16.3,48.6 16.4,49 16.6,49.3C16.7,49.4 16.9,49.5 17,49.5C17.1,49.5 17.3,49.5 17.4,49.4C17.6,49.2 17.7,48.9 17.5,48.7C17.5,48.6 17.6,48.4 17.8,48.3C18.2,47.9 18.6,47.7 18.8,47.6L18.9,47.6C18.8,48.3 18.5,49.2 17.9,50.2ZM20.7,48.7C20.4,49.2 19.9,49.6 19.3,49.8C19.9,48.6 20,47.5 19.6,46.8C19.3,46.2 18.8,46 18.3,46C18,46 17.6,46.1 17.2,46.1C16.7,46.2 16.2,46.3 15.6,46.3C15,46.3 14.5,46.2 14,46.1C13.3,45.9 12.6,45.7 12,46.6C11.6,47.1 11.6,48 12,49.2C11.8,49 11.7,48.9 11.7,48.7C11.4,47.6 11.7,47 12,46.3C12.3,45.7 12.5,45.2 12.4,44.4C12.2,43.1 10.6,34.5 10.4,33.4L11.2,28.8C11.2,28.6 11.1,28.4 11,28.2C11,28.2 10.6,27.9 10,27.4C10.1,26.6 10.8,25.8 11.3,25.3L12.1,25.8C12.3,25.9 12.4,25.9 12.6,25.8L14.3,25.1C19.5,23.4 23.2,26.1 23.3,26.3C23.4,26.4 23.6,26.4 23.8,26.4L25.3,25.9C25.7,26.3 26.6,27.2 26.6,28.4L25.1,29.6C25.1,29.8 25,30 25,30.2L25,34C25,41.1 24.5,42.4 22,45.5C21.2,46.5 20.8,48.2 20.7,48.7ZM36,63.5C35.4,66.6 34.8,69.8 35.4,71.3C36.3,73.5 36.4,75.4 36.2,75.8C35.7,76.4 35.3,77.8 35.1,78.4C34,78.8 32.8,78.6 32.1,78.5C32.4,78 32.8,77.2 33,76.9C33.4,76 32.9,68.8 32.3,67.8C31.4,66.2 31.3,65.7 31.4,65.5C31.5,65 30.9,61.1 30.4,58.1C30.5,58.2 30.7,58.3 30.8,58.4C32.2,59.3 33.6,59.7 35,59.7C35.3,59.7 35.7,59.7 36,59.6C36.1,60 36.2,60.5 36.3,61C36.4,61.4 36.4,61.8 36.5,62.1C36.5,62.2 36.4,62.2 36.4,62.3C36.2,62.6 36.1,63 36,63.5ZM86.4,75.1L85.8,75.7L85.7,75.8L84.4,77.5C83.4,78 82.1,77.7 81.3,77.5L81.2,77.5C81.4,77.3 81.6,77 81.8,76.8L81.9,76.7C82.1,76.4 85.7,69.2 85.3,66C84.9,63.4 83,58.5 82.3,57L82.6,56.8C83.6,56.3 84.8,56.7 85.4,57.6C86,58.6 86.5,59.8 87,61C87.8,63.2 88.2,64.7 88.6,66.1L88.6,66.2C88.7,66.7 88.9,67.3 89,67.8L86.4,75.1ZM96.4,63.4C94.7,68.1 93.8,73.7 93.6,76C93.5,77.5 92.7,77.7 92.7,77.7C92.5,77.7 92.3,77.9 92.2,78.2C92,79.6 92,80.7 92.1,81.4L92.1,81.5L90.2,81.9C88.4,82.1 87.3,81.5 86.8,81.2L87.9,79.5C88.8,78.8 89.5,77.1 90.1,74.3C90.5,72.2 90.6,70.1 90.2,68C90.1,67.4 90,66.7 89.8,66.1L89.8,66C89.4,64.6 89,63.1 88.2,60.8C87.7,59.5 87.2,58.2 86.5,57.2C85.6,55.8 83.8,55.2 82.3,56L75.6,59.4C68.8,62.8 60.6,61.1 55.7,60.1C54.5,59.8 53.6,59.7 52.8,59.6C50,59 46.4,59 44.9,59C45.1,58.1 45.5,57.2 45.9,56.3C46.3,55.5 46.5,54.9 46.7,54.3C46.8,54 46.6,53.7 46.3,53.6C46,53.5 45.7,53.7 45.6,54C45.4,54.5 45.2,55.1 44.8,55.9C44.3,57 43.9,58.2 43.6,59.4C43.6,59.4 43.6,59.5 43.6,59.6C43.5,60.3 43.3,60.9 43.3,61.6C43,64.3 42.6,67.9 42.1,69.6C41.7,71 41.6,74 41.6,76.7L41.6,77.2C41.6,77.5 41.7,77.9 41.8,78.2C42,78.9 41.9,79.5 41.4,80L41.3,80.1C41.2,80.2 41.2,80.3 41.1,80.4L40.8,81.8C39.2,82.2 37.6,81.9 36.7,81.6L38.3,78.9C38.3,78.8 38.4,78.8 38.4,78.7C39.4,74.5 38.4,70 38.4,69.8C38.4,69.7 38.4,69.7 38.3,69.6C37.8,68.7 37.8,67.7 37.7,66.1C37.6,64.8 37.6,63.1 37.2,60.9C37.1,60.2 36.9,59.5 36.8,58.9C35.8,55.2 34.2,53.4 34.1,53.3C33.9,53.1 33.5,53.1 33.3,53.3C33.1,53.5 33.1,53.9 33.3,54.1C33.3,54.1 34.7,55.6 35.6,58.7C34.2,58.9 32.7,58.5 31.3,57.6C29.4,56.4 27.9,54.4 27.5,52.5C26.8,49 26.2,48 26,47.8L24,44.7C25.6,42.3 26.1,40.3 26.1,34.5C27,34.5 28.4,34.5 28.9,34.6C29.1,34.6 29.2,34.7 29.4,34.8C29.8,35 30.3,35.2 31.1,35.2C31.6,35.2 32.1,35.1 32.8,34.9C33.8,34.6 34.8,34 35.5,33C36.2,32.1 36.1,30.9 35.3,30.1C34.5,29.2 33,28.2 31,28.4C29.9,28.5 28.9,28.7 28.1,28.8C29.2,27.8 30.1,26.9 30.6,25.9C35.7,22.5 40.5,23.3 44.4,23.8C45.2,23.9 46.1,24.1 46.8,24.1C48.9,24.3 51.2,24.4 54.1,24.4C57.2,24.5 61.1,24.5 66.1,24.8C69.7,25 73.5,25 77.2,24.9C83.1,24.8 88.8,24.7 92.3,25.9L92.4,25.9C92.4,25.9 97.3,26.9 97.5,30.6C97.6,32.6 98,39.8 96.9,50.9C96.9,51 96.8,54 97.7,55.6C98.1,56.3 97.1,58.1 96.1,59.5C95.7,58.4 95.3,57.1 95,55.6C95.3,54.7 96.6,50 96.6,48C96.6,46 96.5,37.4 96.5,37.4C96.5,37.2 96.3,37 96.2,36.9C96,36.8 95.8,36.8 95.7,36.9C95.5,37 95.4,37.2 95.4,37.3C95.2,40.6 94.7,44 94.2,47C94.1,47.7 94,48.5 93.9,49.1C93.1,54.9 94.7,58.9 95.7,61.3C96.1,62.3 96.4,63.2 96.4,63.4ZM94.9,52.4C94.9,51.5 95,50.5 95.1,49.4C95.2,48.7 95.3,48 95.4,47.3C95.5,46.8 95.6,46.2 95.6,45.7C95.6,46.7 95.6,47.6 95.6,48.1C95.6,49.1 95.3,50.9 94.9,52.4Z" style="fill:white;fill-rule:nonzero;"/>
        <path d="M12.6,33.5C11.5,33.2 10.8,34.1 10.8,34.1C10.7,34.2 10.7,34.3 10.8,34.4C10.8,34.5 11.4,35.7 12.3,35.8L12.4,35.8C12.9,35.8 13.4,35.5 13.8,34.9C13.9,34.8 13.9,34.7 13.8,34.7C13.9,34.6 13.7,33.8 12.6,33.5Z" style="fill:white;fill-rule:nonzero;"/>
        <path d="M22.7,33.8C21.7,34.1 21.4,35 21.4,35C21.4,35.1 21.4,35.2 21.4,35.2C21.8,35.8 22.3,36.1 22.8,36.1L22.9,36.1C23.9,36 24.4,34.7 24.4,34.7C24.4,34.6 24.4,34.5 24.4,34.4C24.5,34.3 23.8,33.5 22.7,33.8Z" style="fill:white;fill-rule:nonzero;"/>
    </g>
</svg>
