<?xml version="1.0" encoding="UTF-8" standalone="no"?>
<!DOCTYPE svg PUBLIC "-//W3C//DTD SVG 1.1//EN" "http://www.w3.org/Graphics/SVG/1.1/DTD/svg11.dtd">
<svg width="100%" height="100%" viewBox="0 0 98 72" version="1.1" xmlns="http://www.w3.org/2000/svg" xmlns:xlink="http://www.w3.org/1999/xlink" xml:space="preserve" style="fill-rule:evenodd;clip-rule:evenodd;stroke-linejoin:round;stroke-miterlimit:1.41421;">
    <g transform="matrix(1,0,0,1,-1,-14.5967)">
        <path d="M98.3,64L98.2,63.9C97.9,63.2 97.9,60.3 98,58.7C98.5,55 98.2,47.5 98,44.7L98,44.1C97.8,40.4 96.2,38.2 95.7,37.6C93.1,31.6 87.3,24.1 82.6,22.7C78.8,21.5 74.1,21.4 69.9,21.3C67.3,21.2 65,21.2 63.5,20.8C59.7,20 56.6,18.3 56.6,18.3C56.4,18.2 53,16.4 50.1,16.3C48.9,15.3 47.5,14.6 46,14.6C41.7,14.5 35.3,16.7 34.2,17.1C30.8,16.4 28.6,16.7 27.1,17C26.7,17.1 26.3,17.1 25.9,17.2C24.2,17.3 20,22.1 18.8,23.6C18.6,23.9 14.3,30.3 13.2,35C12.9,36.5 12.3,37.4 11.7,38.4C10.7,40.1 9.7,41.9 9.8,46.3C8.5,46.6 4.2,47.5 1.7,46.2L1.6,46.2L1.5,46.2L1.4,46.2L1.3,46.2L1.2,46.2C1.2,46.2 1.1,46.2 1.1,46.3C1.1,46.3 1.1,46.4 1,46.4L1,46.9C1.1,47.1 2.6,50.5 7.7,50.5C8.4,50.5 9.1,50.4 9.8,50.3C10.5,55 13.2,65.4 22.5,65.5C24,65.5 25.5,64.8 26.6,63.6C27.6,62.5 28.7,60.5 28.5,57C28.4,55.9 27.7,55 26.7,54.7C25.9,54.4 25.3,54.4 24.7,54.6C24,54.8 23.9,55.7 23.9,56.4C23.9,57.1 23.8,57.8 23.4,58.2C23.1,58.4 22.7,58.5 22.1,58.4C21.8,58.4 21.6,58.2 21.3,57.9C19.9,56.2 19.5,51.1 20,47.6C20.5,47.2 21.9,46.2 23,45.6C24,45.7 25.1,45.3 26.4,44.5C26.5,44.4 26.6,44.4 26.7,44.3C27.5,44 30.6,42.8 33,41.7C32.9,44 33.2,46.1 33.9,47.6C34.5,49.5 35.1,51 35.2,51.1C35.2,51.1 35.4,51.6 36.4,53.3C36.8,54.1 37.5,55.3 38.2,56.4C37.5,57.6 32.8,65.3 33.1,68.4C33.3,70.4 34.1,71.6 34.9,72.9C35.4,73.8 36,74.6 36.2,75.5C36.5,76.6 36.2,77.7 35.8,78.6C35.5,79.6 35.1,80.6 35.9,81.2C35.9,81.2 36,81.3 36.1,81.3L38.8,82.3C38.5,83.3 38.9,84 39.2,84.3C39.9,85 41.1,85.4 42.6,85.5L42.7,85.5C43.3,85.6 43.8,85.6 44.4,85.6C47.6,85.6 51,84.9 51.1,84.9C52.3,84.7 52.8,84 53,83.5C53.8,81.8 52.4,79.1 52,78.5C52,77.4 52.2,70.9 52,69C51.8,67.3 52.4,61.3 52.5,60.3C52.5,60.3 52.5,60.2 52.6,60.2L57.8,62.7L57.9,62.7C63,64.1 67.2,64.5 70.5,64.6C70.7,65.6 71.2,68.4 70.7,70.7C70.1,73.3 68.4,76.7 68,77.4C67.5,77.7 66.3,78.6 66.5,79.9C66.7,81.2 68.4,81.2 70.5,81.2L73.5,81.2C74.5,81.2 75.2,80.9 75.7,80.3C76.5,79.4 76.4,78.1 76.4,77.7C77.2,75 79.2,68.7 80.1,66.4C80.2,66.5 80.3,66.6 80.4,66.8C82.4,69 84.7,71.6 85.5,76.4C85.7,77.3 85.2,77.9 84.3,78.8C83.7,79.4 83,80.1 82.6,81.2C82.5,81.5 82.4,81.8 82.3,82.2C82.2,82.9 82.3,83.4 82.8,83.9C83.4,84.5 84.4,84.8 85.7,84.9C86,84.9 86.4,84.9 86.8,84.9C88.4,84.9 90.2,84.7 92,84.5L92.5,84.4C93.4,84.3 94.1,83.9 94.5,83.2C95.4,81.7 94.8,79.4 94.6,78.9C94.7,77.1 94.4,74.7 94,72.3C93.5,68.5 93,64.7 93.7,61.9C94.6,58.7 95,54.9 95.2,52C95.2,53 95.2,53.9 95.2,54.7C95.2,58.8 95.7,63.4 95.8,64.2C94,68.3 95.6,71.3 96.2,72.2C96.3,72.5 96.6,72.6 96.8,72.6C97,72.6 97.2,72.5 97.3,72.3C97.4,72.1 97.4,71.9 97.3,71.8C97.3,71.6 97.4,71.1 98.1,69.7C99.6,66.8 98.8,65.1 98.3,64ZM3,47.7C3.7,47.8 4.5,47.9 5.3,47.9C7.9,47.9 10.4,47.2 10.6,47.2C13.8,46.2 16,44.6 17,43.9C17.2,43.8 17.4,43.6 17.4,43.6C18.6,43.1 19.5,43.6 20.1,44.1L20.2,44.1C20,44.3 19.8,44.5 19.6,44.7C19.5,44.7 19.4,44.8 19.3,44.9C16.8,46.9 13.9,47.9 13.8,48C13.2,48.2 12.6,48.4 12,48.6L12.1,49.1L12,48.6C11.5,48.8 11,48.9 10.5,49C6.3,49.9 4.1,48.7 3,47.7ZM20.3,45.6C20.6,45.4 20.9,45.1 21.1,44.8C21.3,44.9 21.5,45 21.8,45.1C21.3,45.4 20.7,45.8 20.3,46.1L20.3,45.6ZM20.7,58.4C21.1,59 21.6,59.3 22.2,59.3C23.1,59.4 23.8,59.2 24.2,58.8C25,58.2 25,57.1 25.1,56.3C25.1,56 25.2,55.5 25.2,55.4C25.5,55.3 25.9,55.4 26.5,55.5C27.1,55.7 27.5,56.3 27.6,56.9C27.8,59.4 27.2,61.4 26,62.7C24.9,63.9 23.6,64.3 22.6,64.3C14.8,64.2 12.1,56 11.1,51.2C11.1,51.1 11.1,51.1 11.1,51L10.9,50C11.3,49.9 11.8,49.8 12.3,49.7L12.4,49.7C13,49.5 13.6,49.3 14.2,49.1C14.3,49.1 16.8,48.2 19.2,46.5L19.2,47.3C18.7,50.5 19,56.3 20.7,58.4ZM33.3,40.4C31.6,41.2 29.3,42.2 27.8,42.8C28.6,40.8 28.7,38.5 28.7,38.4C28.7,38.1 28.5,37.9 28.2,37.8C27.9,37.8 27.7,38 27.6,38.3C27.6,38.3 27.4,41.5 26.2,43.3C26.1,43.3 26,43.4 26,43.4C24.4,44.4 23.6,44.4 23.1,44.4C21.8,44.2 21,43.5 20.8,43.3C19.7,42.3 18.3,42 17,42.6C16.9,42.7 16.7,42.8 16.4,43C15.5,43.6 13.6,44.9 10.9,45.9C10.8,42 11.7,40.4 12.7,38.8C13.3,37.8 13.9,36.7 14.3,35.1C15.3,30.8 19.4,24.5 19.7,24.1C22.1,21.2 25.2,18.1 26,18.1C26.4,18.1 26.8,18 27.3,17.9C28.8,17.7 30.9,17.3 34.2,18.1C34.3,18.1 34.4,18.1 34.5,18.1C34.6,18.1 41.6,15.5 46.1,15.6C47.4,15.6 48.6,16.3 49.6,17.2C51.9,19.2 53.3,22.3 53.4,22.4C55.2,26.2 55.4,30.8 54,34.6C53,37.4 51.2,39.6 48.9,40.6C46.1,41.9 43.7,43.9 41.5,45.6C39.5,47.2 37.5,48.8 36.6,48.6C36.2,48.5 35.8,48.1 35.4,47.6C34.3,45.8 33.8,41.7 35.1,36.7C36.8,30.1 37.2,26.7 37.2,26.6C37.2,26.3 37,26 36.7,26L36.6,26C36.3,26 36.1,26.2 36.1,26.5C36.1,26.6 35.7,30 34,36.5C33.6,37.7 33.4,39.1 33.3,40.4ZM36,72.1C35.2,70.9 34.5,69.8 34.3,68.1C34.1,65.8 37.3,60 38.9,57.3C39.3,58 39.6,58.6 39.7,58.8C39.9,62.1 40.4,63.8 40.8,65.3L40,66.6C40,66.6 40,66.7 39.9,66.7C39.4,68.1 40.4,70.2 41.4,72.5C42.1,74 42.9,75.5 43.1,76.8C43.1,77.1 43.1,77.5 43.1,77.8C43,79 41.8,79.6 40.9,80C40.2,80.3 39.7,80.7 39.3,81.3L39,81C39.2,79.7 38.2,78.6 37.4,78C37.7,77.2 37.8,76.2 37.5,75.1C37.2,73.9 36.6,73 36,72.1ZM41,67.1L41.3,66.6C41.4,66.9 41.5,67.2 41.5,67.6C41.8,69.1 42.1,70.5 42.4,71.7C41.6,69.9 40.7,68.1 41,67.1ZM37,79.1C37.4,79.4 37.9,80 37.9,80.6L36.8,80.2C36.7,80 36.8,79.7 37,79.1ZM40.1,82.4C40.5,82.4 41,82.5 41.5,82.9C41.9,83.2 42.1,83.7 42.3,84.3C41.4,84.2 40.6,83.9 40.3,83.5C40.1,83.3 39.9,83 40.1,82.4ZM43.7,84.4C44.1,83.8 45,82.8 46.1,82.9C47.1,83 47.6,83.7 47.9,84.2C46.4,84.5 44.9,84.5 43.7,84.4ZM67.6,79.7C67.6,79.5 67.6,79.4 67.7,79.2C68.3,79.3 69.3,79.5 69.7,79.9L69.8,80C68.7,80.1 67.7,80.1 67.6,79.7ZM75.4,77.6C75.4,77.7 75.4,77.8 75.4,77.8C75.4,77.8 75.6,79 75,79.6C74.7,80 74.1,80.1 73.3,80.1C72.4,80 71.6,80 70.8,80.1C70.7,79.8 70.6,79.6 70.4,79.3C69.9,78.7 69.1,78.5 68.5,78.3C68.6,78.2 68.7,78.2 68.7,78.2C68.8,78.2 68.9,78.1 68.9,78C69,77.8 71.1,74 71.8,70.9C72.4,68.5 71.9,65.8 71.7,64.6C75.1,64.6 77.3,64.1 78.2,63.9C78.6,64.5 79,65 79.4,65.6C78.4,67.9 75.6,77.2 75.4,77.6ZM83.5,82.3C83.5,82.2 83.6,82 83.6,81.9C84.1,82 85,82.4 85.2,83.7C84.5,83.6 83.9,83.4 83.6,83.1C83.6,83 83.5,82.8 83.5,82.3ZM86.5,83.8C86.7,83.2 87.4,82 88.6,82.3C89.7,82.5 90.1,83.2 90.2,83.6C89,83.7 87.7,83.8 86.5,83.8ZM97.3,69.1C97.1,69.6 96.9,70 96.7,70.3C96.2,69 95.9,66.9 97,64.4C97,64.3 97.1,64.2 97,64.1C97,64 96.4,59 96.4,54.6C96.4,51.9 96.4,48.3 96,45.7C96,45.5 95.8,45.3 95.5,45.3C95.3,45.3 95,45.5 95,45.7C94.6,47 94.4,48.1 94.4,48.9C94.4,51.5 94.1,57.1 92.8,61.6C92,64.6 92.5,68.6 93,72.4C93.3,74.9 93.6,77.2 93.5,78.9C93.5,79 93.5,79 93.5,79.1C93.7,79.7 94.2,81.6 93.6,82.6C93.4,83 93,83.2 92.4,83.3L92,83.4C91.8,83.4 91.5,83.5 91.3,83.5C91.1,82.7 90.4,81.6 88.8,81.3C87.4,81 86.5,81.7 85.9,82.6C85.4,81.7 84.7,81.2 84,81C84.3,80.4 84.8,80 85.2,79.5C86.1,78.6 86.9,77.7 86.7,76.2C85.8,71.1 83.3,68.3 81.3,66.1C80.4,65.1 79.5,64.1 78.9,63C78.8,62.8 78.5,62.7 78.3,62.8C78.2,62.8 70.9,65.1 58.4,61.7L53.3,59.2C55.4,54.6 54.8,48 54.8,47.7C54.8,47.4 54.5,47.2 54.2,47.2C53.9,47.2 53.7,47.5 53.7,47.8C53.7,47.9 54.4,55.5 51.7,59.7C51.7,59.8 51.6,59.8 51.6,59.9C51.6,60.2 50.8,66.9 51.1,69C51.4,70.9 51.1,78.4 51.1,78.5C51.1,78.6 51.1,78.7 51.2,78.8C51.7,79.6 52.8,81.8 52.3,83C52.1,83.4 51.8,83.7 51.2,83.8C50.5,83.9 49.7,84.1 48.9,84.2C48.6,83.6 47.9,82.2 46.2,81.9C44.9,81.7 43.8,82.6 43.2,83.4C43,82.9 42.7,82.4 42.3,82.1C41.8,81.7 41.3,81.5 40.9,81.4C41.1,81.2 41.4,81 41.7,80.9C42.4,80.6 44.4,79.7 44.5,77.8C44.6,76.1 44.2,74.1 43.6,71.6C43.3,70.4 43,69 42.7,67.5C42.5,66.7 42.3,66 42.1,65.2C41.6,63.4 40.9,61.3 40.9,56.4L40.9,56.3C40.9,56.3 40.6,54.1 40.2,51.7C40.2,51.4 39.9,51.2 39.6,51.3C39.3,51.3 39.1,51.6 39.2,51.9C39.6,54.2 39.8,56.2 39.9,56.5L39.9,56.6C39.2,55.3 38.2,53.7 37.7,52.7C36.8,51.1 36.5,50.6 36.5,50.6C36.5,50.6 36.3,50.2 36.1,49.5C36.2,49.5 36.3,49.6 36.4,49.6C36.5,49.6 36.7,49.6 36.8,49.6C38.2,49.6 39.9,48.2 42.2,46.4C44.3,44.7 46.8,42.7 49.4,41.5C51.9,40.3 53.9,38 55,34.9C56.5,30.8 56.3,25.9 54.4,21.9C54.3,21.7 53.3,19.4 51.5,17.5C53.8,17.9 56.2,19.2 56.3,19.2C56.4,19.3 59.6,21 63.5,21.8C65.1,22.1 67.4,22.2 70,22.3C74.1,22.4 78.8,22.6 82.5,23.7C86.9,25.1 92.5,32.3 95,38.1C95,38.2 95.1,38.2 95.1,38.2C95.3,38.4 97,40.4 97.2,44.1L97.2,44.7C97.3,47.5 97.7,55 97.2,58.6C97.2,59.4 97,63.2 97.5,64.3L97.6,64.4C97.8,65.4 98.4,66.8 97.3,69.1Z" style="fill:white;fill-rule:nonzero;"/>
        <path d="M24.4,30.8C24.3,30.8 23.1,30.9 22.2,31.4C21.5,31.7 21.2,32 21.2,32.3C21.2,32.4 21.2,32.4 21.3,32.5C21.8,33.1 22.3,33.4 22.8,33.4C22.9,33.4 23,33.4 23.1,33.4C24.2,33.2 24.8,31.3 24.8,31.3C24.8,31.2 24.8,31.1 24.7,31.1C24.5,30.9 24.4,30.8 24.4,30.8Z" style="fill:white;fill-rule:nonzero;"/>
    </g>
</svg>
