<?xml version="1.0" encoding="UTF-8" standalone="no"?>
<!DOCTYPE svg PUBLIC "-//W3C//DTD SVG 1.1//EN" "http://www.w3.org/Graphics/SVG/1.1/DTD/svg11.dtd">
<svg width="100%" height="100%" viewBox="0 0 73 101" version="1.1" xmlns="http://www.w3.org/2000/svg" xmlns:xlink="http://www.w3.org/1999/xlink" xml:space="preserve" style="fill-rule:evenodd;clip-rule:evenodd;stroke-linejoin:round;stroke-miterlimit:1.41421;">
    <g transform="matrix(1,0,0,1,-13.6925,-0.000267068)">
        <path d="M79.392,9.91C78.867,9.671 78.914,9.29 77.96,8.908C77.006,8.526 76.241,9.147 76.098,9.409C75.955,9.671 76.288,10.101 77.291,10.196C78.293,10.292 78.293,10.292 78.771,10.196C79.44,10.062 79.392,9.91 79.392,9.91Z" style="fill:white;fill-rule:nonzero;"/>
        <path d="M69.797,11.771C68.958,12.195 68.51,12.535 68.939,13.203C69.368,13.871 70.18,14.444 70.658,14.301C71.136,14.158 71.47,13.489 70.944,12.822C70.419,12.153 70.265,11.535 69.797,11.771Z" style="fill:white;fill-rule:nonzero;"/>
        <path d="M68.271,14.969C68.367,15.16 69.082,16.21 69.512,16.592C69.942,16.974 70.09,15.972 69.991,15.446C69.893,14.922 69.085,14.539 68.773,14.587C68.461,14.635 68.271,14.969 68.271,14.969Z" style="fill:white;fill-rule:nonzero;"/>
        <path d="M67.315,16.21C66.504,16.449 65.454,16.926 65.693,17.403C65.931,17.88 66.981,18.405 67.65,18.931C68.318,19.455 68.461,19.169 68.938,18.931C69.416,18.692 69.416,18.414 68.938,17.718C68.461,17.021 67.315,16.21 67.315,16.21Z" style="fill:white;fill-rule:nonzero;"/>
        <path d="M64.404,17.719C63.879,18.168 62.161,20.899 62.161,21.634C62.161,22.368 63.211,23.243 63.832,23.188C64.452,23.132 65.454,20.145 65.265,19.228C65.072,18.311 64.404,17.719 64.404,17.719Z" style="fill:white;fill-rule:nonzero;"/>
        <path d="M67.173,12.106C66.409,12.918 65.181,15.05 65.658,15.63C66.136,16.211 66.799,15.976 67.276,15.116C67.754,14.257 68.032,13.794 67.888,13.021C67.745,12.249 67.173,12.106 67.173,12.106Z" style="fill:white;fill-rule:nonzero;"/>
        <path d="M61.445,23.189C60.872,23.751 60.156,24.61 59.918,25.279C59.679,25.946 59.488,27.256 60.252,27.842C61.017,28.428 61.779,26.519 62.543,25.946C63.307,25.373 63.116,23.751 62.543,23.512C61.971,23.275 61.445,23.189 61.445,23.189Z" style="fill:white;fill-rule:nonzero;"/>
        <path d="M58.047,28.62C57.436,29.527 57.34,29.67 57.149,30.577C56.96,31.483 56.338,31.96 56.672,32.199C57.007,32.438 57.913,32.676 58.486,32.199C59.058,31.722 59.488,30.474 59.298,29.738C59.105,29.001 58.047,28.62 58.047,28.62Z" style="fill:white;fill-rule:nonzero;"/>
        <path d="M60.729,29.738C60.251,30.195 60.021,31.149 59.707,31.817C59.393,32.486 59.202,33.106 59.918,33.345C60.634,33.583 61.949,34.013 62.15,34.109C62.351,34.204 62.064,32.745 62.351,31.923C62.637,31.101 62.734,30.242 62.351,30.099C61.971,29.956 60.729,29.738 60.729,29.738Z" style="fill:white;fill-rule:nonzero;"/>
        <path d="M57.723,43.941C57.292,44.779 56.959,45.802 56.291,46.233C55.622,46.662 55.81,47.044 56.575,47.665C57.34,48.285 57.609,49.192 58.047,49.24C58.486,49.287 58.581,48.381 58.773,47.761C58.963,47.14 59.346,46.138 59.106,45.565C58.867,44.991 58.082,43.24 57.723,43.941Z" style="fill:white;fill-rule:nonzero;"/>
        <path d="M57.532,34.113C57.358,34.613 56.815,36.638 56.862,37.449C56.91,38.261 57.242,38.408 57.96,38.573C58.677,38.739 59.4,38.69 59.707,38.023C60.014,37.355 60.204,36.018 60.301,35.445C60.395,34.872 59.727,34.356 58.963,34.113C58.2,33.871 57.746,33.498 57.532,34.113Z" style="fill:white;fill-rule:nonzero;"/>
        <path d="M54.954,39.693C53.665,39.502 53.14,39.14 52.949,39.988C52.759,40.839 53.139,41.841 53.187,42.748C53.236,43.655 53.091,44.895 53.569,45.277C54.047,45.659 54.715,45.945 55.383,45.277C56.052,44.609 56.57,42.996 56.859,42.18C57.148,41.364 57.29,40.284 56.575,39.988C55.86,39.693 54.954,39.693 54.954,39.693Z" style="fill:white;fill-rule:nonzero;"/>
        <path d="M50.133,40.791C50.072,40.806 50.012,40.82 49.954,40.834C49.035,41.056 48.308,41.288 48.129,42.18C47.938,43.129 47.89,44.132 48.129,44.8C48.368,45.468 48.653,46.309 49.752,46.509C50.849,46.71 51.518,46.376 51.946,45.994C52.377,45.612 52.377,44.944 52.234,44.036C52.089,43.129 51.66,41.555 51.422,41.221C51.184,40.886 50.133,40.791 50.133,40.791Z" style="fill:white;fill-rule:nonzero;"/>
        <path d="M55.192,33.167C54.383,33.582 54.286,34.49 53.569,34.633C52.853,34.776 52.949,35.445 53.284,35.969C53.616,36.495 54.286,37.621 54.524,37.773C54.762,37.926 55.47,37.715 55.88,37.773C56.29,37.831 55.852,36.506 55.88,35.498C55.908,34.491 56.004,32.75 55.192,33.167Z" style="fill:white;fill-rule:nonzero;"/>
        <path d="M51.422,35.855C50.754,36.161 49.895,36.733 49.656,36.829C49.418,36.924 49.847,38.69 50.538,39.215C51.231,39.74 52.042,39.028 52.568,38.572C53.091,38.117 53.045,37.448 52.568,36.924C52.09,36.4 51.422,35.855 51.422,35.855Z" style="fill:white;fill-rule:nonzero;"/>
        <path d="M47.699,37.774C47.168,38.031 46.459,40.218 46.124,40.552C45.79,40.886 46.458,41.507 46.912,41.555C47.366,41.602 47.986,40.552 48.511,40.266C49.036,39.979 49.561,40.016 49.322,39.4C49.083,38.786 48.606,37.334 47.699,37.774Z" style="fill:white;fill-rule:nonzero;"/>
        <path d="M45.265,41.556C45.503,42.128 46.601,41.952 46.888,42.565C47.174,43.178 46.744,45.268 46.888,45.678C47.03,46.088 45.169,45.468 44.501,45.134C43.833,44.8 43.117,44.374 43.594,43.68C44.072,42.986 45.265,41.556 45.265,41.556Z" style="fill:white;fill-rule:nonzero;"/>
        <path d="M41.256,46.569C41.733,46.423 44.931,46.405 45.695,46.509C46.459,46.614 45.456,48.189 44.883,48.953C44.31,49.717 44.525,50.225 43.439,49.972C42.353,49.717 41.064,49.669 40.874,48.858C40.683,48.045 41.256,46.569 41.256,46.569Z" style="fill:white;fill-rule:nonzero;"/>
        <path d="M39.299,45.678C38.456,45.476 37.581,46.471 37.199,47.091C36.817,47.711 36.149,48.67 37.199,49.24C38.249,49.811 39.203,49.334 39.634,48.57C40.062,47.807 40.969,46.079 39.299,45.678Z" style="fill:white;fill-rule:nonzero;"/>
        <path d="M31,47.091C31,47.374 30.425,48.904 31.235,49.24C32.047,49.576 35.076,48.904 35.649,48.857C36.222,48.809 34.613,47.425 33.802,46.948C32.991,46.471 33,46.757 31,46.948L31,47.091Z" style="fill:white;fill-rule:nonzero;"/>
        <path d="M34.765,45.814C34.313,45.897 35.767,47.814 36.197,47.571C36.627,47.329 37.486,45.229 38.058,44.943C38.631,44.657 35.48,45.682 34.765,45.814Z" style="fill:white;fill-rule:nonzero;"/>
        <path d="M47.967,47.043C46.791,47.33 46.771,48.887 45.97,49.492C45.169,50.098 45.134,51.054 45.437,51.673C45.741,52.294 45.91,53.01 46.614,52.341C47.317,51.673 48.128,51.292 48.891,51.244C49.655,51.196 50.276,51.434 50.562,50.862C50.848,50.289 50.706,48.721 50.562,48.24C50.419,47.76 49.704,47.665 49.035,47.593C48.368,47.521 47.967,47.043 47.967,47.043Z" style="fill:white;fill-rule:nonzero;"/>
        <path d="M53.028,47.043C52.377,47.281 51.803,47.384 51.803,48.24C51.803,49.095 51.851,50.385 51.803,51.147C51.755,51.912 51.915,52.101 53.028,51.816C54.142,51.53 55.346,50.909 56.057,50.623C56.768,50.336 57.432,50.149 56.575,49.24C55.718,48.331 54.801,47.663 54.543,47.281C54.286,46.9 53.549,46.855 53.028,47.043Z" style="fill:white;fill-rule:nonzero;"/>
        <path d="M57.532,51.388C56.724,51.597 54.524,52.306 53.522,52.61C52.52,52.915 52.585,53.583 53.028,54.156C53.475,54.729 53.702,55.731 54.543,55.302C55.384,54.871 56.47,54.163 57.096,53.396C57.723,52.628 57.898,51.292 57.532,51.388Z" style="fill:white;fill-rule:nonzero;"/>
        <path d="M51.136,53.394C51.518,53.916 52.398,54.729 52.721,55.206C53.045,55.684 53.074,55.97 52.32,56.399C51.566,56.828 50.993,57.545 50.421,57.211C49.848,56.876 49.275,56.16 49.037,55.874C48.799,55.588 49.037,54.968 49.609,54.633C50.182,54.299 51.136,53.394 51.136,53.394Z" style="fill:white;fill-rule:nonzero;"/>
        <path d="M45.261,53.104C46.028,53.201 48.32,53.057 48.558,52.866C48.796,52.675 48.529,54.489 47.995,54.967C47.461,55.445 46.868,56.159 45.971,56.065C45.074,55.969 44.597,54.915 44.884,54.462C45.169,54.013 45.261,53.104 45.261,53.104Z" style="fill:white;fill-rule:nonzero;"/>
        <path d="M42.974,51.054C42.974,51.054 40.827,53.058 40.835,53.678C40.844,54.299 42.067,54.346 42.974,54.462C43.881,54.579 44.31,53.058 44.263,52.609C44.216,52.16 42.974,51.054 42.974,51.054Z" style="fill:white;fill-rule:nonzero;"/>
        <path d="M40.267,49.492C39.203,49.859 38.837,50.099 38.885,50.78C38.933,51.463 39.852,52.485 40.267,52.341C40.683,52.198 41.829,51.435 41.733,51.054C41.638,50.671 40.267,49.492 40.267,49.492Z" style="fill:white;fill-rule:nonzero;"/>
        <path d="M34.097,50C32.283,50.242 30.994,50.46 31.233,50.923C31.472,51.387 31.758,52.6 32.331,52.852C32.904,53.104 33.428,53.538 34.097,53.393C34.765,53.247 33.619,51.004 34.097,50.718C34.574,50.432 34.097,50 34.097,50Z" style="fill:white;fill-rule:nonzero;"/>
        <path d="M35.872,49.827C35.48,50.05 35.003,50.518 35.099,51.382C35.194,52.246 35.453,53.487 35.872,53.63C36.291,53.774 36.037,52.655 36.403,52.356C36.77,52.056 37.055,50.91 37.199,50.624C37.342,50.336 35.872,49.827 35.872,49.827Z" style="fill:white;fill-rule:nonzero;"/>
        <path d="M37.867,51.382C37.676,51.863 36.931,53.131 37.208,53.642C37.485,54.156 37.48,55.063 38.127,54.967C38.774,54.871 39.442,54.133 39.442,53.642C39.442,53.152 37.867,51.382 37.867,51.382Z" style="fill:white;fill-rule:nonzero;"/>
        <path d="M40.722,55.404C40.18,55.455 39.713,56.542 38.807,56.636C37.9,56.732 38.091,57.305 38.425,57.544C38.759,57.782 40.346,57.829 41.533,57.733C42.72,57.637 43.15,56.796 43.006,56.072C42.864,55.348 42.159,55.27 40.722,55.404Z" style="fill:white;fill-rule:nonzero;"/>
        <path d="M34.311,54.47C33.046,54.49 32.951,54.22 32.044,55.405C31.137,56.59 31.224,56.668 31.204,57.297C31.184,57.927 31.423,58.262 31.996,58.595C32.569,58.929 33.666,58.829 34.144,57.783C34.621,56.732 34.311,54.47 34.311,54.47Z" style="fill:white;fill-rule:nonzero;"/>
        <path d="M26.794,49.492C26.603,50.003 26.508,50.766 26.603,51.054C26.699,51.34 27.319,51.473 28.178,51.382C29.038,51.292 30.326,51.435 30.374,50.719C30.421,50.003 30.374,48.715 29.658,48.715C28.941,48.714 26.794,49.492 26.794,49.492Z" style="fill:white;fill-rule:nonzero;"/>
        <path d="M25,53.178C25,53.822 25.492,54.647 25.682,54.974C25.873,55.302 27.097,54.346 27.908,53.869C28.72,53.391 28.554,52.704 27.504,52.356C26.454,52.008 26,52.361 25,52.853L25,53.178Z" style="fill:white;fill-rule:nonzero;"/>
        <path d="M29.084,52.609C29.323,53.009 29.943,54.911 30.23,55.343C30.517,55.778 31.184,54.687 31.662,54.469C32.14,54.25 31.901,53.536 31.471,53.177C31.042,52.818 30.517,52.423 30.182,52.214C29.848,52.008 29.084,52.609 29.084,52.609Z" style="fill:white;fill-rule:nonzero;"/>
        <path d="M28.477,54.729C27.319,55.348 26.316,56.083 25.839,56.074C25.362,56.065 24.837,56.954 25.839,57.297C26.841,57.64 30.135,57.449 29.896,56.876C29.658,56.304 28.477,54.729 28.477,54.729Z" style="fill:white;fill-rule:nonzero;"/>
        <path d="M25.268,49.827C23.715,50.285 23.357,50.947 23.119,51.382C22.88,51.817 23.406,52.743 23.501,52.853C23.596,52.963 24.649,51.197 25.269,50.719C25.887,50.242 25.855,49.653 25.268,49.827Z" style="fill:white;fill-rule:nonzero;"/>
        <path d="M25.028,58.261C24.836,58.832 25.796,60.027 26.366,60.361C26.936,60.694 27.556,60.074 27.843,59.835C28.13,59.597 27.323,58.548 26.366,58.262C25.41,57.974 25.028,58.261 25.028,58.261Z" style="fill:white;fill-rule:nonzero;"/>
        <path d="M32.775,59.644C33.489,59.882 32.482,61.363 31.934,61.745C31.386,62.127 30.889,62.192 30.884,61.555C30.877,60.61 31.005,60.235 30.516,60.084C30.027,59.933 29.032,61.029 28.656,60.458C28.291,59.905 29.642,58.134 29.68,58.135C29.679,58.134 32.061,59.405 32.775,59.644Z" style="fill:white;fill-rule:nonzero;"/>
        <path d="M23.548,54.202C23.023,54.68 22.995,56.304 23.057,56.923C23.119,57.545 23.93,57.247 24.216,57.467C24.503,57.688 24.359,56.083 24.503,55.835C24.646,55.587 23.548,54.202 23.548,54.202Z" style="fill:white;fill-rule:nonzero;"/>
        <path d="M24.025,60.169C24.503,60.504 24.983,61.123 25.268,61.171C25.552,61.219 25.456,63.366 25.003,63.224C24.551,63.08 24.025,60.169 24.025,60.169Z" style="fill:white;fill-rule:nonzero;"/>
        <path d="M27.223,61.267C26.602,61.411 26.273,62.221 26.367,62.651C26.46,63.081 27.285,62.413 27.588,62.221C27.892,62.031 27.223,61.267 27.223,61.267Z" style="fill:white;fill-rule:nonzero;"/>
        <path d="M28.655,62.03C28.941,62.22 29.228,62.808 29.466,63.23C29.705,63.653 31.052,63.133 30.617,62.63C30.182,62.125 29.466,61.409 29.371,61.266C29.276,61.123 28.655,62.03 28.655,62.03Z" style="fill:white;fill-rule:nonzero;"/>
        <path d="M27.902,62.793C27.318,63.08 26.746,63.749 27.271,63.939C27.796,64.13 29.228,64.464 28.894,63.939C28.56,63.414 27.902,62.793 27.902,62.793Z" style="fill:white;fill-rule:nonzero;"/>
        <path d="M86.263,16.184C86.16,14.73 84.807,13.309 83.773,12.224C83.155,11.575 82.934,10.838 82.628,9.82C82.502,9.4 82.364,8.944 82.185,8.445C81.693,7.081 80.862,6.509 80.058,5.956C79.825,5.796 79.589,5.635 79.36,5.45C79.438,4.585 79.574,3.301 79.663,3.004C79.71,2.848 79.739,2.686 79.767,2.52C79.826,2.189 79.88,1.877 80.126,1.549C80.308,1.307 80.338,1.023 80.21,0.766C79.89,0.126 78.704,-0.116 77.928,0.052C77.588,0.124 77.36,0.284 77.246,0.527C77.055,0.935 77.293,1.383 77.45,1.68C77.487,1.748 77.527,1.811 77.529,1.797L77.533,1.929C77.566,3.615 77.45,4.213 77.379,4.419C77.249,4.269 77.052,3.884 76.948,3.43C76.901,3.232 76.825,3.014 76.747,2.8C76.663,2.565 76.521,2.172 76.537,2.088C76.777,1.882 76.891,1.561 76.842,1.228C76.776,0.776 76.439,0.387 75.917,0.159C75.176,-0.165 74.171,0.384 73.924,0.918C73.807,1.173 73.832,1.428 73.994,1.617C74.496,2.203 74.899,3.809 74.857,4.446L74.845,4.669C74.843,4.701 74.842,4.73 74.841,4.755C74.829,4.757 74.817,4.759 74.803,4.761L74.537,4.813C74.222,4.88 73.984,5.052 73.775,5.203C73.504,5.398 73.354,5.515 73.081,5.311C72.268,4.701 70.256,3.726 68.976,3.43C68.067,3.22 67.717,3.484 67.607,3.724C67.459,4.044 67.596,4.447 68.026,4.955C68.555,5.58 68.877,5.997 69.376,6.816C69.453,6.941 69.628,7.128 69.814,7.311C69.694,7.356 69.586,7.401 69.519,7.436C69.551,7.568 69.598,7.592 69.659,7.714C69.106,8.029 68.847,8.355 68.181,8.486C68.17,8.567 68.291,8.604 68.267,8.66C67.984,8.817 67.979,8.764 67.929,9.091C67.775,9.133 67.659,9.135 67.513,9.19C67.467,9.307 67.614,9.327 67.599,9.425C67.524,9.478 67.281,9.479 67.18,9.524C67.178,9.675 67.237,9.827 67.227,9.95C66.756,10.033 66.456,10.306 66.353,10.763C66.258,10.779 66.203,10.689 66.084,10.731C66.068,10.747 66.053,10.763 66.037,10.779C66.013,10.883 66.046,10.993 66.019,11.096C65.806,11.307 65.713,11.317 65.587,11.669C65.458,11.678 65.358,11.619 65.225,11.637C65.209,11.653 65.193,11.669 65.177,11.685C65.156,11.851 65.222,11.991 65.208,12.146C65.104,12.537 64.909,12.905 64.455,12.924C64.441,12.944 64.514,13.049 64.495,13.053C64.214,13.365 64.016,13.727 63.696,14.024C64.067,14.848 63.162,14.869 63.251,15.678C62.816,15.936 62.314,16.239 62.296,16.923C62.241,16.966 62.124,16.752 62.025,16.839C61.938,17.382 61.915,17.427 61.356,17.557C61.377,17.778 61.329,18.058 61.39,18.268C61.109,18.542 61.199,18.462 61.019,18.877C60.917,18.898 60.838,18.794 60.739,18.843C60.593,19.111 60.667,19.165 60.45,19.369C60.564,19.92 60.429,20.346 59.922,20.419C60.014,20.655 59.929,21.023 60.007,21.263C59.857,21.252 59.692,21.253 59.543,21.23C59.511,21.656 59.323,21.781 59.385,22.229C59.254,22.26 59.156,22.208 59.021,22.233C59.041,22.607 58.793,22.855 58.766,23.125C58.645,23.122 58.519,23.102 58.399,23.094C58.384,23.11 58.37,23.126 58.353,23.142C58.457,23.415 58.372,23.86 58.48,24.138C57.918,24.39 57.546,24.886 57.522,25.559C57.396,25.597 57.33,25.468 57.205,25.475C57.196,25.655 57.299,25.816 57.286,25.989C57.231,26.071 57.003,25.995 56.967,26.045C56.963,26.236 57.031,26.47 57,26.656C56.907,26.723 56.807,26.565 56.73,26.622C56.91,27.439 56.251,27.445 56.14,28.088C55.614,28.229 55.652,28.156 55.711,28.804C55.678,28.826 55.535,28.803 55.536,28.77C55.523,28.868 55.603,28.978 55.614,29.088C55.304,29.359 55.09,29.526 54.712,29.725C54.711,30.129 54.484,30.452 54.422,30.761C54.31,30.801 54.209,30.728 54.103,30.727C54.093,31.268 53.799,31.552 53.291,31.491C53.248,31.605 53.316,31.746 53.276,31.861C52.398,31.951 51.984,33.13 51.239,33.208C51.134,33.375 51.201,33.354 51.001,33.402C50.969,33.446 50.955,33.658 50.936,33.718C50.824,33.735 50.727,33.648 50.62,33.687C50.392,34.197 49.963,34.495 49.376,34.355C49.33,34.507 49.335,34.657 49.315,34.818C48.665,34.981 48.294,35.568 47.61,35.678C47.339,35.9 47.485,35.997 46.981,35.881C46.724,36.258 46.479,36.441 46.086,36.55C46.033,36.675 46.067,36.802 46.02,36.919C45.98,36.934 45.87,36.859 45.886,36.849C45.729,37.058 45.728,37.062 45.511,37.219C45.421,37.415 45.429,37.763 45.462,38.12C44.938,38.819 44.23,39.815 43.747,40.59C42.542,42.524 39.68,43.236 35.719,44.222C34.107,44.623 32.28,45.078 30.355,45.678C24.142,47.614 22.403,50.03 22.149,50.432C21.199,51.366 20.714,52.824 20.154,54.507C20.04,54.851 19.923,55.203 19.799,55.559C19.324,56.918 19.156,59.033 19.008,60.895C18.926,61.92 18.849,62.89 18.732,63.596C18.444,65.324 17.706,66.86 17.155,67.991L17.134,67.993L17.049,68.204C16.98,68.378 16.811,68.676 16.611,69.033C16.138,69.881 15.491,71.039 15.38,71.829C15.309,72.333 15.335,72.744 15.358,73.106C15.397,73.731 15.423,74.144 14.965,74.768C14.749,75.061 14.551,75.277 14.382,75.459C13.833,76.057 13.534,76.45 13.779,77.568C13.872,77.993 14.006,78.387 14.124,78.736C14.406,79.564 14.551,80.052 14.262,80.456C14.169,80.584 13.887,80.977 14.067,81.328C14.156,81.503 14.338,81.606 14.552,81.606C14.99,81.606 15.539,81.187 15.857,80.61C15.983,80.382 16.136,80.198 16.299,80.005C16.76,79.456 17.282,78.833 17.341,77.074C17.384,75.794 17.6,75.337 17.875,74.759C18.067,74.355 18.285,73.898 18.474,73.118C18.927,71.264 19.183,70.039 18.805,68.733C18.798,68.66 18.782,68.573 18.753,68.527L18.733,68.448C18.761,68.307 18.906,67.75 19.654,65.896C20.622,63.5 21.505,60.484 22.007,57.885C22.138,59.031 22.489,60.783 22.809,62.378C22.953,63.096 23.084,63.752 23.173,64.245C23.521,66.181 23.673,70.207 23.039,72.426C22.801,73.26 22.563,73.831 22.372,74.289C22.03,75.11 21.804,75.653 22.085,76.601C22.441,77.806 23.181,82.609 23.695,86.517C24.072,89.385 23.787,91.025 23.579,92.222C23.529,92.512 23.484,92.772 23.455,93.008C23.326,94.09 23.91,95.172 24.296,95.888C24.383,96.05 24.462,96.196 24.52,96.32C24.781,96.874 24.684,97.626 24.536,97.958C24.454,98.143 24.47,98.343 24.577,98.508C24.675,98.658 24.973,99.117 27.367,99.117C28.856,99.117 30.083,98.632 30.135,98.61C30.257,98.562 30.344,98.455 30.368,98.327C30.391,98.197 30.348,98.066 30.253,97.977C30.246,97.97 29.534,97.303 28.372,95.955C27.451,94.886 27.331,94.021 27.069,92.124C27.016,91.74 26.957,91.318 26.886,90.849C26.479,88.183 26.876,80.037 27.217,78.333C27.286,77.986 27.353,77.699 27.414,77.465C27.833,78.478 28.596,79.847 28.856,80.271C29.162,80.771 30.294,84.369 31.121,86.997C31.652,88.682 32.11,90.137 32.309,90.661C32.53,91.242 32.668,92.053 32.791,92.768C33.001,93.997 33.139,94.706 33.522,95.021C33.64,95.117 33.768,95.216 33.899,95.319C34.324,95.648 34.806,96.023 35.069,96.417C35.271,96.72 35.213,97.604 35.108,98.135C35.071,98.322 35.177,98.507 35.356,98.571C35.389,98.583 36.244,98.884 37.691,98.831L38.134,98.818C39.17,98.789 39.796,98.771 40.054,98.373C40.137,98.246 40.208,98.031 40.053,97.673C40.001,97.59 38.769,95.656 37.921,94.957C37.16,94.33 36.268,92.723 36.243,92.436C36.283,92.112 36.139,91.683 35.956,91.141C35.858,90.849 35.749,90.526 35.661,90.191C35.591,89.925 35.304,89.003 34.929,87.8C34.116,85.192 32.602,80.336 32.571,79.674C32.553,79.283 32.633,78.74 32.726,78.111C32.859,77.211 33.009,76.19 32.953,75.136C32.867,73.545 32.971,72.54 33.309,71.667C33.45,71.304 33.825,70.595 34.222,69.843C34.738,68.864 35.323,67.757 35.647,66.947C35.926,66.248 36.137,65.417 36.307,64.75C36.388,64.429 36.484,64.051 36.557,63.834C36.7,63.853 36.883,63.869 37.082,63.883C37.105,63.887 37.128,63.892 37.151,63.892C37.155,63.892 37.158,63.889 37.161,63.889C37.898,63.937 38.879,63.954 39.44,63.954C39.766,63.954 40.094,63.95 40.411,63.941C41.565,63.908 42.636,63.388 43.672,62.884C44.264,62.596 44.876,62.298 45.478,62.11C46.318,61.845 47.186,61.573 47.67,61.546C47.689,61.744 47.72,62.109 47.761,62.585C47.933,64.562 48.253,68.24 48.469,69.862C48.749,71.962 48.607,74.567 48.423,75.668C48.228,76.839 48.356,79.187 48.819,80.576C49.219,81.779 48.76,89.825 48.375,91.689C47.969,93.648 48.283,94.457 48.701,95.24C48.952,95.712 48.865,96.234 48.744,96.956C48.715,97.126 48.686,97.304 48.66,97.487C48.618,97.774 48.552,98.019 48.495,98.231C48.353,98.757 48.194,99.353 48.845,99.733C49.154,99.915 49.665,100.002 50.406,100.002C51.094,100.002 51.958,99.922 52.777,99.78C53.618,99.635 54.079,99.497 54.266,99.14C54.44,98.81 54.276,98.453 54.156,98.193C54.008,97.87 53.85,97.385 53.684,96.873C53.547,96.448 53.405,96.007 53.253,95.619C53.115,95.263 53.226,94.565 53.321,93.95C53.43,93.261 53.534,92.608 53.4,92.1C53.218,91.41 52.93,88.036 52.791,86.415C52.752,85.954 52.721,85.588 52.701,85.383C52.66,84.953 52.684,84.354 52.712,83.719C52.746,82.909 52.781,82.073 52.7,81.342C52.607,80.505 52.828,79.939 53.084,79.283C53.19,79.01 53.301,78.727 53.396,78.412C53.616,77.69 53.46,76.328 53.294,74.885C53.186,73.95 53.084,73.067 53.104,72.466C53.129,71.649 53.294,70.197 53.532,68.767C53.64,70.721 53.633,72.874 53.505,73.633C53.31,74.805 53.439,77.154 53.901,78.541C54.301,79.743 53.842,87.789 53.458,89.655C53.106,91.353 53.605,92.155 54.006,92.8C54.077,92.915 54.147,93.027 54.207,93.14C54.565,93.811 54.747,94.376 54.618,95.279L54.577,95.564C54.434,96.504 54.289,97.477 55.029,97.911C55.415,98.136 55.786,98.243 56.32,98.243C56.704,98.243 57.17,98.188 57.787,98.082C58.107,98.027 58.433,97.986 58.74,97.946C59.711,97.823 60.41,97.734 60.65,97.301C60.75,97.12 60.753,96.907 60.657,96.698C60.51,96.38 60.108,95.906 59.642,95.355C59.134,94.754 58.501,94.006 58.336,93.584C58.198,93.228 58.309,92.53 58.404,91.916C58.513,91.226 58.617,90.573 58.483,90.066C58.301,89.375 58.013,86.002 57.874,84.379C57.835,83.919 57.804,83.553 57.784,83.349C57.743,82.919 57.768,82.319 57.795,81.685C57.829,80.875 57.864,80.039 57.783,79.307C57.68,78.38 57.82,77.571 57.968,76.713C58.015,76.442 58.062,76.17 58.1,75.897C58.364,74.035 58.249,71.298 58.15,68.884C58.074,67.057 58.003,65.331 58.102,64.257C58.311,62.019 59.649,57.996 60.759,56.278C61.968,54.976 62.29,53.106 61.613,51.256C60.717,48.806 60.243,47.015 60.204,45.932C60.187,45.437 60.501,44.879 60.978,44.194L60.978,44.193C61.11,44.004 61.252,43.811 61.398,43.609C61.906,42.912 62.482,42.122 62.934,41.196C63.022,41.016 63.111,40.841 63.201,40.666L63.202,40.666C63.365,40.348 63.533,40.037 63.702,39.725L63.702,39.724C64.241,38.726 64.799,37.695 65.302,36.341L65.462,35.911L65.45,35.909C65.462,35.877 65.472,35.844 65.483,35.811L65.497,35.819L65.642,35.352C65.643,35.35 65.644,35.349 65.644,35.347C65.79,34.878 65.932,34.371 66.065,33.817C66.337,32.684 67.153,30.089 67.153,30.089C67.632,28.185 67.962,26.541 68.202,25.305C68.576,23.396 69.766,20.406 71.338,16.694C72.666,13.552 73.137,13.549 73.881,13.544C73.977,13.544 74.066,13.543 74.234,13.537C74.859,13.537 75.574,13.946 76.337,14.377C76.678,14.57 77.021,14.765 77.37,14.932C78.468,15.46 79.971,15.671 80.779,15.785L81.053,15.825C81.385,15.876 82.063,16.525 82.47,16.913C82.678,17.111 82.866,17.29 83.017,17.413C83.301,17.645 83.611,17.763 83.939,17.763C84.258,17.763 84.523,17.652 84.65,17.575C84.791,17.575 85.272,17.802 85.679,18.06C85.769,18.118 85.881,18.135 85.985,18.106C86.089,18.078 86.176,18.006 86.224,17.91C86.258,17.839 86.366,17.624 86.263,16.184ZM35.564,64.56C35.4,65.206 35.196,66.01 34.935,66.662C34.626,67.435 34.051,68.525 33.543,69.486C33.119,70.291 32.751,70.986 32.594,71.39C32.213,72.371 32.094,73.468 32.187,75.176C32.24,76.153 32.095,77.133 31.967,77.997C31.868,78.667 31.783,79.244 31.805,79.708C31.839,80.41 32.955,84.044 34.197,88.026C34.567,89.212 34.851,90.123 34.92,90.383C35.013,90.737 35.127,91.076 35.23,91.382C35.357,91.76 35.502,92.189 35.483,92.338C35.404,92.964 36.642,94.892 37.433,95.544C38.091,96.087 39.092,97.596 39.332,97.966C39.09,98.026 38.555,98.04 38.11,98.052L37.663,98.066C36.859,98.091 36.251,98.001 35.914,97.927C35.984,97.406 36.042,96.502 35.703,95.992C35.371,95.494 34.837,95.08 34.366,94.713C34.24,94.616 34.118,94.521 34.004,94.428C33.823,94.279 33.653,93.291 33.542,92.638C33.414,91.889 33.268,91.038 33.022,90.389C32.831,89.885 32.376,88.439 31.849,86.766C30.685,83.069 29.836,80.41 29.507,79.871C28.886,78.856 27.987,77.03 27.907,76.561C28.135,76.132 28.425,75.611 28.773,74.986C30.207,72.414 32.52,68.258 34.539,63.219L35.841,63.56C35.757,63.798 35.675,64.123 35.564,64.56ZM57.341,64.186C57.237,65.311 57.31,67.062 57.386,68.915C57.486,71.297 57.597,73.996 57.343,75.789C57.306,76.056 57.261,76.319 57.215,76.583C57.066,77.455 56.909,78.355 57.025,79.391C57.099,80.065 57.066,80.871 57.033,81.653C57.006,82.314 56.978,82.939 57.024,83.422C57.044,83.626 57.075,83.989 57.115,84.445C57.324,86.893 57.562,89.564 57.745,90.26C57.839,90.613 57.743,91.214 57.652,91.796C57.534,92.541 57.413,93.312 57.625,93.859C57.836,94.402 58.458,95.137 59.06,95.848C59.416,96.268 59.783,96.7 59.928,96.95C59.7,97.053 59.098,97.129 58.644,97.187C58.327,97.227 57.989,97.271 57.659,97.328C56.255,97.569 55.847,97.504 55.416,97.249C55.122,97.077 55.224,96.396 55.332,95.676L55.376,95.386C55.533,94.284 55.292,93.548 54.882,92.78C54.815,92.652 54.736,92.526 54.655,92.396C54.293,91.813 53.917,91.209 54.207,89.809C54.586,87.968 55.1,79.72 54.627,78.299C54.205,77.034 54.083,74.819 54.259,73.757C54.466,72.526 54.38,68.593 54.101,66.501C54.093,66.439 54.068,66.386 54.035,66.339C54.086,66.147 54.136,65.955 54.188,65.789C54.302,65.426 54.41,65.068 54.514,64.719C55.051,62.932 55.514,61.389 56.443,60.776C57.294,60.215 58.11,59.36 58.845,58.516C58.104,60.413 57.483,62.657 57.341,64.186ZM84.376,16.871C84.129,16.994 83.803,17.069 83.499,16.822C83.36,16.708 83.187,16.542 82.996,16.36C82.405,15.796 81.736,15.157 81.167,15.069L80.882,15.027C80.114,14.92 78.687,14.719 77.694,14.243C77.362,14.082 77.032,13.896 76.708,13.712C75.854,13.229 75.049,12.772 74.222,12.772C74.216,12.772 74.129,12.774 74.124,12.774C74.029,12.778 73.94,12.778 73.853,12.779C72.744,12.787 72.046,12.958 70.592,16.395C70.004,17.785 69.463,19.074 68.995,20.248C68.956,20.2 68.912,20.154 68.843,20.124C68.175,19.837 66.901,19.467 66.935,19.885C66.988,20.553 67.03,21.317 67.459,21.746C67.707,21.994 67.905,22.481 68.076,22.694C67.962,23.025 67.858,23.341 67.765,23.643C67.714,23.546 67.639,23.464 67.506,23.417C66.837,23.178 65.669,22.701 65.669,22.701C65.215,23.464 64.914,24.276 65.376,24.61C65.835,24.944 66.407,25.946 66.837,26.662C66.897,26.761 66.948,26.817 66.996,26.851C66.946,27.059 66.897,27.266 66.845,27.487C66.739,27.329 66.555,27.207 66.23,27.139C65.31,26.948 64.594,25.946 64.594,25.946C64.164,26.328 63.545,27.473 62.972,27.95C62.399,28.428 62.876,29.192 63.784,29.096C64.69,29 65.406,29.382 65.859,29.669C66.002,29.759 66.155,29.747 66.3,29.678C66.281,29.754 66.265,29.824 66.244,29.901L66.22,30.001C66.149,29.993 66.089,29.998 66.024,29.996C65.996,29.995 65.967,29.994 65.94,29.994C65.805,29.993 65.675,30.005 65.555,30.028C65.525,30.033 65.493,30.037 65.463,30.044C65.353,30.071 65.24,30.109 65.13,30.156C65.097,30.17 65.062,30.18 65.028,30.195C64.884,30.262 64.736,30.34 64.57,30.438L64.324,30.58C63.495,31.057 62.895,31.401 63.121,32.55C63.295,33.428 63.862,34.848 64.572,35.251C64.642,35.292 64.738,35.352 64.822,35.403C64.779,35.529 64.738,35.653 64.695,35.773C64.631,35.761 64.556,35.749 64.489,35.736C64.378,35.715 64.269,35.695 64.147,35.675C63.949,35.643 63.735,35.614 63.493,35.59C63.322,35.573 63.171,35.55 63.035,35.529C62.83,35.498 62.656,35.473 62.505,35.473C61.839,35.473 61.581,35.95 61.417,36.416C61.062,37.434 60.754,38.313 61.021,38.976C61.068,39.092 61.148,39.188 61.243,39.275C61.26,39.291 61.275,39.308 61.295,39.324C61.393,39.402 61.508,39.47 61.64,39.529C61.667,39.541 61.695,39.551 61.723,39.562C61.861,39.617 62.007,39.666 62.169,39.707C62.174,39.708 62.178,39.71 62.183,39.711C62.357,39.754 62.545,39.791 62.737,39.826C62.751,39.828 62.762,39.831 62.777,39.834C62.733,39.916 62.689,39.998 62.645,40.081C62.624,40.078 62.597,40.075 62.576,40.072C62.451,40.056 62.331,40.04 62.214,40.024C61.882,39.979 61.552,39.933 61.049,39.887C60.737,39.859 60.442,39.794 60.175,39.736C59.874,39.67 59.589,39.609 59.338,39.609C58.829,39.609 58.59,39.875 58.479,40.098C58.206,40.644 57.985,41.503 58.479,42.492C58.541,42.614 58.63,42.739 58.734,42.866C58.75,42.885 58.763,42.905 58.781,42.924C58.885,43.045 59.004,43.165 59.133,43.284C59.156,43.306 59.181,43.328 59.205,43.35C59.339,43.471 59.479,43.589 59.626,43.704C59.639,43.714 59.651,43.723 59.664,43.733C59.819,43.854 59.977,43.97 60.134,44.079C60.135,44.079 60.136,44.08 60.137,44.081C59.696,44.756 59.421,45.352 59.443,45.962C59.485,47.126 59.973,48.996 60.898,51.522C61.49,53.138 61.223,54.699 60.168,55.804C59.868,56.117 59.518,56.538 59.132,57.003C58.24,58.075 57.131,59.408 56.022,60.142C54.863,60.908 54.363,62.574 53.783,64.502C53.679,64.848 53.572,65.202 53.46,65.562C52.88,67.405 52.39,70.952 52.344,72.445C52.323,73.099 52.427,74.011 52.538,74.975C52.68,76.215 52.842,77.621 52.667,78.192C52.578,78.487 52.475,78.753 52.374,79.007C52.094,79.726 51.829,80.404 51.943,81.427C52.017,82.102 51.984,82.907 51.951,83.69C51.924,84.351 51.896,84.975 51.942,85.459C51.962,85.662 51.993,86.025 52.032,86.482C52.242,88.93 52.48,91.601 52.663,92.296C52.757,92.649 52.661,93.251 52.569,93.832C52.451,94.577 52.33,95.348 52.543,95.895C52.689,96.271 52.826,96.697 52.959,97.108C53.133,97.643 53.296,98.15 53.465,98.514C53.539,98.676 53.555,98.8 53.604,98.769C53.569,98.804 53.406,98.898 52.65,99.028C51.872,99.163 51.054,99.239 50.408,99.239C49.6,99.239 49.317,99.125 49.232,99.075C49.11,99.004 49.085,98.989 49.234,98.429C49.297,98.193 49.371,97.918 49.417,97.596C49.443,97.418 49.471,97.247 49.499,97.083C49.628,96.311 49.749,95.582 49.376,94.881C49.004,94.185 48.769,93.56 49.124,91.845C49.504,90.006 50.019,81.759 49.545,80.335C49.123,79.068 49.001,76.854 49.178,75.793C49.375,74.613 49.52,71.962 49.227,69.762C49.013,68.157 48.695,64.49 48.523,62.52C48.467,61.876 48.428,61.429 48.416,61.324C48.402,61.194 48.308,60.774 47.684,60.774C47.206,60.774 46.448,61.005 45.249,61.382C44.594,61.588 43.956,61.898 43.338,62.197C42.33,62.687 41.379,63.15 40.389,63.178C40.079,63.186 39.759,63.19 39.44,63.19C38.549,63.19 37.738,63.161 37.196,63.127L34.826,62.508C35.538,60.676 36.205,58.736 36.773,56.716C36.83,56.513 36.712,56.302 36.509,56.245C36.306,56.186 36.095,56.306 36.038,56.509C35.746,57.548 35.426,58.565 35.088,59.559L29.402,72.27C28.924,73.154 28.485,73.941 28.108,74.618C27.824,75.128 27.588,75.554 27.381,75.935C27.153,75.959 26.871,76.176 26.469,78.186C26.113,79.971 25.706,88.172 26.133,90.966C26.204,91.432 26.261,91.85 26.314,92.231C26.58,94.157 26.727,95.217 27.795,96.457C28.441,97.206 28.946,97.745 29.279,98.088C28.819,98.213 28.126,98.356 27.368,98.356C26.212,98.356 25.537,98.231 25.292,98.127C25.465,97.626 25.565,96.747 25.212,95.997C25.149,95.862 25.064,95.704 24.969,95.529C24.608,94.86 24.114,93.943 24.215,93.102C24.242,92.877 24.284,92.631 24.333,92.356C24.537,91.181 24.846,89.404 24.453,86.42C24.024,83.156 23.234,77.79 22.818,76.387C22.614,75.699 22.75,75.373 23.078,74.585C23.276,74.107 23.524,73.514 23.774,72.638C24.439,70.31 24.286,66.119 23.925,64.113C23.836,63.615 23.703,62.954 23.558,62.229C23.186,60.375 22.677,57.833 22.722,57.041C22.755,56.438 22.745,55.667 22.51,55.418C22.438,55.341 22.303,55.28 22.198,55.28C21.821,55.28 21.647,55.557 21.36,57.194C20.941,59.582 20.12,62.531 19.219,64.916C19.326,64.53 19.419,64.13 19.488,63.718C19.611,62.981 19.689,61.996 19.772,60.954C19.916,59.138 20.08,57.077 20.522,55.81C20.647,55.451 20.765,55.095 20.881,54.748C21.416,53.139 21.879,51.749 22.716,50.948C22.743,50.923 22.767,50.891 22.785,50.86C22.799,50.836 24.272,48.373 30.584,46.407C32.487,45.814 34.303,45.362 35.905,44.964C39.885,43.973 43.03,43.191 44.398,40.994C45.09,39.884 46.363,38.162 46.646,37.852C47.193,37.256 47.899,37.028 48.521,36.828C49.017,36.668 49.486,36.517 49.823,36.203C50.436,35.63 50.623,35.513 52.067,34.599L52.63,34.242C54.735,32.907 56.556,30.184 57.906,27.962C59.351,25.584 63.253,18.466 64.747,15.477C66.117,12.736 68.033,10.069 69.201,9.274C70.426,8.442 70.93,7.843 70.951,7.818C71.084,7.659 71.065,7.423 70.909,7.286C70.545,6.967 70.104,6.543 70.028,6.42C69.503,5.558 69.167,5.12 68.61,4.463C68.479,4.308 68.403,4.19 68.361,4.109C68.475,4.111 68.625,4.133 68.805,4.175C69.964,4.443 71.874,5.36 72.623,5.923C72.866,6.105 73.102,6.194 73.348,6.194C73.711,6.194 73.983,5.997 74.223,5.824C74.386,5.706 74.54,5.595 74.7,5.561L74.941,5.515C75.487,5.416 75.582,5.236 75.609,4.709L75.621,4.497C75.671,3.732 75.254,2 74.639,1.201C74.755,1.024 75.273,0.712 75.613,0.861C76.014,1.036 76.079,1.274 76.089,1.342C76.1,1.414 76.083,1.475 76.041,1.51C75.608,1.883 75.833,2.508 76.03,3.06C76.097,3.246 76.165,3.433 76.205,3.604C76.244,3.771 76.606,5.241 77.419,5.241C77.55,5.241 77.675,5.201 77.791,5.125C78.13,4.899 78.345,4.267 78.298,1.917L78.296,1.8C78.296,1.644 78.221,1.503 78.127,1.325C78.071,1.219 77.921,0.937 77.935,0.861C77.943,0.852 77.988,0.824 78.089,0.802C78.202,0.778 78.325,0.766 78.455,0.766C79.058,0.766 79.487,1.011 79.517,1.094C79.162,1.569 79.081,2.026 79.018,2.392C78.994,2.528 78.971,2.66 78.933,2.788C78.784,3.288 78.604,5.353 78.583,5.587C78.572,5.709 78.621,5.828 78.715,5.908C79.013,6.166 79.321,6.379 79.627,6.589C80.396,7.118 81.059,7.575 81.468,8.708C81.644,9.193 81.776,9.635 81.898,10.043C82.21,11.079 82.477,11.974 83.267,12.802C84.175,13.756 85.42,15.062 85.503,16.241C85.53,16.623 85.541,16.905 85.545,17.108C85.126,16.893 84.653,16.731 84.376,16.871Z" style="fill:white;fill-rule:nonzero;"/>
    </g>
</svg>
