<?xml version="1.0" encoding="UTF-8" standalone="no"?>
<!DOCTYPE svg PUBLIC "-//W3C//DTD SVG 1.1//EN" "http://www.w3.org/Graphics/SVG/1.1/DTD/svg11.dtd">
<svg width="100%" height="100%" viewBox="0 0 74 79" version="1.1" xmlns="http://www.w3.org/2000/svg" xmlns:xlink="http://www.w3.org/1999/xlink" xml:space="preserve" style="fill-rule:evenodd;clip-rule:evenodd;stroke-linejoin:round;stroke-miterlimit:1.41421;">
    <g transform="matrix(1,0,0,1,-13.7847,-10.5)">
        <path d="M86.4,10.5C85.9,10.5 85.4,10.9 85.3,11.4C85.3,11.8 82.2,48 50.5,63.6C19,48 15.8,11.8 15.8,11.5C15.8,10.9 15.3,10.5 14.7,10.6C14.1,10.6 13.7,11.1 13.8,11.7C13.8,12.1 16.9,48.4 48.4,64.9C46,65.3 43.8,66.5 42.1,68.2C39.8,70.5 38.6,73.5 38.6,76.7C38.6,79.9 39.8,82.9 42.1,85.2C44.4,87.5 47.4,88.7 50.6,88.7C53.8,88.7 56.8,87.5 59.1,85.2C61.4,82.9 62.6,79.9 62.6,76.7C62.6,73.5 61.4,70.5 59.1,68.2C57.3,66.4 55.2,65.3 52.8,64.9C84.2,48.3 87.3,12 87.3,11.6C87.4,11.1 87,10.6 86.4,10.5ZM60.6,76.6C60.6,77.6 60.5,78.5 60.2,79.5L56.3,77.8C56.4,77.4 56.4,77.1 56.4,76.7C56.4,76.2 56.3,75.7 56.2,75.2L60.2,73.8C60.4,74.6 60.6,75.6 60.6,76.6ZM54.4,76.6C54.4,77.6 54,78.6 53.3,79.3C52.6,80 51.6,80.4 50.6,80.4C49.6,80.4 48.6,80 47.9,79.3C47.2,78.6 46.8,77.6 46.8,76.6C46.8,75.6 47.2,74.6 47.9,73.9C48.6,73.2 49.6,72.8 50.6,72.8C51.6,72.8 52.6,73.2 53.3,73.9C54,74.6 54.4,75.6 54.4,76.6ZM40.6,76.6C40.6,75.6 40.7,74.6 41,73.7L44.9,75.2C44.8,75.7 44.7,76.1 44.7,76.6C44.7,76.9 44.7,77.3 44.8,77.6L41,79.4C40.8,78.5 40.6,77.6 40.6,76.6ZM50.6,70.8C50.2,70.8 49.7,70.9 49.3,71L47.7,67C48.6,66.7 49.6,66.6 50.6,66.6C51.6,66.6 52.5,66.7 53.5,67L51.8,70.9C51.4,70.8 51,70.8 50.6,70.8ZM43.5,69.5C44.2,68.8 45,68.2 45.8,67.8L47.4,71.7C47.1,71.9 46.7,72.2 46.4,72.5C46.1,72.8 45.9,73.1 45.7,73.4L41.7,71.9C42.3,71 42.8,70.2 43.5,69.5ZM41.8,81.3L45.6,79.5C45.9,79.9 46.1,80.4 46.5,80.7C46.8,81 47,81.2 47.3,81.4L45.8,85.4C45,84.9 44.2,84.4 43.5,83.7C42.8,82.9 42.2,82.1 41.8,81.3ZM47.7,86.1L49.2,82.2C49.7,82.3 50.1,82.4 50.6,82.4C51,82.4 51.4,82.3 51.8,82.3L53.4,86.2C52.5,86.5 51.5,86.6 50.5,86.6C49.6,86.6 48.6,86.4 47.7,86.1ZM57.6,83.6C56.9,84.3 56.1,84.9 55.3,85.3L53.7,81.4C54.1,81.2 54.4,80.9 54.7,80.6C55,80.3 55.3,79.9 55.6,79.5L59.4,81.2C58.9,82.1 58.3,82.9 57.6,83.6ZM59.3,71.8L55.3,73.3C55.1,73 54.9,72.7 54.6,72.5C54.3,72.2 53.9,71.9 53.5,71.7L55.2,67.9C56.1,68.4 56.8,68.9 57.5,69.6C58.3,70.2 58.9,71 59.3,71.8Z" style="fill:rgba(255,253,253,1);fill-rule:nonzero;"/>
        <path d="M35.9,46.7C37,48.3 38.7,49.4 40.6,49.8C41.1,49.9 41.6,49.9 42,49.9C43.4,49.9 44.9,49.5 46.1,48.6C47.7,47.5 48.8,45.8 49.2,43.9C49.6,42 49.2,40 48.1,38.4C47.4,37.3 46.4,36.4 45.2,35.9C45.9,35.2 46.4,34.4 46.6,33.4C46.8,32.2 46.6,30.9 45.9,29.9C45.3,29 44.3,28.3 43.2,28C43.3,27.8 43.3,27.6 43.3,27.5C43.3,27.2 43.2,26.8 43,26.6L43,23.7C43.6,23.6 44.3,23.3 44.9,22.7C46.2,21.5 46.8,19.6 46.8,17L46.8,16.6C46.8,14 44.7,11.9 42.1,11.9C39.5,11.9 37.4,14 37.4,16.6C37.4,17.2 37.8,17.6 38.4,17.6C39,17.6 39.4,17.2 39.4,16.6C39.4,15.1 40.6,13.9 42.1,13.9C43.6,13.9 44.8,15.1 44.8,16.6L44.8,17C44.8,19 44.4,20.4 43.6,21.2C42.9,21.9 42.1,21.8 42.1,21.9C41.8,21.9 41.5,22 41.3,22.2C41.1,22.4 41,22.7 41,22.9L41,26.6C40.8,26.8 40.6,27.2 40.6,27.5C40.6,27.7 40.6,27.9 40.7,28C40.2,28.1 39.8,28.3 39.3,28.6C38.3,29.3 37.6,30.4 37.3,31.6C37.1,32.8 37.3,34.1 38,35.1C38.2,35.4 38.4,35.7 38.7,35.9C38.4,36.1 38.1,36.2 37.8,36.4C34.6,38.8 33.7,43.4 35.9,46.7ZM39.4,32.1C39.5,31.4 39.9,30.8 40.5,30.4C40.9,30.1 41.5,29.9 42,29.9C42.2,29.9 42.3,29.9 42.5,30C43.2,30.1 43.8,30.5 44.2,31.1C45,32.3 44.7,34 43.5,34.8C42.3,35.6 40.6,35.3 39.8,34.1C39.4,33.5 39.2,32.8 39.4,32.1ZM39,38.2C39.9,37.6 40.9,37.3 42,37.3C42.3,37.3 42.7,37.3 43,37.4C44.4,37.7 45.6,38.5 46.4,39.7C47.2,40.9 47.5,42.3 47.2,43.7C46.9,45.1 46.1,46.3 44.9,47.1C43.7,47.9 42.3,48.2 40.9,47.9C39.5,47.6 38.3,46.8 37.5,45.6C35.9,43.2 36.6,39.8 39,38.2Z" style="fill:rgb(255,253,253);fill-rule:nonzero;"/>
        <path d="M52.9,46.8C54.3,48.9 56.6,50 59,50C60.4,50 61.9,49.6 63.2,48.7C64.8,47.6 65.9,45.9 66.2,44C66.5,42.1 66.1,40.1 65,38.5C64.2,37.4 63.2,36.6 62.1,36C63.7,34.4 64.1,31.9 62.7,29.9C62.1,29 61.1,28.3 60,28.1C60.1,27.9 60.1,27.7 60.1,27.5C60.1,27.2 60,26.8 59.7,26.6L59.7,23.7C60.3,23.6 61,23.3 61.6,22.6C62.9,21.4 63.5,19.5 63.4,16.9L63.4,16.5C63.4,13.9 61.2,11.9 58.7,11.9C57.5,11.9 56.3,12.4 55.4,13.3C54.5,14.2 54.1,15.4 54.1,16.6C54.1,17.2 54.6,17.6 55.1,17.6C55.7,17.6 56.1,17.1 56.1,16.6C56.1,15.9 56.4,15.2 56.9,14.7C57.4,14.2 58.1,13.9 58.8,13.9C60.3,13.9 61.5,15.1 61.5,16.5L61.5,16.9C61.5,18.9 61.1,20.3 60.3,21.1C59.6,21.8 58.8,21.8 58.8,21.8C58.5,21.8 58.2,21.9 58,22.1C57.8,22.3 57.7,22.6 57.7,22.8L57.7,26.5C57.5,26.7 57.3,27.1 57.3,27.4C57.3,27.6 57.3,27.8 57.4,27.9C56.9,28 56.5,28.2 56,28.5C55,29.2 54.3,30.3 54.1,31.5C53.9,32.7 54.1,34 54.9,35C55.1,35.3 55.4,35.6 55.6,35.8C55.3,36 55,36.1 54.7,36.3C51.5,38.9 50.6,43.5 52.9,46.8ZM56.2,32.1C56.3,31.4 56.7,30.8 57.3,30.4C57.8,30.1 58.3,29.9 58.8,29.9C59,29.9 59.1,29.9 59.3,29.9C60,30 60.6,30.4 61,31C61.8,32.2 61.5,33.9 60.3,34.7C59.7,35.1 59,35.3 58.3,35.1C57.6,35 57,34.6 56.6,34C56.2,33.5 56.1,32.8 56.2,32.1ZM55.9,38.2C56.8,37.6 57.9,37.3 58.9,37.3C60.6,37.3 62.3,38.1 63.3,39.6C65,42 64.4,45.4 61.9,47C59.5,48.7 56.1,48.1 54.5,45.6C52.9,43.3 53.5,39.9 55.9,38.2Z" style="fill:rgb(255,253,253);fill-rule:nonzero;"/>
    </g>
</svg>
