<?xml version="1.0" encoding="UTF-8" standalone="no"?>
<!DOCTYPE svg PUBLIC "-//W3C//DTD SVG 1.1//EN" "http://www.w3.org/Graphics/SVG/1.1/DTD/svg11.dtd">
<svg width="100%" height="100%" viewBox="0 0 90 58" version="1.1" xmlns="http://www.w3.org/2000/svg" xmlns:xlink="http://www.w3.org/1999/xlink" xml:space="preserve" style="fill-rule:evenodd;clip-rule:evenodd;stroke-linejoin:round;stroke-miterlimit:1.41421;">
    <g transform="matrix(1,0,0,1,0.0249554,0.0374984)">
        <g transform="matrix(1,0,0,1,-5,-21.4)">
            <path d="M94.87,60C94.4,59 92.93,58.93 92.49,58.91C91.675,58.795 90.854,59.091 90.3,59.7C89.99,60.25 88.69,60.12 88.09,59.97C84.15,59.05 79.77,47.58 78.41,43.23C75.01,33.23 58.52,35.83 57.86,35.94L52.53,36.39C48.467,36.608 44.393,36.272 40.42,35.39L40.69,35.24C40.878,35.133 40.966,34.906 40.9,34.7C40.834,34.492 40.626,34.36 40.41,34.39C39.2,34.53 36.78,33.39 33.76,31.39C32.971,30.743 32.271,29.993 31.68,29.16C30.877,28 29.859,27.005 28.68,26.23C29.242,26.085 29.796,25.912 30.34,25.71C30.449,25.683 30.549,25.628 30.63,25.55C30.699,25.467 30.736,25.363 30.736,25.256C30.736,25.004 30.528,24.796 30.276,24.796C30.226,24.796 30.177,24.804 30.13,24.82L30.05,24.82C28.879,24.767 27.725,24.513 26.64,24.07C25.943,23.844 25.232,23.666 24.51,23.54C25.1,23.154 25.604,22.65 25.99,22.06C26.104,21.868 26.066,21.619 25.9,21.47C25.738,21.327 25.492,21.327 25.33,21.47C25.168,21.613 24.64,21.87 21.42,22.01C20.2,22.047 18.986,22.212 17.8,22.5C14.8,22.97 14.03,25.76 13.71,26.95L13.63,27.23C12.28,27.47 11.89,27.74 11.7,27.96C10.228,29.413 8.658,30.763 7,32C6.34,32.53 5.77,33 5.34,33.35C4.62,33.96 5.13,34.81 5.47,35.35C5.57,35.52 5.67,35.68 5.73,35.82C5.772,35.946 5.792,36.078 5.79,36.21C5.788,36.604 5.903,36.991 6.12,37.32L6.21,37.41C6.9,37.968 7.775,38.246 8.66,38.19L8.95,38.45L8.89,38.45C8.764,38.554 8.703,38.719 8.73,38.88L8.84,39.5C8.47,39.76 8.37,39.9 8.36,40.09C8.354,40.133 8.354,40.177 8.36,40.22C8.528,41.178 9.234,41.958 10.17,42.22C11.275,42.436 12.416,42.056 13.17,41.22L13.6,41C13.6,41.52 13.71,42.15 13.79,42.74L13.79,42.98C13.943,44.325 14.575,45.571 15.57,46.49C16.163,46.893 16.667,47.414 17.05,48.02C17.124,48.185 17.289,48.292 17.47,48.292C17.722,48.292 17.93,48.085 17.93,47.832C17.93,47.832 17.93,47.831 17.93,47.83C17.93,47.829 17.93,47.18 17.81,46.5C18.412,47.394 18.846,48.39 19.09,49.44L19.23,49.86C19.541,51.592 19.938,53.308 20.42,55C20.881,56.058 21.563,57.006 22.42,57.78C22.504,57.854 22.612,57.894 22.723,57.894C22.976,57.894 23.183,57.686 23.183,57.434C23.183,57.416 23.182,57.398 23.18,57.38L23.08,56.54C23.608,56.982 24.185,57.361 24.8,57.67C23.84,60.153 22.648,62.54 21.24,64.8C19.24,67.59 19.11,70.44 18.96,73.2C18.817,74.139 19.07,75.096 19.66,75.84C20.473,76.5 21.522,76.797 22.56,76.66C24.38,76.66 24.97,73.48 25.25,71.95C25.25,71.76 25.33,71.54 25.34,71.49C26.142,69.346 27.39,67.397 29,65.77C31.168,63.533 33.173,61.143 35,58.62L35.14,58.67C35.71,59.75 38.97,65.96 40.14,67.3C41.079,68.646 41.582,70.249 41.58,71.89L40.97,71.89C40.917,71.879 40.863,71.879 40.81,71.89C40.009,72.218 39.461,72.976 39.4,73.84C39.4,74.13 39.4,74.69 40.26,75.16C41.119,75.578 42.065,75.787 43.02,75.77C43.944,75.803 44.854,75.533 45.61,75C47.4,73.58 47.23,69.08 46.38,67.38C45.8,66.23 44.93,61.54 44.57,59.38L45.21,59.24C46.558,58.899 47.928,58.651 49.31,58.5C52.315,58.3 55.219,57.329 57.74,55.68C58.74,55.08 59.37,54.68 60.01,54.81C60.65,54.94 61.1,56.45 61.41,57.89C61.72,59.33 62.09,61.09 63.11,61.89C64.13,62.69 65.11,65.12 65.91,67.22C66.282,68.296 66.72,69.348 67.22,70.37C67.834,71.673 67.877,73.174 67.34,74.51C66.543,74.492 65.755,74.689 65.06,75.08C64.518,75.329 64.169,75.874 64.169,76.47C64.169,76.769 64.256,77.061 64.42,77.31C64.827,78.114 65.659,78.62 66.56,78.61L69.81,78.61C70.732,78.673 71.616,78.217 72.1,77.43C72.981,75.708 73.53,73.835 73.72,71.91C73.85,70.758 73.649,69.592 73.14,68.55C73.033,68.37 72.965,68.168 72.94,67.96C72.94,67.89 72.94,67.75 72.94,67.56C72.853,65.277 72.929,62.992 73.17,60.72C75.35,62.39 81.8,67.32 82.64,67.72C83.18,67.99 84.36,70.07 85.06,71.52C85.06,71.71 84.88,72.38 83.59,73.03C82.918,73.551 82.648,74.445 82.92,75.25C83.09,75.97 83.47,76.41 83.92,76.41L84.29,76.41C84.71,76.41 85.29,76.49 86,76.49C87.269,76.592 88.536,76.268 89.6,75.57C90.042,75.194 90.307,74.65 90.33,74.07C90.49,71.32 86.53,62.76 86.33,62.4L86.33,62.34L85.7,61.34C87.016,62.023 88.49,62.344 89.97,62.27C90.27,62.28 90.565,62.348 90.84,62.47C91.84,62.81 93.31,63.31 94.57,61.57C94.959,61.146 95.075,60.537 94.87,60L94.87,60ZM22.87,55C22.783,54.91 22.663,54.859 22.538,54.859C22.286,54.859 22.078,55.066 22.078,55.319C22.078,55.332 22.079,55.346 22.08,55.36L22.17,56.1C21.821,55.68 21.541,55.208 21.34,54.7C20.88,53.42 20.18,49.7 20.18,49.7L20.18,49.64L20,49.22C19.45,47.53 19,46.22 18.14,45.62C17.89,45.46 17.67,45.33 17.47,45.22C17.403,45.184 17.328,45.165 17.252,45.165C17,45.165 16.792,45.373 16.792,45.625C16.792,45.654 16.795,45.682 16.8,45.71C16.8,45.94 16.89,46.21 16.92,46.48C16.71,46.29 16.47,46.07 16.17,45.84C15.38,45.087 14.875,44.083 14.74,43C14.741,42.983 14.741,42.967 14.74,42.95L14.74,42.64C14.618,41.883 14.551,41.117 14.54,40.35C16.21,37.76 18.16,34.54 18.11,33.68C18.06,32.82 17.48,29.42 17.46,29.29C17.445,29.049 17.242,28.859 17.001,28.859C16.749,28.859 16.541,29.066 16.541,29.319C16.541,29.363 16.547,29.407 16.56,29.45C16.573,29.493 17.15,32.81 17.2,33.74C17.2,34.14 16.12,36.22 13.79,39.85C13.393,40.079 13.019,40.343 12.67,40.64C11.85,41.3 11.31,41.64 10.47,41.46C9.936,41.319 9.516,40.903 9.37,40.37L9.65,40.18C9.801,40.08 9.88,39.899 9.85,39.72L9.85,39.6L10.09,39.69C10.216,39.752 10.364,39.752 10.49,39.69C11.182,39.272 11.912,38.921 12.67,38.64C12.84,38.578 12.958,38.42 12.97,38.24C12.988,37.867 12.846,37.503 12.58,37.24C12.2,36.86 11.4,36.76 10.19,36.92C9.965,36.955 9.797,37.152 9.8,37.38L9.8,38L9.17,37.43C9.049,37.319 8.877,37.28 8.72,37.33C8.072,37.419 7.416,37.234 6.91,36.82C6.818,36.637 6.774,36.434 6.78,36.23C6.777,35.983 6.726,35.738 6.63,35.51C6.536,35.318 6.433,35.131 6.32,34.95C6.02,34.46 5.89,34.19 6,34.1C6.42,33.75 7,33.29 7.64,32.77C9.288,31.489 10.845,30.096 12.3,28.6C13.755,27.104 12.54,28.35 13.98,28.12C14.131,28.093 14.259,27.991 14.32,27.85C14.325,27.813 14.325,27.777 14.32,27.74C14.32,27.61 14.41,27.44 14.47,27.23C14.79,26.04 15.39,23.82 17.87,23.43C19.022,23.165 20.198,23.02 21.38,23C22.257,22.954 23.132,22.863 24,22.73C23.614,23.016 23.198,23.261 22.76,23.46C22.595,23.534 22.488,23.699 22.488,23.88C22.488,24.061 22.595,24.226 22.76,24.3L22.92,24.36C22.976,24.371 23.034,24.371 23.09,24.36C24.152,24.385 25.203,24.584 26.2,24.95C26.827,25.15 27.383,25.31 27.87,25.43L27.28,25.54C27.061,25.578 26.899,25.77 26.899,25.993C26.899,26.149 26.979,26.295 27.11,26.38C28.538,27.195 29.784,28.294 30.77,29.61C31.417,30.528 32.184,31.355 33.05,32.07C34.797,33.343 36.721,34.353 38.76,35.07L38.64,35.12L33.3,37.12C33.135,37.194 33.028,37.359 33.028,37.54C33.028,37.721 33.135,37.886 33.3,37.96L34.8,38.69C33.282,39.031 31.723,39.155 30.17,39.06C29.17,39.06 28.88,39.06 28.75,39.42C28.679,39.658 28.789,39.916 29.01,40.03C29.46,40.33 30.52,40.95 31.26,41.37C30.549,41.618 29.81,41.779 29.06,41.85C27.876,41.845 26.747,42.356 25.97,43.25C25.894,43.35 25.827,43.457 25.77,43.57L25.77,43.67C25.77,43.76 25.68,43.87 25.63,43.99L25.63,44.04C25.63,44.17 25.54,44.31 25.5,44.46L25.5,44.55C25.5,44.68 25.43,44.82 25.4,44.99L25.4,45.05C25.33,45.38 25.28,45.76 25.23,46.17L25.23,46.24C25.23,46.64 25.14,47.08 25.11,47.54C24.92,50.36 25.03,53.8 25.11,55.26C25.11,55.56 25.11,55.78 25.11,55.9C25.119,56.05 25.119,56.2 25.11,56.35L25.03,56.68C24.215,56.27 23.478,55.722 22.85,55.06L22.87,55ZM10.65,37.7C11.48,37.63 11.81,37.75 11.88,37.82L11.88,37.87C11.57,38 11.13,38.19 10.62,38.46L10.65,37.7ZM45.56,67.83C46.32,69.36 46.35,73.29 45.04,74.33C44.04,75.1 41.81,74.99 40.7,74.33C40.41,74.17 40.29,74 40.3,73.92C40.338,73.456 40.599,73.038 41,72.8L41.68,72.8C41.963,72.802 42.221,72.631 42.33,72.37C42.78,71.37 41.97,68.02 40.78,66.68C39.144,64.25 37.664,61.718 36.35,59.1C37.944,59.623 39.612,59.886 41.29,59.88C42.077,59.843 42.86,59.739 43.63,59.57C43.94,61.2 44.87,66.44 45.56,67.83ZM89.45,74C89.438,74.333 89.285,74.646 89.03,74.86C88.03,75.77 85.37,75.56 84.39,75.48L84,75.48C83.803,75.156 83.719,74.777 83.76,74.4C83.747,74.183 83.836,73.972 84,73.83C86.12,72.77 86,71.48 86,71.34C86.006,71.297 86.006,71.253 86,71.21C85.7,70.58 84.15,67.41 83.12,66.9C82.47,66.58 77.02,62.45 73.38,59.65C73.587,57.992 74.032,56.372 74.7,54.84C75.75,52.626 76.458,50.266 76.8,47.84C77.92,50.21 80.04,54.68 80.94,56.48C81.65,57.934 82.675,59.211 83.94,60.22L85.66,62.81C86.71,65.27 89.57,72 89.45,74ZM93.86,61.07C93,62.26 92.11,61.96 91.17,61.64C90.75,61.451 90.289,61.372 89.83,61.41C87.873,61.418 85.973,60.742 84.46,59.5C83.297,58.576 82.354,57.404 81.7,56.07C80.43,53.61 76.86,46 76.82,45.94C76.742,45.786 76.583,45.688 76.41,45.688C76.164,45.688 75.96,45.885 75.95,46.13C75.791,49.018 75.06,51.846 73.8,54.45C72.44,57.33 71.8,61.74 72.02,67.57C72.02,67.75 72.02,67.87 72.02,67.94C72.037,68.291 72.136,68.634 72.31,68.94C72.755,69.845 72.928,70.859 72.81,71.86C72.624,73.651 72.112,75.393 71.3,77C70.971,77.485 70.403,77.754 69.82,77.7L66.57,77.7C66.018,77.713 65.505,77.41 65.25,76.92C64.92,76.24 65.2,76.04 65.47,75.92C66.062,75.536 66.77,75.373 67.47,75.46C67.69,75.547 67.943,75.451 68.05,75.24C68.841,73.57 68.841,71.63 68.05,69.96C67.571,68.986 67.15,67.984 66.79,66.96C65.92,64.63 65.02,62.22 63.68,61.22C62.93,60.65 62.62,59.22 62.32,57.79C61.94,55.98 61.58,54.27 60.2,54C59.2,53.81 58.36,54.33 57.28,55C54.892,56.575 52.135,57.503 49.28,57.69C47.857,57.845 46.447,58.099 45.06,58.45C43.849,58.775 42.61,58.986 41.36,59.08C39.369,59.058 37.399,58.668 35.55,57.93L38.36,53C38.427,52.918 38.464,52.815 38.464,52.709C38.464,52.457 38.256,52.249 38.004,52.249C37.819,52.249 37.652,52.36 37.58,52.53L34.47,57.78C32.614,60.354 30.586,62.8 28.4,65.1C26.673,66.844 25.346,68.942 24.51,71.25C24.456,71.444 24.412,71.641 24.38,71.84C23.89,74.47 23.29,75.84 22.58,75.84C21.797,75.955 20.998,75.765 20.35,75.31C19.934,74.733 19.771,74.01 19.9,73.31C20.05,70.56 20.2,67.96 22.01,65.39C23.599,62.824 24.938,60.111 26.01,57.29C26.021,57.234 26.021,57.176 26.01,57.12L26.01,56.37C26.012,56.347 26.012,56.323 26.01,56.3L26.01,55.34C26.01,53.89 25.84,50.48 26.01,47.71C26.01,47.26 26.08,46.84 26.13,46.45L26.13,46.39C26.13,46.01 26.23,45.65 26.29,45.39L26.29,45.3C26.29,45.17 26.34,45.05 26.38,44.93L26.38,44.86C26.413,44.733 26.45,44.613 26.49,44.5L26.49,44.44C26.49,44.36 26.55,44.28 26.59,44.21L26.59,44.15C26.621,44.087 26.658,44.027 26.7,43.97C27.334,43.27 28.245,42.882 29.19,42.91C30.34,42.813 31.461,42.494 32.49,41.97C32.634,41.888 32.723,41.735 32.723,41.57C32.723,41.405 32.634,41.252 32.49,41.17C32.346,41.088 31.49,40.63 30.68,40.17C32.545,40.28 34.414,40.007 36.17,39.37C36.33,39.294 36.432,39.132 36.432,38.955C36.432,38.778 36.33,38.616 36.17,38.54L34.63,37.79L39,36.1L40.27,36.33C44.322,37.223 48.477,37.56 52.62,37.33L58,36.85C58.67,36.74 74.42,34.28 77.58,43.52C77.79,44.18 82.67,59.65 87.91,60.87C88.16,60.94 90.39,61.47 91.13,60.16C91.526,59.875 92.018,59.756 92.5,59.83C93.26,59.83 93.93,60.09 94.09,60.41C94.25,60.73 94,60.9 93.86,61.11L93.86,61.07Z" style="fill:white;fill-rule:nonzero;"/>
        </g>
        <g transform="matrix(1,0,0,1,-5,-21.4)">
            <path d="M19.24,24.1C17.43,23.83 15.99,26.93 15.83,27.28C15.805,27.338 15.792,27.401 15.792,27.464C15.792,27.674 15.936,27.859 16.14,27.91L17.08,28.14C17.261,28.183 17.452,28.112 17.56,27.96L18.07,27.23C18.187,27.047 18.369,26.914 18.58,26.86L18.72,26.86C18.832,27.311 18.875,27.776 18.85,28.24C18.853,28.449 18.997,28.63 19.2,28.68L20.14,28.91L20.25,28.91C20.478,28.907 20.67,28.736 20.7,28.51C20.74,28.1 21.16,24.38 19.24,24.1ZM19.83,27.89L19.75,27.89C19.75,26.62 19.51,26.24 19.2,26.08C18.946,25.952 18.655,25.92 18.38,25.99C17.948,26.092 17.569,26.352 17.32,26.72L16.99,27.19L16.91,27.19C17.43,26.19 18.36,24.93 19.11,25.03C19.86,25.13 19.91,26.63 19.83,27.9L19.83,27.89Z" style="fill:white;fill-rule:nonzero;"/>
        </g>
        <g transform="matrix(1,0,0,1,-5,-21.4)">
            <path d="M14.42,30.68C13.864,30.321 13.169,30.247 12.55,30.48C12.105,30.723 11.784,31.146 11.67,31.64C11.667,31.654 11.666,31.668 11.666,31.683C11.666,31.795 11.749,31.892 11.86,31.91L12.06,31.91C12.902,31.806 13.711,31.519 14.43,31.07C14.502,31.029 14.546,30.953 14.546,30.87C14.546,30.787 14.502,30.711 14.43,30.67L14.42,30.68Z" style="fill:white;fill-rule:nonzero;"/>
        </g>
    </g>
</svg>
