<?xml version="1.0" encoding="UTF-8" standalone="no"?>
<!DOCTYPE svg PUBLIC "-//W3C//DTD SVG 1.1//EN" "http://www.w3.org/Graphics/SVG/1.1/DTD/svg11.dtd">
<svg width="100%" height="100%" viewBox="0 0 243 392" version="1.1" xmlns="http://www.w3.org/2000/svg" xmlns:xlink="http://www.w3.org/1999/xlink" xml:space="preserve" style="fill-rule:evenodd;clip-rule:evenodd;stroke-linejoin:round;stroke-miterlimit:1.41421;">
    <g transform="matrix(1,0,0,1,-328.756,-90)">
        <g transform="matrix(3.75,0,0,3.75,450,300)">
            <g id="spear">
                <g id="spearshape" transform="matrix(0.866025,0.5,-0.5,0.866025,0,0)">
                    <path d="M-1,55.426L1,55.426L1,-38C3,-40 3,-43 3,-46C3,-48 3,-56 0,-64.663C-3,-56 -3,-48 -3,-46C-3,-43 -3,-40 -1,-38L-1,55.426Z" style="fill-rule:nonzero;"/>
                </g>
                <g id="spearshape1" transform="matrix(0.866025,0.5,-0.5,0.866025,0,0)">
                    <path d="M-1,55.426L1,55.426L1,-38C3,-40 3,-43 3,-46C3,-48 3,-56 0,-64.663C-3,-56 -3,-48 -3,-46C-3,-43 -3,-40 -1,-38L-1,55.426Z" style="fill:white;fill-rule:nonzero;"/>
                </g>
            </g>
        </g>
        <g transform="matrix(3.75,0,0,3.75,450,300)">
            <g id="spear1" transform="matrix(-1,0,0,1,0,0)">
                <g id="spearshape2" transform="matrix(0.866025,0.5,-0.5,0.866025,0,0)">
                    <path d="M-1,55.426L1,55.426L1,-38C3,-40 3,-43 3,-46C3,-48 3,-56 0,-64.663C-3,-56 -3,-48 -3,-46C-3,-43 -3,-40 -1,-38L-1,55.426Z" style="fill-rule:nonzero;"/>
                </g>
                <g id="spearshape3" transform="matrix(0.866025,0.5,-0.5,0.866025,0,0)">
                    <path d="M-1,55.426L1,55.426L1,-38C3,-40 3,-43 3,-46C3,-48 3,-56 0,-64.663C-3,-56 -3,-48 -3,-46C-3,-43 -3,-40 -1,-38L-1,55.426Z" style="fill:white;fill-rule:nonzero;"/>
                </g>
            </g>
        </g>
        <g transform="matrix(3.75,0,0,3.75,450,300)">
            <path d="M-19,24C-16,32 -6,48 0,48C6,48 16,32 19,24L19,-24C16,-32 6,-48 0,-48C-6,-48 -16,-32 -19,-24L-19,24Z" style="fill:rgb(187,0,0);fill-rule:nonzero;"/>
        </g>
        <g transform="matrix(3.75,0,0,3.75,450,300)">
            <path id="deco_r" d="M19,24C22,16 24,8 24,0C24,-8 22,-16 19,-24C16,-16 14,-8 14,0C14,8 16,16 19,24Z" style="fill-rule:nonzero;"/>
        </g>
        <g transform="matrix(3.75,0,0,3.75,450,300)">
            <g id="deco_r1" transform="matrix(-1,0,0,1,0,0)">
                <path d="M19,24C22,16 24,8 24,0C24,-8 22,-16 19,-24C16,-16 14,-8 14,0C14,8 16,16 19,24Z" style="fill-rule:nonzero;"/>
            </g>
        </g>
        <g transform="matrix(3.75,0,0,3.75,450,300)">
            <g>
                <ellipse cx="0" cy="0" rx="4" ry="6" style="fill:white;"/>
                <path id="deco_br" d="M1,5.85C1,5.85 5,13.85 5,26.85C5,39.85 1,47.85 1,47.85L1,5.85Z" style="fill:white;fill-rule:nonzero;"/>
                <g id="deco_br1" transform="matrix(-1,-0,-0,-1,0,0)">
                    <path d="M1,5.85C1,5.85 5,13.85 5,26.85C5,39.85 1,47.85 1,47.85L1,5.85Z" style="fill:white;fill-rule:nonzero;"/>
                </g>
                <g id="deco_br2" transform="matrix(-1,0,0,1,0,0)">
                    <path d="M1,5.85C1,5.85 5,13.85 5,26.85C5,39.85 1,47.85 1,47.85L1,5.85Z" style="fill:white;fill-rule:nonzero;"/>
                </g>
                <g id="deco_br3" transform="matrix(1,0,0,-1,0,0)">
                    <path d="M1,5.85C1,5.85 5,13.85 5,26.85C5,39.85 1,47.85 1,47.85L1,5.85Z" style="fill:white;fill-rule:nonzero;"/>
                </g>
            </g>
        </g>
    </g>
</svg>
