<?xml version="1.0" encoding="UTF-8" standalone="no"?>
<!DOCTYPE svg PUBLIC "-//W3C//DTD SVG 1.1//EN" "http://www.w3.org/Graphics/SVG/1.1/DTD/svg11.dtd">
<svg width="100%" height="100%" viewBox="0 0 91 63" version="1.1" xmlns="http://www.w3.org/2000/svg" xmlns:xlink="http://www.w3.org/1999/xlink" xml:space="preserve" style="fill-rule:evenodd;clip-rule:evenodd;stroke-linejoin:round;stroke-miterlimit:1.41421;">
    <g transform="matrix(1,0,0,1,0.0257036,0.000686083)">
        <g transform="matrix(1,0,0,1,-5,-18.56)">
            <path d="M49,24.28L48.92,24.19L48.69,24L48.45,24L48.33,24C46.109,25.347 43.797,26.536 41.41,27.56C41.207,27.62 41.067,27.808 41.067,28.02C41.067,28.281 41.279,28.496 41.54,28.5L41.67,28.5C43.742,27.651 45.748,26.649 47.67,25.5C47.123,26.48 46.381,27.337 45.49,28.02C43,30 43.09,30.21 43.2,30.53C43.273,30.728 43.459,30.863 43.67,30.87C43.726,30.88 43.784,30.88 43.84,30.87C44.26,30.71 47.94,29.27 48.84,28.32C49.74,27.37 49.06,24.65 48.95,24.32L49,24.28ZM48.24,27.61C47.54,28.141 46.773,28.578 45.96,28.91L46.05,28.84C47.032,28.085 47.852,27.139 48.46,26.06C48.587,26.592 48.497,27.154 48.21,27.62L48.24,27.61Z" style="fill:white;fill-rule:nonzero;"/>
        </g>
        <g transform="matrix(1,0,0,1,-5,-18.56)">
            <path d="M93.55,38.06C93.55,37.39 93.6,33.98 90.81,32.33C89.873,31.76 88.965,31.142 88.09,30.48C86.231,29.02 84.182,27.818 82,26.91L81.17,26.57C77.79,25.19 77.17,24.94 73.88,24.82C72.279,24.644 70.736,24.118 69.36,23.28C67.925,22.397 66.3,21.869 64.62,21.74C63.84,21.74 63.02,21.74 62.14,21.83C58.64,22.01 54.28,22.23 49.97,19.75C48.191,18.611 46.012,18.27 43.97,18.81C41.33,19.56 38.9,21.88 36.73,25.72L36.5,25.52C35.468,24.594 34.763,23.359 34.49,22C34.456,21.765 34.253,21.588 34.015,21.588C33.851,21.588 33.698,21.672 33.61,21.81C32.61,23.41 31.61,24.91 33.66,27.14C35.12,28.73 34.94,29.55 34.94,29.55C34.444,30.727 34.01,31.928 33.64,33.15C33.207,34.13 32.713,35.082 32.16,36L31.23,37C30.17,36.94 27.53,36.68 26.35,35.49C25.928,35.067 25.429,34.727 24.88,34.49C24.49,34.246 23.998,34.227 23.59,34.44C23.364,34.63 23.267,34.934 23.34,35.22C23.413,35.506 24.14,39.81 25.71,42.33L25.87,42.63C22.77,41.85 15.08,38.63 7.75,25.47C7.44,24.98 6.63,23.85 5.82,24.05C5.01,24.25 5.02,25.05 4.98,25.69C4.78,28.86 9.85,41.9 18.58,48.03C19.369,49.849 20.842,51.286 22.68,52.03L22.51,53C22.51,53.11 22.51,53.22 22.51,53.32C22.51,54.16 24.16,56.88 25.51,56.88L25.62,56.88L26.08,58.07C26.398,59.523 27.604,60.625 29.08,60.81C32.07,61.382 35.165,61.004 37.93,59.73C38.859,59.222 39.749,58.643 40.59,58L41.38,59C41.38,59 43.59,61.73 45.25,63.52C46.149,64.624 46.637,66.006 46.63,67.43C46.694,68.102 46.794,68.769 46.93,69.43C47.09,70.16 46.55,70.57 45.64,71.2C44.73,71.83 43.36,72.77 44.42,74.46C45.029,75.329 45.993,75.886 47.05,75.98C47.447,76.042 47.848,76.072 48.25,76.07C50.139,76.099 51.998,75.582 53.6,74.58C54.89,73.52 54.35,71.75 53.81,70.81C53.98,70.03 54.5,67.44 54,66.2C53.86,65.875 53.678,65.569 53.46,65.29C53,64.65 52.46,63.85 52.24,60.89L52.39,60.07C53.578,60.617 54.863,60.923 56.17,60.97L57.1,60.97C57.1,61.34 57.1,61.72 57.1,62.1C56.774,64.971 56.774,67.869 57.1,70.74C57.303,72.087 56.941,73.459 56.1,74.53C55.744,74.988 55.483,75.511 55.33,76.07C55.159,77.57 55.966,79.023 57.33,79.67L58.33,80.67C59.284,81.139 60.338,81.369 61.4,81.34C62.536,81.331 63.662,81.114 64.72,80.7L66.17,80.06L66.28,80C66.37,79.93 68.47,78.23 67.84,76.51C67.554,75.864 67.154,75.275 66.66,74.77C65.983,74.167 65.546,73.339 65.43,72.44C65.43,71.75 65.38,71.15 65.33,70.62C65.199,69.957 65.219,69.274 65.39,68.62C66.203,66.66 66.908,64.657 67.5,62.62L68.24,62.73C70.5,62.876 72.769,62.7 74.98,62.21L75.23,63.09C75.7,65.09 74.78,65.87 73.89,66.68C73,67.49 72.13,68.27 73.41,69.68C73.808,70.141 74.323,70.487 74.9,70.68C75.418,70.843 75.957,70.924 76.5,70.92C77.322,70.912 78.139,70.777 78.92,70.52C80.12,70.13 81.56,69.35 81.65,68.42L81.65,68.34C81.646,67.251 81.914,66.179 82.43,65.22C83.19,64.31 81.98,62.05 81.37,61.03L81.42,60C82.161,59.565 82.87,59.077 83.54,58.54L83.41,59.54C83.176,60.792 83.176,62.078 83.41,63.33C83.835,64.657 83.835,66.083 83.41,67.41C83.25,67.716 83.059,68.004 82.84,68.27C82.17,69.14 81.26,70.34 82.3,71.84L82.36,71.91C82.935,72.378 83.584,72.746 84.28,73C84.335,73.036 84.396,73.059 84.46,73.07C85.133,73.332 85.848,73.467 86.57,73.47C87.161,73.469 87.748,73.374 88.31,73.19C88.619,73.09 88.92,72.966 89.21,72.82C90.165,72.446 90.864,71.607 91.06,70.6C91.028,69.439 90.5,68.346 89.61,67.6C89.996,64.829 90.666,62.104 91.61,59.47C91.92,58.47 92.25,57.58 92.61,56.59C94.47,51.35 96.41,45.94 93.55,38.06ZM34.36,26.48C33.15,25.15 33.24,24.32 33.84,23.24C34.271,24.396 34.983,25.427 35.91,26.24L36.32,26.6L35.57,28.19C35.253,27.563 34.846,26.987 34.36,26.48L34.36,26.48ZM24.36,35.17L24.53,35.24C24.969,35.44 25.366,35.721 25.7,36.07C27.35,37.74 31,37.87 31.63,37.88C32.185,38.207 32.513,38.817 32.48,39.46C32.36,40.83 30.23,42.75 28.48,43.03L27.57,43.24C27.456,43.151 27.336,43.071 27.21,43L26.52,41.72C25.464,39.66 24.729,37.452 24.34,35.17L24.36,35.17ZM19.45,47.44C19.415,47.347 19.352,47.266 19.27,47.21C10.5,41.13 5.81,28.08 6,25.63C6.001,25.374 6.048,25.119 6.14,24.88C6.482,25.138 6.771,25.461 6.99,25.83C14.49,39.31 22.48,42.63 25.71,43.43C25.775,43.478 25.85,43.509 25.93,43.52C26.507,43.6 27.031,43.902 27.39,44.36C27.741,45.329 27.741,46.391 27.39,47.36C26.637,49.123 25.143,50.467 23.31,51.03C21.586,50.414 20.189,49.115 19.45,47.44L19.45,47.44ZM52.69,65.92C52.863,66.138 53.007,66.376 53.12,66.63C53.49,67.57 53.05,70 52.84,70.86C52.809,70.986 52.831,71.12 52.9,71.23C52.969,71.34 54.06,73.04 53,73.91C52.037,74.519 50.951,74.908 49.82,75.05C49.768,74.33 49.896,73.609 50.19,72.95C50.212,72.894 50.224,72.834 50.224,72.774C50.224,72.51 50.007,72.294 49.744,72.294C49.574,72.294 49.416,72.384 49.33,72.53C48.954,73.353 48.796,74.258 48.87,75.16C48.316,75.203 47.759,75.183 47.21,75.1C46.74,75.037 46.288,74.881 45.88,74.64C46.227,74.044 46.693,73.527 47.25,73.12C47.342,73.03 47.394,72.906 47.394,72.777C47.394,72.514 47.177,72.297 46.914,72.297C46.824,72.297 46.736,72.323 46.66,72.37C46.089,72.804 45.593,73.327 45.19,73.92C44.75,73.16 45.11,72.8 46.19,72.05C47.08,71.44 48.19,70.68 47.87,69.29C47.738,68.656 47.642,68.015 47.58,67.37C47.573,65.739 46.996,64.161 45.95,62.91C44.31,61.15 42.14,58.47 42.13,58.45L41.34,57.45C42.21,56.76 43.05,56.03 43.87,55.3L44.78,55.97C46.161,56.819 47.638,57.5 49.18,58C49.881,58.66 50.66,59.231 51.5,59.7L51.29,60.85C51.286,60.887 51.286,60.923 51.29,60.96C51.48,64.25 52.15,65.17 52.69,65.92ZM64.69,68.39C64.455,69.171 64.41,69.998 64.56,70.8C64.56,71.31 64.66,71.89 64.66,72.53C64.756,73.679 65.281,74.75 66.13,75.53C66.543,75.95 66.881,76.437 67.13,76.97C67.44,77.83 66.4,78.97 65.91,79.35L65.53,79.52C65.754,78.547 65.506,77.522 64.86,76.76C64.772,76.62 64.619,76.536 64.454,76.536C64.19,76.536 63.974,76.752 63.974,77.016C63.974,77.15 64.03,77.279 64.13,77.37C64.716,78.122 64.814,79.151 64.38,80C62.697,80.681 60.813,80.681 59.13,80C58.933,78.839 58.957,77.652 59.2,76.5C59.201,76.488 59.201,76.475 59.201,76.463C59.201,76.2 58.985,75.983 58.721,75.983C58.52,75.983 58.339,76.11 58.27,76.3C58.073,77.21 57.982,78.139 58,79.07L57.9,78.98C57.846,78.929 57.781,78.891 57.71,78.87C56.756,78.409 56.179,77.406 56.26,76.35C56.387,75.911 56.598,75.5 56.88,75.14C57.84,73.877 58.251,72.279 58.02,70.71C57.702,67.902 57.702,65.068 58.02,62.26C58.054,61.701 58.054,61.139 58.02,60.58C57.969,59.358 57.774,58.146 57.44,56.97C57.901,56.98 58.363,56.954 58.82,56.89C61.776,56.1 64.915,56.336 67.72,57.56C67.5,61.61 65,67.69 64.71,68.39L64.69,68.39ZM80.69,61.39C80.698,61.453 80.718,61.515 80.75,61.57C81.65,63.05 82.13,64.48 81.95,64.74C81.286,65.837 80.94,67.098 80.95,68.38L80.95,68.46C80.95,68.63 80.44,69.14 79.32,69.58C79.226,68.991 79.27,68.389 79.45,67.82C79.464,67.774 79.471,67.727 79.471,67.679C79.471,67.416 79.254,67.199 78.991,67.199C78.8,67.199 78.626,67.314 78.55,67.49C78.296,68.257 78.244,69.077 78.4,69.87C77.523,70.125 76.598,70.17 75.7,70C75.715,69.255 76.008,68.541 76.52,68C76.59,67.914 76.629,67.807 76.629,67.696C76.629,67.432 76.412,67.216 76.149,67.216C76.04,67.216 75.935,67.252 75.85,67.32C75.246,67.941 74.86,68.741 74.75,69.6C74.588,69.493 74.44,69.365 74.31,69.22C73.68,68.51 73.86,68.3 74.71,67.53C76.161,66.525 76.821,64.701 76.35,63L76.11,62.14C77.644,61.751 79.13,61.19 80.54,60.47L80.69,61.39ZM91.69,56.25C91.35,57.25 90.99,58.19 90.69,59.16C88.76,65.16 88.69,67.66 88.69,67.76C88.686,67.906 88.749,68.046 88.86,68.14C89.26,68.47 90.26,69.54 90.15,70.49C90.09,71.05 89.64,71.55 88.82,71.96C88.826,71.076 88.624,70.202 88.23,69.41C88.164,69.215 87.981,69.084 87.775,69.084C87.512,69.084 87.295,69.3 87.295,69.564C87.295,69.667 87.329,69.767 87.39,69.85C87.78,70.621 87.927,71.493 87.81,72.35C86.868,72.609 85.869,72.57 84.95,72.24C84.778,71.528 84.859,70.778 85.18,70.12C85.196,70.071 85.205,70.02 85.205,69.968C85.205,69.705 84.988,69.488 84.725,69.488C84.561,69.488 84.408,69.572 84.32,69.71C84.038,70.339 83.892,71.021 83.89,71.71C83.624,71.549 83.373,71.365 83.14,71.16C82.57,70.3 82.98,69.68 83.68,68.75C83.941,68.442 84.169,68.106 84.36,67.75C84.861,66.227 84.861,64.583 84.36,63.06C84.154,61.929 84.154,60.771 84.36,59.64L84.64,57.56C86.807,55.467 88.422,52.87 89.34,50C90.142,47.447 90.481,44.772 90.34,42.1C90.333,41.842 90.118,41.633 89.86,41.633C89.597,41.633 89.38,41.85 89.38,42.113C89.38,42.146 89.383,42.178 89.39,42.21C89.494,44.746 89.155,47.28 88.39,49.7C87.537,52.428 86.029,54.907 84,56.92C83.912,56.961 83.839,57.027 83.79,57.11C82.896,57.936 81.913,58.66 80.86,59.27C80.751,59.289 80.652,59.345 80.58,59.43C79.008,60.289 77.326,60.928 75.58,61.33C75.464,61.309 75.344,61.338 75.25,61.41C73.054,61.91 70.796,62.078 68.55,61.91L67.95,61.82C68.287,60.574 68.524,59.303 68.66,58.02C68.76,58.03 68.86,58.03 68.96,58.02L69.06,58.02C69.505,57.994 69.91,57.755 70.15,57.38C71.378,55.344 71.863,52.943 71.52,50.59C71.5,50.342 71.29,50.148 71.042,50.148C70.778,50.148 70.562,50.365 70.562,50.628C70.562,50.673 70.568,50.717 70.58,50.76C70.871,52.878 70.434,55.033 69.34,56.87C69.264,56.992 69.133,57.07 68.99,57.08C68.837,57.092 68.687,57.029 68.59,56.91C68.558,56.875 68.521,56.844 68.48,56.82C68.32,56.73 64.57,54.51 58.67,55.9C58.069,55.971 57.461,55.971 56.86,55.9C56.735,55.946 56.594,55.924 56.49,55.84C55.944,55.795 55.447,55.504 55.14,55.05C54.928,54.405 55.012,53.697 55.37,53.12C55.385,53.073 55.392,53.025 55.392,52.976C55.392,52.713 55.175,52.496 54.912,52.496C54.743,52.496 54.587,52.585 54.5,52.73C54.012,53.569 53.938,54.589 54.3,55.49C54.73,56.207 55.47,56.684 56.3,56.78L56.42,56.78C56.752,57.84 56.963,58.933 57.05,60.04L56.17,60.04C53.772,59.863 51.506,58.863 49.76,57.21C49.7,57.148 49.624,57.103 49.54,57.08C48.055,56.586 46.634,55.914 45.31,55.08L44.59,54.55L45.68,53.55C48.15,51.44 49.8,46.7 49.86,46.5C49.866,46.468 49.87,46.436 49.87,46.404C49.87,46.141 49.653,45.924 49.39,45.924C49.208,45.924 49.041,46.027 48.96,46.19C48.879,46.353 47.35,51 45.08,53L43.58,54.31C41.748,56.067 39.713,57.601 37.52,58.88C34.938,60.064 32.05,60.414 29.26,59.88C28.189,59.74 27.317,58.936 27.09,57.88C27.093,57.85 27.093,57.82 27.09,57.79L26.77,56.96C27.35,56.96 28.34,56.96 30.6,56.9C35.01,56.72 35.6,55.29 35.66,55C35.724,54.745 35.572,54.482 35.32,54.41C35.28,54.399 35.238,54.393 35.196,54.393C34.986,54.393 34.802,54.537 34.75,54.74C34.698,54.943 34.27,55.8 30.57,55.95C29.161,56.039 27.749,56.039 26.34,55.95C26.12,55.95 25.93,55.95 25.62,55.95C24.96,55.95 23.54,53.95 23.53,53.35C23.53,53.28 23.53,53.2 23.53,53.16L23.75,51.95C25.806,51.287 27.47,49.754 28.3,47.76C28.721,46.573 28.721,45.277 28.3,44.09L28.73,43.99C30.67,43.68 33.28,41.54 33.45,39.57C33.516,38.646 33.085,37.753 32.32,37.23L32.92,36.61L32.98,36.53C33.575,35.566 34.106,34.564 34.57,33.53L34.57,33.47C34.929,32.276 35.349,31.101 35.83,29.95L37.35,26.74C39.43,22.89 41.83,20.48 44.29,19.74C46.078,19.281 47.979,19.59 49.53,20.59C54.09,23.21 58.6,22.98 62.23,22.79C63.09,22.79 63.91,22.7 64.66,22.7C66.187,22.835 67.66,23.328 68.96,24.14C70.457,25.046 72.138,25.607 73.88,25.78C77.01,25.9 77.52,26.1 80.88,27.46L81.71,27.8C83.813,28.68 85.788,29.841 87.58,31.25C88.48,31.934 89.415,32.572 90.38,33.16C92.9,34.65 92.65,38.06 92.65,38.1C92.635,38.169 92.635,38.241 92.65,38.31C95.41,45.9 93.52,51.16 91.69,56.25Z" style="fill:white;fill-rule:nonzero;"/>
        </g>
        <g transform="matrix(1,0,0,1,-5,-18.56)">
            <path d="M39.8,40.81C39.248,40.912 38.757,41.224 38.43,41.68C38.383,41.757 38.383,41.853 38.43,41.93C38.737,42.542 39.323,42.968 40,43.07L40.19,43.07C41.03,42.986 41.813,42.607 42.4,42C42.452,41.954 42.481,41.889 42.481,41.82C42.481,41.751 42.452,41.686 42.4,41.64C41.691,41.007 40.745,40.705 39.8,40.81L39.8,40.81Z" style="fill:white;fill-rule:nonzero;"/>
        </g>
    </g>
</svg>
