<?xml version="1.0" encoding="UTF-8" standalone="no"?>
<!DOCTYPE svg PUBLIC "-//W3C//DTD SVG 1.1//EN" "http://www.w3.org/Graphics/SVG/1.1/DTD/svg11.dtd">
<svg width="100%" height="100%" viewBox="0 0 99 88" version="1.1" xmlns="http://www.w3.org/2000/svg" xmlns:xlink="http://www.w3.org/1999/xlink" xml:space="preserve" style="fill-rule:evenodd;clip-rule:evenodd;stroke-linejoin:round;stroke-miterlimit:1.41421;">
    <g transform="matrix(1,0,0,1,-0.973987,-6.27464)">
        <path d="M21.5,19.1C20.3,19.3 19.2,19.8 18.3,20.6C17.1,21.6 17.3,23.6 17.4,25C17.5,25.9 17.6,26.7 17.7,27.5C17.9,29.4 18.1,31 18.5,32.4C19.1,34.6 20.6,35.8 23.1,36C23.2,36 23.3,36 23.4,36C25.1,36 26.5,34.7 27.2,32.6L27.2,32.5C27.5,31.3 27.7,29.8 27.9,27.9C28,27.1 28.1,26.2 28.3,25.2C28.5,23.8 28.6,22.1 27.7,21.2C25.6,19 23.8,18.8 21.5,19.1ZM23.2,34.5C21.9,34.4 20.9,34 20.4,33.2C21.3,33.3 22.2,33.1 23,32.7C23.5,32.9 24.4,33.2 25.5,33.2C24.9,33.9 24.2,34.6 23.2,34.5ZM26.9,24.9C26.8,25.9 26.6,26.8 26.5,27.6C26.3,29.3 26.1,30.7 25.9,31.7C24.5,32 23.1,31.3 23.1,31.2C22.9,31.1 22.6,31.1 22.3,31.3C21.5,31.9 20.6,32 19.6,31.6C19.3,30.4 19.1,29 18.9,27.3C18.8,26.5 18.7,25.7 18.6,24.8C18.3,22.7 18.7,21.9 19,21.6C19.8,20.9 20.7,20.5 21.6,20.4C23.6,20.1 24.9,20.3 26.6,22.1C27,22.3 27.2,23 26.9,24.9Z" style="fill:white;fill-rule:nonzero;"/>
        <path d="M94.4,26.2C92.6,23.6 87.6,17.3 78.8,15.7C77.4,14.9 74.8,13.8 72,15.5C71.9,15.5 71.8,15.5 71.7,15.5C71.4,15.5 71.2,15.6 70.9,15.6C68.8,15.1 65,14.6 61.8,17C59.7,16.5 56.8,16.3 54.1,17.9C53.7,18.2 53.3,18.4 53.1,18.6C51.1,18 47.7,17.4 44.6,19.2C44.5,19.3 44.4,19.3 44.3,19.4C42.6,20.4 39.8,20.8 38.5,20.9C42.6,20.7 46,17.9 46.4,16.3C46.6,15.7 46.3,15.2 45.8,14.9C44.3,14.1 40.9,12.9 38.5,12.9C37.5,12.9 36.6,13.1 36,13.3C35.2,11.3 33.7,9.8 32.5,8.9C31.3,7.6 28.9,5.6 25.5,6.5C25.2,6.6 24.9,6.7 24.6,6.8C23,6.2 20.8,5.9 18.5,7.4C18.2,7.6 18,7.8 17.8,7.9C16.2,7.8 13.6,8.1 12,10.9C11.7,11.4 11.6,11.7 11.5,12.1C11.1,12.6 10.8,13.1 10.6,13.6C10,13.3 8.9,12.8 7.3,12.8C5.6,12.8 4.2,14 2.9,15C2.3,15.5 1.8,15.9 1.4,16.1C1.1,16.5 0.9,17 1,17.5C1.4,18.9 5.9,20.7 8.9,20.8C8.5,23 8.5,26 10.3,28.6L10.3,28.7C9.8,30.9 9.7,34 11.6,36.7C11.7,36.9 11.8,37 11.9,37.1C11.5,39.2 11.3,42.7 13.6,45.6C13.9,46 14.1,46.2 14.4,46.4C14.4,48.6 15,52.3 18.1,54.7C18.3,54.9 18.5,55 18.7,55.1C18.9,56.6 19.7,59.5 23,60.5C23.5,60.6 23.9,60.7 24.2,60.7C24.4,60.8 24.5,60.9 24.7,61C24.9,62 25.8,65.8 27.1,70.4C28.7,75.7 29.8,87 29.8,87.1C29.8,87.4 30.1,87.7 30.5,87.7L33.9,87.7C34.1,87.7 34.3,87.6 34.4,87.5C34.5,87.4 34.6,87.2 34.6,87C34.6,86.5 34.4,75.4 34.1,73.7C34,72.7 35.1,66.9 36,63.1L36.6,63.1C36.4,65.5 35.4,70.6 34.8,73.6C34.5,74.9 34.7,76.2 34.9,77.7C35.2,80.1 35.7,83.1 34.8,87.7L34.8,92.3C34.8,92.6 35,92.9 35.3,92.9C35.4,92.9 37,93.4 38.7,93.4C39.6,93.4 40.6,93.3 41.5,92.8C41.7,92.7 41.8,92.5 41.9,92.3C42,92 43.3,85.6 43.3,82.9C43.3,80.5 45.8,73.4 48.4,68.5C49.2,67.1 50.4,64.6 51.5,61.7C53.5,61.7 60.2,61.8 63.7,61.7C65.6,63.1 70.1,66.7 70.3,69.2C70.5,72 69.4,75.5 67,80.3C65,84.3 63.4,88.6 63.3,88.6C63.2,88.8 63.3,89 63.4,89.2C63.5,89.4 63.7,89.5 64,89.5L69.7,89.5C69.9,89.5 70.1,89.4 70.2,89.2L71.8,87.2L71.8,87.1C71.9,87 77.5,77.8 80.2,73.7C82.4,70.4 81.8,69 81.1,67C80.8,66.3 80.5,65.5 80.3,64.6C79.8,62.3 80.1,60.6 80.5,59.7C81.1,60.3 81.6,60.9 81.8,61.2C82.7,62.7 85.1,67.1 85.3,69.8C85.5,72.6 85.5,82.9 85.3,84.4C85.1,85.9 84.4,88.9 84.4,88.9C84.3,89.2 84.5,89.6 84.8,89.7C85.4,89.9 90.5,91.6 92.7,89.3C92.8,89.2 92.9,89 92.9,88.8C92.8,87.1 92.5,82.4 92.9,80.8C93.1,79.9 93.2,78.3 93.3,76.2C93.4,73 93.6,69.1 94.4,66.2C95,64 94.6,61.3 94.1,58.6C93.9,57.3 93.6,55.9 93.5,54.6C95.1,52.1 95.1,49.4 94.7,47.5C94.8,47.2 95,46.8 95.1,46.5C95.2,46.4 95.2,46.3 95.3,46.2C96.6,44.3 97.1,41.9 96.8,39.3C97.8,39.3 98.4,38.9 98.7,38.5C100.4,36 95.5,27.8 94.4,26.2ZM45.1,16.1C44.8,17 41.9,19.4 38.3,19.6C37.9,18.7 37,18.2 36.4,17.9C36.4,17.8 36.4,17.7 36.5,17.7C36.6,17.5 36.8,17.3 37.1,17.1C38.1,16.4 39.7,16.4 41.8,16.9C42.2,17 42.5,16.8 42.6,16.4C42.7,16 42.5,15.7 42.1,15.6C39.7,15 37.9,15 36.5,15.8C36.5,15.4 36.4,15 36.4,14.7C36.9,14.5 37.6,14.3 38.6,14.3C40.6,14.3 43.6,15.3 45.1,16.1ZM2.6,17.3C3,17 3.5,16.6 4,16.2C5.1,15.3 6.3,14.3 7.5,14.3C9,14.3 10,14.8 10.3,15C10.3,15.1 10.2,15.3 10.2,15.4C10.1,15.3 9.9,15.2 9.7,15.1C8.5,14.6 6.9,15.1 4.9,16.4C4.6,16.6 4.5,17 4.7,17.3C4.9,17.6 5.3,17.7 5.6,17.5C7.1,16.5 8.4,16.1 9.1,16.4C9.6,16.6 9.8,17.1 9.8,17.2C9.8,17.3 9.9,17.4 9.9,17.5C9.9,18.1 10.1,18.5 10.3,18.7L9.4,19.3C7.2,19.5 3.6,18.1 2.6,17.3ZM31.1,86.3C31,85.7 30.9,84.7 30.8,83.4C31.4,83.7 32.2,84.1 33,84.1C33.1,84.1 33.1,84.1 33.2,84.1C33.2,84.9 33.2,85.6 33.2,86.3L31.1,86.3ZM32.8,73.9C32.9,74.7 33,78.7 33.1,82.4C33.1,82.6 33.1,82.7 33.1,82.7C32.9,82.8 31.8,82.5 30.9,81.8C30.8,81.7 30.7,81.7 30.6,81.7C30.1,78 29.4,73 28.5,69.9C27.5,66.4 26.7,63.4 26.3,61.7C28.1,62.5 30.1,63 32.6,63L34.6,63C34,65.8 32.6,72.5 32.8,73.9ZM36.1,91.9L36.1,89.2C36.3,89.3 36.5,89.3 36.7,89.3C37.2,89.3 37.7,89.2 38.2,88.8C38.7,89.2 39.4,89.8 40.3,89.8C40.5,89.8 40.7,89.8 40.9,89.7C40.7,90.7 40.6,91.4 40.5,91.9C39.1,92.5 37.1,92.1 36.1,91.9ZM69.2,88.4L64.9,88.4C65.1,87.8 65.5,86.9 66,85.8C66.9,86.2 68.1,86.4 69.1,85.7C69.5,86 70,86.3 70.7,86.4C70.7,86.5 70.6,86.5 70.6,86.6L69.2,88.4ZM78.9,65.1C79.2,66.2 79.5,67 79.7,67.7C80.4,69.5 80.8,70.5 79,73.2C77.1,76 73.8,81.4 71.9,84.4C71.5,85 71.2,85 71.1,85C70.5,85.1 69.8,84.5 69.6,84.2C69.5,84.1 69.3,84 69.1,84C68.9,84 68.7,84.1 68.6,84.2C68,85 67,84.8 66.5,84.5C67,83.4 67.5,82.2 68.1,81.1C70.7,76.1 71.8,72.3 71.6,69.3C71.4,66.6 67.8,63.4 65.7,61.7C70.9,60.3 73.3,59 76.1,55.7C77,56.5 78.3,57.7 79.4,58.9C78.9,59.8 78.1,62.1 78.9,65.1ZM85.8,88.8C85.9,88.1 86.2,87.1 86.4,86.1C86.9,86.4 87.4,86.7 87.9,86.6C88.1,86.6 88.2,86.5 88.4,86.5C88.8,86.8 89.3,87.2 90,87.3C90.1,87.3 90.2,87.3 90.3,87.3C90.7,87.3 91,87.2 91.4,87.1C91.4,87.8 91.5,88.5 91.5,88.8C90.1,89.7 87.3,89.2 85.8,88.8ZM97.5,37.8C97.3,38 96.9,38 96.6,38C96.2,35.8 95.3,32.6 95.3,32.4C95.2,32 94.8,31.8 94.5,31.9C94.1,32 93.9,32.4 94,32.7C94,32.7 95.2,37.1 95.4,39C95.8,41.5 95.4,43.6 94.2,45.4C94.1,45.5 94,45.6 94,45.7C94,45.8 93.9,45.8 93.9,45.9C93.7,46.3 93.6,46.7 93.4,47.1C93.3,47.2 93.3,47.4 93.4,47.5C93.7,49.2 93.8,51.8 92.3,54C92,54.2 92,54.4 92,54.5C92.1,56 92.4,57.4 92.6,58.9C93,61.5 93.5,64 92.9,65.9C92,68.9 91.9,73 91.8,76.2C91.7,78.1 91.7,79.8 91.5,80.5C91.2,81.6 91.2,83.6 91.3,85.4C90.9,85.7 90.5,85.9 90.2,85.8C89.5,85.7 89,85 89,85C88.9,84.8 88.6,84.7 88.4,84.7C88.2,84.7 87.9,84.9 87.8,85.1C87.8,85.2 87.7,85.2 87.7,85.2C87.5,85.2 87,84.9 86.6,84.4C86.8,82 86.8,72.7 86.6,69.8C86.3,66.1 82.9,60.6 82.9,60.5C82.6,60 81.8,59.1 80.9,58.2C80.8,58.1 80.8,58 80.7,57.9C79.4,56.6 77.9,55.1 77.1,54.4C77.2,54.2 77.4,54 77.5,53.9C77.6,53.7 80.8,49.6 81,43.8C81,43.4 80.7,43.1 80.3,43.1C79.9,43.1 79.6,43.4 79.6,43.8C79.4,49.2 76.4,53.1 76.3,53.2C76,53.5 75.8,53.9 75.6,54.2C75.6,54.2 75.6,54.3 75.5,54.3C72.7,57.8 70.5,59 65.3,60.4C64.4,60.6 57,60.6 52,60.6C53.3,56.9 54.5,52.6 54.6,48.3C54.6,47.9 54.3,47.6 53.9,47.6C53.5,47.6 53.2,47.9 53.2,48.3C52.9,56.6 48.5,65.6 47.1,68.1C44.6,72.8 41.8,80.2 41.8,83.2C41.8,84.4 41.5,86.3 41.2,88.1C40.9,88.4 40.6,88.6 40.3,88.6C39.6,88.6 38.9,87.9 38.7,87.6C38.6,87.4 38.4,87.3 38.2,87.3C38,87.3 37.8,87.4 37.7,87.5C37.5,87.8 37.1,88.1 36.8,88.1C36.5,88.1 36.3,87.9 36.2,87.8C37.1,83.1 36.6,80 36.3,77.7C36.1,76.3 35.9,75.1 36.1,74.1C36.8,71.1 38,64.7 38,62.6C38,60.4 34.1,56.4 33.3,55.6C33,55.3 32.6,55.3 32.3,55.6C32,55.9 32,56.3 32.3,56.6C33.8,58.1 35.9,60.5 36.5,61.9L32.6,61.9C29.4,61.8 26.9,61 24.8,59.5C24.6,59.4 24.4,59.3 24.3,59.4C24.3,59.4 24,59.4 23.4,59.3C20.7,58.5 20.1,56.1 20,54.7C20,54.5 19.8,54.3 19.6,54.2C19.4,54.1 19.2,53.9 18.9,53.7C16.1,51.5 15.7,48 15.8,46.2C15.8,45.9 15.7,45.7 15.4,45.6C15.3,45.6 15.1,45.4 14.7,44.9C12.6,42.3 12.9,38.9 13.3,37.2C13.3,37 13.3,36.8 13.1,36.6C13,36.5 12.8,36.3 12.7,36.1C11,33.7 11.2,30.8 11.7,28.9C11.7,28.7 11.7,28.5 11.6,28.3C11.5,28.2 11.5,28.1 11.4,28C9.7,25.5 9.9,22.6 10.4,20.6L12,19.4C12.2,19.3 12.3,19.1 12.3,18.8C12.3,18.6 12.2,18.4 12,18.2L11.4,17.8C11.3,17.5 11.4,16.2 11.6,15.1C11.9,14.3 12.3,13.6 12.8,13C12.9,12.9 12.9,12.7 13,12.6C13,12.6 13,12.3 13.3,11.8C14.5,9.6 16.6,9.3 18.1,9.5C18.3,9.5 18.6,9.4 18.7,9.3C18.8,9 19,8.9 19.4,8.6C20.9,7.6 22.7,7.5 24.5,8.3C24.7,8.4 24.9,8.4 25.1,8.2C25.2,8.1 25.4,8 25.9,7.9C28.7,7.2 30.6,8.9 31.6,9.9L31.7,10C32.9,10.9 34.5,12.3 35,14.4C35.2,15.2 35.3,16.3 35.2,17.1C34.9,17.6 34.8,18 34.8,18.1C34.8,18.2 34.8,18.2 34.8,18.3C34.8,18.4 34.9,18.4 34.9,18.5C34.9,18.6 35,18.6 35.1,18.6C35.2,18.6 35.2,18.7 35.3,18.7C35.7,18.8 37.1,19.3 37.1,20.1C37.1,20.4 37.2,20.9 37.2,21.5C37.3,22.7 37.3,24.3 37.1,25.7C37.1,26.1 37.3,26.4 37.7,26.5C38.1,26.6 38.4,26.3 38.5,25.9C38.7,24.7 38.7,23.2 38.6,22.1C40,22 43.1,21.6 45.1,20.5L45.2,20.5C45.3,20.5 45.3,20.4 45.4,20.4C48.1,18.8 51.2,19.3 53.2,20.1C53.3,20.1 53.4,20.1 53.5,20.1C53.8,20.1 54,19.9 54,19.7C54,19.7 54.1,19.5 54.8,19.1C57.2,17.6 59.9,17.9 61.8,18.4C62,18.5 62.2,18.4 62.4,18.3C62.5,18.2 62.6,18.2 62.7,18.1C65.5,16 68.9,16.5 70.8,17C70.9,17 71,17 71.1,17C71.4,17 71.7,16.9 72,16.9L72.4,16.9C72.5,16.9 72.6,16.9 72.7,16.8C74.9,15.4 77,16.1 78.3,17C78.4,17 78.5,17.1 78.5,17.1C86.9,18.5 91.7,24.5 93.3,27C96,31.2 98.3,36.6 97.5,37.8Z" style="fill:white;fill-rule:nonzero;"/>
        <path d="M25.6,28.2C24.7,27.9 22.8,29.3 22.8,29.3C22.8,29.3 20.9,28 20,28.2C19.8,28.3 19.4,28.4 19.8,29C20.1,29.7 22.8,30.3 22.8,30.3C22.8,30.3 25.4,29.7 25.8,29C26.2,28.3 25.8,28.2 25.6,28.2Z" style="fill:white;fill-rule:nonzero;"/>
        <circle cx="16.3" cy="19.4" r="1.4" style="fill:white;"/>
        <circle cx="29.4" cy="19.4" r="1.4" style="fill:white;"/>
    </g>
</svg>
