<?xml version="1.0" encoding="UTF-8" standalone="no"?>
<!DOCTYPE svg PUBLIC "-//W3C//DTD SVG 1.1//EN" "http://www.w3.org/Graphics/SVG/1.1/DTD/svg11.dtd">
<svg width="100%" height="100%" viewBox="0 0 91 75" version="1.1" xmlns="http://www.w3.org/2000/svg" xmlns:xlink="http://www.w3.org/1999/xlink" xml:space="preserve" style="fill-rule:evenodd;clip-rule:evenodd;stroke-linejoin:round;stroke-miterlimit:1.41421;">
    <g transform="matrix(1,0,0,1,-5,-11.4909)">
        <path d="M42.874,45.415C42.848,45.346 42.818,45.277 42.786,45.211C42.531,44.681 42.656,44.07 43.051,43.676L41.135,41.759C41.667,42.819 42.243,44.024 42.874,45.415Z" style="fill:white;fill-rule:nonzero;"/>
        <path d="M94.974,58.663C94.879,58.149 94.568,57.701 94.12,57.436L74.393,45.78C73.817,45.441 73.102,45.446 72.539,45.799L53.709,57.455C53.27,57.726 52.97,58.173 52.885,58.683C52.798,59.19 52.935,59.711 53.261,60.112C53.976,60.989 54.734,61.765 55.55,62.458L55.55,79.604C55.55,80.015 55.692,80.414 55.951,80.736C60.3,86.085 71.972,86.239 73.289,86.239C74.736,86.239 87.561,86.085 91.91,80.734C92.169,80.415 92.311,80.015 92.311,79.604L92.311,62.405C93.144,61.721 93.905,60.964 94.597,60.111C94.927,59.705 95.063,59.177 94.974,58.663ZM70.195,82.515C69.147,82.423 68.091,82.287 67.057,82.106L67.057,74.132L70.195,74.615L70.195,82.515ZM88.723,78.901C85.835,81.644 78.047,82.651 73.288,82.651C73.155,82.651 73.018,82.646 72.887,82.644L72.887,73.46C72.887,72.798 72.402,72.233 71.746,72.131L65.917,71.235C65.53,71.176 65.135,71.289 64.838,71.544C64.539,71.8 64.368,72.172 64.368,72.565L64.368,81.503C62.184,80.896 60.297,80.036 59.136,78.908L59.136,64.745C62.617,66.369 67.125,67.05 73.482,67.05C80.156,67.05 85.026,66.303 88.725,64.618L88.725,78.901L88.723,78.901L88.723,78.901Z" style="fill:white;fill-rule:nonzero;"/>
        <path d="M42.994,51.084C42.901,50.57 42.591,50.123 42.142,49.856L24.696,39.547C24.122,39.208 23.407,39.212 22.84,39.566L6.188,49.875C5.75,50.147 5.449,50.593 5.362,51.102C5.276,51.61 5.415,52.13 5.738,52.532C6.357,53.292 7.013,53.965 7.716,54.571L7.716,69.636C7.716,70.05 7.857,70.45 8.117,70.769C12.025,75.577 22.436,75.714 23.612,75.714C24.903,75.714 36.335,75.576 40.243,70.769C40.502,70.451 40.644,70.05 40.644,69.636L40.644,54.527C41.361,53.929 42.02,53.27 42.621,52.532C42.95,52.126 43.086,51.599 42.994,51.084ZM29.067,71.719C28.252,71.84 27.424,71.936 26.601,72.002L26.601,65.339L29.067,64.908L29.067,71.719ZM37.057,68.925C35.968,69.906 34.022,70.669 31.756,71.207L31.756,63.311C31.756,62.915 31.582,62.538 31.276,62.283C30.973,62.026 30.571,61.914 30.181,61.988L25.025,62.884C24.38,62.996 23.911,63.554 23.911,64.207L23.911,72.124C23.811,72.124 23.709,72.128 23.611,72.128C19.904,72.128 13.79,71.269 11.302,68.936L11.302,56.826C14.366,58.176 18.306,58.744 23.782,58.744C29.542,58.744 33.795,58.114 37.056,56.703L37.057,68.925Z" style="fill:white;fill-rule:nonzero;"/>
        <path d="M66.194,30.267L66.194,25.687C66.839,25.145 67.432,24.549 67.975,23.881C68.304,23.475 68.442,22.948 68.349,22.434C68.257,21.92 67.945,21.472 67.496,21.206L51.48,11.741C50.904,11.402 50.188,11.407 49.624,11.76L34.332,21.225C33.895,21.496 33.594,21.943 33.508,22.452C33.422,22.959 33.56,23.481 33.884,23.881C34.443,24.569 35.035,25.178 35.666,25.728L35.666,27.68C17.312,27.062 5.226,28.323 5,28.346L5.389,31.911C5.612,31.887 17.541,30.644 35.667,31.263L35.667,39.498C35.667,39.91 35.809,40.31 36.068,40.629C39.622,45.001 48.638,45.223 50.408,45.223C51.601,45.223 62.163,45.094 65.79,40.629C66.052,40.31 66.193,39.909 66.193,39.498L66.193,33.885C75.173,35.137 85.131,37.1 94.855,39.576L95,35.829C84.968,33.273 75.446,31.537 66.194,30.267ZM48.427,41.562C47.748,41.513 47.063,41.445 46.384,41.348L46.384,35.855L48.427,35.855L48.427,41.562ZM62.607,38.778C60.59,40.541 55.477,41.529 51.116,41.627L51.116,34.51C51.116,33.767 50.513,33.164 49.771,33.164L45.039,33.164C44.297,33.164 43.695,33.766 43.695,34.51L43.695,40.82C41.836,40.345 40.225,39.665 39.254,38.787L39.254,31.406L39.254,27.964C42.055,29.146 45.641,29.641 50.567,29.641C55.754,29.641 59.623,29.088 62.608,27.846L62.608,38.778L62.607,38.778Z" style="fill:white;fill-rule:nonzero;"/>
    </g>
</svg>
