<?xml version="1.0" encoding="UTF-8" standalone="no"?>
<!DOCTYPE svg PUBLIC "-//W3C//DTD SVG 1.1//EN" "http://www.w3.org/Graphics/SVG/1.1/DTD/svg11.dtd">
<svg width="100%" height="100%" viewBox="0 0 96 86" version="1.1" xmlns="http://www.w3.org/2000/svg" xmlns:xlink="http://www.w3.org/1999/xlink" xml:space="preserve" style="fill-rule:evenodd;clip-rule:evenodd;stroke-linejoin:round;stroke-miterlimit:1.41421;">
    <g transform="matrix(1,0,0,1,-2.03155,-7.2)">
        <path d="M97.8,57.6C97.5,56.2 96.6,54.6 95.9,53.3C96.6,53.5 97.1,53.5 97.2,53.5C97.4,53.5 97.6,53.4 97.7,53.2C97.8,53 97.8,52.8 97.6,52.6C97.6,52.6 94,48.4 92.3,41.1C91.1,35.6 88.4,32.7 86.8,31.4C86.3,30.7 85.7,30.1 85,29.6C83.6,28.4 80.7,27.5 80.6,27.5C79.3,27.1 77.8,26.9 76.2,26.9C74.2,26.8 72.3,26.9 70.4,27.1C69.3,27.2 66.9,27.6 66.8,27.6C63.8,28.1 61.2,28.9 58.7,29.7C58.1,29.9 57.4,30.1 56.8,30.3L54.9,30.8C53.2,31.2 51.8,31.5 50.5,31.6L48.3,31.7C46.8,31.7 45.3,31.4 43.8,31L41.7,30.3C41.6,30.3 41.6,30.2 41.5,30.2C41.5,30 41.6,29.7 41.6,29.3C41.7,28.6 41.7,27.8 41.9,27.1C42.2,26.3 41.9,25.4 41.2,24.9C38.4,22.9 36.4,21.3 35.7,20.4C34.5,18.7 28,11.2 24.2,9.3C23.7,9 23,8.9 22.4,9L20.6,9.2C20.6,9.1 20.6,9.1 20.5,9C20.5,8.5 20,7.2 19,7.2C18,7.2 17.5,8.3 17.4,8.5C17,9.4 16.8,10.4 16.7,11.4C15.5,9.8 13.6,8 12.5,8.6C10.9,9.3 12.4,13 13.3,15.1L13.8,16.1C13.5,16.3 13.2,16.5 12.9,16.7L11.6,17.7C11.2,18.1 10.9,18.4 10.8,18.6C10.5,19.5 8.2,22.5 4.9,26C2.7,28.3 2.2,30.6 2.2,31C2.1,31.3 1.6,33 3,34.2C3.1,34.3 3.3,34.4 3.4,34.5C4.2,35.2 5.4,36.2 6.8,36.2C7.4,36.2 8,36 8.7,35.6C9.5,35.1 10.8,34.8 11.9,34.6C12.4,34.5 13.8,34.3 14.3,34.1L14.4,34.1L14.8,34C16.1,33.6 17.5,33.1 18.2,32.8C18.5,33 18.9,33.2 19,33.3C19.1,33.5 19.2,33.7 19.2,33.9L19.2,34C19.4,34.6 19.8,35.9 20.5,37.6L21.5,40.2C22.4,42.3 23.3,44.4 24.4,46.3L25.7,48.6C26.6,50.2 27.6,51.8 28.7,53.3L30.3,55.3L31.9,57.2L31.9,57.3L31.4,59C30.8,61.5 29.1,69.8 29.9,71.4C30.7,72.9 35.3,79 35.5,79.2L36.5,80.2C36.7,82 37.1,85.1 36.4,86.6C35.4,88.9 35.3,90.9 35.3,91C35.3,91.2 35.4,91.4 35.6,91.5C35.7,91.5 36.8,92 38.1,92C38.8,92 39.5,91.9 40.1,91.5C41.4,90.7 42.6,89.8 41.9,88.2C41.7,87.7 42,87.3 43.4,86.1L43.7,85.8C44.9,84.8 44.1,83.4 43.3,82C42.6,80.8 41.9,79.4 41.7,77.9L41.7,77.2L41.7,73.7C41.7,72.8 41.7,71.7 41.7,70.7L41.7,69.3C41.7,68.3 41.7,67.3 41.7,66.3L41.7,64.3C41.7,62.6 41.8,61.1 41.8,59.9C41.9,59.5 42.2,58.9 42.5,58.9C43.1,59 44.4,59.3 45.7,59.3L51.4,59.4L53.3,59.4C54.9,59.4 56.4,59.5 57.7,59.5L60.3,59.5C60.9,59.5 61.9,59.4 63,59.3L64.6,59.1C65.6,59 66.5,58.8 67.4,58.6L69.3,58.1L69.7,58.8C69.8,58.9 76.1,70.3 75.6,77C75.1,83.7 74.1,84.8 72.8,86.2C71.3,87.8 71.6,90.1 71.7,90.2C71.7,90.5 72,90.7 72.2,90.7L76.3,90.8C76.6,90.8 76.8,90.6 76.8,90.4L77.1,89.3C77.4,88.3 78.1,87.5 79,87.1C80.2,86.6 80.1,85.3 79.9,84.6C79.9,81.8 81.2,69.8 81.2,69.7L81.3,69.2C81.6,69.8 81.9,70.5 82.1,71.3L82.4,72.5C82.5,73.2 82.6,73.9 82.7,74.6L82.8,76.2C82.8,77.1 82.8,78 82.7,79L82.5,80.5C82.1,83.4 81.5,85.8 81.4,86.3C80.8,87 79.2,89 79,89.6C78.8,90.2 78.6,91.6 78.6,91.7C78.6,91.8 78.6,92 78.7,92.1C78.8,92.2 78.9,92.3 79.1,92.3C79.6,92.4 80.7,92.5 81.7,92.5C83,92.5 84.3,92.3 84.8,91.7C85.1,91.3 85.3,90.8 85.6,90.3C85.9,89.5 86.3,88.7 87.4,87.7C88.9,86.4 88.5,84.8 88.2,83.7C88.1,83.2 88,82.7 88,82.4C88,82.1 88.2,81.3 88.3,80.2L88.4,79.4L89,74.7L89.5,71.2C89.6,70.2 89.8,69.3 89.9,68.5L89.9,68.4L89.9,66.5L89.9,66.4C89.7,65.1 89.1,63.7 88.5,62.2L88,60.6C87.5,59.3 87,57.6 87,55.7L87.2,53.8C87.3,53.4 87.4,53.1 87.5,52.7C87.8,51.9 88.5,49.6 89.1,46.7L89.4,44.6C89.5,44 89.5,43.5 89.6,42.9C90.8,46.7 91.3,51.2 91,53.4C90.6,56.2 91.4,61.2 92,62.7C92.3,64.8 95.6,68 95.9,68.4C96,68.5 96.2,68.6 96.3,68.6C96.4,68.6 96.5,68.6 96.6,68.5C96.8,68.4 96.9,68.1 96.8,67.8C96.8,67.8 96.2,66.2 96.9,64.9C97.1,64.5 97.2,63.8 97.2,63.1L97.3,63C97.2,63 98.5,60.9 97.8,57.6ZM57.1,31.3C57.7,31.1 58.3,30.9 59,30.7C60.9,30.1 62.9,29.5 65,29C62.1,31.9 58.5,36.6 58.1,42.3L57.9,45.1C57.2,39.6 56.2,34.3 55.7,31.6L57.1,31.3ZM47.9,32.7C48.3,33.6 48.5,34.4 48.5,34.9C48.5,35.3 48.7,36.1 49,37.5C50,42.1 52,51.5 51.5,56C51.4,57 51.3,57.8 51.1,58.5L46.6,58.4C47.1,56 47.7,50.9 45.2,44.7C44.4,42.7 43.8,40.9 43.5,39L42.2,31.6L43.5,32C45,32.4 46.5,32.6 47.9,32.7ZM40.9,26.7C40.7,27.5 40.6,28.4 40.5,29.1C40.5,29.3 40.5,29.5 40.4,29.6C39.9,29.4 39.5,29.2 39,28.9L39.6,25C39.9,25.2 40.2,25.5 40.5,25.6C40.9,25.9 41,26.3 40.9,26.7ZM34.9,26L36.5,22.6C37.2,23.2 37.9,23.7 38.6,24.3L38,28.3L37.1,27.7C36.4,27.3 35.6,26.6 34.9,26ZM35.6,21.9L34,25.2L33.4,24.6L33.2,24.4C33.1,24.3 33.1,24.3 33,24.2C32.5,23.6 31.9,23 31.3,22.4L33.1,19C33.9,19.9 34.5,20.7 34.8,21.1C35,21.2 35.3,21.5 35.6,21.9ZM32.4,18L30.6,21.4L29.8,20.5C29.1,19.8 28.5,19.1 27.9,18.5L29.6,15C30.6,16 31.5,17.1 32.4,18ZM22.2,15.1L22.4,15.2C22.6,15.3 22.7,15.4 22.9,15.5L23.6,16.1C23.2,16.9 22,19.5 21.3,21.4C21.7,19.1 22.1,16.7 22.2,15.1ZM26.1,11.9C26.9,12.6 27.8,13.4 28.7,14.2L27,17.7L26.4,17.1C25.9,16.6 25.5,16.2 25.1,15.8L25.6,14.3L26.1,11.9ZM22.6,10C23,10 23.4,10 23.8,10.2C24.2,10.4 24.7,10.7 25.2,11.1L24.5,14L24.2,15L23.7,14.5C23.5,14.3 23.2,14.2 23,14.1L22.9,14.1L21.9,13.7C21.8,13.7 21.7,13.7 21.6,13.6C21.7,12.5 21.5,11.5 21.1,10.2L22.6,10ZM18.4,9C18.5,8.7 18.8,8.4 18.9,8.4C18.9,8.4 19.2,8.5 19.5,9.4C20.2,11.2 20.5,12.3 20.4,13.5C19.5,13.5 18.4,13.7 17.8,13.8C17.7,12.5 17.6,10.7 18.4,9ZM12.9,9.6C13.3,9.5 15.1,11 16.7,13.3C16.7,13.7 16.8,14 16.8,14.3L15.6,15L14.7,15.6L14.3,14.7C13.3,12.3 12.6,9.9 12.9,9.6ZM5.7,26.8C9,23.3 11.4,20.1 11.8,19C11.8,19 11.9,18.9 12.2,18.5L12.3,18.5C11.8,20.8 11.4,21.7 11.2,21.9C10.5,22.6 7.8,26 7.1,27.1L6,27.1L5.9,27.1L5.4,27.2C5.5,27.1 5.6,26.9 5.7,26.8ZM8,34.8C6.5,35.7 5.4,35 4.1,33.8C4,33.7 3.8,33.6 3.7,33.4C2.8,32.7 3.2,31.5 3.3,31.4L3.3,31.3C3.3,31.3 3.5,30 4.5,28.5L6.1,28.2L7.4,28.2C7.4,28.2 8.2,28.5 8.9,30.9C8.9,31.1 9.1,31.2 9.2,31.3C10.6,31.9 11,32.9 11,33.8C10,33.9 8.9,34.2 8,34.8ZM13.6,33.2C13.2,33.3 12.7,33.4 12.2,33.5C12.1,32.5 11.6,31.1 9.9,30.3C9.8,29.9 9.6,29.5 9.5,29.1C10.7,28.7 12.7,28.4 13.3,29.2C13.4,29.3 13.4,29.4 13.5,29.5C13.5,29.6 13.5,29.7 13.6,29.8C14,30.9 13.8,32.4 13.6,33.2ZM14.3,28.7C14.3,28.7 14.3,28.6 14.3,28.7C13.7,27.9 12.8,27.7 11.8,27.7C10.6,27.7 9.4,28.1 8.9,28.2C8.7,27.9 8.4,27.6 8.2,27.5C9.6,25.7 11.4,23.3 11.9,22.8C12.1,22.6 12.7,22.1 13.7,17.5C14,17.3 14.3,17.1 14.5,16.9L15.5,16.2C16,18 15.9,21 15.9,21.1C15.9,21.2 15.9,21.3 16,21.4L16.5,22.1C16.5,22.1 18.5,24.8 16.9,26.6L14.8,28.1L14.3,28.7ZM17.8,31.8C17.4,32.1 15.8,32.6 14.8,32.9C14.9,32.1 15,30.8 14.7,29.8L17.7,27.6C17.7,27.6 17.8,27.6 17.8,27.5C19.6,25.5 18.4,22.7 17.5,21.5L17.2,21C17.2,20.2 17.2,17.4 16.6,15.7L17.6,15.1C18.2,14.9 19.9,14.5 20.8,14.7C20.9,14.7 20.9,14.7 21,14.7C20.7,18.1 19.2,26.4 19.2,26.4C19.1,26.7 19.3,27 19.6,27C19.9,27.1 20.2,26.9 20.3,26.7C20.3,26.7 21.2,24.6 21.9,22.7C22.4,21.2 23.9,18.1 24.4,16.9C24.7,17.2 25.1,17.6 25.5,17.9L26.3,18.7C25.7,19.9 24.8,21.9 23.7,24.4C22.5,27.2 20.3,30.5 19.2,32.2C18.9,32 18.5,31.8 18.2,31.6C18.2,31.6 18,31.7 17.8,31.8ZM20.3,33.7C20.2,33.5 20.2,33.3 20.1,33.2C21.2,31.5 23.6,28 24.9,24.9C25.9,22.7 26.8,20.8 27.3,19.6C27.8,20.1 28.4,20.7 28.9,21.3L30.1,22.6C29.3,24.9 27,31.3 25.8,33.9C24.9,35.8 23.3,37.7 22.1,38.9L21.4,37.2C20.9,35.6 20.5,34.3 20.3,33.7ZM22.7,40.2C23.9,38.9 25.9,36.7 26.9,34.5C28,32 30.1,26.4 31,23.7C31.4,24.1 31.8,24.6 32.2,25C32.3,25.1 32.4,25.2 32.4,25.3L33.7,26.6C33.2,28.9 31.9,35.3 30.9,37.3C30.1,39 27.7,44 26,47.3L25.2,45.9C24.4,44 23.5,42.1 22.7,40.2ZM26.8,48.4C28.4,45 31.2,39.5 32,37.6C32.9,35.7 34.1,30.3 34.7,27.3C35.3,27.8 35.9,28.2 36.5,28.7L38,29.6C37.9,32.3 37.6,39.9 35.8,44C35,45.8 34.1,47.3 33.2,48.7C32.2,50.3 31.3,51.9 30.5,53.8L29.6,52.6C28.6,51.3 27.7,49.9 26.8,48.4ZM40.8,70.9C40.8,71.7 40.8,72.5 40.8,73.3C40.2,73.3 39.5,73.2 38.9,73.2C38,73.2 37,73.1 36.3,73C36.2,72.4 36.1,72 36.1,71.5L36,70.2C36.9,70 38.3,69.8 39.5,69.8C40,69.8 40.4,69.9 40.9,69.9L40.8,70.9ZM40.8,66.5C40.8,67.3 40.8,68.1 40.8,68.9C40.4,68.9 39.9,68.8 39.5,68.8C38.3,68.7 36.8,69 35.8,69.2C35.7,68.8 35.7,68.3 35.6,67.8L35.3,66.2C36.3,65.5 38.4,64.5 40.9,65L40.8,66.5ZM37.2,77.2C37.1,76.5 36.9,75.8 36.7,75.1L36.5,74.3C37.2,74.4 38.1,74.5 38.9,74.5C39.6,74.5 40.3,74.5 40.8,74.6L40.8,77C39.5,77 39.2,77 39.1,77C39,77 38.6,76.9 37.2,77.2ZM40.9,59.9L40.9,60C40.9,61.1 40.8,62.3 40.8,63.8C38.3,63.3 36.2,64.2 35,64.9C34.9,64.5 34.9,64.2 34.8,63.8L34.5,62.3C37.4,58.7 39.1,56.9 39.5,56.8C39.6,56.8 40.3,56.9 41.6,58L41.9,58.3C41.2,58.8 41,59.7 40.9,59.9ZM42.3,57.2C40.4,55.6 39.6,55.6 39.1,55.8C38.9,55.9 38.2,56.1 34.2,61C34.2,60.8 34.1,60.6 34.1,60.5C33.8,59.3 33.2,57.7 33,57.1C35.5,52.9 37,50.8 37.3,50.6C37.9,50.3 38.4,49.1 39.3,46.1C39.6,45.3 39.9,44.4 40.1,43.7C40.3,44.3 40.5,45.2 40.6,45.9C41,47.6 41.3,48.7 41.6,49.1C42,49.6 42.6,50.5 42.8,51.4L42.8,51.5C42.9,51.5 42.9,54.4 42.3,57.2ZM30.9,71C30.5,70.2 31.4,64.4 32.5,59.4L32.6,59.2C32.8,59.7 32.9,60.2 33,60.7C33.1,61.2 33.2,61.8 33.4,62.4L33.8,64.1C33.9,64.7 34.1,65.4 34.2,66L34.5,67.9C34.6,68.7 34.7,69.4 34.8,69.9L34.9,71.7C35,72.3 35.1,72.9 35.3,73.7L35.7,75.3C35.9,76.1 36.1,77 36.3,77.9L36.4,78.4C34.5,76.2 31.5,72.1 30.9,71ZM42.5,82.8C43.3,84.2 43.6,84.8 43.1,85.2L42.8,85.5C41.4,86.7 40.4,87.6 41,88.9C41.2,89.4 41.3,89.8 39.6,90.8C38.6,91.4 37.2,91.1 36.5,90.9C36.6,90.2 36.7,88.8 37.4,87.3C38.3,85.4 37.9,81.9 37.5,79.4L37.3,78.3C38.3,78.1 38.7,78.1 38.9,78.1C39,78.1 39.3,78.2 40.8,78.1L40.8,78.3C40.9,80.1 41.8,81.6 42.5,82.8ZM44,51C43.8,49.9 43.1,48.9 42.6,48.3C42.4,48 42,46.5 41.8,45.5C41.2,42.8 40.9,42.1 40.3,41.9C39.5,41.7 39.2,42.7 38.2,45.6C37.8,46.9 37,49.2 36.7,49.4C36.5,49.5 35.8,49.9 32.1,55.9L31.1,54.8C31.9,52.6 32.9,51 34,49.2C34.9,47.8 35.8,46.3 36.6,44.4C38.4,40.5 38.8,33.7 38.9,30.2C39.6,30.5 40.2,30.8 40.9,31.1L42.3,39.1C42.6,41 43.2,42.9 44.1,45C46.6,51 46,56 45.4,58.2C44.5,58.1 43.6,58 43.1,57.9C43.8,55.3 43.9,52.6 43.9,51.6C44,51.5 44,51.3 44,51ZM52.3,58.5C52.4,57.8 52.5,57 52.6,56.1C53.1,51.5 51.1,41.9 50.1,37.2C49.8,36 49.6,35 49.6,34.7C49.5,34.2 49.3,33.5 49,32.6L50.5,32.6C51.8,32.5 53.1,32.3 54.5,31.9C55.3,36.3 58.2,51.7 57.3,58.6C56.2,58.6 54.8,58.5 53.4,58.5L52.3,58.5ZM59.4,58.7L58.5,58.7C58.7,56.8 58.7,54.3 58.5,51.6L59.2,42.5C59.6,36.2 64.2,31.2 67,28.7C67.6,28.6 69.4,28.3 70.3,28.2C72.2,28 74,28 76,28C76.7,28 77.3,28.1 77.9,28.1C76.5,28.6 75.1,29.3 73.6,30.1C64,35.5 62.7,53.8 62.6,58.6C61.8,58.7 61.1,58.7 60.5,58.7C60.3,58.7 59.9,58.7 59.4,58.7ZM88.4,40C88.5,41.2 88.4,42.6 88.3,44C87,44 84.6,44.6 80.4,45.9C75.6,47.4 73.8,53.6 73.3,55.5C73.1,55.6 73,55.7 72.8,55.8C72,56.4 70.9,56.9 69.5,57.3L68.2,57.6C68.8,54 70.9,43.7 76.9,39.2C83.4,34.4 87.2,36.7 87.9,37.3L88.5,39.7C88.4,39.9 88.4,39.9 88.4,40ZM79.1,84.9C79.1,85 79.1,85 79.1,85.1C79.1,85.1 79.4,86 78.8,86.3C77.6,86.9 76.6,88 76.3,89.3L76.2,90L73,89.9C73,89.3 73.1,88.1 73.9,87.3C75.3,85.8 76.4,84.6 76.9,77.5C77.4,70.5 71.1,59.2 70.8,58.7L70.5,58.1C71.7,57.7 72.6,57.2 73.3,56.7C73.5,56.6 73.6,56.5 73.8,56.4C74,56.4 74.1,56.2 74.1,56.1C74.4,56.4 74.8,56.8 75.2,57.1C75.5,57.5 75.8,58 76.2,58.7L76.9,60C77.2,60.5 77.4,61.1 77.7,61.7L78.2,62.8L79.1,64.7C79.5,65.6 80,66.4 80.4,67.2L80.8,67.8L80.5,69.6C80.4,70.3 79.1,82.2 79.1,84.9ZM86.7,60.3C83.9,60.6 80.6,61.5 79,62L78.7,61.4C78.4,60.8 78.2,60.2 77.9,59.6L77.4,58.6C78.5,57.3 81.5,54.4 85.9,54.4L85.8,55.7L85.8,55.8C85.8,57.4 86.2,59 86.7,60.3ZM81.9,67.7C81.9,67.6 81.8,67.5 81.8,67.4C83.2,67.1 84.9,66.8 85.5,66.8C86,66.8 87.2,67 89,67.2L89,68.6C88.9,69.2 88.8,69.9 88.7,70.7C87.8,70.5 86.6,70.4 85.8,70.4C85,70.4 84.2,70.6 83.5,70.8C83.2,70 82.9,69.3 82.5,68.6L81.9,67.7ZM87.4,78.9C87.1,78.8 86.8,78.8 86.6,78.8C86,78.7 84.8,78.7 84,78.8C84.1,78 84.1,77.3 84.1,76.5L84.1,75.5L87.9,75.5L87.4,78.9ZM87.5,74.3L84.1,74.3C84,73.7 84,73.1 83.9,72.6L83.7,71.9C84.3,71.7 85,71.6 85.7,71.6C86.3,71.6 87.3,71.7 88.4,71.9L88.1,74.4C87.9,74.3 87.7,74.3 87.5,74.3ZM86.7,87.2C85.5,88.3 85,89.3 84.6,90.2C84.4,90.6 84.2,91 84,91.3C83.7,91.7 81.9,91.8 79.9,91.6C80,91.1 80.1,90.6 80.2,90.3C80.3,90 81.5,88.5 82.5,87.3C82.6,87.2 82.6,87.2 82.6,87.1C82.6,87 83.4,84.4 83.8,81L83.9,80C84.7,80 85.9,80 86.5,80C86.7,80 86.9,80.1 87.3,80.1L87.3,80.4C87.2,81.5 87,82.3 87,82.6C86.9,83.2 87.1,83.8 87.2,84.4C87.4,85.4 87.7,86.4 86.7,87.2ZM88.8,66.1C87.1,65.8 85.9,65.7 85.4,65.7C84.5,65.7 82.2,66.2 81.1,66.4C80.8,65.8 80.4,65.1 80.1,64.4L79.5,63.1C81.1,62.6 84.4,61.7 87.1,61.5L87.7,63C88.1,64 88.5,65.1 88.8,66.1ZM86.4,52.4C86.3,52.7 86.2,52.9 86.2,53.2C81.6,53.1 78.3,55.9 76.9,57.5C76.7,57.1 76.4,56.7 76.2,56.4C75.4,55.6 74.9,55.1 74.6,54.9C75.3,52.7 77,48.1 80.7,46.9C83.2,46.1 86.6,45.2 88.1,45.1L87.9,46.6C87.4,49.5 86.7,51.6 86.4,52.4ZM96,57.9C95.9,57.6 95.6,57.4 95.3,57.5C95,57.6 94.8,57.9 94.9,58.2C95.5,60.1 96.2,63.5 95.7,64.5C95.4,65.2 95.3,65.8 95.3,66.4C94.1,65.1 93,63.5 92.9,62.6L92.9,62.5C92.7,61.5 93.1,57.6 93.3,56.2C93.3,55.9 93.1,55.6 92.8,55.6C92.5,55.6 92.2,55.8 92.2,56.1C92.2,56.3 92.1,57.2 92,58.2C91.8,56.7 91.7,55.1 91.9,53.9C92.4,51 91.5,44.7 89.6,40.3C89.6,40.2 89.6,40.1 89.6,40L88.8,37C88.8,36.9 88.7,36.8 88.6,36.7C88.4,36.5 84,32.7 76.1,38.5C69.5,43.4 67.4,54.9 66.9,58.1C66.2,58.2 65.4,58.4 64.6,58.5L63.6,58.6C63.8,53.7 65,36.3 74.1,31.3C76.3,30.1 78.4,29.2 80.3,28.8C80.9,29 83.1,29.8 84.2,30.7C84.8,31.2 85.4,31.8 85.9,32.4L86,32.5C87.4,33.6 90,36.3 91.1,41.6C92.3,46.8 94.4,50.4 95.6,52.2C95.2,52 94.7,51.6 94.3,51.1C94.1,50.9 93.8,50.8 93.5,51C93.3,51.2 93.2,51.5 93.4,51.8C93.4,51.8 96,55.6 96.6,58.1C96.9,59.3 96.8,60.2 96.7,61C96.5,59.4 96.1,58.1 96,57.9Z" style="fill:white;fill-rule:nonzero;"/>
        <path d="M17,23.4C17,23.3 16.4,21.7 14.5,21.7C12.9,21.7 12.2,22.9 12,23.6C12,23.8 12,24 12.2,24.1C12.9,24.7 13.6,24.9 14.3,24.9C15.4,24.9 16.3,24.4 16.9,23.9C17,23.8 17,23.6 17,23.4ZM13.2,23.5C13.4,23.2 13.7,22.8 14.4,22.8C15.1,22.8 15.5,23.1 15.7,23.4C15.2,23.7 14.2,24.1 13.2,23.5Z" style="fill:white;fill-rule:nonzero;"/>
    </g>
</svg>
