<?xml version="1.0" encoding="UTF-8" standalone="no"?>
<!DOCTYPE svg PUBLIC "-//W3C//DTD SVG 1.1//EN" "http://www.w3.org/Graphics/SVG/1.1/DTD/svg11.dtd">
<svg width="100%" height="100%" viewBox="0 0 101 103" version="1.1" xmlns="http://www.w3.org/2000/svg" xmlns:xlink="http://www.w3.org/1999/xlink" xml:space="preserve" style="fill-rule:evenodd;clip-rule:evenodd;stroke-linejoin:round;stroke-miterlimit:1.41421;">
    <g transform="matrix(1,0,0,1,-0.413397,1.07256)">
        <g transform="matrix(1,0,0,1,-29.526,-0.655)">
            <path d="M38.344,34.835C38.344,35.75 37.6,36.493 36.682,36.493C35.768,36.493 35.026,35.75 35.026,34.835C35.026,33.917 35.768,33.174 36.682,33.174C37.6,33.174 38.344,33.917 38.344,34.835ZM45.113,40.668L50.035,40.671L50.035,56.596L45.113,56.6C44.338,56.6 43.703,57.237 43.703,58.016L43.703,60.03C46.131,60.16 48.062,62.166 48.062,64.629C48.062,67.129 46.074,69.157 43.593,69.233C43.21,70.748 41.837,71.871 40.206,71.871L33.52,71.871C31.59,71.871 30.026,70.308 30.026,68.377L30.026,32.148C30.026,30.218 31.59,28.655 33.52,28.655L40.208,28.655C42.138,28.655 43.702,30.218 43.702,32.148L43.702,39.251C43.703,40.032 44.338,40.668 45.113,40.668ZM40.471,34.835C40.471,32.739 38.778,31.044 36.682,31.044C34.59,31.044 32.893,32.739 32.893,34.835C32.893,36.928 34.59,38.624 36.682,38.624C38.777,38.625 40.471,36.928 40.471,34.835ZM43.471,62.676C42.389,62.676 41.516,63.553 41.516,64.629C41.516,65.709 42.389,66.584 43.471,66.584C44.549,66.584 45.422,65.709 45.422,64.629C45.422,63.553 44.549,62.676 43.471,62.676ZM57.402,36.093C56.797,36.093 56.277,36.451 56.047,36.969L55.986,37.091C55.732,37.653 55.174,38.048 54.515,38.067L52.416,38.066C51.597,38.066 50.933,38.732 50.933,39.552L50.933,57.748C50.933,58.568 51.597,59.234 52.416,59.234L54.506,59.232C55.166,59.248 55.73,59.644 55.985,60.209L56.046,60.332C56.276,60.848 56.796,61.205 57.401,61.205L64.833,61.205L64.833,36.093L57.402,36.093ZM75.816,42.549C74.666,42.002 72.476,41.056 69.765,39.827C69.529,39.711 69.363,39.466 69.363,39.182C69.363,38.896 69.531,38.648 69.771,38.533C71.756,37.617 73.543,36.797 73.547,36.793L73.558,36.789L73.556,36.789C73.67,36.726 73.754,36.607 73.754,36.464C73.754,36.259 73.59,36.092 73.386,36.092C73.379,36.092 65.948,36.093 65.948,36.093L65.948,61.205C65.948,61.205 73.38,61.205 73.386,61.205C73.59,61.205 73.754,61.041 73.754,60.836C73.754,60.693 73.67,60.576 73.556,60.512L73.558,60.512L73.547,60.506C73.543,60.504 71.756,59.686 69.771,58.772C69.531,58.657 69.363,58.413 69.363,58.126C69.363,57.841 69.529,57.603 69.765,57.48C72.476,56.255 74.662,55.312 75.816,54.767C76.912,54.081 77.008,52.988 77.008,52.275L77.008,45.05C77.01,44.333 76.912,43.237 75.816,42.549Z" style="fill:white;fill-rule:nonzero;stroke-width:0.1px;stroke:black;"/>
        </g>
        <path d="M35.976,34.849L99.943,0.226" style="fill:white;stroke-width:1.5px;stroke-dasharray:3,3,0,0;stroke:white;"/>
        <g transform="matrix(0.615763,0.873899,-0.709847,0.500169,38.4672,12.2949)">
            <path d="M35.976,34.849L99.943,0.226" style="fill:white;stroke-width:1.54px;stroke-dasharray:3.08,3.08,0,0;stroke:white;"/>
        </g>
        <path d="M47.732,47.767C99.998,47.767 99.998,47.584 99.998,47.584" style="fill:white;stroke-width:1.5px;stroke-dasharray:3,3,0,0;stroke:white;"/>
    </g>
</svg>
