<?xml version="1.0" encoding="UTF-8" standalone="no"?>
<!DOCTYPE svg PUBLIC "-//W3C//DTD SVG 1.1//EN" "http://www.w3.org/Graphics/SVG/1.1/DTD/svg11.dtd">
<svg width="100%" height="100%" viewBox="0 0 30 24" version="1.1" xmlns="http://www.w3.org/2000/svg" xmlns:xlink="http://www.w3.org/1999/xlink" xml:space="preserve" xmlns:serif="http://www.serif.com/" style="fill-rule:evenodd;clip-rule:evenodd;stroke-linejoin:round;stroke-miterlimit:1.41421;">
    <g transform="matrix(1,0,0,1,-1.95,-4.933)">
        <path d="M28.532,8.582L26.354,8.582L25.725,6.735C25.397,5.772 24.297,4.983 23.278,4.983L14.451,4.983C13.433,4.983 12.332,5.772 12.005,6.735L11.377,8.582L9.577,8.582C9.42,7.621 8.592,6.885 7.587,6.885C6.582,6.885 5.754,7.621 5.598,8.582L4.468,8.582C3.106,8.582 2,9.687 2,11.05L2,25.55C2,26.913 3.105,28.018 4.468,28.018L28.532,28.018C29.895,28.018 31.001,26.913 31.001,25.55L31.001,11.05C31.001,9.687 29.896,8.582 28.532,8.582ZM11.461,14.083C11.461,14.424 11.185,14.7 10.844,14.7L5.6,14.7C5.259,14.7 4.983,14.424 4.983,14.083L4.983,12.643C4.983,12.303 5.259,12.026 5.6,12.026L10.844,12.026C11.185,12.026 11.461,12.302 11.461,12.643L11.461,14.083ZM20.306,25.138C16.528,25.138 13.468,22.077 13.468,18.3C13.468,14.523 16.529,11.461 20.306,11.461C24.083,11.461 27.144,14.523 27.144,18.3C27.144,22.077 24.083,25.138 20.306,25.138Z" style="fill:rgb(253,214,60);fill-rule:nonzero;stroke:rgb(12,107,221);stroke-width:0.1px;"/>
        <path d="M22.517,18.378C21.253,18.378 20.228,17.354 20.228,16.089C20.228,15.15 20.794,14.344 21.603,13.991C21.193,13.867 20.757,13.799 20.306,13.799C17.82,13.799 15.806,15.814 15.806,18.299C15.806,20.784 17.82,22.799 20.306,22.799C22.792,22.799 24.806,20.784 24.806,18.299C24.806,17.847 24.738,17.412 24.615,17.001C24.261,17.812 23.456,18.378 22.517,18.378Z" style="fill:rgb(253,214,60);fill-rule:nonzero;stroke:rgb(12,107,221);stroke-width:0.1px;"/>
    </g>
</svg>
