<?xml version="1.0" encoding="UTF-8" standalone="no"?>
<!-- Created with Inkscape (http://www.inkscape.org/) -->

<svg
   xmlns:dc="http://purl.org/dc/elements/1.1/"
   xmlns:cc="http://creativecommons.org/ns#"
   xmlns:rdf="http://www.w3.org/1999/02/22-rdf-syntax-ns#"
   xmlns:svg="http://www.w3.org/2000/svg"
   xmlns="http://www.w3.org/2000/svg"
   xmlns:sodipodi="http://sodipodi.sourceforge.net/DTD/sodipodi-0.dtd"
   xmlns:inkscape="http://www.inkscape.org/namespaces/inkscape"
   width="479.99997"
   height="600.00012"
   viewBox="0 0 479.99997 600.00014"
   id="svg2"
   version="1.1"
   inkscape:version="0.91 r13725"
   sodipodi:docname="Igarka COA - rerendering.svg">
  <defs
     id="defs4">
    <inkscape:path-effect
       effect="spiro"
       id="path-effect4240"
       is_visible="true" />
    <inkscape:path-effect
       effect="spiro"
       id="path-effect4234"
       is_visible="true" />
    <inkscape:path-effect
       is_visible="true"
       id="path-effect4228"
       effect="spiro" />
    <inkscape:path-effect
       effect="spiro"
       id="path-effect4224"
       is_visible="true" />
    <inkscape:path-effect
       effect="spiro"
       id="path-effect4212"
       is_visible="true" />
    <inkscape:path-effect
       effect="spiro"
       id="path-effect4342"
       is_visible="true" />
    <inkscape:path-effect
       effect="spiro"
       id="path-effect4336"
       is_visible="true" />
    <inkscape:path-effect
       is_visible="true"
       id="path-effect4326"
       effect="spiro" />
    <inkscape:path-effect
       effect="spiro"
       id="path-effect4318"
       is_visible="true" />
    <inkscape:path-effect
       is_visible="true"
       id="path-effect4314"
       effect="spiro" />
    <inkscape:path-effect
       is_visible="true"
       id="path-effect4310"
       effect="spiro" />
    <inkscape:path-effect
       is_visible="true"
       id="path-effect4306"
       effect="spiro" />
    <inkscape:path-effect
       effect="spiro"
       id="path-effect4302"
       is_visible="true" />
    <inkscape:path-effect
       effect="spiro"
       id="path-effect4288"
       is_visible="true" />
    <inkscape:path-effect
       effect="spiro"
       id="path-effect4282"
       is_visible="true" />
    <inkscape:path-effect
       is_visible="true"
       id="path-effect4266"
       effect="spiro" />
    <inkscape:path-effect
       effect="spiro"
       id="path-effect4262"
       is_visible="true" />
    <inkscape:path-effect
       effect="spiro"
       id="path-effect4258"
       is_visible="true" />
    <inkscape:path-effect
       effect="spiro"
       id="path-effect4254"
       is_visible="true" />
    <inkscape:path-effect
       is_visible="true"
       id="path-effect4246"
       effect="spiro" />
    <inkscape:path-effect
       effect="spiro"
       id="path-effect4242"
       is_visible="true" />
    <inkscape:path-effect
       effect="spiro"
       id="path-effect4238"
       is_visible="true" />
    <inkscape:path-effect
       effect="spiro"
       id="path-effect4232"
       is_visible="true" />
    <inkscape:path-effect
       is_visible="true"
       id="path-effect4227"
       effect="spiro" />
    <inkscape:path-effect
       effect="spiro"
       id="path-effect4223"
       is_visible="true" />
    <inkscape:path-effect
       effect="spiro"
       id="path-effect4342-0"
       is_visible="true" />
  </defs>
  <sodipodi:namedview
     id="base"
     pagecolor="#ffffff"
     bordercolor="#666666"
     borderopacity="1.0"
     inkscape:pageopacity="0.0"
     inkscape:pageshadow="2"
     inkscape:zoom="0.12010597"
     inkscape:cx="-852.59958"
     inkscape:cy="596.41778"
     inkscape:document-units="px"
     inkscape:current-layer="layer3"
     showgrid="false"
     fit-margin-top="0"
     fit-margin-left="0"
     fit-margin-right="0"
     fit-margin-bottom="0"
     inkscape:window-width="1920"
     inkscape:window-height="1017"
     inkscape:window-x="-4"
     inkscape:window-y="-4"
     inkscape:window-maximized="1"
     showguides="false"
     inkscape:guide-bbox="true"
     inkscape:object-nodes="true"
     inkscape:snap-smooth-nodes="true"
     inkscape:snap-others="true"
     inkscape:snap-center="true"
     units="px">
    <sodipodi:guide
       position="52.746546,131.19286"
       orientation="-0.90797885,0.41901601"
       id="guide4217" />
    <sodipodi:guide
       position="390.00091,172.1143"
       orientation="-281.27382,-111.17045"
       id="guide4284" />
    <sodipodi:guide
       position="239.30674,-2.1433121"
       orientation="1,0"
       id="guide4208" />
    <sodipodi:guide
       position="445.01863,240.48376"
       orientation="-17.47331,44.20946"
       id="guide4236" />
  </sodipodi:namedview>
  <metadata
     id="metadata7">
    <rdf:RDF>
      <cc:Work
         rdf:about="">
        <dc:format>image/svg+xml</dc:format>
        <dc:type
           rdf:resource="http://purl.org/dc/dcmitype/StillImage" />
        <dc:title></dc:title>
      </cc:Work>
    </rdf:RDF>
  </metadata>
  <g
     inkscape:groupmode="layer"
     id="layer3"
     inkscape:label="Shield"
     style="display:inline"
     transform="translate(0.21934597,2.1435763)">
    <path
       style="color:#000000;clip-rule:nonzero;display:inline;overflow:visible;visibility:visible;opacity:1;isolation:auto;mix-blend-mode:normal;color-interpolation:sRGB;color-interpolation-filters:linearRGB;solid-color:#000000;solid-opacity:1;fill:#0c6bdd;fill-opacity:1;fill-rule:evenodd;stroke:#000000;stroke-width:4.01165915;stroke-linecap:butt;stroke-linejoin:miter;stroke-miterlimit:4;stroke-dasharray:none;stroke-dashoffset:0;stroke-opacity:1;marker:none;color-rendering:auto;image-rendering:auto;shape-rendering:auto;text-rendering:auto;enable-background:accumulate"
       d="m 241.41972,589.38895 c 2.69662,-5.94379 5.48037,-11.89392 9.25741,-17.21689 3.77704,-5.32296 8.537,-9.97712 14.0994,-13.39157 5.56239,-3.41445 11.854,-5.55645 18.29039,-6.63856 6.43639,-1.08212 12.99616,-1.12892 19.52286,-1.12892 l 106.38643,0 c 8.85566,0 17.76458,2.9e-4 26.48741,-1.52792 8.72282,-1.52821 17.27042,-4.70569 24.2805,-10.11715 7.01009,-5.41145 12.25599,-13.01396 15.02019,-21.42747 2.76419,-8.41351 3.01051,-17.41646 3.01051,-26.27245 l 0,-491.80574465 -237.99417,0 -237.9941664,0 0,491.80574465 c 0,8.85599 0.2463202,17.85894 3.0105193,26.27245 2.7641992,8.41351 8.0101051,16.01602 15.0201841,21.42747 7.010081,5.41146 15.557688,8.58894 24.280514,10.11715 8.722827,1.52821 17.631734,1.52792 26.487408,1.52792 l 106.386411,0 c 6.52672,0 13.08649,0.0468 19.52288,1.12892 6.43639,1.08211 12.72799,3.22411 18.29039,6.63856 5.56239,3.41445 10.32236,8.06861 14.09939,13.39157 3.77705,5.32297 6.5608,11.2731 9.25742,17.21689 l 1.63905,3.61275 z"
       id="path4226"
       inkscape:connector-curvature="0"
       sodipodi:nodetypes="sssssssssscccsssssssssscs" />
  </g>
  <g
     inkscape:groupmode="layer"
     id="layer2"
     inkscape:label="Anchors"
     style="display:inline;opacity:1"
     transform="translate(0.21934597,2.1435763)">
    <g
       id="g4242"
       transform="translate(-0.77377777,0)">
      <g
         id="g4440"
         style="display:inline">
        <g
           id="g4391">
          <g
             id="g4383"
             style="display:inline">
            <path
               id="path4276"
               style="color:#000000;clip-rule:nonzero;display:inline;overflow:visible;visibility:visible;opacity:1;isolation:auto;mix-blend-mode:normal;color-interpolation:sRGB;color-interpolation-filters:linearRGB;solid-color:#000000;solid-opacity:1;fill:#fed721;fill-opacity:1;fill-rule:evenodd;stroke:#000000;stroke-width:1.5;stroke-linecap:butt;stroke-linejoin:round;stroke-miterlimit:4;stroke-dasharray:none;stroke-dashoffset:0;stroke-opacity:1;marker:none;color-rendering:auto;image-rendering:auto;shape-rendering:auto;text-rendering:auto;enable-background:accumulate"
               d="m 242.78571,101.77032 a 21.866674,21.866674 0 0 1 -21.86667,21.86667 21.866674,21.866674 0 0 1 -21.86668,-21.86667 21.866674,21.866674 0 0 1 21.86668,-21.866677 21.866674,21.866674 0 0 1 21.86667,21.866677 z m 14.34397,-2e-5 a 36.210644,36.210644 0 0 1 -36.21064,36.21065 36.210644,36.210644 0 0 1 -36.21065,-36.21065 36.210644,36.210644 0 0 1 36.21065,-36.210642 36.210644,36.210644 0 0 1 36.21064,36.210642 z"
               inkscape:connector-curvature="0" />
            <path
               id="circle4296"
               style="color:#000000;clip-rule:nonzero;display:inline;overflow:visible;visibility:visible;opacity:1;isolation:auto;mix-blend-mode:normal;color-interpolation:sRGB;color-interpolation-filters:linearRGB;solid-color:#000000;solid-opacity:1;fill:#fed721;fill-opacity:1;fill-rule:evenodd;stroke:#000000;stroke-width:1.5;stroke-linecap:butt;stroke-linejoin:round;stroke-miterlimit:4;stroke-dasharray:none;stroke-dashoffset:0;stroke-opacity:1;marker:none;color-rendering:auto;image-rendering:auto;shape-rendering:auto;text-rendering:auto;enable-background:accumulate"
               d="m 283.60178,101.77032 a 21.866674,21.866674 0 0 1 -21.86667,21.86667 21.866674,21.866674 0 0 1 -21.86668,-21.86667 21.866674,21.866674 0 0 1 21.86668,-21.866677 21.866674,21.866674 0 0 1 21.86667,21.866677 z m 14.34397,-2e-5 a 36.210644,36.210644 0 0 1 -36.21064,36.21065 36.210644,36.210644 0 0 1 -36.21065,-36.21065 36.210644,36.210644 0 0 1 36.21065,-36.210642 36.210644,36.210644 0 0 1 36.21064,36.210642 z"
               inkscape:connector-curvature="0" />
          </g>
        </g>
        <g
           id="g4396">
          <g
             style="display:inline"
             id="g4398">
            <path
               style="color:#000000;clip-rule:nonzero;display:inline;overflow:visible;visibility:visible;opacity:1;isolation:auto;mix-blend-mode:normal;color-interpolation:sRGB;color-interpolation-filters:linearRGB;solid-color:#000000;solid-opacity:1;fill:#fed721;fill-opacity:1;fill-rule:evenodd;stroke:#000000;stroke-width:1.5;stroke-linecap:butt;stroke-linejoin:round;stroke-miterlimit:4;stroke-dasharray:none;stroke-dashoffset:0;stroke-opacity:1;marker:none;color-rendering:auto;image-rendering:auto;shape-rendering:auto;text-rendering:auto;enable-background:accumulate"
               d="m 297.94531,101.76953 c -9.2e-4,-19.998049 -16.21288,-36.209141 -36.21093,-36.208983 -19.99729,9.13e-4 -36.20807,16.211691 -36.20899,36.208983 m 14.34375,0 c 8e-4,-12.075508 9.78973,-21.864441 21.86524,-21.865233 12.07627,-2.79e-4 21.86638,9.788968 21.86718,21.865233"
               id="path4402"
               inkscape:connector-curvature="0"
               sodipodi:nodetypes="cccccc" />
            <path
               style="color:#000000;clip-rule:nonzero;display:inline;overflow:visible;visibility:visible;opacity:1;isolation:auto;mix-blend-mode:normal;color-interpolation:sRGB;color-interpolation-filters:linearRGB;solid-color:#000000;solid-opacity:1;fill:#fed721;fill-opacity:1;fill-rule:evenodd;stroke:#000000;stroke-width:1.5;stroke-linecap:butt;stroke-linejoin:round;stroke-miterlimit:4;stroke-dasharray:none;stroke-dashoffset:0;stroke-opacity:1;marker:none;color-rendering:auto;image-rendering:auto;shape-rendering:auto;text-rendering:auto;enable-background:accumulate"
               d="m 257.12891,101.76953 c -9.2e-4,-19.997292 -16.2117,-36.20807 -36.20899,-36.208983 -19.99805,-1.63e-4 -36.21002,16.21093 -36.21094,36.208983 m 14.34375,0 c 8e-4,-12.076269 9.79092,-21.865518 21.86719,-21.865233 12.07551,7.92e-4 21.86444,9.789725 21.86524,21.865233"
               id="path4400"
               inkscape:connector-curvature="0"
               sodipodi:nodetypes="cccccc" />
          </g>
        </g>
      </g>
      <path
         sodipodi:nodetypes="ssssccscsccssssssscssssscsssssssssssssccscsccsssscs"
         inkscape:connector-curvature="0"
         id="path4225"
         d="m 74.65516,454.85935 c 15.379914,-5.25668 31.88267,-6.3435 47.50626,-10.82433 6.78775,-1.94672 13.41923,-4.54501 19.48755,-8.15592 8.30287,-4.94057 15.40951,-11.69175 21.66689,-19.05328 6.03712,-7.1024 11.34821,-14.82157 15.82379,-22.99837 l 5.30666,5.18769 c 3.73644,-8.24759 6.18876,-17.07542 7.24168,-26.06848 1.29365,-11.04914 0.46588,-22.34281 -2.42497,-33.08525 -5.46998,8.81918 -11.27576,17.43008 -17.40054,25.80778 -4.96453,6.79066 -10.1386,13.42812 -15.51238,19.89976 l 14.49663,2.43442 c -2.32905,3.26674 -4.76186,6.45951 -7.29352,9.57187 -3.45613,4.24889 -7.10723,8.35862 -11.20347,11.99437 -4.20998,3.7367 -8.89863,6.96885 -14.03072,9.28155 -4.37434,1.97123 -9.03428,3.25973 -13.75433,4.12099 -3.73589,0.68168 -7.58176,1.09844 -11.32367,0.45056 -3.7419,-0.64788 -7.40154,-2.46908 -9.62451,-5.54804 -1.42237,-1.97007 -2.19421,-4.35932 -2.47295,-6.77316 -0.27875,-2.41384 -0.0837,-4.8607 0.29271,-7.26125 1.61875,-10.3246 6.21839,-19.90689 10.34555,-29.50816 L 220.48968,121.43807 c 0.50219,-1.16828 0.99812,-2.34531 1.31349,-3.57722 0.31537,-1.23191 0.4483,-2.51821 0.30148,-3.78135 -0.14683,-1.26313 -0.57475,-2.49628 -1.26947,-3.56138 -0.69471,-1.0651 -1.65277,-1.95756 -2.76645,-2.5714 -1.18969,-0.44908 -2.49042,-0.59906 -3.75163,-0.43658 -1.26122,0.16247 -2.4772,0.63699 -3.53361,1.34485 -1.05641,0.70787 -1.94891,1.64364 -2.68167,2.68294 -0.73275,1.03929 -1.30659,2.18037 -1.8697,3.32053 L 84.336391,361.66653 c -4.627841,9.37021 -8.93466,19.08763 -15.740485,27.01849 -1.582409,1.84399 -3.317681,3.58008 -5.335272,4.9342 -2.01759,1.35412 -4.33642,2.31708 -6.758383,2.51306 -3.785202,0.30629 -7.545545,-1.29669 -10.466465,-3.72359 -2.920919,-2.42689 -5.0992,-5.62368 -7.004536,-8.90869 -2.407265,-4.15039 -4.450429,-8.53225 -5.788787,-13.13979 -1.570196,-5.40568 -2.153042,-11.07053 -2.041376,-16.69854 0.108649,-5.47596 0.866789,-10.92073 1.857318,-16.30745 0.725574,-3.94584 1.576469,-7.86863 2.55097,-11.76047 l 11.258547,9.45113 c 1.437584,-8.28812 3.130926,-16.53188 5.076805,-24.71559 2.400647,-10.09632 5.185726,-20.10122 8.347175,-29.98575 -10.049822,4.77055 -19.180451,11.4686 -26.748524,19.62221 -6.159764,6.63634 -11.285804,14.2303 -15.137128,22.42487 l 7.390625,0.67188 c -3.31787,8.71106 -5.745396,17.76095 -7.232532,26.96308 -1.541393,9.53787 -2.067319,19.32595 -0.439343,28.84942 1.189839,6.96043 3.515608,13.69232 6.438558,20.12035 6.727853,14.79562 16.608704,28.05801 22.588092,43.17162 2.973891,7.51686 4.947774,15.42865 5.853331,23.46153 6.699915,-4.52309 14.000871,-8.15471 21.650179,-10.76915 z"
         inkscape:transform-center-y="-178.84089"
         inkscape:transform-center-x="-84.579673"
         style="color:#000000;clip-rule:nonzero;display:inline;overflow:visible;visibility:visible;opacity:1;isolation:auto;mix-blend-mode:normal;color-interpolation:sRGB;color-interpolation-filters:linearRGB;solid-color:#000000;solid-opacity:1;fill:#fed721;fill-opacity:1;fill-rule:evenodd;stroke:#000000;stroke-width:1.5;stroke-linecap:butt;stroke-linejoin:round;stroke-miterlimit:4;stroke-dasharray:none;stroke-dashoffset:0;stroke-opacity:1;marker:none;color-rendering:auto;image-rendering:auto;shape-rendering:auto;text-rendering:auto;enable-background:accumulate" />
      <path
         sodipodi:nodetypes="ccscscccc"
         inkscape:connector-curvature="0"
         d="m 260.21966,181.47623 -8.22635,17.67705 c -12.24022,-3.95916 -24.38593,-8.2105 -36.4233,-12.74917 -9.55993,-3.60456 -19.05154,-7.39034 -28.468,-11.35463 -9.12637,-4.59289 -18.16567,-9.35879 -27.11141,-14.29426 -11.26401,-6.21449 -22.37968,-12.69786 -33.33435,-19.44272 l 8.11305,-17.72933 62.72518,28.94653 z"
         style="color:#000000;clip-rule:nonzero;display:inline;overflow:visible;visibility:visible;opacity:1;isolation:auto;mix-blend-mode:normal;color-interpolation:sRGB;color-interpolation-filters:linearRGB;solid-color:#000000;solid-opacity:1;fill:#fed721;fill-opacity:1;fill-rule:evenodd;stroke:#000000;stroke-width:1.5;stroke-linecap:butt;stroke-linejoin:round;stroke-miterlimit:4;stroke-dasharray:none;stroke-dashoffset:0;stroke-opacity:1;marker:none;color-rendering:auto;image-rendering:auto;shape-rendering:auto;text-rendering:auto;enable-background:accumulate"
         id="path4274" />
      <path
         id="path4272"
         style="color:#000000;clip-rule:nonzero;display:inline;overflow:visible;visibility:visible;opacity:1;isolation:auto;mix-blend-mode:normal;color-interpolation:sRGB;color-interpolation-filters:linearRGB;solid-color:#000000;solid-opacity:1;fill:#fed721;fill-opacity:1;fill-rule:evenodd;stroke:#000000;stroke-width:1.5;stroke-linecap:butt;stroke-linejoin:round;stroke-miterlimit:4;stroke-dasharray:none;stroke-dashoffset:0;stroke-opacity:1;marker:none;color-rendering:auto;image-rendering:auto;shape-rendering:auto;text-rendering:auto;enable-background:accumulate"
         d="m 225.34416,165.38181 c 1.63222,-1.08535 3.54498,-1.74484 5.49927,-1.89607 1.95428,-0.15123 3.94575,0.20615 5.7255,1.02748 1.77976,0.82133 3.34386,2.10478 4.49684,3.68994 1.15296,1.58517 1.89225,3.46855 2.12545,5.41476 l -9.01788,19.54117 c -1.53987,1.21492 -3.39259,2.02986 -5.32871,2.34395 -1.93613,0.31409 -3.95144,0.12663 -5.79643,-0.53915 -1.85146,-0.66813 -3.52728,-1.81656 -4.81856,-3.30211 -1.29125,-1.48559 -2.19516,-3.30498 -2.59897,-5.23144 z"
         inkscape:connector-curvature="0"
         sodipodi:nodetypes="csssccssccc"
         inkscape:transform-center-x="-31.916463"
         inkscape:transform-center-y="27.021871" />
      <g
         style="fill:#fed721;stroke:#000000;stroke-width:1.5"
         id="g4374">
        <path
           sodipodi:nodetypes="csscssssccscsccsssssssssssscsccc"
           inkscape:connector-curvature="0"
           inkscape:original-d="m 389.10783,424.03773 c 1.04605,2.64662 5.92245,8.22376 10.78268,10.14816 3.66257,1.45018 8.712,2.3825 12.61728,2.69664 4.3915,0.35325 7.65631,-0.0105 12.05705,-0.049 0.93409,0 8.26284,-1.34885 13.8639,-4.70097 5.13143,-3.07105 8.44152,-8.2124 9.09656,-9.20552 1.37002,-2.07713 5.99172,-11.49096 6.30422,-16.99096 0.3125,-5.5 2.35099,-23.17287 1.53341,-26.66421 -0.81759,-3.49133 -2.57577,-25.49214 -2.57577,-25.49214 l 11.19302,0.74793 c 0,0 -10.90909,-19.09759 -12.46693,-20.67753 -1.55785,-1.57994 -20.55667,-18.20229 -20.55667,-18.20229 0,0 4.78531,22.87762 4.89027,24.26421 0.10496,1.38659 1.97331,22.39993 1.97331,22.39993 l 6.97912,-4.93909 c 0,0 2.09135,13.88434 2.40071,17.68504 0.14751,1.81228 0.10924,12.7443 -0.589,16.99366 -0.76615,4.66236 -5.72026,15.01277 -6.12899,15.8384 -0.40183,0.8117 -2.92311,4.16665 -6.23408,6.65646 -3.12629,2.35093 -7.03069,3.84589 -8.07789,4.4909 -2.15625,1.32812 -22.40845,-4.54487 -24.79908,-5.84174 -1.01611,-0.55122 -1.97329,-2.20945 -3.80053,-4.63897 -2.47174,-3.28647 -4.51811,-7.3679 -5.03917,-8.27526 -0.90625,-1.57813 -7.18014,-15.70576 -8.81533,-19.46226 -0.51274,-1.17791 -6.62619,-14.89696 -13.59,-33.74218 -15.24468,-41.25466 -37.91645,-105.73464 -38.49284,-107.52449 -0.44026,-1.36712 -9.48377,-29.27867 -17.71468,-55.62895 -7.46765,-23.90679 -14.21561,-46.54798 -14.21561,-46.54798 0,0 -10.21611,0.18542 -12.04654,0.46836 -1.83043,0.28294 -10.57011,2.76639 -10.57011,2.76639 36.86476,93.27201 93.38747,156.12308 112.02169,283.42755 z"
           inkscape:path-effect="#path-effect4310"
           id="path4308"
           d="m 389.10783,424.03773 c 2.3275,4.45797 6.19191,8.09498 10.78268,10.14816 3.9458,1.76473 8.30808,2.35844 12.61728,2.69664 4.01326,0.31498 8.0594,0.42463 12.05705,-0.049 4.887,-0.579 9.71388,-2.05609 13.8639,-4.70097 3.66633,-2.33662 6.74388,-5.54948 9.09656,-9.20552 3.28915,-5.11131 5.15573,-11.02229 6.30422,-16.99096 1.68598,-8.76202 1.89342,-17.74872 1.53341,-26.66421 -0.3448,-8.53887 -1.20548,-17.05688 -2.57577,-25.49214 l 11.19302,0.74793 c -3.14941,-7.436 -7.36094,-14.4212 -12.46693,-20.67753 -5.8122,-7.12164 -12.78388,-13.29484 -20.55667,-18.20229 2.09873,7.98412 3.7325,16.09044 4.89027,24.26421 1.0517,7.42494 1.7107,14.90548 1.97331,22.39993 l 6.97912,-4.93909 c 1.21088,5.82949 2.01372,11.7437 2.40071,17.68504 0.36924,5.66888 0.35751,11.39218 -0.589,16.99366 -0.95084,5.62713 -2.87591,11.14946 -6.12899,15.8384 -1.73905,2.50664 -3.84596,4.75792 -6.23408,6.65646 -2.42349,1.92667 -5.14672,3.4941 -8.07789,4.4909 -4.2359,1.4405 -8.87893,1.65546 -13.23285,0.62531 -4.35392,-1.03015 -8.40537,-3.30054 -11.56623,-6.46705 -1.41399,-1.41652 -2.64846,-3.00232 -3.80053,-4.63897 -1.86015,-2.64257 -3.51368,-5.42637 -5.03917,-8.27526 -3.36342,-6.28127 -6.10375,-12.87331 -8.81533,-19.46226 -4.61458,-11.21311 -9.16303,-22.45369 -13.59,-33.74218 -13.90064,-35.44572 -26.60023,-71.35555 -38.49284,-107.52449 -6.07866,-18.48699 -11.9469,-37.04262 -17.71468,-55.62895 -4.80833,-15.49456 -9.54693,-31.01077 -14.21561,-46.54798 -4.01591,-0.30198 -8.0662,-0.14451 -12.04654,0.46836 -3.60602,0.55523 -7.15442,1.48392 -10.57011,2.76639 l 112.02169,283.42755 0,-9e-5 z"
           style="color:#000000;clip-rule:nonzero;display:inline;overflow:visible;visibility:visible;opacity:1;isolation:auto;mix-blend-mode:normal;color-interpolation:sRGB;color-interpolation-filters:linearRGB;solid-color:#000000;solid-opacity:1;fill:#fed721;fill-opacity:1;fill-rule:evenodd;stroke:#000000;stroke-width:1.5;stroke-linecap:butt;stroke-linejoin:round;stroke-miterlimit:4;stroke-dasharray:none;stroke-dashoffset:0;stroke-opacity:1;marker:none;color-rendering:auto;image-rendering:auto;shape-rendering:auto;text-rendering:auto;enable-background:accumulate" />
        <g
           id="g4320"
           inkscape:transform-center-x="-47.169071"
           inkscape:transform-center-y="161.75728"
           transform="matrix(-0.72978346,0.68367836,0.68367836,0.72978346,383.16685,-151.44259)"
           style="fill:#fed721;fill-rule:evenodd;stroke:#000000;stroke-width:1.5">
          <path
             style="color:#000000;clip-rule:nonzero;display:inline;overflow:visible;visibility:visible;opacity:1;isolation:auto;mix-blend-mode:normal;color-interpolation:sRGB;color-interpolation-filters:linearRGB;solid-color:#000000;solid-opacity:1;fill:#fed721;fill-opacity:1;fill-rule:evenodd;stroke:#000000;stroke-width:1.5;stroke-linecap:butt;stroke-linejoin:round;stroke-miterlimit:4;stroke-dasharray:none;stroke-dashoffset:0;stroke-opacity:1;marker:none;color-rendering:auto;image-rendering:auto;shape-rendering:auto;text-rendering:auto;enable-background:accumulate"
             d="m 389.10783,424.03773 c 1.67466,3.74048 4.58869,6.91347 8.17342,8.89977 3.09035,1.71237 6.71096,2.54445 10.21113,2.06355 2.71233,-0.37265 5.29076,-1.51822 7.50351,-3.13046 2.21276,-1.61224 4.06985,-3.68119 5.60006,-5.95144 3.56428,-5.28803 5.34884,-11.61312 6.0603,-17.9504 0.77067,-6.86469 0.34067,-13.83374 -0.88958,-20.63112 -1.34723,-7.44374 -3.65386,-14.71328 -6.84479,-21.57201 l 11.08743,-0.0168 c -3.06379,-7.03276 -7.26299,-13.56942 -12.38541,-19.27971 -5.73892,-6.39754 -12.63642,-11.75261 -20.25671,-15.72688 2.58719,7.06043 4.38956,14.40813 5.36327,21.86435 0.83413,6.38739 1.06074,12.85397 0.67579,19.28408 l 7.82813,-5.03125 c 2.72063,6.10625 4.41359,12.66888 4.98635,19.32922 0.30557,3.55332 0.29308,7.14862 -0.28608,10.66771 -0.5534,3.36253 -1.61895,6.62517 -2.93465,9.7687 -0.52316,1.24996 -1.09015,2.49012 -1.85097,3.61139 -0.76082,1.12127 -1.72757,2.12583 -2.91465,2.77923 -1.68149,0.92553 -3.77608,1.07693 -5.5625,0.375 -1.10731,-0.43509 -2.07695,-1.17223 -2.90519,-2.02631 -0.82824,-0.85409 -1.52415,-1.82611 -2.19627,-2.8078 -1.82534,-2.66606 -3.5005,-5.43409 -5.03917,-8.27526 -3.39325,-6.26569 -6.11415,-12.86858 -8.81533,-19.46226 -4.5966,-11.22046 -9.15602,-22.45647 -13.59,-33.74218 -13.92273,-35.4372 -26.60443,-71.35402 -38.49284,-107.52449 -6.07649,-18.4877 -11.94622,-37.04283 -17.71468,-55.62895 -4.8089,-15.49439 -9.5475,-31.0106 -14.21561,-46.54798 -4.01591,-0.30198 -8.0662,-0.14451 -12.04654,0.46836 -3.60602,0.55523 -7.15442,1.48392 -10.57011,2.76639 l 112.02169,283.42755 z"
             id="path4312"
             inkscape:path-effect="#path-effect4314"
             inkscape:original-d="m 389.10783,424.03773 c 2.10116,5.31616 6.01717,7.86852 8.17342,8.89977 2.15625,1.03125 8.42127,2.06355 10.21113,2.06355 1.78986,0 11.73355,-7.00477 13.10357,-9.0819 1.37002,-2.07713 5.7478,-12.4504 6.0603,-17.9504 0.3125,-5.5 -0.072,-17.13978 -0.88958,-20.63112 -0.81759,-3.49133 -6.84479,-21.57201 -6.84479,-21.57201 l 11.08743,-0.0168 c 0,0 -10.82757,-17.69977 -12.38541,-19.27971 -1.55785,-1.57994 -20.25671,-15.72688 -20.25671,-15.72688 0,0 5.25831,20.47776 5.36327,21.86435 0.10496,1.38659 0.67579,19.28408 0.67579,19.28408 l 7.82813,-5.03125 c 0,0 4.67699,15.52852 4.98635,19.32922 0.14751,1.81228 0.4122,6.41835 -0.28608,10.66771 -0.76615,4.66236 -2.52592,8.94307 -2.93465,9.7687 -0.78125,1.57812 -2.60937,5.0625 -4.76562,6.39062 -2.15625,1.32813 -3.17187,1.67187 -5.5625,0.375 -1.01611,-0.55122 -3.27422,-2.40459 -5.10146,-4.83411 -2.47174,-3.28647 -4.51811,-7.3679 -5.03917,-8.27526 -0.90625,-1.57813 -7.18014,-15.70576 -8.81533,-19.46226 -0.51274,-1.17791 -6.62619,-14.89696 -13.59,-33.74218 -15.24468,-41.25466 -37.91645,-105.73464 -38.49284,-107.52449 -0.44026,-1.36712 -9.48377,-29.27867 -17.71468,-55.62895 -7.46765,-23.90679 -14.21561,-46.54798 -14.21561,-46.54798 0,0 -10.21611,0.18542 -12.04654,0.46836 -1.83043,0.28294 -10.57011,2.76639 -10.57011,2.76639 36.86476,93.27201 93.38747,156.12308 112.02169,283.42755 z"
             inkscape:connector-curvature="0"
             sodipodi:nodetypes="csssssccscsccssssssssssscscc" />
          <path
             sodipodi:nodetypes="csscssssccscsccsssssssssssscsccc"
             inkscape:connector-curvature="0"
             inkscape:original-d="m 389.10783,424.03773 c 1.04605,2.64662 5.92245,8.22376 10.78268,10.14816 3.66257,1.45018 8.71198,2.38253 12.61726,2.69667 4.3915,0.35325 7.65633,-0.0105 12.05707,-0.0491 0.93409,0 8.26284,-1.34885 13.8639,-4.70097 5.13143,-3.07105 8.44152,-8.2124 9.09656,-9.20552 1.37002,-2.07713 5.99172,-11.49096 6.30422,-16.99096 0.3125,-5.5 2.35099,-23.17287 1.53341,-26.66421 -0.81759,-3.49133 -2.57577,-25.49214 -2.57577,-25.49214 l 11.19302,0.74793 c 0,0 -10.90909,-19.09759 -12.46693,-20.67753 -1.55785,-1.57994 -20.55667,-18.20229 -20.55667,-18.20229 0,0 4.78531,22.87762 4.89027,24.26421 0.10496,1.38659 1.97331,22.39993 1.97331,22.39993 l 6.97909,-4.939 c 0,0 2.09138,13.88425 2.40074,17.68495 0.14751,1.81228 0.10924,12.7443 -0.589,16.99366 -0.76615,4.66236 -5.72026,15.01277 -6.12899,15.8384 -0.40183,0.8117 -2.92311,4.16665 -6.23408,6.65646 -3.12629,2.35093 -7.03069,3.84589 -8.07789,4.4909 -2.15625,1.32812 -22.40845,-4.54487 -24.79908,-5.84174 -1.01611,-0.55122 -1.97329,-2.20945 -3.80053,-4.63897 -2.47174,-3.28647 -4.51811,-7.3679 -5.03917,-8.27526 -0.90625,-1.57813 -7.18014,-15.70576 -8.81533,-19.46226 -0.51274,-1.17791 -6.62619,-14.89696 -13.59,-33.74218 -15.24468,-41.25466 -37.91645,-105.73464 -38.49284,-107.52449 -0.44026,-1.36712 -9.48377,-29.27867 -17.71468,-55.62895 -7.46765,-23.90679 -14.21561,-46.54798 -14.21561,-46.54798 0,0 -10.21611,0.18542 -12.04654,0.46836 -1.83043,0.28294 -10.57011,2.76639 -10.57011,2.76639 36.86476,93.27201 93.38747,156.12308 112.02169,283.42755 z"
             inkscape:path-effect="#path-effect4318"
             id="path4316"
             d="m 389.10783,424.03773 c 2.32751,4.45796 6.19192,8.09496 10.78268,10.14816 3.94579,1.76474 8.30806,2.35848 12.61726,2.69667 4.01327,0.31496 8.05942,0.42456 12.05707,-0.0491 4.887,-0.57903 9.71388,-2.0561 13.8639,-4.70097 3.66633,-2.33661 6.74389,-5.54948 9.09656,-9.20552 3.28915,-5.11131 5.15573,-11.02229 6.30422,-16.99096 1.68598,-8.76202 1.89342,-17.74872 1.53341,-26.66421 -0.34481,-8.53887 -1.20548,-17.05688 -2.57577,-25.49214 l 11.19302,0.74793 c -3.14941,-7.436 -7.36094,-14.4212 -12.46693,-20.67753 -5.8122,-7.12164 -12.78388,-13.29484 -20.55667,-18.20229 2.09873,7.98412 3.7325,16.09044 4.89027,24.26421 1.0517,7.42494 1.7107,14.90548 1.97331,22.39993 l 6.97909,-4.939 c 1.2109,5.82946 2.01375,11.74364 2.40074,17.68495 0.36925,5.66888 0.35751,11.39218 -0.589,16.99366 -0.95084,5.62713 -2.87591,11.14946 -6.12899,15.8384 -1.73905,2.50664 -3.84596,4.75792 -6.23408,6.65646 -2.42349,1.92667 -5.14672,3.4941 -8.07789,4.4909 -4.2359,1.4405 -8.87893,1.65546 -13.23285,0.62531 -4.35392,-1.03015 -8.40537,-3.30054 -11.56623,-6.46705 -1.41399,-1.41652 -2.64846,-3.00232 -3.80053,-4.63897 -1.86015,-2.64257 -3.51368,-5.42637 -5.03917,-8.27526 -3.36342,-6.28127 -6.10375,-12.87331 -8.81533,-19.46226 -4.61458,-11.21311 -9.16303,-22.45369 -13.59,-33.74218 -13.90064,-35.44572 -26.60023,-71.35555 -38.49284,-107.52449 -6.07866,-18.48699 -11.9469,-37.04262 -17.71468,-55.62895 -4.80833,-15.49456 -9.54693,-31.01077 -14.21561,-46.54798 -4.01591,-0.30198 -8.0662,-0.14451 -12.04654,0.46836 -3.60602,0.55523 -7.15442,1.48392 -10.57011,2.76639 l 112.02169,283.42755 0,-2e-5 z"
             style="color:#000000;clip-rule:nonzero;display:inline;overflow:visible;visibility:visible;opacity:1;isolation:auto;mix-blend-mode:normal;color-interpolation:sRGB;color-interpolation-filters:linearRGB;solid-color:#000000;solid-opacity:1;fill:#fed721;fill-opacity:1;fill-rule:evenodd;stroke:#000000;stroke-width:1.5;stroke-linecap:butt;stroke-linejoin:round;stroke-miterlimit:4;stroke-dasharray:none;stroke-dashoffset:0;stroke-opacity:1;marker:none;color-rendering:auto;image-rendering:auto;shape-rendering:auto;text-rendering:auto;enable-background:accumulate" />
        </g>
        <path
           style="color:#000000;clip-rule:nonzero;display:inline;overflow:visible;visibility:visible;opacity:1;isolation:auto;mix-blend-mode:normal;color-interpolation:sRGB;color-interpolation-filters:linearRGB;solid-color:#000000;solid-opacity:1;fill:#fed721;fill-opacity:1;fill-rule:evenodd;stroke:#000000;stroke-width:1.5;stroke-linecap:butt;stroke-linejoin:round;stroke-miterlimit:4;stroke-dasharray:none;stroke-dashoffset:0;stroke-opacity:1;marker:none;color-rendering:auto;image-rendering:auto;shape-rendering:auto;text-rendering:auto;enable-background:accumulate"
           d="m 389.10783,424.03773 c 1.67466,3.74048 4.58869,6.91347 8.17342,8.89977 3.09035,1.71237 6.71096,2.54445 10.21113,2.06355 2.71233,-0.37265 5.29076,-1.51822 7.50351,-3.13046 2.21276,-1.61224 4.06985,-3.68119 5.60006,-5.95144 3.56428,-5.28803 5.34884,-11.61312 6.0603,-17.9504 0.77067,-6.86469 0.34067,-13.83374 -0.88958,-20.63112 -1.34723,-7.44374 -3.65386,-14.71328 -6.84479,-21.57201 l 11.08743,-0.0168 c -3.06379,-7.03276 -7.26299,-13.56942 -12.38541,-19.27971 -5.73892,-6.39754 -12.63642,-11.75261 -20.25671,-15.72688 2.58719,7.06043 4.38956,14.40813 5.36327,21.86435 0.83413,6.38739 1.06074,12.85397 0.67579,19.28408 l 7.82813,-5.03125 c 2.72063,6.10625 4.41359,12.66888 4.98635,19.32922 0.30557,3.55332 0.29308,7.14862 -0.28608,10.66771 -0.5534,3.36253 -1.61895,6.62517 -2.93465,9.7687 -0.52316,1.24996 -1.09015,2.49012 -1.85097,3.61139 -0.76082,1.12127 -1.72757,2.12583 -2.91465,2.77923 -1.68149,0.92553 -3.77608,1.07693 -5.5625,0.375 -1.10731,-0.43509 -2.07695,-1.17223 -2.90519,-2.02631 -0.82824,-0.85409 -1.52415,-1.82611 -2.19627,-2.8078 -1.82534,-2.66606 -3.5005,-5.43409 -5.03917,-8.27526 -3.39325,-6.26569 -6.11415,-12.86858 -8.81533,-19.46226 -4.5966,-11.22046 -9.15602,-22.45647 -13.59,-33.74218 -13.92273,-35.4372 -26.60443,-71.35402 -38.49284,-107.52449 -6.07649,-18.4877 -11.94622,-37.04283 -17.71468,-55.62895 -4.8089,-15.49439 -9.5475,-31.0106 -14.21561,-46.54798 -4.01591,-0.30198 -8.0662,-0.14451 -12.04654,0.46836 -3.60602,0.55523 -7.15442,1.48392 -10.57011,2.76639 l 112.02169,283.42755 z"
           id="path4300"
           inkscape:path-effect="#path-effect4302"
           inkscape:original-d="m 389.10783,424.03773 c 2.10116,5.31616 6.01717,7.86852 8.17342,8.89977 2.15625,1.03125 8.42127,2.06355 10.21113,2.06355 1.78986,0 11.73355,-7.00477 13.10357,-9.0819 1.37002,-2.07713 5.7478,-12.4504 6.0603,-17.9504 0.3125,-5.5 -0.072,-17.13978 -0.88958,-20.63112 -0.81759,-3.49133 -6.84479,-21.57201 -6.84479,-21.57201 l 11.08743,-0.0168 c 0,0 -10.82757,-17.69977 -12.38541,-19.27971 -1.55785,-1.57994 -20.25671,-15.72688 -20.25671,-15.72688 0,0 5.25831,20.47776 5.36327,21.86435 0.10496,1.38659 0.67579,19.28408 0.67579,19.28408 l 7.82813,-5.03125 c 0,0 4.67699,15.52852 4.98635,19.32922 0.14751,1.81228 0.4122,6.41835 -0.28608,10.66771 -0.76615,4.66236 -2.52592,8.94307 -2.93465,9.7687 -0.78125,1.57812 -2.60937,5.0625 -4.76562,6.39062 -2.15625,1.32813 -3.17187,1.67187 -5.5625,0.375 -1.01611,-0.55122 -3.27422,-2.40459 -5.10146,-4.83411 -2.47174,-3.28647 -4.51811,-7.3679 -5.03917,-8.27526 -0.90625,-1.57813 -7.18014,-15.70576 -8.81533,-19.46226 -0.51274,-1.17791 -6.62619,-14.89696 -13.59,-33.74218 -15.24468,-41.25466 -37.91645,-105.73464 -38.49284,-107.52449 -0.44026,-1.36712 -9.48377,-29.27867 -17.71468,-55.62895 -7.46765,-23.90679 -14.21561,-46.54798 -14.21561,-46.54798 0,0 -10.21611,0.18542 -12.04654,0.46836 -1.83043,0.28294 -10.57011,2.76639 -10.57011,2.76639 36.86476,93.27201 93.38747,156.12308 112.02169,283.42755 z"
           inkscape:connector-curvature="0"
           sodipodi:nodetypes="csssssccscsccssssssssssscscc" />
        <path
           style="color:#000000;clip-rule:nonzero;display:inline;overflow:visible;visibility:visible;opacity:1;isolation:auto;mix-blend-mode:normal;color-interpolation:sRGB;color-interpolation-filters:linearRGB;solid-color:#000000;solid-opacity:1;fill:#fed721;fill-opacity:1;fill-rule:evenodd;stroke:#000000;stroke-width:1.5;stroke-linecap:butt;stroke-linejoin:round;stroke-miterlimit:4;stroke-dasharray:none;stroke-dashoffset:0;stroke-opacity:1;marker:none;color-rendering:auto;image-rendering:auto;shape-rendering:auto;text-rendering:auto;enable-background:accumulate"
           d="m 278.39657,143.9257 c 1.66012,-0.61426 3.25373,-1.4081 4.74406,-2.3632 1.6456,-1.05461 3.16503,-2.30591 4.51562,-3.71875 l -9.36697,-21.80296 c -1.47943,-1.76644 -3.32378,-3.22586 -5.38303,-4.25954 -1.26299,-0.63398 -2.61471,-1.11107 -4.01562,-1.29688 -1.21141,-0.16067 -2.43012,-0.0828 -3.56659,0.36637 -1.13647,0.44918 -2.07909,1.22556 -2.85331,2.17103 -0.89533,1.09337 -1.55561,2.36569 -2.04388,3.69183 -0.7961,2.16223 -1.14431,4.48823 -1.0163,6.7888 l 8.07036,22.31544 c 1.95157,0.1077 3.9159,-0.0179 5.83785,-0.37335 1.74061,-0.32189 3.44632,-0.83208 5.07781,-1.51879"
           id="path4286"
           inkscape:connector-curvature="0"
           sodipodi:nodetypes="csccsssssccsc" />
      </g>
      <path
         inkscape:transform-center-y="-6.7022191"
         inkscape:transform-center-x="41.282162"
         sodipodi:nodetypes="csssccssccc"
         inkscape:connector-curvature="0"
         d="m 169.64481,139.67758 c -0.23321,-1.94621 -0.97249,-3.82958 -2.12546,-5.41475 -1.15297,-1.58517 -2.71707,-2.86862 -4.49683,-3.68994 -1.77976,-0.82132 -3.77122,-1.1787 -5.72551,-1.02748 -1.95428,0.15123 -3.86706,0.81073 -5.49927,1.89608 l -9.01791,19.54116 c 0.0747,1.96001 0.65674,3.89855 1.674,5.57557 1.01726,1.67703 2.46754,3.08888 4.17127,4.06076 1.70971,0.97529 3.67093,1.50529 5.63916,1.52394 1.96823,0.0186 3.93914,-0.47411 5.66702,-1.41683 z"
         style="color:#000000;clip-rule:nonzero;display:inline;overflow:visible;visibility:visible;opacity:1;isolation:auto;mix-blend-mode:normal;color-interpolation:sRGB;color-interpolation-filters:linearRGB;solid-color:#000000;solid-opacity:1;fill:#fed721;fill-opacity:1;fill-rule:evenodd;stroke:#000000;stroke-width:1.5;stroke-linecap:butt;stroke-linejoin:round;stroke-miterlimit:4;stroke-dasharray:none;stroke-dashoffset:0;stroke-opacity:1;marker:none;color-rendering:auto;image-rendering:auto;shape-rendering:auto;text-rendering:auto;enable-background:accumulate"
         id="path4264" />
    </g>
  </g>
</svg>
