<?xml version="1.0" encoding="UTF-8" standalone="no"?>
<!-- Created with Inkscape (http://www.inkscape.org/) -->
<svg
   xmlns:dc="http://purl.org/dc/elements/1.1/"
   xmlns:cc="http://web.resource.org/cc/"
   xmlns:rdf="http://www.w3.org/1999/02/22-rdf-syntax-ns#"
   xmlns:svg="http://www.w3.org/2000/svg"
   xmlns="http://www.w3.org/2000/svg"
   xmlns:sodipodi="http://sodipodi.sourceforge.net/DTD/sodipodi-0.dtd"
   xmlns:inkscape="http://www.inkscape.org/namespaces/inkscape"
   id="svg1923"
   sodipodi:version="0.32"
   inkscape:version="0.44.1"
   width="122"
   height="130"
   version="1.0"
   sodipodi:docbase="C:\Documents and Settings\Matthieu\Bureau"
   sodipodi:docname="Coat_of_arms_of_Skopje.svg">
  <metadata
     id="metadata1928">
    <rdf:RDF>
      <cc:Work
         rdf:about="">
        <dc:format>image/svg+xml</dc:format>
        <dc:type
           rdf:resource="http://purl.org/dc/dcmitype/StillImage" />
      </cc:Work>
    </rdf:RDF>
  </metadata>
  <defs
     id="defs1926" />
  <sodipodi:namedview
     inkscape:window-height="544"
     inkscape:window-width="800"
     inkscape:pageshadow="2"
     inkscape:pageopacity="0.0"
     guidetolerance="10.0"
     gridtolerance="10.0"
     objecttolerance="10.0"
     borderopacity="1.0"
     bordercolor="#666666"
     pagecolor="#ffffff"
     id="base"
     inkscape:zoom="2.0506097"
     inkscape:cx="58.23698"
     inkscape:cy="72.741278"
     inkscape:window-x="-4"
     inkscape:window-y="-4"
     inkscape:current-layer="svg1923" />
  <path
     style="fill:#005092;fill-opacity:1;fill-rule:evenodd;stroke:none;stroke-width:1px;stroke-linecap:butt;stroke-linejoin:miter;stroke-opacity:1"
     d="M 8.7778804,85.687644 L 25.514729,79.283376 L 113.13709,80.268648 L 111.66031,95.540363 L 102.79962,104.40781 L 84.585976,114.75316 L 64.895563,122.1427 L 62.43426,127.5617 L 46.189672,118.69425 L 30.929594,111.30472 L 21.084384,106.37836 L 10.254662,89.628732 L 8.7778804,85.687644 z "
     id="path29552" />
  <g
     id="g37640"
     transform="translate(125.5115,26.31261)">
    <path
       sodipodi:nodetypes="ccccccccc"
       id="path8145"
       d="M -118.25753,48.804637 L -12.43534,48.073147 L -14.62981,63.922092 C -27.099175,63.130161 -39.347787,61.675971 -52.423453,62.702943 C -63.639629,63.028049 -74.855806,63.353156 -86.071982,63.678262 C -88.389562,61.971453 -86.809839,60.264643 -86.803472,58.557834 C -98.441687,60.927938 -99.638332,59.501108 -104.84689,59.533154 L -118.50136,56.363365 L -118.25753,48.804637 z "
       style="fill:#2e937b;fill-opacity:1;fill-rule:evenodd;stroke:white;stroke-width:1px;stroke-linecap:butt;stroke-linejoin:miter;stroke-opacity:1" />
    <g
       id="g37585">
      <path
         style="fill:#8e5343;fill-opacity:1;fill-rule:evenodd;stroke:#8e5343;stroke-width:1px;stroke-linecap:butt;stroke-linejoin:miter;stroke-opacity:1"
         d="M -73.259634,-8.057768 L -82.569979,1.597404 L -84.294117,1.252577 C -95.711168,8.298368 -106.55388,11.323796 -117.05274,11.942232 L -116.01826,21.597404 L -64.983772,29.183611 L -56.176876,29.431888 L -51.190669,18.838784 L -49.811359,11.597404 C -60.587176,7.265474 -65.759865,-1.268802 -73.259634,-8.057768 z "
         id="path2825"
         sodipodi:nodetypes="cccccccccc" />
      <path
         style="fill:white;fill-opacity:1;fill-rule:evenodd;stroke:none;stroke-width:1px;stroke-linecap:butt;stroke-linejoin:miter;stroke-opacity:1"
         d="M -82.569979,1.597404 L -84.466531,1.252577 C -93.647923,7.1379 -100.09607,8.353709 -106.6217,10.476715 L -100.50101,12.631887 L -95.673428,9.873267 L -94.983772,12.631887 L -87.397566,7.114646 L -89.811359,12.28706 L -84.294117,11.597404 L -82.569979,9.528439 L -81.190669,6.424991 L -78.087221,4.356025 L -77.742393,7.459473 L -76.70791,9.528439 L -77.397566,12.28706 L -71.535497,12.28706 L -69.121703,10.562922 L -66.70791,11.252577 L -72.914807,4.356025 L -64.983772,10.218094 L -63.259634,9.873267 L -59.811359,12.976715 L -59.121703,11.252577 L -61.880324,8.149129 L -55.845842,8.580163 C -62.786223,3.192336 -67.950285,-2.449251 -73.345841,-8.057768 L -82.569979,1.597404 z "
         id="path2827"
         sodipodi:nodetypes="ccccccccccccccccccccccccccc" />
      <path
         style="fill:white;fill-opacity:1;fill-rule:evenodd;stroke:none;stroke-width:1px;stroke-linecap:butt;stroke-linejoin:miter;stroke-opacity:1"
         d="M -67.397565,14.528439 L -69.983772,14.269818 L -73.604462,18.321542 L -69.725152,16.769818 L -67.397565,14.528439 z "
         id="path2829" />
      <path
         style="fill:white;fill-opacity:1;fill-rule:evenodd;stroke:none;stroke-width:1px;stroke-linecap:butt;stroke-linejoin:miter;stroke-opacity:1"
         d="M -80.069979,12.976715 L -83.001014,15.821542 L -80.069979,16.252577 L -80.069979,12.976715 z "
         id="path2831" />
      <path
         style="fill:white;fill-opacity:1;fill-rule:evenodd;stroke:none;stroke-width:1px;stroke-linecap:butt;stroke-linejoin:miter;stroke-opacity:1"
         d="M -86.70791,13.924991 L -91.966531,16.16637 L -87.742393,16.769818 L -86.190669,13.838784 L -86.70791,13.924991 z "
         id="path2833" />
      <path
         style="fill:#ffffc6;fill-opacity:1;fill-rule:evenodd;stroke:#c0865d;stroke-width:1px;stroke-linecap:butt;stroke-linejoin:miter;stroke-opacity:1"
         d="M -9.99705,-1.058583 L -33.282803,10.889084 L -33.282803,15.156107 L -38.890892,26.616114 L -41.938766,31.858457 L -35.477273,31.248882 L -35.233443,28.688668 L -29.01578,15.156107 L -29.01578,31.858457 L -13.04492,30.273563 L -11.94768,14.058873 L -7.80258,4.305676 L -6.70534,3.208441 L -9.99705,-1.058583 z "
         id="path9032" />
      <path
         style="fill:none;fill-rule:evenodd;stroke:#c0865d;stroke-width:1px;stroke-linecap:butt;stroke-linejoin:miter;stroke-opacity:1"
         d="M -9.26556,7.719295 L -33.282803,12.473978"
         id="path11689" />
      <path
         style="fill:none;fill-rule:evenodd;stroke:#c0865d;stroke-width:1px;stroke-linecap:butt;stroke-linejoin:miter;stroke-opacity:1"
         d="M -23.77344,12.961638 L -23.77344,14.912277"
         id="path11691" />
      <path
         style="fill:none;fill-rule:evenodd;stroke:#c0865d;stroke-width:1px;stroke-linecap:butt;stroke-linejoin:miter;stroke-opacity:1"
         d="M -20.84748,12.717808 L -20.84748,14.668447"
         id="path11693" />
      <path
         style="fill:none;fill-rule:evenodd;stroke:#c0865d;stroke-width:1px;stroke-linecap:butt;stroke-linejoin:miter;stroke-opacity:1"
         d="M -18.16535,12.473978 L -18.16535,14.302703"
         id="path11695" />
      <path
         style="fill:#c0865d;fill-opacity:1;fill-rule:evenodd;stroke:#c0865d;stroke-width:1px;stroke-linecap:butt;stroke-linejoin:miter;stroke-opacity:1"
         d="M -29.137695,15.278022 L -35.233443,28.810583 L -35.355358,31.492712 L -29.01578,31.614627 L -29.137695,15.278022 z "
         id="path12582" />
      <path
         style="fill:#c0865d;fill-opacity:1;fill-rule:evenodd;stroke:#c0865d;stroke-width:1px;stroke-linecap:butt;stroke-linejoin:miter;stroke-opacity:1"
         d="M -32.917059,4.061846 L -32.917059,14.546533 L -41.816851,31.492712 L -41.207276,28.079093 L -41.329191,2.842696 L -40.478541,3.00346 L -40.428559,4.582243 L -38.158764,4.944482 L -38.155393,3.302667 L -36.709115,3.562247 L -36.646328,5.151529 L -34.303391,5.49761 L -34.377152,3.912082 L -32.917059,4.061846 z "
         id="path13469"
         sodipodi:nodetypes="cccccccccccccc" />
      <path
         style="fill:#ffffce;fill-opacity:1;fill-rule:evenodd;stroke:#c0865d;stroke-width:1px;stroke-linecap:butt;stroke-linejoin:miter;stroke-opacity:1"
         d="M -41.406186,2.890508 L -43.581546,3.409318 L -43.61948,5.19823 L -46.213321,5.54995 L -46.217127,4.037887 L -48.02543,4.469156 L -48.018102,5.88778 L -49.900575,6.283052 L -49.919059,4.920774 L -51.70791,5.347404 L -52.138945,31.597404 L -41.70791,31.123266 L -41.190669,28.192232 L -41.406186,2.890508 z "
         id="path13471"
         sodipodi:nodetypes="cccccccccccccc" />
      <path
         style="fill:#c0865d;fill-opacity:1;fill-rule:evenodd;stroke:#c0865d;stroke-width:1px;stroke-linecap:butt;stroke-linejoin:miter;stroke-opacity:1"
         d="M -46.276876,10.04568 L -47.483772,10.17499 L -47.526876,13.407749 L -46.319979,13.278439 L -46.276876,10.04568 z "
         id="path13475"
         sodipodi:nodetypes="ccccc" />
      <path
         style="fill:#fff9c7;fill-opacity:1;fill-rule:evenodd;stroke:#c0865d;stroke-width:1px;stroke-linecap:butt;stroke-linejoin:miter;stroke-opacity:1"
         d="M -51.874836,12.047276 L -53.886432,13.693128 C -54.660566,15.989193 -54.325804,18.285258 -57.970583,20.581323 L -57.970583,27.347604 L -52.057708,27.530476 L -51.874836,12.047276 z "
         id="path17017"
         sodipodi:nodetypes="cccccc" />
      <path
         style="fill:#01944f;fill-opacity:1;fill-rule:evenodd;stroke:#c0865d;stroke-width:1px;stroke-linecap:butt;stroke-linejoin:miter;stroke-opacity:1"
         d="M -12.80109,24.543559 L -19.62833,25.884624 C -32.67323,27.840413 -45.718131,27.855274 -58.763031,27.225689 L -66.931333,28.322923 C -84.225571,17.811328 -100.28975,21.626982 -116.67264,21.37377 L -117.1603,45.634848 L -52.301538,45.512933 L -11.94768,45.269103 L -12.80109,24.543559 z "
         id="path18789"
         sodipodi:nodetypes="ccccccccc" />
      <path
         style="fill:none;fill-opacity:1;fill-rule:evenodd;stroke:#c0865d;stroke-width:1px;stroke-linecap:butt;stroke-linejoin:miter;stroke-opacity:1"
         d="M -68.150483,27.835263 C -81.144208,31.374309 -93.229111,35.216296 -99.482628,41.002079"
         id="path18791"
         sodipodi:nodetypes="cc" />
      <path
         style="fill:none;fill-rule:evenodd;stroke:#c0865d;stroke-width:1px;stroke-linecap:butt;stroke-linejoin:miter;stroke-opacity:1"
         d="M -116.79455,24.909304 C -116.75391,24.909304 -116.71328,24.909304 -116.79455,24.909304 z "
         id="path18793" />
      <path
         style="fill:none;fill-rule:evenodd;stroke:#c0865d;stroke-width:1px;stroke-linecap:butt;stroke-linejoin:miter;stroke-opacity:1"
         d="M -116.79455,24.787389 C -105.91845,26.848454 -95.630123,29.614842 -86.341241,33.580569"
         id="path18795"
         sodipodi:nodetypes="cs" />
      <path
         style="fill:none;fill-rule:evenodd;stroke:#c0865d;stroke-width:1px;stroke-linecap:butt;stroke-linejoin:miter;stroke-opacity:1"
         d="M -12.19151,33.321437 C -25.32035,32.625318 -33.371486,34.929662 -39.378552,38.441865 L -39.256637,38.31995"
         id="path18798"
         sodipodi:nodetypes="ccc" />
      <path
         style="fill:#fffbc5;fill-opacity:1;fill-rule:evenodd;stroke:#c0865d;stroke-width:1px;stroke-linecap:butt;stroke-linejoin:miter;stroke-opacity:1"
         d="M -64.811359,15.04568 L -69.294117,19.183611 L -69.771318,36.080163 C -85.155103,35.939585 -101.1521,38.18553 -117.91481,40.907749 L -117.74239,58.321542 L -111.88032,74.0112 L -111.70791,72.804301 L -103.08722,72.631887 L -103.25964,67.976714 L -103.94929,67.976715 C -107.01392,49.84848 -79.982914,48.812115 -80.501014,67.287059 L -81.707911,67.459473 L -81.70791,72.804301 L -46.880324,72.976715 L -46.880324,67.976715 L -49.121703,67.804301 C -50.423456,48.570631 -23.67668,49.376857 -25.3286,67.631887 L -26.70791,67.631887 L -26.880324,72.28706 L -17.22515,72.459474 L -12.74239,64.183611 L -11.01826,46.597404 L -11.70791,41.252576 C -25.766139,38.942767 -33.171038,36.242459 -59.811358,36.029664 L -60.156186,19.011198 L -64.811359,15.04568 z "
         id="path22340"
         sodipodi:nodetypes="cccccccccccccccccccccccccc" />
      <path
         style="fill:none;fill-rule:evenodd;stroke:#c0865d;stroke-width:1px;stroke-linecap:butt;stroke-linejoin:miter;stroke-opacity:1"
         d="M -60.156186,19.011198 L -69.121703,19.011198"
         id="path22342" />
      <path
         style="fill:none;fill-opacity:1;fill-rule:evenodd;stroke:#c0865d;stroke-width:1px;stroke-linecap:butt;stroke-linejoin:miter;stroke-opacity:1"
         d="M -62.914807,21.252577 L -62.914807,38.332001 L -66.880324,38.321542 L -66.880324,21.252577 L -62.914807,21.252577 z "
         id="path22344"
         sodipodi:nodetypes="ccccc" />
      <path
         style="fill:none;fill-opacity:1;fill-rule:evenodd;stroke:#c0865d;stroke-width:1px;stroke-linecap:butt;stroke-linejoin:miter;stroke-opacity:1"
         d="M -117.74239,45.735336 C -79.603291,39.645947 -44.448541,40.339175 -11.36308,45.735335"
         id="path22346"
         sodipodi:nodetypes="cc" />
      <path
         style="fill:none;fill-rule:evenodd;stroke:#c0865d;stroke-width:1px;stroke-linecap:butt;stroke-linejoin:miter;stroke-opacity:1"
         d="M -69.811359,35.907749 L -70.501014,64.011198 L -58.94929,64.011198 L -59.811358,35.390508"
         id="path22348"
         sodipodi:nodetypes="cccc" />
      <path
         style="fill:none;fill-opacity:1;fill-rule:evenodd;stroke:#c0865d;stroke-width:1px;stroke-linecap:butt;stroke-linejoin:miter;stroke-opacity:1"
         d="M -109.1217,67.804301 C -109.04947,38.650432 -71.997875,46.371488 -75.845842,67.976715"
         id="path22350"
         sodipodi:nodetypes="cc" />
      <path
         style="fill:none;fill-opacity:1;fill-rule:evenodd;stroke:#c0865d;stroke-width:1px;stroke-linecap:butt;stroke-linejoin:miter;stroke-opacity:1"
         d="M -47.053173,68.0267 L -82.221661,67.402033 M -103.6052,68.062017 L -114.29412,67.976715 M -14.81136,67.976715 L -26.53324,67.716018"
         id="path22354"
         sodipodi:nodetypes="cccccc" />
      <path
         style="fill:none;fill-opacity:1;fill-rule:evenodd;stroke:#c0865d;stroke-width:1px;stroke-linecap:butt;stroke-linejoin:miter;stroke-opacity:1"
         d="M -97.742393,49.356025 L -95.673428,54.183611"
         id="path22358" />
      <path
         style="fill:none;fill-opacity:1;fill-rule:evenodd;stroke:#c0865d;stroke-width:1px;stroke-linecap:butt;stroke-linejoin:miter;stroke-opacity:1"
         d="M -87.569979,49.873267 L -89.294117,54.183611"
         id="path22360" />
      <path
         style="fill:none;fill-opacity:1;fill-rule:evenodd;stroke:#c0865d;stroke-width:1px;stroke-linecap:butt;stroke-linejoin:miter;stroke-opacity:1"
         d="M -81.018255,53.66637 L -84.121703,56.942232"
         id="path22362"
         sodipodi:nodetypes="cc" />
      <path
         style="fill:none;fill-opacity:1;fill-rule:evenodd;stroke:#c0865d;stroke-width:1px;stroke-linecap:butt;stroke-linejoin:miter;stroke-opacity:1"
         d="M -76.363083,62.28706 L -81.018255,62.804301"
         id="path22364"
         sodipodi:nodetypes="cc" />
      <path
         style="fill:none;fill-opacity:1;fill-rule:evenodd;stroke:#c0865d;stroke-width:1px;stroke-linecap:butt;stroke-linejoin:miter;stroke-opacity:1"
         d="M -105.15619,54.528439 L -102.05274,57.459473"
         id="path22366"
         sodipodi:nodetypes="cc" />
      <path
         style="fill:none;fill-opacity:1;fill-rule:evenodd;stroke:#c0865d;stroke-width:1px;stroke-linecap:butt;stroke-linejoin:miter;stroke-opacity:1"
         d="M -108.60446,62.459473 L -104.63894,63.321543"
         id="path22370"
         sodipodi:nodetypes="cc" />
      <path
         style="fill:none;fill-opacity:1;fill-rule:evenodd;stroke:#c0865d;stroke-width:1px;stroke-linecap:butt;stroke-linejoin:miter;stroke-opacity:1"
         d="M -76.018255,64.011198 L -53.776876,64.183611 L -76.018255,64.011198 z "
         id="path22372" />
      <path
         style="fill:none;fill-opacity:1;fill-rule:evenodd;stroke:#c0865d;stroke-width:1px;stroke-linecap:butt;stroke-linejoin:miter;stroke-opacity:1"
         d="M -71.70791,64.356025 L -71.70791,67.459473"
         id="path22374" />
      <path
         style="fill:none;fill-opacity:1;fill-rule:evenodd;stroke:#c0865d;stroke-width:1px;stroke-linecap:butt;stroke-linejoin:miter;stroke-opacity:1"
         d="M -66.880324,64.528439 L -66.880324,67.541348"
         id="path22376"
         sodipodi:nodetypes="cc" />
      <path
         style="fill:none;fill-opacity:1;fill-rule:evenodd;stroke:#c0865d;stroke-width:1px;stroke-linecap:butt;stroke-linejoin:miter;stroke-opacity:1"
         d="M -62.742393,64.112195 L -62.792892,67.480391"
         id="path22378"
         sodipodi:nodetypes="cc" />
      <path
         style="fill:none;fill-opacity:1;fill-rule:evenodd;stroke:#c0865d;stroke-width:1px;stroke-linecap:butt;stroke-linejoin:miter;stroke-opacity:1"
         d="M -58.087221,64.356025 L -58.087221,67.459473"
         id="path22380" />
      <path
         style="fill:none;fill-opacity:1;fill-rule:evenodd;stroke:#c0865d;stroke-width:1px;stroke-linecap:butt;stroke-linejoin:miter;stroke-opacity:1"
         d="M -68.259634,67.804301 L -68.259634,72.459473"
         id="path22382" />
      <path
         style="fill:none;fill-opacity:1;fill-rule:evenodd;stroke:#c0865d;stroke-width:1px;stroke-linecap:butt;stroke-linejoin:miter;stroke-opacity:1"
         d="M -72.914807,67.804301 L -72.904349,72.53089"
         id="path22384"
         sodipodi:nodetypes="cc" />
      <path
         style="fill:none;fill-opacity:1;fill-rule:evenodd;stroke:#c0865d;stroke-width:1px;stroke-linecap:butt;stroke-linejoin:miter;stroke-opacity:1"
         d="M -77.742393,67.976715 L -77.731935,72.469932"
         id="path22386"
         sodipodi:nodetypes="cc" />
      <path
         style="fill:none;fill-opacity:1;fill-rule:evenodd;stroke:#c0865d;stroke-width:1px;stroke-linecap:butt;stroke-linejoin:miter;stroke-opacity:1"
         d="M -61.363083,68.149128 L -61.312584,72.459473"
         id="path22388"
         sodipodi:nodetypes="cc" />
      <path
         style="fill:none;fill-opacity:1;fill-rule:evenodd;stroke:#c0865d;stroke-width:1px;stroke-linecap:butt;stroke-linejoin:miter;stroke-opacity:1"
         d="M -56.363083,67.804301 L -56.363083,72.459473"
         id="path22390" />
      <path
         style="fill:none;fill-opacity:1;fill-rule:evenodd;stroke:#c0865d;stroke-width:1px;stroke-linecap:butt;stroke-linejoin:miter;stroke-opacity:1"
         d="M -107.22515,68.149129 L -107.22515,72.114646"
         id="path22394" />
      <path
         style="fill:none;fill-opacity:1;fill-rule:evenodd;stroke:#c0865d;stroke-width:1px;stroke-linecap:butt;stroke-linejoin:miter;stroke-opacity:1"
         d="M -22.39757,67.976715 L -22.39757,72.28706"
         id="path22396"
         sodipodi:nodetypes="cc" />
      <path
         style="fill:none;fill-opacity:1;fill-rule:evenodd;stroke:#c0865d;stroke-width:1px;stroke-linecap:butt;stroke-linejoin:miter;stroke-opacity:1"
         d="M -53.65837,67.335409 C -53.586133,38.18154 -16.53454,45.902596 -20.38251,67.507823"
         id="path22398"
         sodipodi:nodetypes="cc" />
      <path
         style="fill:none;fill-opacity:1;fill-rule:evenodd;stroke:#c0865d;stroke-width:1px;stroke-linecap:butt;stroke-linejoin:miter;stroke-opacity:1"
         d="M -42.279059,48.887133 L -40.210094,53.714719"
         id="path22400" />
      <path
         style="fill:none;fill-opacity:1;fill-rule:evenodd;stroke:#c0865d;stroke-width:1px;stroke-linecap:butt;stroke-linejoin:miter;stroke-opacity:1"
         d="M -32.106645,49.404375 L -33.830783,53.714719"
         id="path22402" />
      <path
         style="fill:none;fill-opacity:1;fill-rule:evenodd;stroke:#c0865d;stroke-width:1px;stroke-linecap:butt;stroke-linejoin:miter;stroke-opacity:1"
         d="M -25.554918,53.197478 L -28.658368,56.47334"
         id="path22404"
         sodipodi:nodetypes="cc" />
      <path
         style="fill:none;fill-opacity:1;fill-rule:evenodd;stroke:#c0865d;stroke-width:1px;stroke-linecap:butt;stroke-linejoin:miter;stroke-opacity:1"
         d="M -20.89975,61.818168 L -25.554918,62.335409"
         id="path22406"
         sodipodi:nodetypes="cc" />
      <path
         style="fill:none;fill-opacity:1;fill-rule:evenodd;stroke:#c0865d;stroke-width:1px;stroke-linecap:butt;stroke-linejoin:miter;stroke-opacity:1"
         d="M -49.692852,54.059547 L -46.589404,56.990581"
         id="path22408"
         sodipodi:nodetypes="cc" />
      <path
         style="fill:none;fill-opacity:1;fill-rule:evenodd;stroke:#c0865d;stroke-width:1px;stroke-linecap:butt;stroke-linejoin:miter;stroke-opacity:1"
         d="M -53.141128,61.990581 L -49.175611,62.852651"
         id="path22410"
         sodipodi:nodetypes="cc" />
      <path
         style="fill:none;fill-opacity:1;fill-rule:evenodd;stroke:#c0865d;stroke-width:1px;stroke-linecap:butt;stroke-linejoin:miter;stroke-opacity:1"
         d="M -51.761818,67.680237 L -51.761818,72.621074"
         id="path22414"
         sodipodi:nodetypes="cc" />
    </g>
  </g>
  <path
     style="fill:none;fill-opacity:1;fill-rule:evenodd;stroke:#bb9b5f;stroke-width:4.04671144;stroke-linecap:butt;stroke-linejoin:miter;stroke-miterlimit:4;stroke-dasharray:none;stroke-opacity:1"
     d="M 19.386926,1.6367372 L 2.1377387,29.169884 C 7.9641279,38.922138 11.658572,50.126902 8.3474415,66.104594 C 5.4992914,84.779486 10.265931,89.690329 13.522206,97.331211 C 17.017001,104.03056 23.082452,110.35209 31.666986,113.08004 C 44.815344,117.25825 53.605239,121.34863 60.78499,126.20744 C 67.597282,121.19346 79.287228,116.96228 92.065798,112.4468 C 99.197747,109.92664 103.94981,103.78932 108.73774,98.674301 C 112.67571,91.554151 115.64611,82.550579 114.11922,64.792617 C 110.33201,50.408508 113.47829,39.091823 119.77722,29.169884 L 102.52804,1.6367372 C 77.303296,10.519186 50.120648,12.414385 19.386926,1.6367372 z "
     id="path1932"
     sodipodi:nodetypes="ccccscsccccc" />
</svg>
