<?xml version="1.0" encoding="UTF-8" standalone="no"?>
<!DOCTYPE svg PUBLIC "-//W3C//DTD SVG 1.1//EN" "http://www.w3.org/Graphics/SVG/1.1/DTD/svg11.dtd">
<svg width="100%" height="100%" viewBox="0 0 91 108" version="1.1" xmlns="http://www.w3.org/2000/svg" xmlns:xlink="http://www.w3.org/1999/xlink" xml:space="preserve" style="fill-rule:evenodd;clip-rule:evenodd;">
    <g transform="matrix(1,0,0,1,-13.1839,-17.9494)">
        <g id="path1932">
            <path d="M28.754,23.998L19.233,37.392C23.407,44.548 25.203,55.039 22.831,66.762C17.154,99.634 39.412,106.246 58.698,119.088C85.831,105.065 99.169,93.936 94.641,68.636C90.25,52.391 92.953,43.958 97.844,37.96L88.322,23.998C70.249,30.516 50.774,31.906 28.754,23.998L28.754,23.998Z" style="fill:rgb(237,46,56);fill-rule:nonzero;"/>
            <path d="M99.671,38.035L98.873,39.02L98.765,39.154L98.659,39.289L98.553,39.425L98.449,39.562L98.345,39.699L98.242,39.838L98.14,39.977L98.039,40.117L97.939,40.258L97.84,40.399L97.742,40.542L97.644,40.686L97.548,40.83L97.453,40.976L97.359,41.122L97.265,41.27L97.173,41.418L97.082,41.568L96.992,41.719L96.903,41.87L96.815,42.023L96.728,42.177L96.642,42.332L96.557,42.488L96.473,42.645L96.39,42.804L96.309,42.963L96.228,43.124L96.149,43.286L96.071,43.45L95.994,43.614L95.918,43.78L95.844,43.947L95.77,44.116L95.698,44.286L95.627,44.457L95.557,44.63L95.489,44.804L95.421,44.98L95.355,45.157L95.29,45.335L95.227,45.515L95.165,45.696L95.104,45.879L95.044,46.064L94.986,46.25L94.929,46.438L94.873,46.627L94.819,46.818L94.766,47.011L94.715,47.205L94.665,47.401L94.616,47.599L94.569,47.798L94.524,47.999L94.479,48.202L94.437,48.407L94.395,48.614L94.356,48.822L94.317,49.032L94.281,49.244L94.246,49.458L94.212,49.674L94.18,49.892L94.15,50.112L94.121,50.334L94.094,50.557L94.068,50.783L94.045,51.011L94.023,51.241L94.002,51.473L93.983,51.707L93.966,51.943L93.951,52.181L93.938,52.421L93.926,52.664L93.916,52.908L93.908,53.155L93.902,53.404L93.897,53.655L93.895,53.909L93.894,54.164L93.895,54.422L93.898,54.682L93.903,54.945L93.91,55.21L93.919,55.477L93.93,55.747L93.943,56.018L93.957,56.293L93.974,56.569L93.993,56.848L94.014,57.13L94.037,57.414L94.062,57.7L94.089,57.989L94.119,58.281L94.15,58.574L94.183,58.871L94.219,59.17L94.257,59.471L94.297,59.775L94.339,60.082L94.384,60.391L94.431,60.703L94.48,61.017L94.531,61.335L94.585,61.654L94.64,61.977L94.699,62.302L94.759,62.63L94.822,62.96L94.887,63.293L94.955,63.629L95.025,63.968L95.097,64.31L95.172,64.654L95.249,65.001L95.329,65.351L95.411,65.704L95.496,66.059L95.583,66.418L95.673,66.779L95.765,67.143L95.86,67.51L95.957,67.88L96.074,68.318L96.138,68.68L96.19,68.981L96.24,69.282L96.289,69.58L96.336,69.878L96.381,70.174L96.424,70.47L96.466,70.764L96.506,71.057L96.545,71.349L96.582,71.639L96.617,71.929L96.651,72.217L96.683,72.504L96.713,72.79L96.742,73.075L96.769,73.359L96.794,73.641L96.818,73.923L96.84,74.203L96.86,74.483L96.879,74.761L96.896,75.038L96.912,75.314L96.926,75.589L96.938,75.863L96.948,76.136L96.957,76.408L96.964,76.678L96.97,76.948L96.974,77.217L96.976,77.484L96.977,77.751L96.976,78.016L96.974,78.281L96.969,78.544L96.963,78.807L96.956,79.068L96.947,79.329L96.936,79.588L96.924,79.847L96.909,80.104L96.894,80.361L96.876,80.616L96.857,80.871L96.837,81.125L96.814,81.377L96.79,81.629L96.765,81.88L96.738,82.129L96.709,82.378L96.678,82.626L96.646,82.873L96.612,83.119L96.577,83.364L96.54,83.609L96.501,83.852L96.461,84.094L96.419,84.336L96.376,84.576L96.33,84.816L96.283,85.054L96.235,85.292L96.185,85.529L96.133,85.765L96.08,86L96.025,86.235L95.968,86.468L95.91,86.701L95.85,86.932L95.789,87.163L95.726,87.393L95.661,87.622L95.595,87.85L95.527,88.078L95.457,88.304L95.386,88.53L95.313,88.755L95.239,88.979L95.163,89.202L95.086,89.424L95.006,89.646L94.926,89.866L94.843,90.086L94.759,90.305L94.674,90.523L94.587,90.741L94.498,90.957L94.408,91.173L94.316,91.388L94.223,91.602L94.128,91.816L94.031,92.028L93.933,92.24L93.833,92.451L93.732,92.661L93.629,92.871L93.525,93.08L93.419,93.288L93.311,93.495L93.202,93.701L93.092,93.907L92.98,94.112L92.866,94.316L92.751,94.52L92.634,94.722L92.516,94.924L92.396,95.126L92.275,95.326L92.152,95.526L92.028,95.725L91.902,95.924L91.775,96.121L91.646,96.318L91.516,96.515L91.384,96.711L91.251,96.906L91.116,97.1L90.98,97.294L90.842,97.487L90.703,97.679L90.563,97.871L90.42,98.062L90.277,98.252L90.132,98.442L89.985,98.631L89.837,98.82L89.688,99.008L89.537,99.195L89.385,99.382L89.231,99.568L89.076,99.753L88.919,99.938L88.761,100.123L88.601,100.306L88.441,100.49L88.278,100.672L88.114,100.854L87.949,101.036L87.783,101.217L87.615,101.398L87.445,101.578L87.274,101.757L87.102,101.936L86.928,102.114L86.753,102.292L86.577,102.47L86.399,102.647L86.22,102.823L86.039,102.999L85.857,103.175L85.674,103.35L85.489,103.525L85.303,103.699L85.115,103.873L84.926,104.046L84.736,104.219L84.544,104.391L84.351,104.563L84.157,104.735L83.961,104.906L83.764,105.077L83.565,105.248L83.366,105.418L83.164,105.588L82.962,105.757L82.758,105.926L82.553,106.095L82.346,106.263L82.138,106.431L81.929,106.599L81.718,106.767L81.506,106.934L81.293,107.1L81.078,107.267L80.862,107.433L80.645,107.599L80.426,107.765L80.206,107.93L79.984,108.095L79.762,108.26L79.538,108.425L79.312,108.589L79.086,108.753L78.858,108.917L78.628,109.081L78.398,109.244L78.166,109.407L77.933,109.571L77.698,109.733L77.462,109.896L77.225,110.059L76.986,110.221L76.747,110.383L76.505,110.545L76.263,110.707L76.019,110.869L75.774,111.03L75.528,111.192L75.28,111.353L75.031,111.514L74.781,111.675L74.529,111.836L74.277,111.997L74.022,112.158L73.766,112.319L73.252,112.64L72.732,112.961L72.207,113.281L71.677,113.602L71.142,113.922L70.601,114.243L70.056,114.563L69.505,114.884L68.949,115.204L68.388,115.525L67.822,115.846L67.251,116.167L66.675,116.489L66.094,116.811L65.508,117.133L64.917,117.456L64.321,117.779L63.72,118.103L63.113,118.428L62.502,118.753L61.886,119.079L61.265,119.406L60.639,119.734L60.008,120.062L58.607,120.788L57.438,120.013L56.99,119.719L56.54,119.427L56.09,119.136L55.638,118.847L55.186,118.56L54.732,118.274L54.278,117.99L53.823,117.707L53.368,117.426L52.912,117.145L52.456,116.866L52,116.587L51.543,116.31L50.629,115.757L49.715,115.207L48.802,114.658L47.891,114.111L46.982,113.564L46.077,113.016L45.624,112.742L45.174,112.467L44.724,112.192L44.276,111.916L43.828,111.639L43.382,111.362L42.938,111.083L42.495,110.804L42.054,110.524L41.614,110.242L41.176,109.959L40.74,109.675L40.306,109.389L39.874,109.102L39.444,108.813L39.017,108.522L38.592,108.23L38.38,108.082L38.169,107.935L37.958,107.787L37.748,107.638L37.539,107.489L37.331,107.339L37.123,107.189L36.915,107.038L36.709,106.886L36.503,106.734L36.298,106.581L36.094,106.428L35.89,106.274L35.687,106.119L35.485,105.964L35.284,105.808L35.083,105.651L34.883,105.493L34.684,105.335L34.486,105.176L34.289,105.017L34.092,104.856L33.897,104.695L33.702,104.533L33.508,104.37L33.315,104.206L33.123,104.042L32.932,103.877L32.742,103.71L32.552,103.543L32.364,103.375L32.177,103.207L31.99,103.037L31.805,102.866L31.62,102.695L31.437,102.522L31.255,102.349L31.073,102.174L30.893,101.999L30.714,101.822L30.536,101.645L30.359,101.467L30.183,101.287L30.008,101.107L29.834,100.925L29.662,100.742L29.49,100.559L29.32,100.374L29.151,100.188L28.983,100.001L28.817,99.813L28.651,99.623L28.487,99.433L28.324,99.241L28.163,99.049L28.002,98.855L27.843,98.659L27.685,98.463L27.529,98.266L27.374,98.067L27.22,97.867L27.068,97.665L26.917,97.463L26.767,97.259L26.619,97.054L26.472,96.847L26.327,96.639L26.183,96.43L26.04,96.22L25.899,96.008L25.76,95.795L25.622,95.58L25.485,95.365L25.35,95.147L25.217,94.929L25.085,94.709L24.955,94.487L24.826,94.264L24.699,94.04L24.573,93.814L24.449,93.587L24.327,93.359L24.206,93.128L24.088,92.897L23.97,92.664L23.855,92.429L23.741,92.193L23.629,91.956L23.518,91.716L23.41,91.476L23.303,91.234L23.198,90.99L23.094,90.745L22.993,90.498L22.893,90.25L22.795,90L22.699,89.748L22.605,89.495L22.513,89.24L22.422,88.984L22.334,88.726L22.247,88.466L22.162,88.205L22.079,87.942L21.999,87.678L21.92,87.411L21.843,87.143L21.768,86.874L21.694,86.603L21.623,86.33L21.554,86.055L21.487,85.779L21.422,85.501L21.359,85.221L21.298,84.94L21.239,84.656L21.183,84.371L21.128,84.085L21.075,83.796L21.025,83.506L20.976,83.214L20.93,82.92L20.886,82.624L20.844,82.327L20.804,82.028L20.766,81.726L20.73,81.423L20.697,81.119L20.666,80.812L20.637,80.503L20.61,80.193L20.585,79.881L20.563,79.566L20.543,79.25L20.525,78.932L20.509,78.612L20.496,78.291L20.485,77.967L20.476,77.641L20.469,77.313L20.465,76.983L20.463,76.652L20.463,76.318L20.466,75.982L20.471,75.645L20.479,75.305L20.488,74.963L20.5,74.619L20.515,74.273L20.532,73.925L20.551,73.575L20.573,73.223L20.597,72.869L20.623,72.512L20.652,72.154L20.684,71.793L20.718,71.43L20.754,71.065L20.793,70.698L20.834,70.329L20.878,69.957L20.924,69.583L20.973,69.208L21.024,68.829L21.078,68.449L21.134,68.066L21.193,67.681L21.254,67.294L21.318,66.904L21.388,66.495L21.446,66.204L21.498,65.937L21.548,65.671L21.597,65.405L21.645,65.139L21.691,64.874L21.736,64.61L21.779,64.346L21.82,64.083L21.86,63.82L21.899,63.557L21.937,63.296L21.972,63.034L22.007,62.774L22.04,62.513L22.072,62.254L22.102,61.995L22.131,61.736L22.158,61.478L22.184,61.221L22.209,60.964L22.232,60.708L22.254,60.452L22.275,60.197L22.294,59.943L22.312,59.689L22.328,59.436L22.343,59.184L22.357,58.932L22.369,58.681L22.38,58.43L22.39,58.18L22.399,57.931L22.406,57.682L22.412,57.434L22.416,57.187L22.419,56.94L22.421,56.694L22.422,56.449L22.421,56.205L22.419,55.961L22.416,55.718L22.411,55.475L22.406,55.234L22.399,54.993L22.39,54.752L22.381,54.513L22.37,54.274L22.358,54.036L22.345,53.799L22.33,53.562L22.315,53.327L22.298,53.092L22.28,52.858L22.26,52.624L22.24,52.392L22.218,52.16L22.195,51.929L22.171,51.699L22.146,51.47L22.119,51.241L22.092,51.014L22.063,50.787L22.033,50.561L22.002,50.336L21.97,50.112L21.936,49.888L21.902,49.666L21.866,49.444L21.829,49.223L21.791,49.003L21.752,48.784L21.712,48.566L21.671,48.349L21.629,48.133L21.585,47.917L21.541,47.703L21.495,47.489L21.449,47.277L21.401,47.065L21.352,46.854L21.302,46.645L21.251,46.436L21.199,46.228L21.146,46.021L21.092,45.815L21.037,45.611L20.981,45.407L20.924,45.204L20.866,45.002L20.807,44.801L20.747,44.601L20.686,44.402L20.624,44.204L20.561,44.008L20.497,43.812L20.432,43.617L20.366,43.423L20.299,43.231L20.231,43.039L20.162,42.849L20.092,42.659L20.021,42.471L19.95,42.284L19.877,42.098L19.804,41.913L19.729,41.729L19.654,41.546L19.578,41.364L19.5,41.184L19.422,41.004L19.343,40.826L19.264,40.649L19.183,40.473L19.101,40.298L19.019,40.124L18.936,39.951L18.852,39.78L18.767,39.61L18.681,39.441L18.594,39.273L18.507,39.106L18.419,38.941L18.33,38.776L18.24,38.613L18.149,38.451L18.058,38.291L17.491,37.311L28.201,22.244L29.759,22.799L30.266,22.976L30.772,23.151L31.278,23.322L31.782,23.489L32.286,23.654L32.788,23.815L33.29,23.972L33.79,24.127L34.29,24.278L34.789,24.426L35.287,24.571L35.784,24.712L36.28,24.85L36.775,24.986L37.269,25.117L37.762,25.246L38.255,25.372L38.746,25.494L39.237,25.613L39.726,25.73L40.215,25.843L40.703,25.953L41.19,26.059L41.676,26.163L42.161,26.264L42.646,26.361L43.129,26.456L43.612,26.548L44.093,26.636L44.574,26.722L45.054,26.804L45.534,26.884L46.012,26.961L46.489,27.034L46.966,27.105L47.442,27.173L47.917,27.238L48.391,27.3L48.865,27.359L49.337,27.415L49.809,27.468L50.28,27.519L50.75,27.566L51.22,27.611L51.688,27.653L52.156,27.692L52.623,27.729L53.089,27.763L53.555,27.793L54.019,27.821L54.483,27.847L54.947,27.869L55.409,27.889L55.871,27.906L56.331,27.921L56.792,27.933L57.251,27.942L57.71,27.948L58.168,27.952L58.625,27.953L59.082,27.952L59.537,27.948L59.992,27.941L60.447,27.932L60.901,27.92L61.354,27.905L61.806,27.888L62.257,27.869L62.708,27.847L63.159,27.822L63.608,27.795L64.057,27.765L64.505,27.733L64.953,27.699L65.4,27.661L65.846,27.622L66.291,27.58L66.736,27.536L67.181,27.489L67.624,27.44L68.067,27.388L68.51,27.334L68.951,27.278L69.392,27.219L69.833,27.158L70.273,27.094L70.712,27.029L71.151,26.961L71.589,26.89L72.026,26.818L72.463,26.743L72.899,26.665L73.335,26.586L73.77,26.504L74.204,26.42L74.638,26.334L75.072,26.245L75.505,26.155L75.937,26.062L76.368,25.967L76.8,25.87L77.23,25.771L77.66,25.669L78.09,25.565L78.518,25.46L78.947,25.352L79.375,25.242L79.802,25.13L80.229,25.016L80.655,24.899L81.081,24.781L81.506,24.661L81.931,24.538L82.355,24.414L82.778,24.288L83.202,24.159L83.624,24.029L84.046,23.897L84.468,23.762L84.889,23.626L85.31,23.488L85.73,23.348L86.15,23.205L86.569,23.061L86.988,22.916L87.406,22.768L88.895,22.235L99.671,38.035ZM20.967,37.485L21.003,37.551L21.101,37.734L21.197,37.919L21.293,38.104L21.388,38.291L21.482,38.479L21.574,38.668L21.666,38.858L21.757,39.049L21.846,39.242L21.935,39.435L22.023,39.63L22.109,39.826L22.195,40.022L22.279,40.22L22.363,40.419L22.445,40.62L22.527,40.821L22.607,41.023L22.687,41.226L22.765,41.431L22.842,41.636L22.918,41.843L22.993,42.05L23.067,42.259L23.14,42.469L23.212,42.679L23.282,42.891L23.352,43.104L23.421,43.317L23.488,43.532L23.554,43.748L23.619,43.964L23.683,44.182L23.746,44.401L23.808,44.62L23.869,44.841L23.928,45.063L23.987,45.285L24.044,45.508L24.1,45.733L24.155,45.958L24.209,46.184L24.261,46.412L24.313,46.64L24.363,46.869L24.412,47.099L24.46,47.33L24.507,47.561L24.552,47.794L24.596,48.027L24.639,48.262L24.681,48.497L24.722,48.733L24.762,48.97L24.8,49.208L24.837,49.446L24.873,49.686L24.907,49.926L24.94,50.167L24.973,50.409L25.003,50.652L25.033,50.896L25.061,51.14L25.088,51.386L25.114,51.632L25.138,51.878L25.162,52.126L25.184,52.374L25.204,52.623L25.224,52.873L25.242,53.124L25.258,53.375L25.274,53.628L25.288,53.88L25.301,54.134L25.312,54.388L25.322,54.643L25.331,54.899L25.339,55.156L25.345,55.413L25.35,55.671L25.353,55.929L25.355,56.189L25.356,56.449L25.355,56.709L25.353,56.971L25.35,57.233L25.345,57.495L25.339,57.758L25.331,58.022L25.322,58.287L25.312,58.552L25.3,58.818L25.287,59.084L25.272,59.351L25.256,59.619L25.239,59.887L25.22,60.156L25.2,60.426L25.178,60.696L25.155,60.966L25.13,61.237L25.104,61.509L25.077,61.781L25.048,62.054L25.017,62.328L24.985,62.601L24.952,62.876L24.917,63.151L24.88,63.426L24.842,63.703L24.803,63.979L24.762,64.256L24.719,64.534L24.676,64.812L24.63,65.09L24.583,65.369L24.534,65.649L24.484,65.929L24.433,66.209L24.38,66.49L24.325,66.771L24.273,67.029L24.212,67.388L24.151,67.762L24.092,68.133L24.036,68.502L23.982,68.868L23.93,69.232L23.881,69.593L23.835,69.952L23.791,70.309L23.749,70.663L23.71,71.015L23.673,71.365L23.638,71.712L23.606,72.057L23.576,72.399L23.549,72.739L23.524,73.077L23.501,73.413L23.48,73.746L23.462,74.077L23.446,74.406L23.432,74.732L23.421,75.057L23.412,75.379L23.405,75.699L23.4,76.016L23.397,76.332L23.397,76.645L23.399,76.956L23.403,77.265L23.409,77.572L23.417,77.877L23.428,78.179L23.44,78.48L23.455,78.778L23.471,79.075L23.49,79.369L23.511,79.661L23.534,79.951L23.559,80.24L23.586,80.526L23.615,80.81L23.646,81.092L23.679,81.373L23.713,81.651L23.75,81.927L23.789,82.202L23.83,82.474L23.873,82.745L23.917,83.014L23.964,83.281L24.012,83.546L24.062,83.809L24.115,84.071L24.169,84.331L24.224,84.588L24.282,84.845L24.341,85.099L24.403,85.351L24.466,85.602L24.531,85.851L24.597,86.099L24.666,86.345L24.736,86.589L24.808,86.831L24.882,87.072L24.957,87.311L25.034,87.549L25.113,87.785L25.193,88.019L25.275,88.252L25.359,88.483L25.445,88.713L25.532,88.941L25.621,89.168L25.711,89.393L25.803,89.617L25.897,89.839L25.992,90.06L26.089,90.28L26.187,90.498L26.287,90.714L26.389,90.93L26.492,91.144L26.597,91.356L26.703,91.567L26.811,91.777L26.92,91.986L27.031,92.193L27.143,92.399L27.257,92.604L27.373,92.807L27.489,93.009L27.608,93.21L27.727,93.41L27.849,93.609L27.971,93.806L28.095,94.002L28.221,94.198L28.348,94.391L28.476,94.584L28.606,94.776L28.737,94.966L28.87,95.156L29.004,95.344L29.139,95.532L29.276,95.718L29.414,95.903L29.553,96.087L29.694,96.27L29.836,96.453L29.979,96.634L30.124,96.814L30.27,96.993L30.417,97.171L30.566,97.349L30.716,97.525L30.867,97.7L31.02,97.875L31.173,98.049L31.328,98.221L31.485,98.393L31.642,98.564L31.801,98.734L31.961,98.903L32.122,99.072L32.284,99.24L32.448,99.406L32.612,99.572L32.778,99.737L32.945,99.902L33.113,100.066L33.283,100.228L33.453,100.391L33.625,100.552L33.798,100.713L33.971,100.873L34.146,101.032L34.322,101.19L34.499,101.348L34.677,101.505L34.857,101.662L35.037,101.818L35.218,101.973L35.4,102.128L35.584,102.282L35.768,102.435L35.953,102.588L36.14,102.74L36.327,102.892L36.515,103.043L36.704,103.193L36.895,103.343L37.086,103.492L37.278,103.641L37.471,103.789L37.664,103.937L37.859,104.085L38.055,104.231L38.251,104.378L38.449,104.524L38.647,104.669L38.846,104.814L39.046,104.959L39.247,105.103L39.448,105.246L39.65,105.39L39.853,105.533L40.057,105.675L40.261,105.817L40.674,106.101L41.088,106.382L41.505,106.663L41.925,106.942L42.348,107.221L42.774,107.498L43.201,107.775L43.632,108.05L44.064,108.325L44.499,108.599L44.936,108.873L45.375,109.146L45.816,109.418L46.259,109.691L46.703,109.963L47.15,110.235L47.597,110.507L48.498,111.051L49.403,111.597L50.314,112.143L51.228,112.693L52.145,113.245L53.064,113.801L53.525,114.081L53.986,114.362L54.447,114.645L54.909,114.929L55.37,115.214L55.831,115.501L56.293,115.79L56.754,116.08L57.215,116.373L57.675,116.667L58.135,116.964L58.595,117.263L58.788,117.39L59.281,117.133L59.902,116.808L60.517,116.484L61.127,116.161L61.732,115.84L62.331,115.519L62.925,115.198L63.514,114.879L64.098,114.56L64.676,114.242L65.249,113.925L65.817,113.608L66.379,113.291L66.936,112.975L67.488,112.66L68.034,112.345L68.575,112.03L69.11,111.716L69.64,111.402L70.164,111.088L70.684,110.774L71.197,110.46L71.705,110.147L72.208,109.833L72.457,109.676L72.705,109.519L72.951,109.363L73.196,109.206L73.44,109.049L73.682,108.892L73.923,108.735L74.163,108.578L74.401,108.421L74.637,108.264L74.873,108.107L75.107,107.95L75.339,107.793L75.57,107.635L75.8,107.478L76.029,107.321L76.255,107.163L76.481,107.005L76.705,106.848L76.928,106.69L77.149,106.532L77.369,106.374L77.587,106.216L77.805,106.057L78.02,105.899L78.234,105.74L78.447,105.581L78.659,105.423L78.869,105.263L79.077,105.104L79.284,104.945L79.49,104.785L79.694,104.626L79.897,104.466L80.099,104.306L80.299,104.145L80.497,103.985L80.694,103.824L80.89,103.664L81.084,103.502L81.277,103.341L81.468,103.18L81.658,103.018L81.847,102.856L82.034,102.694L82.22,102.531L82.404,102.369L82.587,102.206L82.768,102.043L82.948,101.879L83.126,101.715L83.303,101.551L83.479,101.387L83.653,101.223L83.826,101.058L83.997,100.893L84.167,100.727L84.335,100.562L84.502,100.395L84.667,100.229L84.831,100.062L84.994,99.895L85.155,99.728L85.314,99.56L85.473,99.392L85.629,99.224L85.785,99.055L85.938,98.886L86.091,98.717L86.242,98.547L86.391,98.377L86.539,98.206L86.686,98.035L86.831,97.864L86.975,97.692L87.117,97.52L87.258,97.347L87.397,97.174L87.535,97.001L87.671,96.827L87.806,96.653L87.94,96.478L88.072,96.303L88.203,96.127L88.332,95.951L88.459,95.775L88.586,95.597L88.711,95.42L88.834,95.242L88.956,95.063L89.077,94.884L89.196,94.705L89.313,94.525L89.43,94.344L89.544,94.163L89.658,93.982L89.77,93.8L89.88,93.617L89.989,93.434L90.097,93.25L90.203,93.065L90.307,92.88L90.411,92.695L90.512,92.509L90.613,92.322L90.712,92.134L90.809,91.946L90.905,91.758L91,91.568L91.093,91.379L91.185,91.188L91.275,90.997L91.364,90.805L91.452,90.612L91.538,90.419L91.622,90.225L91.705,90.031L91.787,89.835L91.867,89.639L91.946,89.442L92.024,89.245L92.1,89.047L92.174,88.847L92.247,88.648L92.319,88.447L92.389,88.246L92.458,88.044L92.525,87.841L92.591,87.637L92.656,87.433L92.719,87.227L92.78,87.021L92.84,86.814L92.899,86.606L92.956,86.397L93.012,86.188L93.066,85.977L93.119,85.766L93.171,85.554L93.221,85.341L93.269,85.127L93.317,84.912L93.362,84.696L93.406,84.479L93.449,84.261L93.49,84.043L93.53,83.823L93.568,83.602L93.605,83.381L93.641,83.158L93.675,82.935L93.707,82.71L93.738,82.484L93.767,82.258L93.795,82.03L93.822,81.802L93.847,81.572L93.871,81.341L93.893,81.109L93.913,80.877L93.932,80.643L93.95,80.408L93.966,80.172L93.98,79.934L93.993,79.696L94.005,79.457L94.015,79.216L94.023,78.975L94.03,78.732L94.036,78.488L94.04,78.243L94.042,77.997L94.043,77.749L94.042,77.501L94.04,77.251L94.037,77L94.031,76.748L94.024,76.495L94.016,76.241L94.006,75.985L93.995,75.728L93.982,75.47L93.967,75.211L93.951,74.95L93.933,74.688L93.914,74.425L93.893,74.161L93.871,73.896L93.847,73.629L93.821,73.361L93.794,73.092L93.766,72.821L93.735,72.549L93.704,72.276L93.67,72.001L93.635,71.726L93.599,71.449L93.56,71.17L93.52,70.89L93.479,70.609L93.436,70.327L93.391,70.043L93.345,69.758L93.297,69.472L93.248,69.184L93.207,68.954L93.121,68.633L93.021,68.25L92.922,67.87L92.827,67.493L92.734,67.118L92.643,66.746L92.555,66.377L92.47,66.01L92.387,65.646L92.306,65.284L92.229,64.926L92.153,64.569L92.08,64.216L92.009,63.865L91.941,63.516L91.875,63.17L91.812,62.827L91.751,62.486L91.692,62.147L91.636,61.811L91.582,61.478L91.53,61.146L91.481,60.818L91.434,60.491L91.389,60.168L91.347,59.846L91.307,59.527L91.269,59.21L91.233,58.895L91.2,58.583L91.169,58.273L91.14,57.966L91.113,57.66L91.089,57.357L91.066,57.056L91.046,56.758L91.028,56.461L91.012,56.167L90.998,55.875L90.987,55.585L90.977,55.297L90.97,55.011L90.964,54.728L90.961,54.446L90.96,54.167L90.961,53.889L90.963,53.614L90.968,53.341L90.975,53.07L90.984,52.8L90.995,52.533L91.008,52.268L91.022,52.005L91.039,51.744L91.058,51.484L91.078,51.227L91.101,50.972L91.125,50.718L91.152,50.466L91.18,50.217L91.21,49.969L91.242,49.723L91.275,49.478L91.311,49.236L91.348,48.996L91.387,48.757L91.428,48.52L91.471,48.285L91.516,48.052L91.562,47.82L91.61,47.59L91.659,47.362L91.711,47.136L91.764,46.911L91.819,46.688L91.875,46.467L91.933,46.247L91.993,46.03L92.054,45.813L92.117,45.599L92.182,45.386L92.248,45.175L92.316,44.965L92.385,44.757L92.456,44.551L92.528,44.346L92.602,44.143L92.677,43.941L92.754,43.741L92.832,43.543L92.912,43.346L92.993,43.15L93.075,42.956L93.159,42.764L93.244,42.573L93.331,42.383L93.419,42.195L93.508,42.009L93.598,41.824L93.69,41.64L93.783,41.458L93.877,41.277L93.973,41.098L94.07,40.92L94.168,40.743L94.267,40.568L94.367,40.394L94.468,40.222L94.571,40.05L94.674,39.881L94.779,39.712L94.885,39.545L94.992,39.379L95.099,39.214L95.208,39.05L95.318,38.888L95.429,38.727L95.541,38.567L95.653,38.409L95.767,38.251L95.881,38.095L95.997,37.94L96.027,37.9L87.747,25.758L87.528,25.834L87.097,25.983L86.665,26.129L86.232,26.273L85.799,26.416L85.365,26.556L84.931,26.694L84.496,26.831L84.06,26.965L83.624,27.097L83.187,27.228L82.749,27.356L82.311,27.482L81.873,27.606L81.434,27.728L80.994,27.848L80.553,27.966L80.112,28.082L79.67,28.195L79.228,28.307L78.785,28.416L78.341,28.523L77.897,28.628L77.452,28.73L77.006,28.831L76.56,28.929L76.113,29.025L75.666,29.119L75.218,29.21L74.769,29.299L74.319,29.386L73.869,29.471L73.418,29.553L72.967,29.633L72.515,29.711L72.062,29.786L71.608,29.859L71.154,29.929L70.699,29.997L70.244,30.063L69.788,30.126L69.331,30.187L68.873,30.245L68.415,30.301L67.956,30.355L67.496,30.406L67.036,30.454L66.575,30.5L66.113,30.544L65.65,30.585L65.187,30.623L64.723,30.659L64.258,30.692L63.793,30.723L63.327,30.751L62.86,30.777L62.393,30.8L61.924,30.82L61.455,30.838L60.986,30.853L60.515,30.865L60.044,30.875L59.572,30.881L59.099,30.886L58.626,30.887L58.152,30.886L57.677,30.882L57.201,30.875L56.725,30.866L56.248,30.854L55.77,30.839L55.291,30.821L54.812,30.8L54.332,30.777L53.851,30.751L53.369,30.722L52.887,30.69L52.403,30.655L51.919,30.617L51.435,30.576L50.949,30.533L50.463,30.486L49.976,30.437L49.488,30.385L48.999,30.33L48.51,30.271L48.019,30.21L47.528,30.146L47.037,30.079L46.544,30.009L46.05,29.935L45.556,29.859L45.061,29.78L44.565,29.697L44.069,29.612L43.571,29.523L43.073,29.432L42.574,29.337L42.074,29.239L41.573,29.138L41.072,29.034L40.569,28.927L40.066,28.817L39.562,28.703L39.057,28.586L38.551,28.466L38.045,28.343L37.538,28.217L37.029,28.087L36.52,27.954L36.01,27.818L35.5,27.679L34.988,27.536L34.476,27.39L33.962,27.241L33.448,27.089L32.933,26.933L32.417,26.774L31.9,26.611L31.383,26.445L30.864,26.276L30.345,26.103L29.825,25.927L29.309,25.75L20.967,37.485Z" style="fill:rgb(247,209,23);"/>
        </g>
        <path id="path9032" d="M94.023,42.748L74.626,49.469C75.108,53.973 69.129,51.502 67.193,55.482L70.141,55.585L71.987,55.855C75.504,55.122 73.167,55.243 81.302,56.145L92.216,59.948C92.811,58.938 92.98,57.938 92.916,56.944C92.775,54.77 91.522,52.623 91.201,50.452L94.421,42.831L95.274,41.974L94.023,42.748Z" style="fill:rgb(247,209,23);stroke:rgb(247,209,23);stroke-width:0.78px;"/>
        <path id="path11691" d="M78.101,51.375L78.101,54.328" style="fill:rgb(237,46,56);fill-rule:nonzero;stroke:rgb(237,46,56);stroke-width:1.39px;"/>
        <path id="path11693" d="M81.811,51.006L81.811,53.959" style="fill:rgb(237,46,56);fill-rule:nonzero;stroke:rgb(237,46,56);stroke-width:1.39px;"/>
        <path id="path11695" d="M85.212,50.637L85.212,53.405" style="fill:rgb(237,46,56);fill-rule:nonzero;stroke:rgb(237,46,56);stroke-width:1.39px;"/>
        <path id="path13469" d="M75.628,45.327L75.559,55.272C74.357,57.03 73.905,55.444 69.149,55.081L69.104,44.64L69.754,44.5L69.792,45.734L71.556,46.017L71.558,44.734L72.682,44.937L72.731,46.178L74.551,46.449L74.494,45.21L75.628,45.327L75.628,45.327Z" style="fill:rgb(247,209,23);stroke:rgb(247,209,23);stroke-width:0.78px;"/>
        <path id="path13471" d="M68.016,43.161L66.37,43.161L66.37,44.701L64.724,44.701L64.724,43.161L63.078,43.161L63.078,44.701L61.432,44.701L61.432,43.161L59.786,43.161L59.786,56.764C59.72,57.236 59.732,58.206 60.013,58.059C61.533,57.264 67.821,56.83 68.016,56.874C68.016,45.167 68.016,50.005 68.016,43.161L68.016,43.161Z" style="fill:rgb(247,209,23);stroke:rgb(247,209,23);stroke-width:0.78px;"/>
        <path id="path13475" d="M64.724,47.011L62.255,47.011L62.255,50.091L64.724,50.091L64.724,47.011Z" style="fill:rgb(237,46,56);stroke:rgb(237,46,56);stroke-width:0.78px;"/>
        <path id="path4043" d="M62.895,71.415C62.206,71.367 61.517,71.332 60.83,71.309C59.185,71.255 57.552,71.271 55.941,71.347C54.947,71.393 53.962,71.463 52.988,71.554C40.15,72.745 29.024,77.637 23.217,82.157L25.02,89.784C92.648,89.823 26.377,89.899 92.273,89.702L94.185,84.8C84.893,76.961 72.98,72.117 62.895,71.415Z" style="fill:rgb(247,209,23);fill-rule:nonzero;"/>
        <path id="path4053" d="M36.266,83.76C33.177,83.946 30.16,86.258 29.736,90.007C43.392,90.028 29.74,89.962 43.423,90.016C42.588,85.551 39.355,83.574 36.266,83.76L36.266,83.76Z" style="fill:rgb(237,46,56);fill-rule:nonzero;"/>
        <path id="path4053.-1" d="M57.952,78.782C53.594,79.126 49.342,83.306 48.749,90.069C68.018,90.072 48.756,89.989 68.063,90.05C66.875,81.996 62.31,78.438 57.952,78.782L57.952,78.782Z" style="fill:rgb(237,46,56);fill-rule:nonzero;"/>
        <path id="path4053.-7" d="M80.28,83.753C77.191,83.939 74.174,86.251 73.749,89.999C87.405,90.021 73.754,89.955 87.437,90.009C86.601,85.544 83.369,83.567 80.28,83.753L80.28,83.753Z" style="fill:rgb(237,46,56);fill-rule:nonzero;"/>
        <path id="path4097" d="M58.25,107.781C54.577,107.781 50.383,109.184 46.739,110.486L48.761,113.159C55.454,110.769 61.526,110.172 68.219,112.563L71.605,110.401C67.96,109.099 61.923,107.781 58.25,107.781Z" style="fill:rgb(247,209,23);fill-rule:nonzero;"/>
        <path id="path4103" d="M58.375,102.811C53.5,102.931 49.255,105.022 45.25,105.218C42.572,105.348 38.501,103.984 35.739,102.601L35.759,105.715C39.023,107.35 42.319,108.366 45.375,108.218C50.231,107.981 54.495,105.909 58.469,105.811C62.469,105.713 66.844,107.249 71.532,107.843C74.482,108.216 77.612,108.172 80.719,106.905L82.546,102.675C80.06,103.689 74.573,105.212 71.907,104.874C67.67,104.337 63.151,102.694 58.375,102.811L58.375,102.811Z" style="fill:rgb(247,209,23);fill-rule:nonzero;"/>
        <path id="path4111" d="M59.188,96.719C54.713,96.677 52.213,99.491 45.031,99.061C42.847,99.063 40.96,97.721 39.188,97.313C36.62,96.802 33.402,96.376 29.656,97.125L30.25,100.063C33.467,99.42 36.215,99.774 38.625,100.25C48.099,104.826 52.511,100.163 59.156,99.719C62.941,99.754 64.47,100.597 67.063,101.187C69.098,101.638 70.93,101.609 72.642,101.387C76.483,100.888 79.818,99.412 83.156,100C84.709,100.002 86.396,100.073 87.969,99.906L88.508,97.162C87.265,97.294 84.78,97.002 83.156,97C77.947,96.048 72.408,99.162 67.75,98.281C65.557,97.782 63.428,96.759 59.188,96.719Z" style="fill:rgb(247,209,23);fill-rule:nonzero;"/>
        <path id="path4117" d="M58.063,90.656C56.662,90.74 55.22,91.155 53.656,91.844L53.656,91.813C42.964,96.717 41.214,90.924 33.593,90.961C31.183,91.114 28.829,91.552 26.938,92.344L28.125,95.094C29.902,94.33 31.841,93.91 34.007,93.852C37.796,94.126 41.501,96.352 45.08,96.435C48.417,96.483 51.397,95.613 54.5,94.688L54.594,94.688L54.688,94.625C57.531,93.322 59.009,93.339 61.688,94.094C68.239,95.926 74.706,96.323 81.469,94.156C84.309,94.015 86.941,94.36 89.469,95.469L90.656,92.719C83.517,89.502 78.792,92.253 74.145,92.73C70.111,92.951 66.032,92.466 62.5,91.219C60.978,90.79 59.533,90.568 58.063,90.656Z" style="fill:rgb(247,209,23);fill-rule:nonzero;"/>
        <path id="path4123" d="M24.375,64.469L23.031,65.969L35.563,77.094L36.875,75.594L24.375,64.469Z" style="fill:rgb(247,209,23);fill-rule:nonzero;"/>
        <path id="path4129" d="M24.906,60.219L24.375,61.906L47.5,69.188L48.031,67.469L24.906,60.219Z" style="fill:rgb(247,209,23);fill-rule:nonzero;"/>
        <path id="path4135" d="M61.188,71.219C61.224,66.648 55.987,65.683 55.625,71.25L55.625,72.25L61.188,72.219L61.188,71.219Z" style="fill:rgb(247,209,23);fill-rule:nonzero;"/>
        <path id="path4141" d="M24.504,50.002L24.656,51.103C23.385,54.293 25.566,54.197 24.554,56.178C23.873,57.511 33.908,49.385 32.985,50.943C31.112,54.103 28.294,59.176 29.37,58.867C32.994,57.829 39.237,54.26 41.205,53.373C41.95,53.037 42.134,59.639 43.132,58.576C45.685,55.858 47.896,51.688 48.793,52.082C50.867,52.992 53.377,56.161 53.941,55.073C54.766,53.482 55.029,50.868 55.411,51.112C58.328,52.974 59.415,54.073 59.984,54.106C61.235,54.18 58.89,50.639 59.625,50.344L59.625,49.344C49.022,37.999 59.629,49.384 49.076,38.082C48.781,37.767 48.58,37.646 48.127,37.826C47.208,38.193 45.179,39.871 38.708,44.183C37.775,44.805 37.993,44.685 35.671,42.729C35.592,42.663 35.438,42.613 35.326,42.692C25.889,49.275 28.921,46.858 24.504,50.002L24.504,50.002Z" style="fill:rgb(247,209,23);fill-rule:nonzero;"/>
        <path id="path4147" d="M60.438,58.594C59.849,58.712 59.303,58.533 58.607,58.801C57.802,59.111 57.789,57.55 55.934,60.399C55.191,61.541 53.508,61.907 52.281,62.906C49.33,65.311 46.479,68.655 44.719,72.813L49.939,72.599C55.903,64.963 59.595,63.612 70.313,70.169C71.066,70.775 71.211,66.052 72.424,66.874C72.502,66.926 73.114,67.271 74.006,67.783C74.337,67.973 75.679,70.663 76.074,70.893C76.389,71.076 75.748,68.794 76.09,68.995C78.208,70.245 80.702,71.779 81.996,72.825C83.338,73.909 81.406,69.991 81.067,66.178C80.641,61.393 92.231,73.011 91.737,74.988C94.123,71.365 94.727,69.81 94.752,68.49C94.772,67.398 93.573,66.314 94.306,64.657C97.564,57.282 76.024,55.911 60.438,58.594Z" style="fill:rgb(247,209,23);fill-rule:nonzero;"/>
    </g>
</svg>
