<?xml version="1.0" encoding="UTF-8" standalone="no"?>
<!DOCTYPE svg PUBLIC "-//W3C//DTD SVG 1.1//EN" "http://www.w3.org/Graphics/SVG/1.1/DTD/svg11.dtd">
<svg width="100%" height="100%" viewBox="0 0 85 36" version="1.1" xmlns="http://www.w3.org/2000/svg" xmlns:xlink="http://www.w3.org/1999/xlink" xml:space="preserve" style="fill-rule:evenodd;clip-rule:evenodd;stroke-linecap:round;stroke-linejoin:round;stroke-miterlimit:1.5;">
    <g transform="matrix(1,0,0,1,-7.47108,-6.0416)">
        <g transform="matrix(1,0,0,1,4,-16)">
            <path d="M3.971,56.827C3.971,55.954 9.708,53.889 9.523,52.966C9.162,51.163 9.827,48.505 9.858,46.692C9.902,44.103 9.924,41.403 9.924,38.765C9.924,38.521 10.272,38.25 10.383,38.028C10.783,37.226 11.434,35.969 12.057,35.319C12.286,35.08 12.629,34.412 12.836,34.975C12.993,35.403 13.625,36.396 13.677,36.489C14.091,37.236 14.49,39.051 14.859,39.789C14.956,39.983 14.75,40.82 14.896,40.966C15.127,41.197 14.808,39.942 14.859,39.789C15.126,38.991 15.264,38.392 15.401,37.573C15.534,36.777 15.288,33.91 15.696,33.485C16.037,33.129 15.821,31.616 15.986,31.12C16.739,28.866 16.868,26.731 18.444,24.63C18.967,23.932 19.916,23.307 20.414,22.807C20.607,22.613 21.245,22.871 21.245,22.561C21.245,22.452 21.286,22.835 21.393,22.851C23.057,23.1 23.197,23.047 23.406,23.152C24.543,23.721 24.802,25.175 25.18,26.687C25.677,28.672 26.456,30.429 27.113,32.357C27.178,32.548 27.298,34.659 27.298,34.858C27.298,36.216 27.171,37.828 27.594,39.094C27.931,40.106 28.291,42.041 28.291,43.089C28.291,43.363 28.208,43.934 28.185,44.168C28.162,44.397 28.283,45.082 28.283,44.852C28.283,43.439 28.25,42.066 28.529,40.67C28.755,39.545 28.973,38.015 28.973,37.081C28.973,36.511 29.071,36.239 29.071,35.701C29.071,35.506 29.071,35.116 29.071,35.116C29.071,35.116 30.49,35.196 30.704,35.345C31.351,35.791 31.681,35.121 32.224,35.663C32.527,35.966 32.008,39.858 32.311,40.16C33.908,41.758 32.865,42.658 34.947,43.695C35.792,44.116 35.5,42.816 35.631,42.426C35.943,41.488 36.516,39.55 37.207,38.83C37.515,38.509 38.474,37.515 39.024,37.457C40.546,37.296 43.05,37.396 44.639,37.993C45.537,38.33 46.091,39.209 46.708,39.914C47.314,40.607 48.117,40.893 48.679,41.736C50.182,43.992 51.961,46.821 53.598,48.528C53.858,48.799 54.842,48.277 55.064,48.232C55.364,48.173 57.178,48.461 57.33,48.232C57.504,47.972 57.351,47.17 57.478,46.853C57.835,45.961 57.999,43.451 58.619,42.709C58.782,42.513 60.866,39.058 61.024,38.9C61.285,38.639 61.94,39.045 62.139,38.608C63.398,35.838 62.388,35.98 63.344,33.171C63.687,32.161 62.977,34.085 63.344,33.171C63.461,32.879 63.148,33.367 63.344,33.171C63.649,32.866 65.007,27.526 65.217,27.223C66.25,25.738 68.384,26.677 70.314,26.677C70.99,26.677 72.8,26.272 73.524,26.632C76.384,28.054 75.498,27.994 76.333,31.348C76.739,32.981 77.382,39.729 77.902,41.293C77.987,41.548 78.153,42.956 78.488,42.962C78.569,42.964 79.25,42.88 79.34,42.844C80.415,42.414 80.702,42.901 81.142,43.341C81.696,43.894 82.31,44.782 82.659,45.48C83.159,46.478 83.474,48.888 83.659,50C83.988,51.971 87.597,53.59 87.597,55.603" style="fill:none;stroke:white;stroke-width:4px;"/>
        </g>
    </g>
</svg>
