<?xml version="1.0" encoding="UTF-8" standalone="no"?>
<!DOCTYPE svg PUBLIC "-//W3C//DTD SVG 1.1//EN" "http://www.w3.org/Graphics/SVG/1.1/DTD/svg11.dtd">
<svg width="100%" height="100%" viewBox="0 0 400 800" version="1.1" xmlns="http://www.w3.org/2000/svg" xmlns:xlink="http://www.w3.org/1999/xlink" xml:space="preserve" style="fill-rule:evenodd;clip-rule:evenodd;stroke-linejoin:round;stroke-miterlimit:1.41421;">
    <g transform="matrix(1,0,0,1,-200,400)">
        <g transform="matrix(6.12323e-17,-1,1,6.12323e-17,200,400)">
            <path d="M0,0L800,0L800,400L0,400" style="fill:rgb(0,42,143);fill-rule:nonzero;"/>
        </g>
        <g transform="matrix(6.12323e-17,-1,1,6.12323e-17,200,400)">
            <path d="M0,80L800,80L800,160L0,160L0,240L800,240L800,320L0,320" style="fill:white;fill-rule:nonzero;"/>
        </g>
        <g transform="matrix(6.12323e-17,-1,1,6.12323e-17,200,400)">
            <path d="M346.4,200L0,0L0,400" style="fill:rgb(207,20,43);fill-rule:nonzero;"/>
        </g>
        <g transform="matrix(6.12323e-17,-1,1,6.12323e-17,200,400)">
            <path d="M115.5,140L150.85,248.5L58.35,181.5L172.55,181.5L80.05,248.5" style="fill:white;fill-rule:nonzero;"/>
        </g>
    </g>
</svg>
