<?xml version="1.0" encoding="UTF-8" standalone="no"?>
<!-- Created with Inkscape (http://www.inkscape.org/) -->
<svg
   xmlns:dc="http://purl.org/dc/elements/1.1/"
   xmlns:cc="http://creativecommons.org/ns#"
   xmlns:rdf="http://www.w3.org/1999/02/22-rdf-syntax-ns#"
   xmlns:svg="http://www.w3.org/2000/svg"
   xmlns="http://www.w3.org/2000/svg"
   xmlns:sodipodi="http://sodipodi.sourceforge.net/DTD/sodipodi-0.dtd"
   xmlns:inkscape="http://www.inkscape.org/namespaces/inkscape"
   width="231.2"
   height="654"
   id="svg2"
   sodipodi:version="0.32"
   inkscape:version="0.46"
   sodipodi:docbase="/Users/user/Documents/My graphics"
   sodipodi:docname="V-2_rocket_diagram_(no_labels).svg"
   version="1.0"
   inkscape:output_extension="org.inkscape.output.svg.inkscape">
  <defs
     id="defs4">
    <inkscape:perspective
       sodipodi:type="inkscape:persp3d"
       inkscape:vp_x="0 : 327 : 1"
       inkscape:vp_y="0 : 1000 : 0"
       inkscape:vp_z="231.2 : 327 : 1"
       inkscape:persp3d-origin="115.6 : 218 : 1"
       id="perspective4578" />
  </defs>
  <sodipodi:namedview
     id="base"
     pagecolor="#ffffff"
     bordercolor="#666666"
     borderopacity="1.0"
     inkscape:pageopacity="0.0"
     inkscape:pageshadow="2"
     inkscape:zoom="0.5"
     inkscape:cx="-55.21021"
     inkscape:cy="301.86153"
     inkscape:document-units="px"
     inkscape:current-layer="layer3"
     inkscape:window-width="913"
     inkscape:window-height="701"
     inkscape:window-x="13"
     inkscape:window-y="45"
     showguides="true"
     inkscape:guide-bbox="true"
     showgrid="false" />
  <metadata
     id="metadata7">
    <rdf:RDF>
      <cc:Work
         rdf:about="">
        <dc:format>image/svg+xml</dc:format>
        <dc:type
           rdf:resource="http://purl.org/dc/dcmitype/StillImage" />
        <cc:license
           rdf:resource="http://creativecommons.org/licenses/publicdomain/" />
        <dc:contributor>
          <cc:Agent>
            <dc:title>Public Domain/Wikimedia Commons</dc:title>
          </cc:Agent>
        </dc:contributor>
      </cc:Work>
      <cc:License
         rdf:about="http://creativecommons.org/licenses/publicdomain/">
        <cc:permits
           rdf:resource="http://creativecommons.org/ns#Reproduction" />
        <cc:permits
           rdf:resource="http://creativecommons.org/ns#Distribution" />
        <cc:permits
           rdf:resource="http://creativecommons.org/ns#DerivativeWorks" />
      </cc:License>
    </rdf:RDF>
  </metadata>
  <g
     inkscape:label="rocket"
     inkscape:groupmode="layer"
     id="layer1"
     style="display:inline" />
  <g
     inkscape:groupmode="layer"
     id="layer3"
     inkscape:label="labels english">
    <g
       id="g2062"
       transform="translate(-54.45555,0)">
      <path
         sodipodi:nodetypes="ccccccccc"
         id="path3879"
         d="M 189.68495,640.68108 L 189.68495,631.18108 L 195.22066,630.45229 L 195.22066,624.68108 C 195.71471,622.18703 194.70875,617.69299 201.9528,617.94894 L 201.9528,642.43108 L 196.56888,642.43108 L 196.68495,640.68108 L 189.68495,640.68108 z "
         style="fill:#cdcdcd;fill-opacity:1;fill-rule:evenodd;stroke:#000000;stroke-width:2;stroke-linecap:butt;stroke-linejoin:miter;stroke-miterlimit:4;stroke-dasharray:none;stroke-opacity:1;display:inline" />
      <path
         sodipodi:nodetypes="ccccccccc"
         id="path3868"
         d="M 150.4528,640.68108 L 150.4528,631.18108 L 144.91709,630.45229 L 144.91709,624.68108 C 144.42304,622.18703 145.429,617.69299 138.18495,617.94894 L 138.18495,642.43108 L 143.56887,642.43108 L 143.4528,640.68108 L 150.4528,640.68108 z "
         style="fill:#cdcdcd;fill-opacity:1;fill-rule:evenodd;stroke:#000000;stroke-width:2;stroke-linecap:butt;stroke-linejoin:miter;stroke-miterlimit:4;stroke-dasharray:none;stroke-opacity:1;display:inline" />
      <path
         sodipodi:nodetypes="ccccccccc"
         id="path3197"
         d="M 132.48544,463.42311 L 95.00878,524.23429 L 88.64482,641.61402 L 115.51487,641.61402 L 133.31386,625.22924 L 144.88621,625.22924 L 145.13621,610.50132 L 156.52707,543.32618 L 132.48544,463.42311 z "
         style="fill:#afafaf;fill-opacity:1;fill-rule:evenodd;stroke:#000000;stroke-width:2;stroke-linecap:butt;stroke-linejoin:miter;stroke-miterlimit:4;stroke-dasharray:none;stroke-opacity:1;display:inline" />
      <path
         sodipodi:nodetypes="ccccccccc"
         id="path3105"
         d="M 207.62566,463.42311 L 245.10232,524.23429 L 251.46628,641.61402 L 224.59623,641.61402 L 206.79724,625.22924 L 195.22489,625.22924 L 194.97489,610.50132 L 183.58403,543.32618 L 207.62566,463.42311 z "
         style="fill:#afafaf;fill-opacity:1;fill-rule:evenodd;stroke:#000000;stroke-width:2;stroke-linecap:butt;stroke-linejoin:miter;stroke-miterlimit:4;stroke-dasharray:none;stroke-opacity:1;display:inline" />
      <path
         sodipodi:nodetypes="cccccccccc"
         d="M 195.04303,610.18108 L 195.04303,618.93108 L 145.06801,618.93108 L 145.06801,610.18108 C 138.06801,576.18108 132.06801,462.18108 132.06801,462.18108 L 130.06801,278.18108 C 127.06801,173.18108 170.06801,12.18108 170.06801,12.18108 C 170.06801,12.18108 213.04303,173.18108 210.04303,278.18108 L 208.04303,462.18108 C 208.04303,462.18108 202.04303,576.18108 195.04303,610.18108 z "
         style="fill:#cdcdcd;fill-opacity:1;fill-rule:evenodd;stroke:none;stroke-width:2;stroke-linecap:butt;stroke-linejoin:miter;stroke-miterlimit:4;stroke-opacity:1;display:inline"
         id="path3877" />
      <path
         sodipodi:nodetypes="ccccc"
         id="path3199"
         d="M 102.10565,641.61402 L 102.10565,622.51937 L 89.68007,622.51937 L 88.64482,641.61402 L 102.10565,641.61402 z "
         style="fill:#cdcdcd;fill-opacity:1;fill-rule:evenodd;stroke:#000000;stroke-width:2;stroke-linecap:butt;stroke-linejoin:miter;stroke-miterlimit:4;stroke-dasharray:none;stroke-opacity:1;display:inline" />
      <path
         sodipodi:nodetypes="cccccc"
         id="path3201"
         d="M 106.70184,641.61402 L 115.51487,641.61402 L 130.55427,627.64886 L 126.50083,612.26909 L 106.70184,637.72493 L 106.70184,641.61402 z "
         style="fill:#cdcdcd;fill-opacity:1;fill-rule:evenodd;stroke:#000000;stroke-width:2;stroke-linecap:butt;stroke-linejoin:miter;stroke-miterlimit:4;stroke-dasharray:none;stroke-opacity:1;display:inline" />
      <path
         sodipodi:nodetypes="ccccc"
         id="path3186"
         d="M 238.00545,641.61402 L 238.00545,622.51937 L 250.43103,622.51937 L 251.46628,641.61402 L 238.00545,641.61402 z "
         style="fill:#cdcdcd;fill-opacity:1;fill-rule:evenodd;stroke:#000000;stroke-width:2;stroke-linecap:butt;stroke-linejoin:miter;stroke-miterlimit:4;stroke-dasharray:none;stroke-opacity:1;display:inline" />
      <path
         sodipodi:nodetypes="cccccc"
         id="path3188"
         d="M 233.40926,641.61402 L 224.59623,641.61402 L 209.55683,627.64886 L 213.61027,612.26909 L 233.40926,637.72493 L 233.40926,641.61402 z "
         style="fill:#cdcdcd;fill-opacity:1;fill-rule:evenodd;stroke:#000000;stroke-width:2;stroke-linecap:butt;stroke-linejoin:miter;stroke-miterlimit:4;stroke-dasharray:none;stroke-opacity:1;display:inline" />
      <path
         sodipodi:nodetypes="ccccccccc"
         d="M 179.12414,500.97586 L 172.74914,498.35086 L 171.3278,501.68108 L 177.76123,504.19809 L 187.29138,507.3292 C 191.76135,508.57354 185.70135,518.03128 186.22478,518.21276 L 189.44835,519.6237 C 189.44835,519.6237 196.41595,507.35146 190.12901,504.82824 L 179.12414,500.97586 z "
         style="color:#000000;fill:#afafaf;fill-opacity:1;fill-rule:nonzero;stroke:#000000;stroke-width:1.99999845;stroke-linecap:butt;stroke-linejoin:miter;marker:none;marker-start:none;marker-mid:none;marker-end:none;stroke-miterlimit:4;stroke-dashoffset:7.6;stroke-opacity:1;visibility:visible;display:inline;overflow:visible"
         id="path3755" />
      <path
         sodipodi:nodetypes="ccccccccc"
         d="M 170.99914,500.97586 L 164.62414,498.35086 L 163.2028,501.68108 L 169.63623,504.19809 L 179.16638,507.3292 C 183.63635,508.57354 177.57635,518.03128 178.09978,518.21276 L 181.32335,519.6237 C 181.32335,519.6237 188.29095,507.35146 182.00401,504.82824 L 170.99914,500.97586 z "
         style="color:#000000;fill:#afafaf;fill-opacity:1;fill-rule:nonzero;stroke:#000000;stroke-width:1.99999845;stroke-linecap:butt;stroke-linejoin:miter;marker:none;marker-start:none;marker-mid:none;marker-end:none;stroke-miterlimit:4;stroke-dashoffset:7.6;stroke-opacity:1;visibility:visible;display:inline;overflow:visible"
         id="path3764" />
      <rect
         ry="6.1871819"
         rx="3.5355182"
         y="457.11188"
         x="143.07591"
         height="6.8958645"
         width="33.796555"
         id="rect3589"
         style="color:#000000;fill:#9f9eca;fill-opacity:1;fill-rule:nonzero;stroke:#000000;stroke-width:1.9999994;stroke-linecap:butt;stroke-linejoin:miter;marker:none;marker-start:none;marker-mid:none;marker-end:none;stroke-miterlimit:4;stroke-dasharray:none;stroke-dashoffset:7.6;stroke-opacity:1;visibility:visible;display:inline;overflow:visible" />
      <path
         sodipodi:nodetypes="cccccccccccccccc"
         id="path3692"
         d="M 142.95387,500.83519 L 197.20935,500.83519 L 194.98947,547.24049 L 199.40313,547.45217 L 204.06145,450.32241 L 199.64779,450.11073 L 140.52114,450.11073 L 136.10748,450.32241 L 140.7658,547.45217 L 145.17946,547.24049 L 142.95387,500.83519 z M 197.39567,496.94031 L 142.79041,496.94031 L 140.72828,454.42989 L 199.42923,454.42989 L 197.39567,496.94031 z "
         style="color:#000000;fill:#afaf9b;fill-opacity:1;fill-rule:nonzero;stroke:#000000;stroke-width:2;stroke-linecap:butt;stroke-linejoin:miter;marker:none;marker-start:none;marker-mid:none;marker-end:none;stroke-miterlimit:4;stroke-dashoffset:7.6;stroke-opacity:1;visibility:visible;display:inline;overflow:visible" />
      <rect
         ry="4.2500029"
         rx="3.4748738"
         y="472.6709"
         x="182.08856"
         height="20.506096"
         width="13.435029"
         id="rect3829"
         style="color:#000000;fill:#8888a3;fill-opacity:1;fill-rule:nonzero;stroke:#000000;stroke-width:2;stroke-linecap:butt;stroke-linejoin:miter;marker:none;marker-start:none;marker-mid:none;marker-end:none;stroke-miterlimit:4;stroke-dasharray:none;stroke-dashoffset:7.6;stroke-opacity:1;visibility:visible;display:inline;overflow:visible" />
      <rect
         ry="6.1871819"
         rx="3.5355182"
         y="464.17261"
         x="143.07591"
         height="6.8958645"
         width="33.796555"
         id="rect3704"
         style="color:#000000;fill:#9f9eca;fill-opacity:1;fill-rule:nonzero;stroke:#000000;stroke-width:1.9999994;stroke-linecap:butt;stroke-linejoin:miter;marker:none;marker-start:none;marker-mid:none;marker-end:none;stroke-miterlimit:4;stroke-dasharray:none;stroke-dashoffset:7.6;stroke-opacity:1;visibility:visible;display:inline;overflow:visible" />
      <path
         transform="matrix(0.770147,0,0,0.906604,-59.7423,-102.3818)"
         d="M 342.94678 620.31995 A 29.698484 14.142136 0 1 1  283.54981,620.31995 A 29.698484 14.142136 0 1 1  342.94678 620.31995 z"
         sodipodi:ry="14.142136"
         sodipodi:rx="29.698484"
         sodipodi:cy="620.31995"
         sodipodi:cx="313.24829"
         id="path3533"
         style="opacity:0.98999999;color:#000000;fill:#474747;fill-opacity:1;fill-rule:nonzero;stroke:#000000;stroke-width:2.3935051;stroke-linecap:butt;stroke-linejoin:miter;marker:none;marker-start:none;marker-mid:none;marker-end:none;stroke-miterlimit:4;stroke-dasharray:none;stroke-dashoffset:7.6;stroke-opacity:1;visibility:visible;display:inline;overflow:visible"
         sodipodi:type="arc" />
      <rect
         ry="6.1871819"
         rx="3.5355182"
         y="471.11188"
         x="143.07591"
         height="6.8958645"
         width="33.796555"
         id="rect3706"
         style="color:#000000;fill:#9f9eca;fill-opacity:1;fill-rule:nonzero;stroke:#000000;stroke-width:1.9999994;stroke-linecap:butt;stroke-linejoin:miter;marker:none;marker-start:none;marker-mid:none;marker-end:none;stroke-miterlimit:4;stroke-dasharray:none;stroke-dashoffset:7.6;stroke-opacity:1;visibility:visible;display:inline;overflow:visible" />
      <path
         sodipodi:nodetypes="cccssscccccsscccc"
         d="M 164.51957,445.12053 L 167.23783,445.1823 L 172.76225,445.1823 C 173.67615,445.17245 174.58272,445.15211 175.48051,445.12053 C 177.27608,445.05738 179.0365,444.94931 180.75004,444.79046 C 184.17712,444.47275 187.41671,443.95191 190.37504,443.18108 C 196.29171,441.63941 201.08338,439.09774 204.00004,435.18108 L 204.00004,327.18931 C 198.16671,319.35598 184.83337,317.02264 170.00004,317.18931 C 155.16671,317.02264 141.83337,319.35598 136.00004,327.18931 L 136.00004,435.18108 C 138.91671,439.09774 143.70837,441.63941 149.62504,443.18108 C 152.58337,443.95191 155.82296,444.47275 159.25004,444.79046 L 159.25004,449.67327 L 159.25004,466.93108 L 164.51957,466.93108 L 164.51957,445.12053 z "
         style="color:#000000;fill:#afafc3;fill-opacity:1;fill-rule:nonzero;stroke:#000000;stroke-width:2;stroke-linecap:butt;stroke-linejoin:miter;marker:none;marker-start:none;marker-mid:none;marker-end:none;stroke-miterlimit:4;stroke-dashoffset:7.6;stroke-opacity:1;visibility:visible;display:inline;overflow:visible"
         id="path3123" />
      <path
         sodipodi:nodetypes="cccssscccccsscccc"
         d="M 175.48051,311.12053 L 172.76225,311.1823 L 167.23783,311.1823 C 166.32393,311.17245 165.41736,311.15211 164.51957,311.12053 C 162.724,311.05738 160.96358,310.94931 159.25004,310.79046 C 155.82296,310.47275 152.58337,309.95191 149.62504,309.18108 C 143.70837,307.63941 136.9167,305.09774 134.00004,301.18108 L 141.00004,179.18931 C 146.83337,171.35598 155.16671,169.02264 170.00004,169.18931 C 184.83337,169.02264 193.16671,171.35598 199.00004,179.18931 L 206.00004,301.18108 C 203.08337,305.09774 196.29171,307.63941 190.37504,309.18108 C 187.41671,309.95191 184.17712,310.47275 180.75004,310.79046 L 180.75004,315.67327 L 180.75004,466.93108 L 175.48051,466.93108 L 175.48051,311.12053 z "
         style="color:#000000;fill:#9f9eca;fill-opacity:1;fill-rule:nonzero;stroke:#000000;stroke-width:2;stroke-linecap:butt;stroke-linejoin:miter;marker:none;marker-start:none;marker-mid:none;marker-end:none;stroke-miterlimit:4;stroke-dashoffset:7.6;stroke-opacity:1;visibility:visible;display:inline;overflow:visible"
         id="path3547" />
      <path
         sodipodi:nodetypes="ccccccccccccccccc"
         d="M 175.8582,555.02291 L 185.30472,561.90898 L 185.76077,562.23288 L 194.55688,570.51494 L 194.95479,570.90806 C 195.85486,572.00983 197.09561,574.07341 196.70626,574.46751 C 196.71469,576.96025 195.88875,583.42981 195.88875,583.42981 L 195.50616,585.97324 C 194.94807,588.26064 194.31548,588.9964 193.77727,588.86509 L 190.33416,588.02501 C 189.79595,587.8937 189.81196,585.9465 190.37005,583.6591 L 190.50264,583.11567 L 191.61961,575.53485 L 190.66044,574.45889 L 182.55041,566.75292 L 182.09435,566.42901 L 171.05303,557.8443"
         style="color:#000000;fill:#afafaf;fill-opacity:1;fill-rule:nonzero;stroke:#000000;stroke-width:1.99999952;stroke-linecap:butt;stroke-linejoin:miter;marker:none;marker-start:none;marker-mid:none;marker-end:none;stroke-miterlimit:4;stroke-dashoffset:7.6;stroke-opacity:1;visibility:visible;display:inline;overflow:visible"
         id="path3461" />
      <path
         sodipodi:nodetypes="cccc"
         id="path3141"
         d="M 190.34568,101.82216 L 149.6673,101.82217 C 159.79405,50.44085 170.0125,12.18108 170.0125,12.18108 C 170.0125,12.18108 180.22501,50.44084 190.34568,101.82216 z "
         style="fill:#a14628;fill-opacity:1;fill-rule:evenodd;stroke:none;stroke-width:2;stroke-linecap:butt;stroke-linejoin:miter;stroke-miterlimit:4;stroke-opacity:1;display:inline" />
      <path
         sodipodi:nodetypes="ccccccccccccccccccc"
         d="M 145.6176,545.79553 L 144.47064,533.13676 L 144.47064,532.57738 C 144.47064,530.22288 143.31753,528.32738 142.76353,528.32738 L 139.92652,528.32738 L 140.08332,546.12524 L 140.11658,546.68364 L 142.08579,574.86395 L 142.17446,575.41626 L 144.09067,584.83278 L 144.25241,585.36826 C 144.93321,587.62219 145.90823,589.30777 146.43857,589.14758 L 149.83129,588.12281 C 150.36163,587.96263 150.2405,586.01913 149.55971,583.76521 L 149.39796,583.22972 L 147.64846,574.53737 L 147.55978,573.98507 L 145.65088,546.35391 L 145.6176,545.79553 z "
         style="color:#000000;fill:#afafaf;fill-opacity:1;fill-rule:nonzero;stroke:#000000;stroke-width:1.99999952;stroke-linecap:butt;stroke-linejoin:miter;marker:none;marker-start:none;marker-mid:none;marker-end:none;stroke-miterlimit:4;stroke-dashoffset:7.6;stroke-opacity:1;visibility:visible;display:inline;overflow:visible"
         id="rect3415" />
      <rect
         ry="4.2500029"
         rx="1.0000013"
         y="493.34857"
         x="138.31633"
         height="37.700699"
         width="12.068666"
         id="rect3435"
         style="color:#000000;fill:#afafaf;fill-opacity:1;fill-rule:nonzero;stroke:#000000;stroke-width:2.00000167;stroke-linecap:butt;stroke-linejoin:miter;marker:none;marker-start:none;marker-mid:none;marker-end:none;stroke-miterlimit:4;stroke-dasharray:none;stroke-dashoffset:7.6;stroke-opacity:1;visibility:visible;display:inline;overflow:visible" />
      <path
         sodipodi:nodetypes="ccccccccc"
         d="M 160.83569,500.97586 L 167.21069,498.35086 L 168.63203,501.68108 L 162.1986,504.19809 L 152.66845,507.3292 C 148.19848,508.57354 154.25848,518.03128 153.73505,518.21276 L 150.51148,519.6237 C 150.51148,519.6237 143.54388,507.35146 149.83082,504.82824 L 160.83569,500.97586 z "
         style="color:#000000;fill:#afafaf;fill-opacity:1;fill-rule:nonzero;stroke:#000000;stroke-width:1.99999845;stroke-linecap:butt;stroke-linejoin:miter;marker:none;marker-start:none;marker-mid:none;marker-end:none;stroke-miterlimit:4;stroke-dashoffset:7.6;stroke-opacity:1;visibility:visible;display:inline;overflow:visible"
         id="path3766" />
      <path
         sodipodi:nodetypes="cccsczcscc"
         d="M 188.11275,615.76686 L 151.99835,615.76686 L 160.71866,564.97554 C 149.99575,555.44836 141.88857,546.35618 143.49835,537.76686 C 144.4536,532.66989 146.317,522.58706 160.817,517.46271 C 160.817,517.46271 165.43627,516.46271 170.05555,516.46271 C 174.67483,516.46271 179.2941,517.46271 179.2941,517.46271 C 193.7941,522.58706 195.6575,532.66989 196.61275,537.76686 C 198.22253,546.35618 190.11535,555.44836 179.39244,564.97554 L 188.11275,615.76686 z "
         style="color:#000000;fill:#474747;fill-opacity:1;fill-rule:nonzero;stroke:#000000;stroke-width:2;stroke-linecap:butt;stroke-linejoin:miter;marker:none;marker-start:none;marker-mid:none;marker-end:none;stroke-miterlimit:4;stroke-dashoffset:7.6;stroke-opacity:1;visibility:visible;display:inline;overflow:visible"
         id="path3155" />
      <rect
         rx="4.25"
         ry="4.25"
         y="594.43109"
         x="149.55556"
         height="8.5"
         width="41"
         id="rect3219"
         style="color:#000000;fill:#474747;fill-opacity:1;fill-rule:nonzero;stroke:#000000;stroke-width:2;stroke-linecap:butt;stroke-linejoin:miter;marker:none;marker-start:none;marker-mid:none;marker-end:none;stroke-miterlimit:4;stroke-dasharray:none;stroke-dashoffset:7.6;stroke-opacity:1;visibility:visible;display:inline;overflow:visible" />
      <rect
         rx="4.2500024"
         ry="4.2500024"
         y="544.14459"
         x="141.93419"
         height="7.0733829"
         width="56.243244"
         id="rect3223"
         style="color:#000000;fill:#474747;fill-opacity:1;fill-rule:nonzero;stroke:#000000;stroke-width:2.00000143;stroke-linecap:butt;stroke-linejoin:miter;marker:none;marker-start:none;marker-mid:none;marker-end:none;stroke-miterlimit:4;stroke-dasharray:none;stroke-dashoffset:7.6;stroke-opacity:1;visibility:visible;display:inline;overflow:visible" />
      <rect
         rx="3.5428932"
         ry="4.2500024"
         y="528.55042"
         x="141.46465"
         height="5.2619081"
         width="57.182354"
         id="rect3225"
         style="color:#000000;fill:#474747;fill-opacity:1;fill-rule:nonzero;stroke:#000000;stroke-width:2.00000143;stroke-linecap:butt;stroke-linejoin:miter;marker:none;marker-start:none;marker-mid:none;marker-end:none;stroke-miterlimit:4;stroke-dasharray:none;stroke-dashoffset:7.6;stroke-opacity:1;visibility:visible;display:inline;overflow:visible" />
      <rect
         rx="4.2500033"
         ry="4.2500024"
         y="565.55042"
         x="157.68291"
         height="5.2619081"
         width="24.745766"
         id="rect3227"
         style="color:#000000;fill:#474747;fill-opacity:1;fill-rule:nonzero;stroke:#000000;stroke-width:2.00000167;stroke-linecap:butt;stroke-linejoin:miter;marker:none;marker-start:none;marker-mid:none;marker-end:none;stroke-miterlimit:4;stroke-dasharray:none;stroke-dashoffset:7.6;stroke-opacity:1;visibility:visible;display:inline;overflow:visible" />
      <rect
         rx="3.1893399"
         ry="4.2500024"
         y="578.80042"
         x="153.98213"
         height="5.2619081"
         width="32.147545"
         id="rect3229"
         style="color:#000000;fill:#474747;fill-opacity:1;fill-rule:nonzero;stroke:#000000;stroke-width:2.00000191;stroke-linecap:butt;stroke-linejoin:miter;marker:none;marker-start:none;marker-mid:none;marker-end:none;stroke-miterlimit:4;stroke-dasharray:none;stroke-dashoffset:7.6;stroke-opacity:1;visibility:visible;display:inline;overflow:visible" />
      <path
         id="path3151"
         d="M 160.4528,520.68108 L 160.4528,520.68108 z "
         style="fill:none;fill-opacity:0.75;fill-rule:evenodd;stroke:#000000;stroke-width:1px;stroke-linecap:butt;stroke-linejoin:miter;stroke-opacity:1;display:inline" />
      <path
         sodipodi:nodetypes="ccsccsc"
         id="path3246"
         d="M 151.69974,513.68094 L 148.98902,514.65779 C 148.07694,514.98647 147.55718,517.32118 148.40794,519.68202 C 149.2587,522.04286 150.67788,523.67885 151.58997,523.35017 L 155.24146,522.0343 C 156.15354,521.70562 156.20291,519.54042 155.35215,517.17958 C 154.50139,514.81874 152.61182,513.35226 151.69974,513.68094 z "
         style="color:#000000;fill:#474747;fill-opacity:1;fill-rule:nonzero;stroke:#000000;stroke-width:1.9999994;stroke-linecap:butt;stroke-linejoin:miter;marker:none;marker-start:none;marker-mid:none;marker-end:none;stroke-miterlimit:4;stroke-dashoffset:7.6;stroke-opacity:1;visibility:visible;display:inline;overflow:visible" />
      <path
         sodipodi:nodetypes="ccccccccc"
         d="M 168.96069,500.97586 L 175.33569,498.35086 L 176.75703,501.68108 L 170.3236,504.19809 L 160.79345,507.3292 C 156.32348,508.57354 162.38348,518.03128 161.86005,518.21276 L 158.63648,519.6237 C 158.63648,519.6237 151.66888,507.35146 157.95582,504.82824 L 168.96069,500.97586 z "
         style="color:#000000;fill:#afafaf;fill-opacity:1;fill-rule:nonzero;stroke:#000000;stroke-width:1.99999845;stroke-linecap:butt;stroke-linejoin:miter;marker:none;marker-start:none;marker-mid:none;marker-end:none;stroke-miterlimit:4;stroke-dashoffset:7.6;stroke-opacity:1;visibility:visible;display:inline;overflow:visible"
         id="path3768" />
      <path
         sodipodi:nodetypes="ccccc"
         d="M 171.78469,517.50002 L 168.16423,517.54512 L 168.36055,503.3145 L 171.87518,503.37467 L 171.78469,517.50002 z "
         style="color:#000000;fill:#afafaf;fill-opacity:1;fill-rule:nonzero;stroke:#000000;stroke-width:1.99999833;stroke-linecap:butt;stroke-linejoin:miter;marker:none;marker-start:none;marker-mid:none;marker-end:none;stroke-miterlimit:4;stroke-dashoffset:7.6;stroke-opacity:1;visibility:visible;display:inline;overflow:visible"
         id="path3790" />
      <path
         sodipodi:nodetypes="ccsscczccssscccsccsccccccsccscc"
         d="M 181.87569,463.07692 L 180.5241,470.06838 C 181.51343,470.73694 182.43506,471.49819 183.2765,472.33963 C 186.64225,475.70538 188.72493,480.3542 188.72493,485.48651 C 188.72493,495.75113 180.39422,504.08183 170.12961,504.08183 L 144.55644,504.08183 C 144.55644,504.08183 140.55644,503.84699 140.55644,500.10797 C 140.55644,496.37104 144.55644,496.13411 144.55644,496.13411 L 154.71148,495.881 C 154.04291,494.89167 153.46704,493.83464 152.99635,492.72241 C 152.05496,490.49795 151.53429,488.05266 151.53429,485.48651 C 151.53429,480.3542 153.61696,475.70538 156.98272,472.33963 C 157.82415,471.49819 158.74578,470.73694 159.73511,470.06838 L 158.38352,463.07692 L 157.08926,463.07692 C 156.53526,463.07692 156.08926,462.09139 156.08926,460.86721 C 156.08926,459.64304 156.53526,458.65751 157.08926,458.65751 L 167.17062,458.65751 C 167.72462,458.65751 168.17062,459.64304 168.17062,460.86721 C 168.17062,462.09139 167.72462,463.07692 167.17062,463.07692 L 165.87569,463.07692 C 165.87569,463.07692 166.38352,467.26921 166.38352,467.26921 C 166.38352,467.26921 170.0778,466.18108 173.87569,467.26921 L 174.38352,463.07692 L 173.08926,463.07692 C 172.53526,463.07692 172.08926,462.09139 172.08926,460.86721 C 172.08926,459.64304 172.53526,458.65751 173.08926,458.65751 L 183.17062,458.65751 C 183.72462,458.65751 184.17062,459.64304 184.17062,460.86721 C 184.17062,462.09139 183.72462,463.07692 183.17062,463.07692 L 181.87569,463.07692 z "
         style="opacity:0.98999999;color:#000000;fill:#8a8a8a;fill-opacity:1;fill-rule:nonzero;stroke:#000000;stroke-width:2.00000024;stroke-linecap:butt;stroke-linejoin:miter;marker:none;marker-start:none;marker-mid:none;marker-end:none;stroke-miterlimit:4;stroke-dashoffset:7.6;stroke-opacity:1;visibility:visible;display:inline;overflow:visible"
         id="path3488" />
      <path
         sodipodi:nodetypes="ccsccsc"
         id="path3248"
         d="M 159.94974,513.68094 L 157.23902,514.65779 C 156.32694,514.98647 155.80718,517.32118 156.65794,519.68202 C 157.5087,522.04286 158.92788,523.67885 159.83997,523.35017 L 163.49146,522.0343 C 164.40354,521.70562 164.45291,519.54042 163.60215,517.17958 C 162.75139,514.81874 160.86182,513.35226 159.94974,513.68094 z "
         style="color:#000000;fill:#474747;fill-opacity:1;fill-rule:nonzero;stroke:#000000;stroke-width:1.9999994;stroke-linecap:butt;stroke-linejoin:miter;marker:none;marker-start:none;marker-mid:none;marker-end:none;stroke-miterlimit:4;stroke-dashoffset:7.6;stroke-opacity:1;visibility:visible;display:inline;overflow:visible" />
      <path
         sodipodi:nodetypes="ccsccsc"
         id="rect3239"
         d="M 168.42523,513.96476 L 171.30407,513.84459 C 172.27272,513.80417 173.63636,515.76925 173.74101,518.27651 C 173.84568,520.78378 173.1501,522.83481 172.18145,522.87525 L 168.30347,523.03712 C 167.33482,523.07755 166.47074,521.09162 166.36609,518.58434 C 166.26143,516.07708 167.45656,514.0052 168.42523,513.96476 z "
         style="color:#000000;fill:#474747;fill-opacity:1;fill-rule:nonzero;stroke:#000000;stroke-width:1.99999976;stroke-linecap:butt;stroke-linejoin:miter;marker:none;marker-start:none;marker-mid:none;marker-end:none;stroke-miterlimit:4;stroke-dashoffset:7.6;stroke-opacity:1;visibility:visible;display:inline;overflow:visible" />
      <path
         sodipodi:nodetypes="ccsccsc"
         id="path3303"
         d="M 188.41136,513.68094 L 191.12208,514.65779 C 192.03416,514.98647 192.55392,517.32118 191.70316,519.68202 C 190.8524,522.04286 189.43322,523.67885 188.52113,523.35017 L 184.86964,522.0343 C 183.95756,521.70562 183.90819,519.54042 184.75895,517.17958 C 185.60971,514.81874 187.49928,513.35226 188.41136,513.68094 z "
         style="color:#000000;fill:#474747;fill-opacity:1;fill-rule:nonzero;stroke:#000000;stroke-width:1.9999994;stroke-linecap:butt;stroke-linejoin:miter;marker:none;marker-start:none;marker-mid:none;marker-end:none;stroke-miterlimit:4;stroke-dashoffset:7.6;stroke-opacity:1;visibility:visible;display:inline;overflow:visible" />
      <path
         sodipodi:nodetypes="ccsccsc"
         id="path3305"
         d="M 180.16136,513.68094 L 182.87208,514.65779 C 183.78416,514.98647 184.30392,517.32118 183.45316,519.68202 C 182.6024,522.04286 181.18322,523.67885 180.27113,523.35017 L 176.61964,522.0343 C 175.70756,521.70562 175.65819,519.54042 176.50895,517.17958 C 177.35971,514.81874 179.24928,513.35226 180.16136,513.68094 z "
         style="color:#000000;fill:#474747;fill-opacity:1;fill-rule:nonzero;stroke:#000000;stroke-width:1.9999994;stroke-linecap:butt;stroke-linejoin:miter;marker:none;marker-start:none;marker-mid:none;marker-end:none;stroke-miterlimit:4;stroke-dashoffset:7.6;stroke-opacity:1;visibility:visible;display:inline;overflow:visible" />
      <path
         id="path3367"
         d="M 100.4528,520.68108 L 100.4528,520.68108 z "
         style="fill:none;fill-opacity:0.75;fill-rule:evenodd;stroke:#000000;stroke-width:1px;stroke-linecap:butt;stroke-linejoin:miter;stroke-opacity:1;display:inline" />
      <path
         sodipodi:nodetypes="cccccccccccccccccc"
         d="M 145.00587,554.61879 C 146.14733,555.33555 147.36295,556.23415 148.82446,558.08014 L 157.1343,563.94206 L 157.65413,564.14863 L 165.91268,569.10969 L 169.14244,571.64729 C 170.27801,572.50432 171.97254,575.96499 171.6877,576.44015 C 172.28675,578.85985 172.75489,583.31231 172.75489,583.31231 L 172.75489,583.87168 C 172.75489,586.22618 172.30889,588.12168 171.75489,588.12168 L 168.21078,588.12168 C 167.65678,588.12168 167.21078,586.22618 167.21078,583.87168 L 167.21078,583.31231 L 166.99901,579.18277 L 166.06213,575.36483 L 155.60666,569.30082 L 155.08682,569.09424 L 144.82499,561.96012"
         style="color:#000000;fill:#afafaf;fill-opacity:1;fill-rule:nonzero;stroke:#000000;stroke-width:1.99999952;stroke-linecap:butt;stroke-linejoin:miter;marker:none;marker-start:none;marker-mid:none;marker-end:none;stroke-miterlimit:4;stroke-dashoffset:7.6;stroke-opacity:1;visibility:visible;display:inline;overflow:visible"
         id="path3444" />
      <rect
         ry="4.2499981"
         rx="1"
         y="587.90112"
         x="167.28348"
         height="9.0593748"
         width="5.5441165"
         id="rect3233"
         style="color:#000000;fill:#474747;fill-opacity:1;fill-rule:nonzero;stroke:#000000;stroke-width:1.99999952;stroke-linecap:butt;stroke-linejoin:miter;marker:none;marker-start:none;marker-mid:none;marker-end:none;stroke-miterlimit:4;stroke-dasharray:none;stroke-dashoffset:7.6;stroke-opacity:1;visibility:visible;display:inline;overflow:visible" />
      <rect
         transform="matrix(-0.920639,-0.390414,-0.390414,0.920639,0,0)"
         ry="4.2499433"
         rx="0.99998629"
         y="466.67755"
         x="-409.03058"
         height="9.059227"
         width="5.5440431"
         id="rect3235"
         style="color:#000000;fill:#474747;fill-opacity:1;fill-rule:nonzero;stroke:#000000;stroke-width:1.99997211;stroke-linecap:butt;stroke-linejoin:miter;marker:none;marker-start:none;marker-mid:none;marker-end:none;stroke-miterlimit:4;stroke-dasharray:none;stroke-dashoffset:7.6;stroke-opacity:1;visibility:visible;display:inline;overflow:visible" />
      <rect
         transform="matrix(0.920639,-0.390414,0.390414,0.920639,0,0)"
         ry="4.2499447"
         rx="0.99998665"
         y="599.4585"
         x="-95.917534"
         height="9.0592308"
         width="5.544045"
         id="rect3237"
         style="color:#000000;fill:#474747;fill-opacity:1;fill-rule:nonzero;stroke:#000000;stroke-width:1.99997282;stroke-linecap:butt;stroke-linejoin:miter;marker:none;marker-start:none;marker-mid:none;marker-end:none;stroke-miterlimit:4;stroke-dasharray:none;stroke-dashoffset:7.6;stroke-opacity:1;visibility:visible;display:inline;overflow:visible" />
      <path
         sodipodi:nodetypes="ccccc"
         d="M 190.34568,105.82216 L 190.34568,101.82216 L 149.6673,101.82217 L 149.6673,105.82217 L 190.34568,105.82216 z "
         style="fill:#afafaf;fill-opacity:1;fill-rule:evenodd;stroke:none;stroke-width:2;stroke-linecap:butt;stroke-linejoin:miter;stroke-miterlimit:4;stroke-opacity:1;display:inline"
         id="path3821" />
      <path
         sodipodi:nodetypes="ccccc"
         d="M 201.09568,166.32216 L 200.34568,162.32216 L 139.6673,162.32217 L 138.9173,166.32217 L 201.09568,166.32216 z "
         style="fill:#afafaf;fill-opacity:1;fill-rule:evenodd;stroke:none;stroke-width:2;stroke-linecap:butt;stroke-linejoin:miter;stroke-miterlimit:4;stroke-opacity:1;display:inline"
         id="path3851" />
      <path
         sodipodi:nodetypes="cc"
         id="path3806"
         d="M 190.34568,105.82216 L 149.6673,105.82217"
         style="fill:#bd4e28;fill-opacity:1;fill-rule:evenodd;stroke:#000000;stroke-width:2;stroke-linecap:butt;stroke-linejoin:miter;stroke-miterlimit:4;stroke-opacity:1;display:inline" />
      <path
         sodipodi:nodetypes="ccccccc"
         d="M 190.34568,101.82216 L 171.89096,101.82216 L 172.00649,20.13467 L 170.00649,12.13467 L 168.00649,20.13467 L 167.64832,101.82217 L 149.6673,101.82217"
         style="fill:#afafaf;fill-opacity:1;fill-rule:evenodd;stroke:#000000;stroke-width:2;stroke-linecap:butt;stroke-linejoin:miter;stroke-miterlimit:4;stroke-opacity:1;display:inline"
         id="path3583" />
      <path
         sodipodi:nodetypes="ccccc"
         id="path3859"
         d="M 189.14754,158.99759 L 150.96311,158.99759 L 150.96311,108.98326 L 189.14754,108.98326 L 189.14754,158.99759 z "
         style="color:#000000;fill:#cacaca;fill-opacity:1;fill-rule:nonzero;stroke:#000000;stroke-width:1.99999857;stroke-linecap:butt;stroke-linejoin:round;marker:none;marker-start:none;marker-mid:none;marker-end:none;stroke-miterlimit:4;stroke-dashoffset:7.6;stroke-opacity:1;visibility:visible;display:inline;overflow:visible" />
      <path
         transform="matrix(0.618446,0,0,0.618446,89.0392,-66.0241)"
         d="M 149.5 308.36218 A 18.5 18.5 0 1 1  112.5,308.36218 A 18.5 18.5 0 1 1  149.5 308.36218 z"
         sodipodi:ry="18.5"
         sodipodi:rx="18.5"
         sodipodi:cy="308.36218"
         sodipodi:cx="131"
         id="path3831"
         style="color:#000000;fill:#3b3b4c;fill-opacity:1;fill-rule:nonzero;stroke:#000000;stroke-width:3.23391318;stroke-linecap:butt;stroke-linejoin:miter;marker:none;marker-start:none;marker-mid:none;marker-end:none;stroke-miterlimit:4;stroke-dasharray:none;stroke-dashoffset:7.6;stroke-opacity:1;visibility:visible;display:inline;overflow:visible"
         sodipodi:type="arc" />
      <path
         sodipodi:nodetypes="ccccc"
         id="rect3856"
         d="M 182.42998,155.0293 L 157.6806,155.0293 L 157.6806,140.4519 L 182.42998,140.4519 L 182.42998,155.0293 z "
         style="color:#000000;fill:#7c7c7c;fill-opacity:1;fill-rule:nonzero;stroke:#000000;stroke-width:1.99999869;stroke-linecap:butt;stroke-linejoin:round;marker:none;marker-start:none;marker-mid:none;marker-end:none;stroke-miterlimit:4;stroke-dashoffset:7.6;stroke-opacity:1;visibility:visible;display:inline;overflow:visible" />
      <path
         sodipodi:nodetypes="cccc"
         d="M 139.9173,162.32217 L 200.34568,162.32216 M 200.84568,166.32216 L 138.6673,166.32217"
         style="fill:#bd4e28;fill-opacity:1;fill-rule:evenodd;stroke:#000000;stroke-width:2;stroke-linecap:butt;stroke-linejoin:miter;stroke-miterlimit:4;stroke-opacity:1;display:inline"
         id="path3847" />
      <path
         sodipodi:nodetypes="cccccccccc"
         d="M 195.04303,610.18108 L 195.04303,618.93108 L 145.06801,618.93108 L 145.06801,610.18108 C 138.06801,576.18108 132.06801,462.18108 132.06801,462.18108 L 130.06801,278.18108 C 127.06801,173.18108 170.06801,12.18108 170.06801,12.18108 C 170.06801,12.18108 213.04303,173.18108 210.04303,278.18108 L 208.04303,462.18108 C 208.04303,462.18108 202.04303,576.18108 195.04303,610.18108 z "
         style="fill:none;fill-opacity:1;fill-rule:evenodd;stroke:#000000;stroke-width:2;stroke-linecap:butt;stroke-linejoin:miter;stroke-miterlimit:4;stroke-opacity:1;display:inline"
         id="path3585" />
      <path
         transform="matrix(0.407181,0,0,0.407181,116.7149,-0.8781)"
         d="M 149.5 308.36218 A 18.5 18.5 0 1 1  112.5,308.36218 A 18.5 18.5 0 1 1  149.5 308.36218 z"
         sodipodi:ry="18.5"
         sodipodi:rx="18.5"
         sodipodi:cy="308.36218"
         sodipodi:cx="131"
         id="path3866"
         style="color:#000000;fill:#3b3b4c;fill-opacity:1;fill-rule:nonzero;stroke:#000000;stroke-width:4.91181707;stroke-linecap:butt;stroke-linejoin:miter;marker:none;marker-start:none;marker-mid:none;marker-end:none;stroke-miterlimit:4;stroke-dasharray:none;stroke-dashoffset:7.6;stroke-opacity:1;visibility:visible;display:inline;overflow:visible"
         sodipodi:type="arc" />
      <rect
         rx="1.7751377"
         ry="4.2500024"
         y="615.09253"
         x="149.65508"
         height="6.7989955"
         width="40.801537"
         id="rect3345"
         style="color:#000000;fill:#474747;fill-opacity:1;fill-rule:nonzero;stroke:#000000;stroke-width:2.00000191;stroke-linecap:butt;stroke-linejoin:miter;marker:none;marker-start:none;marker-mid:none;marker-end:none;stroke-miterlimit:4;stroke-dasharray:none;stroke-dashoffset:7.6;stroke-opacity:1;visibility:visible;display:inline;overflow:visible" />
      <path
         sodipodi:nodetypes="cs"
         d="M 167.34878,467.06391 C 164.01072,467.55963 160.9611,468.9435 158.4482,470.96728"
         style="opacity:0.98999999;color:#000000;fill:#8a8a8a;fill-opacity:1;fill-rule:nonzero;stroke:#000000;stroke-width:2.00000024;stroke-linecap:butt;stroke-linejoin:miter;marker:none;marker-start:none;marker-mid:none;marker-end:none;stroke-miterlimit:4;stroke-dashoffset:7.6;stroke-opacity:1;visibility:visible;display:inline;overflow:visible"
         id="path1626" />
      <g
         transform="translate(-94,-19)"
         id="g2593">
        <g
           style="display:inline"
           id="g3792"
           transform="translate(-106.0472,-168.1811)">
          <path
             transform="matrix(0.498827,0,0,0.498827,186.6087,341.266)"
             d="M 391 664.36218 A 23 23 0 1 1  345,664.36218 A 23 23 0 1 1  391 664.36218 z"
             sodipodi:ry="23"
             sodipodi:rx="23"
             sodipodi:cy="664.36218"
             sodipodi:cx="368"
             id="path3491"
             style="opacity:0.98999999;color:#000000;fill:#afafaf;fill-opacity:1;fill-rule:nonzero;stroke:none;stroke-width:4.00941038;stroke-linecap:butt;stroke-linejoin:miter;marker:none;marker-start:none;marker-mid:none;marker-end:none;stroke-miterlimit:4;stroke-dasharray:none;stroke-dashoffset:7.6;stroke-opacity:1;visibility:visible;display:inline;overflow:visible"
             sodipodi:type="arc" />
          <g
             transform="translate(-0.35355,5.542893)"
             id="g3517">
            <path
               style="opacity:0.98999999;color:#000000;fill:#afafaf;fill-opacity:1;fill-rule:nonzero;stroke:#5f5f5f;stroke-width:2.00000215;stroke-linecap:butt;stroke-linejoin:miter;marker:none;marker-start:none;marker-mid:none;marker-end:none;stroke-miterlimit:4;stroke-dashoffset:7.6;stroke-opacity:1;visibility:visible;display:inline;overflow:visible"
               d="M 370.53064,655.65187 L 370.53064,678.59791"
               id="path3499"
               sodipodi:nodetypes="cs" />
            <path
               style="opacity:0.98999999;color:#000000;fill:#afafaf;fill-opacity:1;fill-rule:nonzero;stroke:#5f5f5f;stroke-width:2.00000215;stroke-linecap:butt;stroke-linejoin:miter;marker:none;marker-start:none;marker-mid:none;marker-end:none;stroke-miterlimit:4;stroke-dashoffset:7.6;stroke-opacity:1;visibility:visible;display:inline;overflow:visible"
               d="M 359.05761,667.12486 L 382.00365,667.12486"
               id="path3501"
               sodipodi:nodetypes="cs" />
            <path
               style="opacity:0.98999999;color:#000000;fill:#afafaf;fill-opacity:1;fill-rule:nonzero;stroke:#5f5f5f;stroke-width:2.00000215;stroke-linecap:butt;stroke-linejoin:miter;marker:none;marker-start:none;marker-mid:none;marker-end:none;stroke-miterlimit:4;stroke-dashoffset:7.6;stroke-opacity:1;visibility:visible;display:inline;overflow:visible"
               d="M 362.41798,659.01221 L 378.64328,675.23751"
               id="path3503"
               sodipodi:nodetypes="cs" />
            <path
               style="opacity:0.98999999;color:#000000;fill:#afafaf;fill-opacity:1;fill-rule:nonzero;stroke:#5f5f5f;stroke-width:2.00000215;stroke-linecap:butt;stroke-linejoin:miter;marker:none;marker-start:none;marker-mid:none;marker-end:none;stroke-miterlimit:4;stroke-dashoffset:7.6;stroke-opacity:1;visibility:visible;display:inline;overflow:visible"
               d="M 378.64328,659.01221 L 362.41798,675.23751"
               id="path3505"
               sodipodi:nodetypes="cs" />
          </g>
          <path
             transform="matrix(0.150315,0,0,0.150315,314.8611,572.8041)"
             d="M 391 664.36218 A 23 23 0 1 1  345,664.36218 A 23 23 0 1 1  391 664.36218 z"
             sodipodi:ry="23"
             sodipodi:rx="23"
             sodipodi:cy="664.36218"
             sodipodi:cx="368"
             id="path3494"
             style="opacity:0.98999999;color:#000000;fill:#8b8a8b;fill-opacity:1;fill-rule:nonzero;stroke:#000000;stroke-width:13.30539513;stroke-linecap:butt;stroke-linejoin:miter;marker:none;marker-start:none;marker-mid:none;marker-end:none;stroke-miterlimit:4;stroke-dasharray:none;stroke-dashoffset:7.6;stroke-opacity:1;visibility:visible;display:inline;overflow:visible"
             sodipodi:type="arc" />
          <path
             transform="matrix(0.498827,0,0,0.498827,186.6087,341.266)"
             d="M 391 664.36218 A 23 23 0 1 1  345,664.36218 A 23 23 0 1 1  391 664.36218 z"
             sodipodi:ry="23"
             sodipodi:rx="23"
             sodipodi:cy="664.36218"
             sodipodi:cx="368"
             id="path3523"
             style="opacity:0.98999999;color:#000000;fill:none;fill-opacity:1;fill-rule:nonzero;stroke:#000000;stroke-width:4.00941038;stroke-linecap:butt;stroke-linejoin:miter;marker:none;marker-start:none;marker-mid:none;marker-end:none;stroke-miterlimit:4;stroke-dasharray:none;stroke-dashoffset:7.6;stroke-opacity:1;visibility:visible;display:inline;overflow:visible"
             sodipodi:type="arc" />
        </g>
        <path
           sodipodi:type="arc"
           style="opacity:0.98999999;color:#000000;fill:#8b8a8b;fill-opacity:1;fill-rule:nonzero;stroke:#000000;stroke-width:14.34591293;stroke-linecap:butt;stroke-linejoin:miter;marker:none;marker-start:none;marker-mid:none;marker-end:none;stroke-miterlimit:4;stroke-dasharray:none;stroke-dashoffset:7.6;stroke-opacity:1;visibility:visible;display:inline;overflow:visible"
           id="path1642"
           sodipodi:cx="368"
           sodipodi:cy="664.36218"
           sodipodi:rx="23"
           sodipodi:ry="23"
           d="M 391 664.36218 A 23 23 0 1 1  345,664.36218 A 23 23 0 1 1  391 664.36218 z"
           transform="matrix(8.364752e-2,0,0,8.364752e-2,221.9726,448.9144)" />
        <path
           sodipodi:type="arc"
           style="opacity:0.98999999;color:#000000;fill:#8b8a8b;fill-opacity:1;fill-rule:nonzero;stroke:#000000;stroke-width:14.34591293;stroke-linecap:butt;stroke-linejoin:miter;marker:none;marker-start:none;marker-mid:none;marker-end:none;stroke-miterlimit:4;stroke-dasharray:none;stroke-dashoffset:7.6;stroke-opacity:1;visibility:visible;display:inline;overflow:visible"
           id="path2545"
           sodipodi:cx="368"
           sodipodi:cy="664.36218"
           sodipodi:rx="23"
           sodipodi:ry="23"
           d="M 391 664.36218 A 23 23 0 1 1  345,664.36218 A 23 23 0 1 1  391 664.36218 z"
           transform="matrix(-8.364752e-2,0,0,8.364752e-2,306.2363,448.9144)" />
        <path
           sodipodi:type="arc"
           style="opacity:0.98999999;color:#000000;fill:#8b8a8b;fill-opacity:1;fill-rule:nonzero;stroke:#000000;stroke-width:14.34591293;stroke-linecap:butt;stroke-linejoin:miter;marker:none;marker-start:none;marker-mid:none;marker-end:none;stroke-miterlimit:4;stroke-dasharray:none;stroke-dashoffset:7.6;stroke-opacity:1;visibility:visible;display:inline;overflow:visible"
           id="path2565"
           sodipodi:cx="368"
           sodipodi:cy="664.36218"
           sodipodi:rx="23"
           sodipodi:ry="23"
           d="M 391 664.36218 A 23 23 0 1 1  345,664.36218 A 23 23 0 1 1  391 664.36218 z"
           transform="matrix(0,-8.364752e-2,8.364752e-2,0,208.5322,546.6185)" />
        <path
           sodipodi:type="arc"
           style="opacity:0.98999999;color:#000000;fill:#8b8a8b;fill-opacity:1;fill-rule:nonzero;stroke:#000000;stroke-width:14.34591293;stroke-linecap:butt;stroke-linejoin:miter;marker:none;marker-start:none;marker-mid:none;marker-end:none;stroke-miterlimit:4;stroke-dasharray:none;stroke-dashoffset:7.6;stroke-opacity:1;visibility:visible;display:inline;overflow:visible"
           id="path2567"
           sodipodi:cx="368"
           sodipodi:cy="664.36218"
           sodipodi:rx="23"
           sodipodi:ry="23"
           d="M 391 664.36218 A 23 23 0 1 1  345,664.36218 A 23 23 0 1 1  391 664.36218 z"
           transform="matrix(0,8.364752e-2,8.364752e-2,0,208.5322,462.3548)" />
      </g>
      <path
         transform="matrix(5.914775e-2,-5.914775e-2,5.914775e-2,5.914775e-2,101.0174,475.9829)"
         d="M 391 664.36218 A 23 23 0 1 1  345,664.36218 A 23 23 0 1 1  391 664.36218 z"
         sodipodi:ry="23"
         sodipodi:rx="23"
         sodipodi:cy="664.36218"
         sodipodi:cx="368"
         id="path2628"
         style="opacity:0.98999999;color:#000000;fill:#8b8a8b;fill-opacity:1;fill-rule:nonzero;stroke:#000000;stroke-width:14.34591293;stroke-linecap:butt;stroke-linejoin:miter;marker:none;marker-start:none;marker-mid:none;marker-end:none;stroke-miterlimit:4;stroke-dasharray:none;stroke-dashoffset:7.6;stroke-opacity:1;visibility:visible;display:inline;overflow:visible"
         sodipodi:type="arc" />
      <path
         transform="matrix(-5.914775e-2,5.914775e-2,5.914775e-2,5.914775e-2,160.6008,416.3995)"
         d="M 391 664.36218 A 23 23 0 1 1  345,664.36218 A 23 23 0 1 1  391 664.36218 z"
         sodipodi:ry="23"
         sodipodi:rx="23"
         sodipodi:cy="664.36218"
         sodipodi:cx="368"
         id="path2630"
         style="opacity:0.98999999;color:#000000;fill:#8b8a8b;fill-opacity:1;fill-rule:nonzero;stroke:#000000;stroke-width:14.34591293;stroke-linecap:butt;stroke-linejoin:miter;marker:none;marker-start:none;marker-mid:none;marker-end:none;stroke-miterlimit:4;stroke-dasharray:none;stroke-dashoffset:7.6;stroke-opacity:1;visibility:visible;display:inline;overflow:visible"
         sodipodi:type="arc" />
      <path
         transform="matrix(-5.914775e-2,-5.914775e-2,5.914775e-2,-5.914775e-2,160.6008,554.574)"
         d="M 391 664.36218 A 23 23 0 1 1  345,664.36218 A 23 23 0 1 1  391 664.36218 z"
         sodipodi:ry="23"
         sodipodi:rx="23"
         sodipodi:cy="664.36218"
         sodipodi:cx="368"
         id="path2632"
         style="opacity:0.98999999;color:#000000;fill:#8b8a8b;fill-opacity:1;fill-rule:nonzero;stroke:#000000;stroke-width:14.34591293;stroke-linecap:butt;stroke-linejoin:miter;marker:none;marker-start:none;marker-mid:none;marker-end:none;stroke-miterlimit:4;stroke-dasharray:none;stroke-dashoffset:7.6;stroke-opacity:1;visibility:visible;display:inline;overflow:visible"
         sodipodi:type="arc" />
      <path
         transform="matrix(5.914775e-2,5.914775e-2,5.914775e-2,-5.914775e-2,101.0174,494.9905)"
         d="M 391 664.36218 A 23 23 0 1 1  345,664.36218 A 23 23 0 1 1  391 664.36218 z"
         sodipodi:ry="23"
         sodipodi:rx="23"
         sodipodi:cy="664.36218"
         sodipodi:cx="368"
         id="path2634"
         style="opacity:0.98999999;color:#000000;fill:#8b8a8b;fill-opacity:1;fill-rule:nonzero;stroke:#000000;stroke-width:14.34591293;stroke-linecap:butt;stroke-linejoin:miter;marker:none;marker-start:none;marker-mid:none;marker-end:none;stroke-miterlimit:4;stroke-dasharray:none;stroke-dashoffset:7.6;stroke-opacity:1;visibility:visible;display:inline;overflow:visible"
         sodipodi:type="arc" />
    </g>
  </g>
</svg>
