<?xml version="1.0" standalone="no"?>
<!DOCTYPE svg PUBLIC "-//W3C//DTD SVG 1.1//EN" "http://www.w3.org/Graphics/SVG/1.1/DTD/svg11.dtd">
<svg width="100%" height="100%" viewBox="0 0 974 1386" version="1.1" xmlns="http://www.w3.org/2000/svg" xmlns:xlink="http://www.w3.org/1999/xlink" xml:space="preserve" style="fill-rule:evenodd;clip-rule:evenodd;stroke-linecap:round;stroke-linejoin:round;stroke-miterlimit:1.41421;">
    <g transform="matrix(1,0,0,1,-23.2563,-346.468)">
        <g transform="matrix(1,0,0,1,-730.562,753.906)">
            <g id="g18217">
                <path id="path10754" d="M961.414,339.624L1001.77,339.624M1057.57,339.624L1098.2,339.624M1123.02,339.624L1163.65,339.624M1190.25,339.624L1225.27,339.624" style="fill:none;stroke-width:1.5px;stroke:black;"/>
                <path id="path10284" d="M924.676,339.624L917.533,342.984" style="fill:none;stroke-width:0.7px;stroke:black;"/>
                <path id="path10278" d="M900.768,333.687L912.371,339.624" style="fill:none;stroke-width:1.5px;stroke:black;"/>
                <path id="path3969" d="M819.396,285.233L819.396,331.196" style="fill:none;stroke-width:0.7px;stroke:black;"/>
                <path id="path4033" d="M903.012,409.835L861.126,409.835" style="fill:none;stroke-width:1.5px;stroke:black;"/>
                <path id="path4035" d="M861.126,409.835L861.126,504.968" style="fill:none;stroke-width:0.7px;stroke:black;"/>
                <path id="path4037" d="M861.126,504.968L903.012,504.968" style="fill:none;stroke-width:1.5px;stroke:black;"/>
                <path id="path4039" d="M903.012,504.968L903.012,409.835" style="fill:none;stroke-width:1.5px;stroke:black;"/>
                <rect id="path4041" x="834.289" y="445.82" width="9.67" height="23.163" style="fill:none;stroke-width:1.5px;stroke:black;"/>
                <path id="path4043" d="M834.289,467.121L826.17,467.121L826.17,447.63L834.289,447.63" style="fill:none;stroke-width:1.5px;stroke:black;"/>
                <path id="path4045" d="M834.289,448.974L843.958,448.974" style="fill:none;stroke-width:0.7px;stroke:black;"/>
                <path id="path4047" d="M826.17,451.456L834.289,451.456" style="fill:none;stroke-width:0.7px;stroke:black;"/>
                <path id="path4049" d="M834.289,465.829L843.958,465.829" style="fill:none;stroke-width:0.7px;stroke:black;"/>
                <path id="path4051" d="M826.17,463.347L834.289,463.347" style="fill:none;stroke-width:0.7px;stroke:black;"/>
                <rect id="path4053" x="819.396" y="451.921" width="2.482" height="10.909" style="fill:none;stroke-width:1.5px;stroke:black;"/>
                <path id="path4055" d="M826.17,460.866L821.878,460.866L821.878,453.886L826.17,453.886" style="fill:none;stroke-width:1.5px;stroke:black;"/>
                <path id="path4057" d="M849.491,463.606L843.958,463.606L843.958,451.145L849.491,451.145" style="fill:none;stroke-width:1.5px;stroke:black;"/>
                <path id="path4059" d="M849.491,421.468L849.491,493.283" style="fill:none;stroke-width:1.5px;stroke:black;"/>
                <path id="path4061" d="M861.126,409.835C855.13,409.684 849.623,414.914 849.521,420.927C849.511,421.108 849.501,421.288 849.491,421.468" style="fill:none;stroke-width:1.5px;stroke:black;"/>
                <path id="path4063" d="M849.491,493.283C849.36,499.186 854.338,504.617 860.247,504.916C860.54,504.933 860.833,504.95 861.126,504.968" style="fill:none;stroke-width:1.5px;stroke:black;"/>
                <path id="path4065" d="M874.881,409.835L874.881,504.968" style="fill:none;stroke-width:0.7px;stroke:black;"/>
                <path id="path4067" d="M849.491,457.401L903.012,457.401" style="fill:none;stroke-width:0.7px;stroke:black;"/>
                <path id="path4329" d="M755.12,285.233C754.963,296.795 763.369,306.284 772.491,312.343C788.532,322.974 807.339,328.351 825.894,332.717C858.741,340.013 892.419,343.121 926.023,343.76C928.023,343.724 930.021,343.812 932.021,343.811" style="fill:none;stroke-width:1.5px;stroke:black;"/>
                <path id="path4331" d="M768.254,285.233L768.254,309.171" style="fill:none;stroke-width:0.7px;stroke:black;"/>
                <path id="path4333" d="M768.254,301.984C789.566,318.483 815.417,327.921 841.498,333.74C862.062,338.367 883.043,340.888 903.994,342.984" style="fill:none;stroke-width:0.7px;stroke:black;"/>
                <path id="path4337" d="M865.16,285.233L889.929,340.968" style="fill:none;stroke-width:0.7px;stroke:black;"/>
                <path id="path4339" d="M876.122,285.233L898.978,332.902" style="fill:none;stroke-width:0.7px;stroke:black;"/>
                <path id="path4341" d="M888.429,337.555L901.512,331.816" style="fill:none;stroke-width:0.7px;stroke:black;"/>
                <path id="path4343" d="M892.514,337.09L904.046,342.984" style="fill:none;stroke-width:1.5px;stroke:black;"/>
                <path id="path4345" d="M867.228,287.042L890.239,335.074" style="fill:none;stroke-width:1.5px;stroke:black;"/>
                <path id="path4347" d="M890.239,335.074L898.306,331.506" style="fill:none;stroke-width:1.5px;stroke:black;"/>
                <path id="path4349" d="M867.228,287.042L877.001,287.042" style="fill:none;stroke-width:1.5px;stroke:black;"/>
                <path id="path4351" d="M912.371,339.624L950.295,339.624" style="fill:none;stroke-width:1.5px;stroke:black;"/>
                <path id="path4353" d="M932.021,343.811L1223.2,343.811" style="fill:none;stroke-width:1.5px;stroke:black;"/>
                <path id="path4355" d="M950.74,343.811C952.114,343.333 952.351,341.65 952.864,340.465C954.051,336.329 954.604,332.045 955.123,327.784C956.128,318.889 956.595,309.943 956.861,300.999C957.009,295.744 957.118,290.489 957.1,285.233" style="fill:none;stroke-width:0.7px;stroke:black;"/>
                <path id="path4357" d="M903.064,342.716L911.389,339.356" style="fill:none;stroke-width:1.5px;stroke:black;"/>
                <path id="path4359" d="M892.514,337.09L900.529,333.574" style="fill:none;stroke-width:1.5px;stroke:black;"/>
                <path id="path4361" d="M906.993,342.984L915.215,339.624" style="fill:none;stroke-width:1.5px;stroke:black;"/>
                <path id="path4363" d="M899.133,332.851L912.371,339.624" style="fill:none;stroke-width:0.7px;stroke:black;"/>
                <path id="path4365" d="M927.533,339.624L927.533,342.984" style="fill:none;stroke-width:0.7px;stroke:black;"/>
                <path id="path4367" d="M942.363,342.984L950.585,339.624" style="fill:none;stroke-width:1.5px;stroke:black;"/>
                <path id="path4369" d="M942.363,342.984L904.046,342.984" style="fill:none;stroke-width:1.5px;stroke:black;"/>
                <path id="path4371" d="M951.723,294.384C951.913,290.608 948.481,287.286 944.742,287.352" style="fill:none;stroke-width:1.5px;stroke:black;"/>
                <path id="path4373" d="M951.723,294.384L951.723,324.009" style="fill:none;stroke-width:1.5px;stroke:black;"/>
                <path id="path4375" d="M944.742,330.989C948.498,331.123 951.886,327.784 951.723,324.009" style="fill:none;stroke-width:1.5px;stroke:black;"/>
                <path id="path4377" d="M944.742,330.989L919.973,330.989" style="fill:none;stroke-width:1.5px;stroke:black;"/>
                <path id="path4379" d="M912.992,324.009C912.945,327.771 916.185,331.102 919.972,330.989" style="fill:none;stroke-width:1.5px;stroke:black;"/>
                <path id="path4381" d="M912.992,324.009L912.992,294.384" style="fill:none;stroke-width:1.5px;stroke:black;"/>
                <path id="path4383" d="M919.973,287.353C916.197,287.315 912.928,290.606 912.992,294.384" style="fill:none;stroke-width:1.5px;stroke:black;"/>
                <path id="path4385" d="M919.973,287.353L944.742,287.353" style="fill:none;stroke-width:1.5px;stroke:black;"/>
                <path id="path4387" d="M945.776,299.503C945.859,297.504 944.052,295.697 942.053,295.78" style="fill:none;stroke-width:1.5px;stroke:black;"/>
                <path id="path4389" d="M945.776,299.503L945.776,318.891" style="fill:none;stroke-width:1.5px;stroke:black;"/>
                <path id="path4391" d="M942.053,322.613C944.023,322.597 945.878,320.917 945.776,318.891" style="fill:none;stroke-width:1.5px;stroke:black;"/>
                <path id="path4393" d="M942.053,322.613L922.661,322.613" style="fill:none;stroke-width:1.5px;stroke:black;"/>
                <path id="path4395" d="M918.938,318.891C918.934,320.888 920.663,322.617 922.661,322.613" style="fill:none;stroke-width:1.5px;stroke:black;"/>
                <path id="path4397" d="M918.938,318.891L918.938,299.503" style="fill:none;stroke-width:1.5px;stroke:black;"/>
                <path id="path4399" d="M922.661,295.78C920.635,295.679 918.956,297.53 918.938,299.503" style="fill:none;stroke-width:1.5px;stroke:black;"/>
                <path id="path4401" d="M922.661,295.78L942.053,295.78" style="fill:none;stroke-width:1.5px;stroke:black;"/>
                <path id="path4423" d="M1016,285.233L1016,343.811" style="fill:none;stroke-width:0.7px;stroke:black;"/>
                <path id="path4425" d="M1113.01,285.233L1113.01,343.811" style="fill:none;stroke-width:0.7px;stroke:black;"/>
                <path id="path4427" d="M1223.2,343.811L1555.39,315.996" style="fill:none;stroke-width:1.5px;stroke:black;"/>
                <path id="path4429" d="M950.851,339.624L1225.27,339.624" style="fill:none;stroke-width:0.7px;stroke:black;"/>
                <path id="path4433" d="M1225.27,339.624L1312.71,332.334" style="fill:none;stroke-width:0.7px;stroke:black;"/>
                <path id="path4435" d="M1503.68,285.233L1503.68,298.313" style="fill:none;stroke-width:1.5px;stroke:black;"/>
                <path id="path4437" d="M1553.84,308.602L1598,515.67" style="fill:none;stroke-width:1.5px;stroke:black;"/>
                <path id="path4439" d="M1704.73,307.878L1695.94,507.501" style="fill:none;stroke-width:1.5px;stroke:black;"/>
                <path id="path4441" d="M1598,515.67C1600.8,529.062 1609.41,541.14 1621.26,548.007C1634,555.661 1650.23,557.013 1664.08,551.652C1676.95,546.809 1687.51,536.378 1692.53,523.58" style="fill:none;stroke-width:1.5px;stroke:black;"/>
                <path id="path4443" d="M1554.1,309.843L1704.62,309.843" style="fill:none;stroke-width:0.7px;stroke:black;"/>
                <path id="path4445" d="M1554.56,312.118L1517.49,312.118" style="fill:none;stroke-width:1.5px;stroke:black;"/>
                <path id="path4447" d="M1503.68,298.313C1503.64,299.288 1503.74,300.265 1503.99,301.209C1504.15,302.177 1504.46,303.11 1504.89,303.992C1505.31,304.99 1505.91,305.892 1506.55,306.755C1507.67,308.226 1509.11,309.449 1510.73,310.334C1511.81,310.989 1513.01,311.407 1514.23,311.723C1515.29,311.989 1516.4,312.066 1517.49,312.118" style="fill:none;stroke-width:1.5px;stroke:black;"/>
                <path id="path4449" d="M956.532,309.843L1509.88,309.843" style="fill:none;stroke-width:0.7px;stroke:black;"/>
                <path id="path4451" d="M1529.28,306.017C1531.24,305.997 1533.22,306.059 1535.18,305.982C1537.15,305.953 1539.11,305.956 1541.08,305.982C1542.3,306.012 1543.52,306.071 1544.75,306.092C1545.85,306.122 1546.94,306.277 1548.05,306.348C1549.04,306.465 1550.02,306.625 1550.99,306.859C1551.78,307.016 1552.53,307.352 1553.22,307.774C1553.48,308.017 1553.77,308.223 1553.84,308.601" style="fill:none;stroke-width:1.5px;stroke:black;"/>
                <path id="path4453" d="M1724.48,286.577C1722.4,286.846 1720.37,287.394 1718.43,288.168C1716.15,289.082 1714.11,290.494 1712.26,292.09C1710.79,293.353 1709.52,294.831 1708.44,296.437C1707.55,297.765 1706.8,299.186 1706.25,300.691C1705.33,302.959 1704.86,305.389 1704.73,307.829L1704.73,307.878" style="fill:none;stroke-width:1.5px;stroke:black;"/>
                <path id="path4455" d="M1726.03,285.233L1726.03,285.336L1725.98,285.388L1725.98,285.543L1725.93,285.595L1725.88,285.646L1725.88,285.698L1725.83,285.801L1725.77,285.853L1725.72,285.905L1725.72,285.956L1725.67,286.008L1725.62,286.06L1725.57,286.112L1725.46,286.163L1725.41,286.163L1725.36,286.215L1725.31,286.267L1725.25,286.318L1725.15,286.37L1725.1,286.37L1725.05,286.422L1724.94,286.422L1724.89,286.473L1724.84,286.473L1724.74,286.525L1724.68,286.525L1724.63,286.577L1724.58,286.577L1724.48,286.577L1724.42,286.577" style="fill:none;stroke-width:1.5px;stroke:black;"/>
                <path id="path4457" d="M1718.79,520.944L1599.39,520.944" style="fill:none;stroke-width:0.7px;stroke:black;"/>
                <path id="path4461" d="M1599.39,520.944C1599.97,519.322 1602.2,519.25 1603.63,518.721C1620.19,515.674 1637.13,515.541 1653.92,515.915C1675.61,516.53 1697.24,518.56 1718.79,520.945M1599.39,520.944C1600.06,522.584 1602.35,522.696 1603.87,523.214C1622.5,526.525 1641.55,526.42 1660.4,525.744C1679.92,524.948 1699.38,523.062 1718.79,520.943" style="fill:none;stroke-width:1.5px;stroke:black;"/>
                <path id="path4463" d="M1694.23,518.462C1695.18,514.879 1695.84,511.213 1695.94,507.501" style="fill:none;stroke-width:1.5px;stroke:black;"/>
                <path id="path4481" d="M1645.52,309.843L1645.52,507.449" style="fill:none;stroke-width:0.7px;stroke:black;"/>
                <path id="path4483" d="M1648.52,511.379L1654.88,511.379" style="fill:none;stroke-width:1.5px;stroke:black;"/>
                <path id="path4485" d="M1654.88,511.379L1696.66,491.37" style="fill:none;stroke-width:1.5px;stroke:black;"/>
                <path id="path4487" d="M1596.24,507.449L1645.52,507.449" style="fill:none;stroke-width:0.7px;stroke:black;"/>
                <path id="path4491" d="M1699.71,421.779L1686.99,421.779L1688.75,330.627L1703.69,330.627" style="fill:none;stroke-width:1.5px;stroke:black;"/>
                <path id="path4493" d="M1633.11,507.449L1619.04,309.843" style="fill:none;stroke-width:0.7px;stroke:black;"/>
                <path id="path4495" d="M1593.65,309.843L1619.36,507.449" style="fill:none;stroke-width:0.7px;stroke:black;"/>
                <path id="path4497" d="M1605.91,507.449L1567.08,309.843" style="fill:none;stroke-width:0.7px;stroke:black;"/>
                <path id="path4499" d="M1361.73,285.233L1361.73,332.23" style="fill:none;stroke-width:0.7px;stroke:black;"/>
                <path id="path4501" d="M1001.83,339.624L1001.83,343.811" style="fill:none;stroke-width:1.5px;stroke:black;"/>
                <path id="path4503" d="M1057.73,343.811L1057.73,339.624" style="fill:none;stroke-width:1.5px;stroke:black;"/>
                <path id="path4505" d="M1163.58,339.624L1163.58,343.811" style="fill:none;stroke-width:1.5px;stroke:black;"/>
                <path id="path4507" d="M1230.39,339.21L1230.39,343.191" style="fill:none;stroke-width:1.5px;stroke:black;"/>
                <path id="path4509" d="M1255.52,341.071L1255.52,337.09" style="fill:none;stroke-width:1.5px;stroke:black;"/>
                <path id="path4511" d="M961.496,343.811L961.496,339.624" style="fill:none;stroke-width:1.5px;stroke:black;"/>
                <path id="path4513" d="M1098.12,339.624L1098.12,343.811" style="fill:none;stroke-width:1.5px;stroke:black;"/>
                <path id="path4515" d="M1123.25,343.811L1123.25,339.624" style="fill:none;stroke-width:1.5px;stroke:black;"/>
                <path id="path4517" d="M1190.06,343.811L1190.06,339.624" style="fill:none;stroke-width:1.5px;stroke:black;"/>
                <path id="path4519" d="M1295.86,333.73L1295.86,337.711" style="fill:none;stroke-width:1.5px;stroke:black;"/>
                <path id="path4521" d="M1357.39,332.592L1357.18,332.127L1356.92,331.713L1356.56,331.351L1356.2,330.938L1355.79,330.576L1355.32,330.162L1354.81,329.852L1354.24,329.49L1353.62,329.128L1353,328.818L1352.27,328.508L1351.55,328.249L1350.77,327.991L1350,327.732L1349.17,327.474L1348.29,327.267L1347.36,327.06L1346.43,326.905L1345.5,326.75L1344.51,326.595L1343.48,326.439L1342.5,326.336L1341.41,326.284L1340.38,326.233L1339.29,326.181L1338.2,326.181L1337.12,326.181L1335.98,326.181L1334.9,326.233L1333.76,326.284L1332.62,326.388L1331.54,326.491L1330.4,326.594L1329.31,326.75L1328.23,326.905L1327.14,327.06L1326.05,327.267L1324.97,327.525L1323.93,327.732L1322.9,327.99L1321.92,328.249L1320.93,328.559L1320,328.869L1319.07,329.18L1318.19,329.49L1317.32,329.852L1316.49,330.214L1315.71,330.576L1314.94,330.989L1314.21,331.351L1313.54,331.765L1312.92,332.178L1312.3,332.592L1311.73,333.057L1311.26,333.471L1310.8,333.884L1310.38,334.35L1310.02,334.815L1309.71,335.229L1309.4,335.694L1309.2,336.159L1309.04,336.625" style="fill:none;stroke-width:1.5px;stroke:black;"/>
                <path id="path4523" d="M1353.2,328.921L1554.56,312.118" style="fill:none;stroke-width:0.7px;stroke:black;"/>
                <path id="path4525" d="M925.35,343.76L933.779,411.386" style="fill:none;stroke-width:1.5px;stroke:black;"/>
                <path id="path4527" d="M1157.12,654.904L1211.31,343.811" style="fill:none;stroke-width:1.5px;stroke:black;"/>
                <path id="path4529" d="M997.848,925.514L1079.03,925.514" style="fill:none;stroke-width:0.7px;stroke:black;"/>
                <path id="path4531" d="M997.848,925.514C999.545,938.074 1002.89,950.838 1010.36,961.277C1015.68,968.824 1023.87,974.393 1033.03,975.932C1045.12,978.079 1057.61,975.55 1068.87,971.03C1084.12,964.719 1098.12,953.886 1105.62,938.916C1107.7,934.689 1109.43,928.147 1110.21,923.494" style="fill:none;stroke-width:1.5px;stroke:black;"/>
                <path id="path4533" d="M1113.94,923.188L1160.68,654.904" style="fill:none;stroke-width:1.5px;stroke:black;"/>
                <path id="path4535" d="M1079.03,925.514L1127.07,649.631" style="fill:none;stroke-width:0.7px;stroke:black;"/>
                <path id="path4537" d="M1079.45,923.188L1113.94,923.188" style="fill:none;stroke-width:1.5px;stroke:black;"/>
                <path id="path4539" d="M963.461,649.631L1127.07,649.631" style="fill:none;stroke-width:0.7px;stroke:black;"/>
                <path id="path4541" d="M1126.19,654.904L1160.68,654.904" style="fill:none;stroke-width:1.5px;stroke:black;"/>
                <path id="path4543" d="M987.713,844.083L1093.2,844.083" style="fill:none;stroke-width:0.7px;stroke:black;"/>
                <path id="path4545" d="M1034.46,925.514L1025.46,649.631" style="fill:none;stroke-width:0.7px;stroke:black;"/>
                <path id="path4549" d="M1091.96,649.631L1066.93,844.083" style="fill:none;stroke-width:0.7px;stroke:black;"/>
                <path id="path4551" d="M954.308,575.903L1170.87,575.903" style="fill:none;stroke-width:0.7px;stroke:black;"/>
                <path id="path4553" d="M939.364,503.675L939.364,414.075" style="fill:none;stroke-width:0.7px;stroke:black;"/>
                <path id="path4555" d="M974.682,425.966L974.682,488.113" style="fill:none;stroke-width:0.7px;stroke:black;"/>
                <path id="path4557" d="M903.012,501.659L939.364,503.675" style="fill:none;stroke-width:1.5px;stroke:black;"/>
                <path id="path4559" d="M903.012,494.937L939.364,496.902" style="fill:none;stroke-width:0.7px;stroke:black;"/>
                <path id="path4561" d="M903.012,497.471L939.364,499.487" style="fill:none;stroke-width:0.7px;stroke:black;"/>
                <path id="path4563" d="M939.364,503.675L1183.44,503.675" style="fill:none;stroke-width:0.7px;stroke:black;"/>
                <path id="path4565" d="M945.931,508.949L1182.51,508.949" style="fill:none;stroke-width:0.7px;stroke:black;"/>
                <path id="path4567" d="M946.758,515.722L1181.37,515.722" style="fill:none;stroke-width:0.7px;stroke:black;"/>
                <path id="path4569" d="M971.89,425.139L1197.14,425.139" style="fill:none;stroke-width:0.7px;stroke:black;"/>
                <path id="path4571" d="M945.259,503.675C957.042,497.497 968.044,489.571 980.983,485.86C995.686,481.075 1011.28,477.791 1024.12,468.683C1029.38,465.183 1034.36,461.251 1039.37,457.401" style="fill:none;stroke-width:1.5px;stroke:black;"/>
                <path id="path4573" d="M903.012,413.093L933.779,411.386" style="fill:none;stroke-width:1.5px;stroke:black;"/>
                <path id="path4575" d="M903.012,419.814L939.364,417.849" style="fill:none;stroke-width:0.7px;stroke:black;"/>
                <path id="path4577" d="M903.012,417.28L939.364,415.316" style="fill:none;stroke-width:0.7px;stroke:black;"/>
                <path id="path4579" d="M933.779,411.386C961.666,425.704 994.593,427.366 1021.26,444.402C1027.55,448.367 1033.51,452.835 1039.37,457.401" style="fill:none;stroke-width:1.5px;stroke:black;"/>
                <path id="path4581" d="M945.259,503.675L997.848,925.514" style="fill:none;stroke-width:1.5px;stroke:black;"/>
                <path id="path4583" d="M974.682,457.401L1039.37,457.401" style="fill:none;stroke-width:0.7px;stroke:black;"/>
                <path id="path4585" d="M1074.59,354.979L1101.11,354.979L1105.3,420.589L1078.78,420.589L1074.59,354.979Z" style="fill:none;stroke-width:0.7px;stroke:black;"/>
                <path id="path4587" d="M925.195,467.432L937.089,467.845L937.037,494.162L925.195,493.593L925.195,467.432L925.195,467.432Z" style="fill:none;stroke-width:0.7px;stroke:black;"/>
                <path id="path4589" d="M925.195,482.632L937.037,482.994" style="fill:none;stroke-width:0.7px;stroke:black;"/>
                <path id="path4647" d="M1041.23,958.397C1039.73,958.392 1038.18,958.743 1036.93,959.612C1036.25,960.11 1035.74,960.837 1035.62,961.686C1035.44,962.951 1036.39,964.052 1037.46,964.578C1038.61,965.217 1039.93,965.483 1041.23,965.48M1041.23,965.48C1043.12,965.496 1045.01,965.262 1046.87,964.916C1048.09,964.62 1049.3,964.2 1050.38,963.556C1051.05,963.132 1051.75,962.358 1051.43,961.508C1051.05,960.633 1050.15,960.103 1049.32,959.728C1047.21,958.866 1044.92,958.556 1042.66,958.417C1042.18,958.4 1041.71,958.4 1041.23,958.398" style="fill:none;stroke-width:1.5px;stroke:black;"/>
                <path id="path10280" d="M924.73,339.695L918.008,342.81" style="fill:none;stroke-width:0.7px;stroke:black;"/>
                <path id="path10276" d="M876.98,287.021L898.115,331.101" style="fill:none;stroke-width:1.5px;stroke:black;"/>
                <path id="path10756" d="M1225.27,339.624L1230.11,339.22M1255.79,337.079L1295.29,333.786" style="fill:none;stroke-width:1.5px;stroke:black;"/>
                <path id="path10762" d="M1079.49,922.909L1126.15,654.898" style="fill:none;stroke-width:1.5px;stroke:black;"/>
                <path id="path10768" d="M1648.47,309.843L1704.62,309.843" style="fill:none;stroke-width:1.5px;stroke:black;"/>
                <path id="path10770" d="M1648.52,310.075L1648.52,511.379" style="fill:none;stroke-width:1.5px;stroke:black;"/>
                <path id="path10779" d="M939.364,503.675L945.213,503.675" style="fill:none;stroke-width:1.5px;stroke:black;"/>
                <g id="path10785" transform="matrix(1,0,0,1,389.896,-775.063)">
                    <path d="M523.929,1060.32C523.929,1061.4 522.649,1062.28 521.071,1062.28C519.493,1062.28 518.214,1061.4 518.214,1060.32C518.214,1059.23 519.493,1058.35 521.071,1058.35C522.649,1058.35 523.929,1059.23 523.929,1060.32Z" style="fill:none;stroke-width:1.5px;stroke-linecap:butt;stroke-linejoin:miter;stroke:black;"/>
                </g>
                <path id="path10787" d="M906.225,285.611L1655.76,520.968L1657.54,520.789" style="fill:none;stroke-width:0.3px;stroke-linecap:butt;stroke-linejoin:miter;stroke:black;"/>
                <path id="path10791" d="M1661.72,525.651C1658.74,525.882 1656.11,524.016 1655.85,521.375C1655.59,518.733 1657.8,516.406 1660.78,516.176" style="fill:none;stroke-width:1.5px;stroke-linejoin:miter;stroke:black;"/>
                <path id="path13046" d="M950.851,230.944L1225.27,230.944" style="fill:none;stroke-width:0.7px;stroke:black;"/>
                <path id="path12926" d="M924.676,230.944L917.533,227.584" style="fill:none;stroke-width:0.7px;stroke:black;"/>
                <path id="path12928" d="M900.768,236.881L912.371,230.944" style="fill:none;stroke-width:1.5px;stroke:black;"/>
                <path id="path12930" d="M819.396,285.335L819.396,239.372" style="fill:none;stroke-width:0.7px;stroke:black;"/>
                <path id="path12932" d="M903.012,160.733L861.126,160.733" style="fill:none;stroke-width:1.5px;stroke:black;"/>
                <path id="path12934" d="M861.126,160.733L861.126,65.6" style="fill:none;stroke-width:0.7px;stroke:black;"/>
                <path id="path12936" d="M861.126,65.6L903.012,65.6" style="fill:none;stroke-width:1.5px;stroke:black;"/>
                <path id="path12938" d="M903.012,65.6L903.012,160.733" style="fill:none;stroke-width:1.5px;stroke:black;"/>
                <rect id="path12940" x="834.289" y="101.585" width="9.67" height="23.163" style="fill:none;stroke-width:1.5px;stroke:black;"/>
                <path id="path12942" d="M834.289,103.446L826.17,103.446L826.17,122.938L834.289,122.938" style="fill:none;stroke-width:1.5px;stroke:black;"/>
                <path id="path12944" d="M834.289,121.594L843.958,121.594" style="fill:none;stroke-width:0.7px;stroke:black;"/>
                <path id="path12946" d="M826.17,119.112L834.289,119.112" style="fill:none;stroke-width:0.7px;stroke:black;"/>
                <path id="path12948" d="M834.289,104.739L843.958,104.739" style="fill:none;stroke-width:0.7px;stroke:black;"/>
                <path id="path12950" d="M826.17,107.221L834.289,107.221" style="fill:none;stroke-width:0.7px;stroke:black;"/>
                <rect id="path12952" x="819.396" y="107.738" width="2.482" height="10.909" style="fill:none;stroke-width:1.5px;stroke:black;"/>
                <path id="path12954" d="M826.17,109.702L821.878,109.702L821.878,116.682L826.17,116.682" style="fill:none;stroke-width:1.5px;stroke:black;"/>
                <path id="path12956" d="M849.491,106.962L843.958,106.962L843.958,119.422L849.491,119.422" style="fill:none;stroke-width:1.5px;stroke:black;"/>
                <path id="path12958" d="M849.491,149.1L849.491,77.285" style="fill:none;stroke-width:1.5px;stroke:black;"/>
                <path id="path12960" d="M861.126,160.733C855.13,160.883 849.623,155.654 849.521,149.641C849.511,149.46 849.501,149.28 849.491,149.099" style="fill:none;stroke-width:1.5px;stroke:black;"/>
                <path id="path12962" d="M849.491,77.285C849.36,71.382 854.338,65.951 860.247,65.652C860.54,65.635 860.833,65.618 861.126,65.6" style="fill:none;stroke-width:1.5px;stroke:black;"/>
                <path id="path12964" d="M874.881,160.733L874.881,65.6" style="fill:none;stroke-width:0.7px;stroke:black;"/>
                <path id="path12966" d="M849.491,113.166L903.012,113.166" style="fill:none;stroke-width:0.7px;stroke:black;"/>
                <path id="path12968" d="M755.12,285.335C754.963,273.773 763.369,264.284 772.491,258.225C788.532,247.594 807.339,242.217 825.894,237.851C858.741,230.555 892.419,227.447 926.023,226.808C928.023,226.844 930.021,226.756 932.021,226.756" style="fill:none;stroke-width:1.5px;stroke:black;"/>
                <path id="path12970" d="M768.254,285.335L768.254,261.397" style="fill:none;stroke-width:0.7px;stroke:black;"/>
                <path id="path12972" d="M768.254,268.584C789.566,252.085 815.417,242.647 841.498,236.828C862.062,232.201 883.043,229.68 903.994,227.584" style="fill:none;stroke-width:0.7px;stroke:black;"/>
                <path id="path12974" d="M865.16,285.335L889.929,229.6" style="fill:none;stroke-width:0.7px;stroke:black;"/>
                <path id="path12976" d="M876.122,285.335L898.978,237.666" style="fill:none;stroke-width:0.7px;stroke:black;"/>
                <path id="path12978" d="M888.429,233.012L901.512,238.751" style="fill:none;stroke-width:0.7px;stroke:black;"/>
                <path id="path12980" d="M892.514,233.478L904.046,227.584" style="fill:none;stroke-width:1.5px;stroke:black;"/>
                <path id="path12982" d="M867.228,283.526L890.239,235.494" style="fill:none;stroke-width:1.5px;stroke:black;"/>
                <path id="path12984" d="M890.239,235.494L898.306,239.062" style="fill:none;stroke-width:1.5px;stroke:black;"/>
                <path id="path12986" d="M867.228,283.526L877.001,283.526" style="fill:none;stroke-width:1.5px;stroke:black;"/>
                <path id="path12988" d="M912.371,230.944L950.295,230.944" style="fill:none;stroke-width:1.5px;stroke:black;"/>
                <path id="path12990" d="M932.021,226.756L1223.2,226.756" style="fill:none;stroke-width:1.5px;stroke:black;"/>
                <path id="path12992" d="M950.74,226.756C952.114,227.235 952.351,228.918 952.864,230.103C954.051,234.239 954.604,238.522 955.123,242.784C956.128,251.679 956.595,260.625 956.861,269.569C957.009,274.823 957.118,280.078 957.1,285.335" style="fill:none;stroke-width:0.7px;stroke:black;"/>
                <path id="path12994" d="M903.064,227.852L911.389,231.212" style="fill:none;stroke-width:1.5px;stroke:black;"/>
                <path id="path12996" d="M892.514,233.478L900.529,236.993" style="fill:none;stroke-width:1.5px;stroke:black;"/>
                <path id="path12998" d="M906.993,227.584L915.215,230.944" style="fill:none;stroke-width:1.5px;stroke:black;"/>
                <path id="path13000" d="M899.133,237.717L912.371,230.944" style="fill:none;stroke-width:0.7px;stroke:black;"/>
                <path id="path13002" d="M927.533,230.944L927.533,227.584" style="fill:none;stroke-width:0.7px;stroke:black;"/>
                <path id="path13004" d="M942.363,227.584L950.585,230.944" style="fill:none;stroke-width:1.5px;stroke:black;"/>
                <path id="path13006" d="M942.363,227.584L904.046,227.584" style="fill:none;stroke-width:1.5px;stroke:black;"/>
                <path id="path13040" d="M1016,285.335L1016,226.756" style="fill:none;stroke-width:0.7px;stroke:black;"/>
                <path id="path13042" d="M1113.01,285.335L1113.01,226.756" style="fill:none;stroke-width:0.7px;stroke:black;"/>
                <path id="path13044" d="M1223.2,226.756L1555.39,254.572" style="fill:none;stroke-width:1.5px;stroke:black;"/>
                <path id="path13048" d="M1225.27,230.944L1312.71,238.234L1353.2,241.647L1554.56,258.45" style="fill:none;stroke-width:0.7px;stroke:black;"/>
                <path id="path13050" d="M1503.68,285.335L1503.68,272.254" style="fill:none;stroke-width:1.5px;stroke:black;"/>
                <path id="path13052" d="M1553.84,261.966L1598,54.898" style="fill:none;stroke-width:1.5px;stroke:black;"/>
                <path id="path13054" d="M1704.73,262.69L1695.94,63.067" style="fill:none;stroke-width:1.5px;stroke:black;"/>
                <path id="path13056" d="M1598,54.898C1600.8,41.505 1609.41,29.428 1621.26,22.561C1634,14.907 1650.23,13.555 1664.08,18.916C1676.95,23.759 1687.51,34.19 1692.53,46.987" style="fill:none;stroke-width:1.5px;stroke:black;"/>
                <path id="path13058" d="M1554.1,260.725L1704.62,260.725" style="fill:none;stroke-width:0.7px;stroke:black;"/>
                <path id="path13060" d="M1554.56,258.45L1517.49,258.45" style="fill:none;stroke-width:1.5px;stroke:black;"/>
                <path id="path13062" d="M1503.68,272.254C1503.64,271.279 1503.74,270.303 1503.99,269.359C1504.15,268.391 1504.46,267.458 1504.89,266.576C1505.31,265.578 1505.91,264.675 1506.55,263.813C1507.67,262.341 1509.11,261.118 1510.73,260.234C1511.81,259.579 1513.01,259.161 1514.23,258.845C1515.29,258.579 1516.4,258.502 1517.49,258.45" style="fill:none;stroke-width:1.5px;stroke:black;"/>
                <path id="path13064" d="M956.532,260.725L1509.88,260.725" style="fill:none;stroke-width:0.7px;stroke:black;"/>
                <path id="path13066" d="M1529.28,264.551C1531.24,264.571 1533.22,264.509 1535.18,264.586C1537.15,264.614 1539.11,264.612 1541.08,264.586C1542.3,264.556 1543.52,264.497 1544.75,264.476C1545.85,264.446 1546.94,264.29 1548.05,264.219C1549.04,264.103 1550.02,263.943 1550.99,263.709C1551.78,263.552 1552.53,263.216 1553.22,262.793C1553.48,262.551 1553.77,262.344 1553.84,261.966" style="fill:none;stroke-width:1.5px;stroke:black;"/>
                <path id="path13068" d="M1724.48,283.991C1722.4,283.722 1720.37,283.174 1718.43,282.4C1716.15,281.486 1714.11,280.074 1712.26,278.478C1710.79,277.215 1709.52,275.737 1708.44,274.131C1707.55,272.802 1706.8,271.382 1706.25,269.877C1705.33,267.608 1704.86,265.179 1704.73,262.739L1704.73,262.689" style="fill:none;stroke-width:1.5px;stroke:black;"/>
                <path id="path13070" d="M1726.03,285.335L1726.03,285.283L1726.03,285.231L1725.98,285.179L1725.98,285.127L1725.98,285.075L1725.98,285.023L1725.93,284.971L1725.88,284.919L1725.88,284.867L1725.83,284.764L1725.77,284.712L1725.72,284.66L1725.72,284.608L1725.67,284.556L1725.62,284.504L1725.57,284.452L1725.46,284.4L1725.41,284.4L1725.36,284.348L1725.31,284.296L1725.25,284.244L1725.15,284.192L1725.1,284.192L1725.05,284.14L1724.94,284.14L1724.89,284.088L1724.84,284.088L1724.74,284.036L1724.68,284.036L1724.63,283.984L1724.58,283.984L1724.48,283.984L1724.42,283.984" style="fill:none;stroke-width:1.5px;stroke:black;"/>
                <path id="path13072" d="M1718.79,49.624L1599.39,49.624" style="fill:none;stroke-width:0.7px;stroke:black;"/>
                <path id="path13074" d="M1599.39,49.624C1599.97,51.246 1602.2,51.318 1603.63,51.847C1620.19,54.894 1637.13,55.027 1653.92,54.653C1675.61,54.038 1697.24,52.007 1718.79,49.623M1599.39,49.624C1600.06,47.984 1602.35,47.872 1603.87,47.354C1622.5,44.043 1641.55,44.147 1660.4,44.824C1679.92,45.62 1699.38,47.506 1718.79,49.625" style="fill:none;stroke-width:1.5px;stroke:black;"/>
                <path id="path13076" d="M1694.23,52.106C1695.18,55.689 1695.84,59.355 1695.94,63.067" style="fill:none;stroke-width:1.5px;stroke:black;"/>
                <path id="path13078" d="M1645.52,260.725L1645.52,63.119" style="fill:none;stroke-width:0.7px;stroke:black;"/>
                <path id="path13080" d="M1648.52,59.189L1654.88,59.189" style="fill:none;stroke-width:1.5px;stroke:black;"/>
                <path id="path13082" d="M1654.88,59.189L1696.66,79.198" style="fill:none;stroke-width:1.5px;stroke:black;"/>
                <path id="path13084" d="M1596.24,63.119L1645.52,63.119" style="fill:none;stroke-width:0.7px;stroke:black;"/>
                <path id="path13086" d="M1648.52,59.189L1648.52,511.379" style="fill:none;stroke-width:0.7px;stroke:black;"/>
                <path id="path13088" d="M1699.71,148.789L1686.99,148.789L1688.75,239.94L1703.69,239.94" style="fill:none;stroke-width:1.5px;stroke:black;"/>
                <path id="path13090" d="M1633.11,63.119L1619.04,260.725" style="fill:none;stroke-width:0.7px;stroke:black;"/>
                <path id="path13092" d="M1593.65,260.725L1619.36,63.119" style="fill:none;stroke-width:0.7px;stroke:black;"/>
                <path id="path13094" d="M1605.91,63.119L1567.08,260.725" style="fill:none;stroke-width:0.7px;stroke:black;"/>
                <path id="path13096" d="M1361.73,285.335L1361.73,238.338" style="fill:none;stroke-width:0.7px;stroke:black;"/>
                <path id="path13098" d="M1001.83,230.944L1001.83,226.756" style="fill:none;stroke-width:0.7px;stroke:black;"/>
                <path id="path13100" d="M1057.73,226.756L1057.73,230.944" style="fill:none;stroke-width:0.7px;stroke:black;"/>
                <path id="path13102" d="M1163.58,230.944L1163.58,226.756" style="fill:none;stroke-width:0.7px;stroke:black;"/>
                <path id="path13104" d="M1230.39,231.358L1230.39,227.377" style="fill:none;stroke-width:1.5px;stroke:black;"/>
                <path id="path13106" d="M1255.52,229.497L1255.52,233.478" style="fill:none;stroke-width:1.5px;stroke:black;"/>
                <path id="path13108" d="M961.496,226.756L961.496,230.944" style="fill:none;stroke-width:0.7px;stroke:black;"/>
                <path id="path13110" d="M1098.12,230.944L1098.12,226.756" style="fill:none;stroke-width:0.7px;stroke:black;"/>
                <path id="path13112" d="M1123.25,226.756L1123.25,230.944" style="fill:none;stroke-width:0.7px;stroke:black;"/>
                <path id="path13114" d="M1190.06,226.756L1190.06,230.944L1225.27,230.944L1230.11,231.348" style="fill:none;stroke-width:1.5px;stroke:black;"/>
                <path id="path13116" d="M1295.86,236.838L1295.86,232.857" style="fill:none;stroke-width:1.5px;stroke:black;"/>
                <path id="path13122" d="M925.35,226.808L933.779,159.181" style="fill:none;stroke-width:1.5px;stroke:black;"/>
                <path id="path13124" d="M1157.12,-84.337L1211.31,226.756" style="fill:none;stroke-width:1.5px;stroke:black;"/>
                <path id="path13126" d="M997.848,-354.947L1079.03,-354.947" style="fill:none;stroke-width:0.7px;stroke:black;"/>
                <path id="path13128" d="M997.848,-354.947C999.545,-367.506 1002.89,-380.27 1010.36,-390.709C1015.68,-398.256 1023.87,-403.825 1033.03,-405.364C1045.12,-407.511 1057.61,-404.982 1068.87,-400.462C1084.12,-394.151 1098.12,-383.318 1105.62,-368.348C1107.7,-364.121 1109.43,-357.579 1110.21,-352.926" style="fill:none;stroke-width:1.5px;stroke:black;"/>
                <path id="path13130" d="M1113.94,-352.62L1160.68,-84.337" style="fill:none;stroke-width:1.5px;stroke:black;"/>
                <path id="path13132" d="M1079.03,-354.947L1127.07,-79.063" style="fill:none;stroke-width:0.7px;stroke:black;"/>
                <path id="path13134" d="M1079.45,-352.62L1113.94,-352.62" style="fill:none;stroke-width:1.5px;stroke:black;"/>
                <path id="path13136" d="M963.461,-79.063L1127.07,-79.063" style="fill:none;stroke-width:0.7px;stroke:black;"/>
                <path id="path13138" d="M1126.19,-84.337L1160.68,-84.337" style="fill:none;stroke-width:1.5px;stroke:black;"/>
                <path id="path13140" d="M987.713,-273.515L1093.2,-273.515" style="fill:none;stroke-width:0.7px;stroke:black;"/>
                <path id="path13142" d="M1034.46,-354.947L1025.46,-79.063" style="fill:none;stroke-width:0.7px;stroke:black;"/>
                <path id="path13144" d="M1091.96,-79.063L1066.93,-273.515" style="fill:none;stroke-width:0.7px;stroke:black;"/>
                <path id="path13146" d="M954.308,-5.335L1170.87,-5.335" style="fill:none;stroke-width:0.7px;stroke:black;"/>
                <path id="path13148" d="M939.364,66.893L939.364,156.493" style="fill:none;stroke-width:0.7px;stroke:black;"/>
                <path id="path13150" d="M974.682,144.601L974.682,82.455" style="fill:none;stroke-width:0.7px;stroke:black;"/>
                <path id="path13152" d="M903.012,68.909L939.364,66.893" style="fill:none;stroke-width:1.5px;stroke:black;"/>
                <path id="path13154" d="M903.012,75.631L939.364,73.666" style="fill:none;stroke-width:0.7px;stroke:black;"/>
                <path id="path13156" d="M903.012,73.097L939.364,71.081" style="fill:none;stroke-width:0.7px;stroke:black;"/>
                <path id="path13158" d="M939.364,66.893L1183.44,66.893" style="fill:none;stroke-width:0.7px;stroke:black;"/>
                <path id="path13160" d="M945.931,61.619L1182.51,61.619" style="fill:none;stroke-width:0.7px;stroke:black;"/>
                <path id="path13162" d="M946.758,54.846L1181.37,54.846" style="fill:none;stroke-width:0.7px;stroke:black;"/>
                <path id="path13164" d="M971.89,145.429L1197.14,145.429" style="fill:none;stroke-width:0.7px;stroke:black;"/>
                <path id="path13166" d="M945.259,66.893C957.042,73.071 968.044,80.997 980.983,84.708C995.686,89.493 1011.28,92.777 1024.12,101.885C1029.38,105.385 1034.36,109.317 1039.37,113.166" style="fill:none;stroke-width:1.5px;stroke:black;"/>
                <path id="path13168" d="M903.012,157.475L933.779,159.181" style="fill:none;stroke-width:1.5px;stroke:black;"/>
                <path id="path13170" d="M903.012,150.754L939.364,152.719" style="fill:none;stroke-width:0.7px;stroke:black;"/>
                <path id="path13172" d="M903.012,153.287L939.364,155.252" style="fill:none;stroke-width:0.7px;stroke:black;"/>
                <path id="path13174" d="M933.779,159.181C961.666,144.864 994.593,143.202 1021.26,126.165C1027.55,122.2 1033.51,117.733 1039.37,113.166" style="fill:none;stroke-width:1.5px;stroke:black;"/>
                <path id="path13176" d="M945.259,66.893L997.848,-354.947" style="fill:none;stroke-width:1.5px;stroke:black;"/>
                <path id="path13178" d="M974.682,113.166L1039.37,113.166" style="fill:none;stroke-width:0.7px;stroke:black;"/>
                <path id="path13180" d="M1074.59,215.589L1101.11,215.589L1105.3,149.978L1078.78,149.978L1074.59,215.589L1074.59,215.589Z" style="fill:none;stroke-width:0.7px;stroke:black;"/>
                <path id="path13182" d="M925.195,103.136L937.089,102.723L937.037,76.406L925.195,76.975L925.195,103.136L925.195,103.136Z" style="fill:none;stroke-width:0.7px;stroke:black;"/>
                <path id="path13184" d="M925.195,87.936L937.037,87.574" style="fill:none;stroke-width:0.7px;stroke:black;"/>
                <path id="path13186" d="M1041.23,-387.829C1039.73,-387.829 1038.18,-388.176 1036.93,-389.044C1036.25,-389.542 1035.74,-390.269 1035.62,-391.118C1035.44,-392.384 1036.39,-393.485 1037.46,-394.01C1038.61,-394.649 1039.93,-394.916 1041.23,-394.912M1041.23,-394.912C1043.12,-394.928 1045.01,-394.695 1046.87,-394.348C1048.09,-394.052 1049.3,-393.633 1050.38,-392.988C1051.05,-392.564 1051.75,-391.791 1051.43,-390.94C1051.05,-390.065 1050.15,-389.535 1049.32,-389.16C1047.21,-388.298 1044.92,-387.988 1042.66,-387.85C1042.18,-387.833 1041.71,-387.832 1041.23,-387.83" style="fill:none;stroke-width:1.5px;stroke:black;"/>
                <path id="path13188" d="M924.73,230.873L918.008,227.757" style="fill:none;stroke-width:0.7px;stroke:black;"/>
                <path id="path13190" d="M876.98,283.547L898.115,239.467" style="fill:none;stroke-width:1.5px;stroke:black;"/>
                <path id="path13192" d="M1255.79,233.489L1295.29,236.782" style="fill:none;stroke-width:1.5px;stroke:black;"/>
                <path id="path13194" d="M1079.49,-352.341L1126.15,-84.33" style="fill:none;stroke-width:1.5px;stroke:black;"/>
                <path id="path13196" d="M1648.47,260.725L1704.62,260.725" style="fill:none;stroke-width:1.5px;stroke:black;"/>
                <path id="path13198" d="M1648.52,260.493L1648.52,59.189" style="fill:none;stroke-width:1.5px;stroke:black;"/>
                <path id="path13200" d="M939.364,66.893L945.213,66.893" style="fill:none;stroke-width:1.5px;stroke:black;"/>
                <path id="path13204" d="M906.225,284.957L1655.76,49.6L1657.54,49.779" style="fill:none;stroke-width:0.3px;stroke-linecap:butt;stroke-linejoin:miter;stroke:black;"/>
                <path id="path13206" d="M1661.72,44.917C1658.74,44.686 1656.11,46.552 1655.85,49.193C1655.59,51.834 1657.8,54.162 1660.78,54.392" style="fill:none;stroke-width:1.5px;stroke-linejoin:miter;stroke:black;"/>
            </g>
        </g>
    </g>
</svg>
