<?xml version="1.0" encoding="UTF-8" standalone="no"?>
<!DOCTYPE svg PUBLIC "-//W3C//DTD SVG 1.1//EN" "http://www.w3.org/Graphics/SVG/1.1/DTD/svg11.dtd">
<svg width="100%" height="100%" viewBox="0 0 72 48" version="1.1" xmlns="http://www.w3.org/2000/svg" xmlns:xlink="http://www.w3.org/1999/xlink" xml:space="preserve" style="fill-rule:evenodd;clip-rule:evenodd;">
    <g transform="matrix(0.5547,-0.83205,0.83205,0.5547,36,24)">
        <g id="b2">
            <path id="b" d="M-6,-25L6,-25M-6,-22L6,-22M-6,-19L6,-19" style="fill-rule:nonzero;stroke:black;stroke-width:2px;"/>
            <g id="b1" transform="matrix(1,0,0,1,0,44)">
                <path d="M-6,-25L6,-25M-6,-22L6,-22M-6,-19L6,-19" style="fill-rule:nonzero;stroke:black;stroke-width:2px;"/>
            </g>
        </g>
        <path d="M0,17L0,27" style="fill-rule:nonzero;stroke:white;stroke-width:1px;"/>
        <circle cx="0" cy="0" r="12" style="fill:rgb(205,46,58);"/>
        <path d="M0,-12C-3.292,-12 -6,-9.292 -6,-6C-6,-2.708 -3.292,0 0,0C3.292,0 6,2.708 6,6C6,9.292 3.292,12 0,12C-6.583,12 -12,6.583 -12,0C-12,-6.583 -6.583,-12 0,-12L0,-12Z" style="fill:rgb(0,71,160);fill-rule:nonzero;"/>
    </g>
    <g transform="matrix(-0.5547,-0.83205,0.83205,-0.5547,36,24)">
        <g id="b21">
            <path id="b3" d="M-6,-25L6,-25M-6,-22L6,-22M-6,-19L6,-19" style="fill-rule:nonzero;stroke:black;stroke-width:2px;"/>
            <g id="b4" transform="matrix(1,0,0,1,0,44)">
                <path d="M-6,-25L6,-25M-6,-22L6,-22M-6,-19L6,-19" style="fill-rule:nonzero;stroke:black;stroke-width:2px;"/>
            </g>
        </g>
        <path d="M0,-23.5L0,-20.5M0,17L0,20.5M0,23.5L0,26.5" style="fill-rule:nonzero;stroke:white;stroke-width:1px;"/>
    </g>
</svg>
