<?xml version="1.0" standalone="no"?>
<!DOCTYPE svg PUBLIC "-//W3C//DTD SVG 1.1//EN" "http://www.w3.org/Graphics/SVG/1.1/DTD/svg11.dtd">
<svg width="100%" height="100%" viewBox="0 0 1007 459" version="1.1" xmlns="http://www.w3.org/2000/svg" xmlns:xlink="http://www.w3.org/1999/xlink" xml:space="preserve" style="fill-rule:evenodd;clip-rule:evenodd;stroke-linejoin:round;stroke-miterlimit:1.41421;">
    <g transform="matrix(1,0,0,1,-225.108,-259.579)">
        <g transform="matrix(4.16667,0,0,4.16667,0,0)">
            <path d="M204.376,120.814L204.376,90.407L222.051,90.407L222.051,122.685C222.051,125.977 222.575,128.378 223.623,129.871C224.922,131.669 227.168,132.571 230.364,132.571C235.856,132.571 238.605,129.274 238.605,122.685L238.605,90.407L256.277,90.407L256.277,120.887C256.277,129.628 254.168,135.954 249.95,139.873C245.73,143.792 239.202,145.749 230.364,145.749C221.527,145.749 215.036,143.829 210.891,139.983C206.549,135.991 204.376,129.597 204.376,120.814Z" style="fill:rgb(242,121,32);fill-rule:nonzero;"/>
        </g>
        <g transform="matrix(4.16667,0,0,4.16667,0,0)">
            <path d="M294.131,106.059L277.355,106.059C276.907,102.962 274.533,101.414 270.242,101.414C266.497,101.414 264.623,102.438 264.623,104.486C264.623,106.534 267.295,108.228 272.637,109.575C280.375,111.574 285.37,113.171 287.616,114.372C292.958,117.267 295.63,121.534 295.63,127.177C295.63,133.766 292.934,138.66 287.543,141.854C283.197,144.45 277.48,145.749 270.392,145.749C264.348,145.749 259.082,144.28 254.587,141.33C249.446,137.99 246.749,133.443 246.5,127.702L263.425,127.702C263.776,129.548 264.699,130.95 266.195,131.895C267.695,132.846 269.416,133.321 271.364,133.321C276.258,133.321 278.705,131.998 278.705,129.347C278.705,127.305 276.032,125.629 270.69,124.331C263.099,122.484 258.107,120.887 255.712,119.54C250.37,116.591 247.697,112.147 247.697,106.205C247.697,100.268 250.217,95.771 255.261,92.729C259.405,90.231 264.674,88.981 271.065,88.981C277.306,88.981 282.374,90.279 286.269,92.876C290.712,95.826 293.333,100.214 294.131,106.059Z" style="fill:rgb(127,63,151);fill-rule:nonzero;"/>
        </g>
        <g transform="matrix(4.16667,0,0,4.16667,0,0)">
            <path d="M214.362,111.002L197.586,111.002C197.034,105.108 193.841,102.164 187.999,102.164C181.358,102.164 178.037,107.406 178.037,117.889C178.037,127.677 181.581,132.571 188.672,132.571C193.914,132.571 196.934,129.524 197.735,123.435L214.734,123.435C213.936,130.426 211.214,135.893 206.573,139.837C201.929,143.78 196.062,145.749 188.971,145.749C180.084,145.749 173.094,143.219 168.001,138.148C162.909,133.083 160.361,126.129 160.361,117.291C160.361,109.106 162.784,102.389 167.626,97.148C172.618,91.706 179.161,88.981 187.249,88.981C194.938,88.981 201.106,90.73 205.747,94.223C210.739,97.971 213.612,103.56 214.362,111.002Z" style="fill:rgb(253,211,6);fill-rule:nonzero;"/>
        </g>
        <g transform="matrix(4.16667,0,0,4.16667,0,0)">
            <path d="M71.701,144.328L54.026,144.328L54.026,90.407L100.755,90.407L100.755,102.987L71.701,102.987L71.701,112.8L92.619,112.8L92.619,125.379L71.701,125.379L71.701,144.328Z" style="fill:rgb(38,171,226);fill-rule:nonzero;"/>
        </g>
        <g transform="matrix(4.16667,0,0,4.16667,0,0)">
            <path d="M136.277,142.283C122.515,147.07 107.478,139.794 102.692,126.031C97.905,112.269 105.182,97.233 118.944,92.446C132.706,87.66 147.743,94.936 152.529,108.698C157.316,122.46 150.04,137.497 136.277,142.283ZM114.097,78.511C92.638,85.974 81.292,109.42 88.755,130.878C96.219,152.337 119.666,163.682 141.124,156.219C162.583,148.756 173.928,125.31 166.465,103.851C159.002,82.393 135.556,71.047 114.097,78.511Z" style="fill:rgb(8,123,71);fill-rule:nonzero;"/>
        </g>
        <g transform="matrix(4.16667,0,0,4.16667,0,0)">
            <path d="M247.697,106.205C247.697,112.147 250.37,116.591 255.712,119.54C255.885,119.638 256.075,119.737 256.277,119.837L256.277,92.174C255.935,92.356 255.588,92.532 255.261,92.729C250.217,95.771 247.697,100.268 247.697,106.205Z" style="fill:rgb(236,31,39);fill-rule:nonzero;"/>
        </g>
        <g transform="matrix(4.16667,0,0,4.16667,0,0)">
            <path d="M255.767,127.702L246.5,127.702C246.687,132.001 248.246,135.63 251.176,138.584C253.505,135.869 255.035,132.242 255.767,127.702Z" style="fill:rgb(236,31,39);fill-rule:nonzero;"/>
        </g>
        <g transform="matrix(4.16667,0,0,4.16667,0,0)">
            <path d="M204.376,111.002L214.362,111.002C213.612,103.56 210.739,97.971 205.747,94.223C205.308,93.892 204.842,93.593 204.376,93.294L204.376,111.002Z" style="fill:rgb(249,166,27);fill-rule:nonzero;"/>
        </g>
        <g transform="matrix(4.16667,0,0,4.16667,0,0)">
            <path d="M214.734,123.435L204.45,123.435C204.771,129.408 206.217,134.144 208.792,137.632C212.078,133.935 214.074,129.214 214.734,123.435Z" style="fill:rgb(249,166,27);fill-rule:nonzero;"/>
        </g>
        <g transform="matrix(4.16667,0,0,4.16667,0,0)">
            <path d="M166.465,103.851C166.052,102.662 165.581,101.51 165.073,100.384C161.934,105.067 160.361,110.702 160.361,117.291C160.361,124.171 161.912,129.903 164.998,134.497C169.265,125.188 170.095,114.287 166.465,103.851Z" style="fill:rgb(139,197,64);fill-rule:nonzero;"/>
        </g>
        <g transform="matrix(4.16667,0,0,4.16667,0,0)">
            <path d="M127.635,117.444L111.228,62.299L121.475,114.171L127.635,117.444Z" style="fill:rgb(8,123,71);fill-rule:nonzero;"/>
        </g>
        <g transform="matrix(4.16667,0,0,4.16667,0,0)">
            <path d="M131.171,111.442L127.635,117.444L111.228,62.299L131.171,111.442Z" style="fill:white;fill-rule:nonzero;"/>
        </g>
        <g transform="matrix(4.16667,0,0,4.16667,0,0)">
            <path d="M140.749,94.067L131.171,111.442L129.119,106.689L140.749,94.067Z" style="fill:rgb(8,123,71);fill-rule:nonzero;"/>
        </g>
        <g transform="matrix(4.16667,0,0,4.16667,0,0)">
            <path d="M131.171,111.442L135.836,110.556L140.749,94.067L131.171,111.442Z" style="fill:white;fill-rule:nonzero;"/>
        </g>
        <g transform="matrix(4.16667,0,0,4.16667,0,0)">
            <path d="M127.635,117.444L182.989,100.976L131.171,111.442L127.635,117.444Z" style="fill:rgb(8,123,71);fill-rule:nonzero;"/>
        </g>
        <g transform="matrix(4.16667,0,0,4.16667,0,0)">
            <path d="M133.745,120.842L182.989,100.976L127.635,117.444L133.745,120.842Z" style="fill:white;fill-rule:nonzero;"/>
        </g>
        <g transform="matrix(4.16667,0,0,4.16667,0,0)">
            <path d="M150.962,130.252L133.745,120.842L138.258,118.906L150.962,130.252Z" style="fill:rgb(8,123,71);fill-rule:nonzero;"/>
        </g>
        <g transform="matrix(4.16667,0,0,4.16667,0,0)">
            <path d="M133.712,120.837L150.929,130.247L134.618,125.817L133.712,120.837Z" style="fill:white;fill-rule:nonzero;"/>
        </g>
        <g transform="matrix(4.16667,0,0,4.16667,0,0)">
            <path d="M127.635,117.444L143.993,172.428L133.745,120.842L127.635,117.444Z" style="fill:rgb(8,123,71);fill-rule:nonzero;"/>
        </g>
        <g transform="matrix(4.16667,0,0,4.16667,0,0)">
            <path d="M124.147,123.669L143.993,172.428L127.635,117.444L124.147,123.669Z" style="fill:white;fill-rule:nonzero;"/>
        </g>
        <g transform="matrix(4.16667,0,0,4.16667,0,0)">
            <path d="M115.061,140.715L124.147,123.669L126.221,128.453L115.061,140.715Z" style="fill:rgb(8,123,71);fill-rule:nonzero;"/>
        </g>
        <g transform="matrix(4.16667,0,0,4.16667,0,0)">
            <path d="M119.531,124.477L124.147,123.669L115.061,140.715L119.531,124.477Z" style="fill:white;fill-rule:nonzero;"/>
        </g>
        <g transform="matrix(4.16667,0,0,4.16667,0,0)">
            <path d="M127.635,117.444L121.475,114.171L72.29,133.947L127.635,117.444Z" style="fill:white;fill-rule:nonzero;"/>
        </g>
        <g transform="matrix(4.16667,0,0,4.16667,0,0)">
            <path d="M124.147,123.669L127.635,117.444L72.28,133.913L124.147,123.669Z" style="fill:rgb(8,123,71);fill-rule:nonzero;"/>
        </g>
        <g transform="matrix(4.16667,0,0,4.16667,0,0)">
            <path d="M104.403,104.9L121.475,114.171L120.613,109.244L104.403,104.9Z" style="fill:white;fill-rule:nonzero;"/>
        </g>
        <g transform="matrix(4.16667,0,0,4.16667,0,0)">
            <path d="M116.967,116.099L121.475,114.171L104.403,104.9L116.967,116.099Z" style="fill:rgb(8,123,71);fill-rule:nonzero;"/>
        </g>
        <g transform="matrix(4.16667,0,0,4.16667,0,0)">
            <path d="M100.755,90.407L96.543,90.407C93.316,94.133 90.783,98.397 89.068,102.987L100.755,102.987L100.755,90.407Z" style="fill:rgb(6,58,47);fill-rule:nonzero;"/>
        </g>
        <g transform="matrix(4.16667,0,0,4.16667,0,0)">
            <path d="M87.266,125.379L92.619,125.379L92.619,112.8L86.719,112.8C86.256,116.922 86.423,121.159 87.266,125.379Z" style="fill:rgb(6,58,47);fill-rule:nonzero;"/>
        </g>
    </g>
</svg>
