<?xml version="1.0" encoding="UTF-8" standalone="no"?>
<!DOCTYPE svg PUBLIC "-//W3C//DTD SVG 1.1//EN" "http://www.w3.org/Graphics/SVG/1.1/DTD/svg11.dtd">
<svg width="100%" height="100%" viewBox="0 0 95 74" version="1.1" xmlns="http://www.w3.org/2000/svg" xmlns:xlink="http://www.w3.org/1999/xlink" xml:space="preserve" xmlns:serif="http://www.serif.com/" style="fill-rule:evenodd;clip-rule:evenodd;stroke-linejoin:round;stroke-miterlimit:1.41421;">
    <g transform="matrix(1,0,0,1,-2.5,-13.3)">
        <path d="M96.1,80.1L91.8,80.1L91.8,29.5L94.3,20.8L94.3,14.7C94.3,13.9 93.7,13.3 92.9,13.3L88.2,13.3C87.4,13.3 86.8,13.9 86.8,14.7L86.8,20.8L83.2,20.8L83.2,14.7C83.2,13.9 82.6,13.3 81.8,13.3L77.1,13.3C76.3,13.3 75.7,13.9 75.7,14.7L75.7,20.8L72.1,20.8L72.1,14.7C72.1,13.9 71.5,13.3 70.7,13.3L66,13.3C65.2,13.3 64.6,13.9 64.6,14.7L64.6,20.8L67.1,29.5L67.1,40.6L32.9,40.6L32.9,29.5L35.4,20.8L35.4,14.7C35.4,13.9 34.8,13.3 34,13.3L29.3,13.3C28.5,13.3 27.9,13.9 27.9,14.7L27.9,20.8L24.3,20.8L24.3,14.7C24.3,13.9 23.7,13.3 22.9,13.3L18.2,13.3C17.4,13.3 16.8,13.9 16.8,14.7L16.8,20.8L13.2,20.8L13.2,14.7C13.2,13.9 12.6,13.3 11.8,13.3L7.1,13.3C6.3,13.3 5.7,13.9 5.7,14.7L5.7,20.8L8.2,29.5L8.2,80.1L3.9,80.1C3.1,80.1 2.5,80.7 2.5,81.5L2.5,85.3C2.5,86.1 3.1,86.7 3.9,86.7L96.1,86.7C96.9,86.7 97.5,86.1 97.5,85.3L97.5,81.5C97.5,80.7 96.9,80.1 96.1,80.1ZM50,61.4C52.1,61.4 53.9,62.2 55.3,63.6C56.7,65 57.5,66.8 57.5,68.9L57.5,80.1L42.5,80.1L42.5,68.9C42.5,64.7 45.9,61.4 50,61.4Z" style="fill:rgb(174,71,65);fill-rule:nonzero;stroke:black;stroke-width:0.5px;"/>
    </g>
</svg>
