<?xml version="1.0" encoding="UTF-8" standalone="no"?>
<!DOCTYPE svg PUBLIC "-//W3C//DTD SVG 1.1//EN" "http://www.w3.org/Graphics/SVG/1.1/DTD/svg11.dtd">
<svg width="100%" height="100%" viewBox="0 0 24 44" version="1.1" xmlns="http://www.w3.org/2000/svg" xmlns:xlink="http://www.w3.org/1999/xlink" xml:space="preserve" style="fill-rule:evenodd;clip-rule:evenodd;stroke-linejoin:round;stroke-miterlimit:1.41421;">
    <g transform="matrix(1,0,0,1,4.47694e-06,2.38609e-06)">
        <g transform="matrix(0.5,0,0,0.5,-13.2378,-3.49872)">
            <path d="M57.105,73.914L50.348,62.663L45.592,75.963L36.18,90.296C34.648,92.901 32.856,94.547 30.321,93.838C27.786,93.134 26.03,90.324 27.199,87.814L36.813,71.876L41.003,56.595C41.251,55.191 40.375,52.93 40.375,52.93C39.55,49.784 40.111,47.915 40.111,47.915L42.6,33.615L36.412,38.988L33.87,49.841C33.472,52.112 32.242,53.804 30.136,53.822C28.028,53.84 26.3,51.971 26.49,50L29.762,36.519C30.166,33.88 31.663,33.002 31.663,33.002L45.206,23.294C53.081,20.268 58.21,25.728 58.21,25.728L64.789,38.876L72.219,44.548C73.813,46.266 74.018,48.673 72.455,50.135C71.112,51.391 68.541,50.541 67.26,49.218L60.806,44.302C59.534,43.537 56.606,37.45 56.606,37.45L54.628,50.328C54.297,51.914 55.105,52.93 55.105,52.93L65.252,69.19L68.081,87.842C68.746,90.901 67.388,93.096 65.031,93.705C62.548,94.348 60.226,92.856 59.616,90.41L57.105,73.914Z" style="fill:rgb(184,22,38);fill-rule:nonzero;"/>
        </g>
        <g transform="matrix(0.5,0,0,0.5,-13.2378,-3.49872)">
            <g transform="matrix(0.9836,-0.1801,0.1801,0.9836,-1.669,10.3357)">
                <ellipse cx="56.078" cy="14.358" rx="7.101" ry="7.369" style="fill:rgb(184,22,38);"/>
            </g>
        </g>
    </g>
</svg>
