<?xml version="1.0" encoding="UTF-8" standalone="no"?>
<!DOCTYPE svg PUBLIC "-//W3C//DTD SVG 1.1//EN" "http://www.w3.org/Graphics/SVG/1.1/DTD/svg11.dtd">
<svg width="100%" height="100%" viewBox="0 0 87 65" version="1.1" xmlns="http://www.w3.org/2000/svg" xmlns:xlink="http://www.w3.org/1999/xlink" xml:space="preserve" style="fill-rule:evenodd;clip-rule:evenodd;stroke-linejoin:round;stroke-miterlimit:1.41421;">
    <g transform="matrix(1,0,0,1,-6.98,-17.584)">
        <path d="M51.558,80.425C51.558,80.425 46.391,77.508 44.224,71.424C42.344,66.147 38.474,58.458 28.056,58.596C18.464,58.72 19.484,60.543 14.388,61.34C14.388,61.34 22.707,58.99 28.889,62.09C32.542,63.922 37.223,67.914 39.223,72.924C41.214,77.913 43.557,85.259 51.558,80.425Z" style="fill:white;fill-rule:nonzero;"/>
        <path d="M49.161,76.57C49.161,76.57 51.599,77.132 54.223,75.132C56.848,73.132 62.519,62.355 68.308,59.839C74.203,57.277 77.349,57.63 87.851,61.881C90.019,62.756 93.019,61.214 93.019,61.214C91.017,62.089 87.767,63.047 84.726,63.255C82.591,63.402 73.892,63.09 68.974,67.456C64.832,71.135 60.474,78.401 56.599,79.4C52.723,80.402 50.793,79.069 49.161,76.57Z" style="fill:white;fill-rule:nonzero;"/>
        <path d="M52.641,75.424C52.723,73.425 54.224,72.174 54.974,71.174C55.725,70.175 58.724,64.424 59.059,60.34C59.202,58.588 59.475,51.339 59.475,51.339C59.475,51.339 50.078,58.631 48.162,61.632C46.245,64.632 44.912,68.8 44.912,68.8C44.912,68.8 46.473,76.695 52.641,75.424Z" style="fill:white;fill-rule:nonzero;"/>
        <path d="M47.661,60.756C47.661,60.756 46.707,62.79 45.895,63.728C44.833,61.103 39.785,51.985 39.347,51.339C38.91,50.693 38.847,48.006 37.722,45.693C36.597,43.38 32.16,32.191 32.41,29.379C32.347,29.629 33.472,36.067 36.098,38.631C38.723,41.192 47.974,50.006 47.661,60.756Z" style="fill:white;fill-rule:nonzero;"/>
        <path d="M45.223,64.758L44.285,67.914C44.285,67.914 41.47,64.194 40.034,62.444C38.598,60.694 35.723,53.881 34.91,48.13C34.097,42.381 33.972,38.005 33.972,38.005C33.972,38.005 36.847,45.506 37.285,47.131C37.722,48.756 37.785,51.235 37.847,51.339C37.91,51.443 42.785,59.257 45.223,64.758Z" style="fill:white;fill-rule:nonzero;"/>
        <path d="M49.161,59.09C49.161,59.09 53.557,47.505 56.724,45.172C59.891,42.838 68.058,29.681 68.058,26.504C68.058,22.004 66.974,20.171 66.974,20.171C66.974,20.171 69.57,24.588 68.064,33.255C66.558,41.922 60.293,49.422 58.841,50.423C57.392,51.423 50.662,57.642 49.161,59.09Z" style="fill:white;fill-rule:nonzero;"/>
        <path d="M60.391,50.755C60.391,50.755 60.059,58.174 59.892,59.09C61.309,55.256 65.642,47.756 67.559,39.63C63.892,46.672 60.418,50.162 60.391,50.755Z" style="fill:white;fill-rule:nonzero;"/>
        <path d="M56.725,70.819C56.725,70.819 61.913,61.487 66.85,59.404C71.788,57.32 73.412,56.944 73.412,56.944C73.412,56.944 77.85,49.318 78.537,46.692C79.225,44.068 82.101,35.816 84.601,33.254C87.101,30.692 91.101,24.316 90.101,25.691C89.101,27.066 87.226,30.379 85.476,31.004C83.726,31.629 72.179,37.99 67.558,46.552C62.938,55.116 58.912,62.569 56.725,70.819Z" style="fill:white;fill-rule:nonzero;"/>
        <path d="M37.473,60.006C33.207,56.762 25.8,57.621 25.8,57.621C25.8,57.621 21.362,49.995 20.675,47.369C19.987,44.744 17.112,36.493 14.612,33.931C12.112,31.369 8.112,24.993 9.112,26.369C10.112,27.744 11.987,31.057 13.738,31.681C15.488,32.306 27.034,38.667 31.655,47.23C36.276,55.793 37.473,60.006 37.473,60.006Z" style="fill:white;fill-rule:nonzero;"/>
        <path d="M43.223,82.004C43.223,82.004 40.348,83.258 37.473,81.133C34.597,79.008 28.597,75.868 24.846,75.563C21.096,75.258 16.554,72.133 14.387,72.258C12.22,72.382 10.595,72.133 7.72,72.882C10.22,72.133 17.012,70.111 23.888,70.299C30.763,70.486 35.722,74.022 38.347,75.563C40.972,77.104 39.973,79.875 43.223,82.004Z" style="fill:white;fill-rule:nonzero;"/>
        <path d="M53.099,80.758C53.099,80.758 58.35,82.735 62.35,82.372C66.35,82.008 67.582,81.092 68.975,80.508C71.309,79.53 78.186,80.862 80.059,80.258C81.936,79.655 88.77,76.446 92.395,70.82C90.26,73.49 88.686,76.189 85.061,76.008C81.434,75.828 75.643,71.341 68.534,72.424C63.22,73.235 60.561,78.639 60.561,78.639C60.561,78.639 57.1,81.383 53.099,80.758Z" style="fill:white;fill-rule:nonzero;"/>
        <path d="M42.598,43.672C42.598,43.672 48.794,53.84 48.474,56.84C52.194,48.16 55.27,29.709 47.684,17.584C49.224,20.709 49.786,22.709 49.724,24.834C49.662,26.959 43.973,35.335 42.598,43.672Z" style="fill:white;fill-rule:nonzero;"/>
        <path d="M53.099,37.212C53.099,37.212 54.86,30.421 58.285,27.554C60.896,23.607 61.026,20.658 61.649,17.584C61.4,18.623 61.251,24.084 59.892,27.398C58.533,30.712 54.172,41.928 54.545,45.791C52.801,48.782 51.804,51.025 50.682,53.518C51.43,50.9 53.918,40.867 53.099,37.212Z" style="fill:white;fill-rule:nonzero;"/>
        <path d="M60.693,25.976C60.693,25.976 60.486,30.836 59.197,34.243C57.91,37.648 57.726,42 57.952,42.883C56.414,44.254 55.151,46.975 54.92,45.584C54.633,43.87 56.537,36.485 60.693,25.976Z" style="fill:white;fill-rule:nonzero;"/>
        <path d="M35.811,68.981C35.811,68.981 24.678,63.727 21.188,61.369C19.443,61.286 16.701,62.2 16.286,61.867C17.2,62.449 21.252,65.772 23.214,67.101C25.176,68.431 29.912,70.133 31.574,70.819C33.235,71.505 38.102,73.453 39.134,75.562C36.641,70.509 36.238,70.919 35.811,68.981Z" style="fill:white;fill-rule:nonzero;"/>
        <path d="M17.947,59.542C17.947,59.542 13.544,58.062 6.98,58.594C9.306,58.876 9.39,58.721 11.134,59.09C12.879,59.458 14.386,60.538 14.386,60.538L17.947,59.542Z" style="fill:white;fill-rule:nonzero;"/>
        <path d="M19.152,46.29C19.152,46.29 20.648,49.784 22.019,52.96C19.152,50.402 15.912,48.409 15.04,48.159C14.167,47.91 8.269,46.538 6.981,42.052C7.811,43.922 10.802,46.291 19.152,46.29Z" style="fill:white;fill-rule:nonzero;"/>
    </g>
</svg>
