<?xml version="1.0" encoding="UTF-8" standalone="no"?>
<!DOCTYPE svg PUBLIC "-//W3C//DTD SVG 1.1//EN" "http://www.w3.org/Graphics/SVG/1.1/DTD/svg11.dtd">
<svg width="100%" height="100%" viewBox="0 0 90 41" version="1.1" xmlns="http://www.w3.org/2000/svg" xmlns:xlink="http://www.w3.org/1999/xlink" xml:space="preserve" style="fill-rule:evenodd;clip-rule:evenodd;stroke-linejoin:round;stroke-miterlimit:1.41421;">
    <g transform="matrix(1,0,0,1,-5.0169,-29.3)">
        <rect x="39.7" y="48.9" width="4.1" height="3.1" style="fill:white;"/>
        <rect x="39.7" y="53.3" width="4.1" height="3.1" style="fill:white;"/>
        <path d="M91.9,66.7L86.7,57.4L89,55.2L88.2,54.4L79.4,59.6L79.8,62.6L78.7,64.1L74.8,59.2C74.8,59.2 74.7,58.2 74.4,56.9L74.4,52.6L72.4,52.1C71.4,50.5 69.9,49.1 67.7,48.3C67.7,48.3 64.7,45.9 63,44.2L63.7,49.3L64.7,50.2L62.3,49.6L61.7,44.2C61.7,44.2 61.7,41.7 59.2,41.7C56.7,41.7 56.6,43.8 56.6,43.8L56.6,48.2L55.1,47.8L55.1,45C55.1,43.5 53.9,42.3 52.4,42.2L50.1,42.1L48.2,30.6C48.1,29.8 47.4,29.3 46.6,29.3L33.2,29.3C32.3,29.3 31.6,30 31.6,30.9L30.3,38.7L10.4,39.8C9.3,39.9 8.4,40.6 8.2,41.6L5.1,53.4C4.7,54.8 5.8,56.2 7.2,56.2L13,56.2C14.8,52.9 18.2,50.7 22.2,50.7C26.2,50.7 29.6,52.9 31.4,56.2L32.9,56.2L37.6,61.5L48.1,61.5C48.1,61.3 48.1,61.1 48.1,60.8C48.1,55 52.8,50.4 58.5,50.4C64.3,50.4 68.9,55.1 68.9,60.8C68.9,61 68.9,61.2 68.9,61.5L69.5,61.5L72.3,60C72.4,60.6 72.5,61.3 72.6,62L82.5,69.6L95,69.6L91.9,66.7ZM59.1,43.5C59.6,43.5 60,43.9 60,44.4C60,44.9 59.6,45.3 59.1,45.3C58.6,45.3 58.2,44.9 58.2,44.4C58.2,43.9 58.6,43.5 59.1,43.5ZM37.4,42.4L34.5,42.4C33.6,42.4 33,41.6 33.1,40.8L34.4,32.5C34.5,31.8 35.1,31.3 35.8,31.3L37.5,31.3C38.3,31.3 38.9,31.9 38.9,32.7L38.9,41C38.8,41.7 38.2,42.4 37.4,42.4ZM45.1,59.5C45.1,59.9 44.8,60.2 44.4,60.2C44,60.2 43.7,59.9 43.7,59.5L43.7,57.8L39.6,57.8L39.6,59.5C39.6,59.9 39.3,60.2 38.9,60.2C38.5,60.2 38.2,59.9 38.2,59.5L38.2,45.4C38.2,45 38.5,44.7 38.9,44.7C39.3,44.7 39.6,45 39.6,45.4L39.6,47.5L43.7,47.5L43.7,45.4C43.7,45 44,44.7 44.4,44.7C44.8,44.7 45.1,45 45.1,45.4L45.1,59.5ZM45.6,42.4L42.7,42.4C41.9,42.4 41.3,41.8 41.3,41L41.3,32.7C41.3,31.9 41.9,31.3 42.7,31.3L44.4,31.3C45.1,31.3 45.7,31.8 45.8,32.5L47.1,40.8C47.1,41.6 46.4,42.4 45.6,42.4Z" style="fill:white;fill-rule:nonzero;"/>
        <path d="M67.3,60.4L67.4,60.4C67.9,60.2 67.8,59.6 67.3,59.5L67.2,59.5C66.8,59.5 66.6,58.9 67,58.6L67.1,58.5C67.2,58.5 67.2,58.4 67.2,58.4L67.2,58.3L67.2,58.2L67.2,58.1L67.2,58L67.2,57.9L67.2,57.8L67.2,57.7L67.1,57.6L67,57.6L66.9,57.6L66.8,57.6L66.7,57.6L66.6,57.6L66.5,57.6C66.4,57.6 66.4,57.6 66.3,57.6L66.2,57.6L66.1,57.5L66,57.4C66,57.3 66,57.3 66,57.2L66,57.1C66,57 66.1,56.9 66.1,56.8L66.2,56.7C66.3,56.6 66.3,56.6 66.3,56.5C66.3,56.4 66.3,56.3 66.3,56.3C66.3,56.2 66.2,56.2 66.2,56.1C66.1,56.1 66.1,56 66,56C66,56 65.9,56 65.8,56L65.7,56C65.6,56 65.6,56 65.5,56C65.4,56 65.3,56 65.3,55.9C65.2,55.9 65.2,55.8 65.2,55.7C65.2,55.6 65.2,55.6 65.2,55.5C65.2,55.4 65.2,55.3 65.3,55.3L65.4,55.2C65.5,55.1 65.5,55 65.5,55C65.5,54.9 65.5,54.9 65.5,54.8C65.5,54.7 65.4,54.7 65.4,54.7C65.3,54.7 65.3,54.6 65.2,54.6C65.1,54.6 65.1,54.6 65,54.7L64.9,54.8C64.8,54.8 64.8,54.9 64.7,54.9C64.6,54.9 64.6,54.9 64.5,54.9C64.4,54.9 64.4,54.8 64.4,54.8C64.4,54.7 64.3,54.7 64.3,54.6C64.3,54.5 64.3,54.5 64.3,54.4L64.4,54.3C64.4,54.2 64.4,54.2 64.4,54.1L64.4,54C64.4,53.9 64.4,53.9 64.3,53.8C64.3,53.7 64.2,53.7 64.2,53.7C64.1,53.7 64.1,53.7 64,53.7L63.9,53.7L63.8,53.7C63.7,53.7 63.7,53.8 63.7,53.8L63.6,53.9L63.5,54L63.4,54L63.3,54L63.2,54C63.1,54 63.1,53.9 63.1,53.9L63,53.8C63,53.7 63,53.7 63,53.6L63,53.5C63,53.4 63,53.4 63,53.3L63,53.2C63,53.2 63,53.1 62.9,53.1L62.8,53C62.7,53 62.7,53 62.6,53L62.5,53L62.4,53C62.3,53 62.3,53.1 62.2,53.1L62.1,53.2C62,53.3 62,53.3 61.9,53.4L61.8,53.4C61.7,53.4 61.7,53.4 61.6,53.4C61.5,53.4 61.5,53.3 61.4,53.3C61.4,53.2 61.3,53.1 61.3,53L61.3,52.9C61.3,52.8 61.3,52.8 61.3,52.7C61.3,52.7 61.3,52.6 61.2,52.6C61.2,52.6 61.1,52.6 61.1,52.5L61,52.5L60.9,52.5C60.8,52.5 60.8,52.5 60.7,52.6C60.6,52.6 60.6,52.7 60.5,52.8L60.4,52.9C60.4,53 60.3,53.1 60.2,53.1L60.1,53.1C60,53.1 60,53.1 59.9,53.1C59.8,53.1 59.7,53.1 59.7,53C59.6,52.9 59.6,52.9 59.6,52.8L59.6,52.7C59.5,52.5 59.3,52.3 59.1,52.3C59,52.3 58.9,52.3 58.8,52.4C58.7,52.5 58.7,52.6 58.6,52.7L58.6,52.8C58.6,52.9 58.5,53 58.5,53C58.4,53.1 58.4,53.1 58.3,53.1C58.2,53.1 58.2,53.1 58.1,53.1L58,53.1C57.9,53.1 57.9,53 57.8,52.9L57.7,52.8C57.7,52.7 57.6,52.7 57.5,52.6C57.4,52.6 57.4,52.5 57.3,52.5L57.2,52.5L57.1,52.5C57.1,52.5 57,52.5 57,52.6C57,52.6 57,52.7 56.9,52.7L56.9,53C56.9,53.1 56.9,53.2 56.8,53.3C56.7,53.4 56.7,53.4 56.6,53.4C56.5,53.4 56.5,53.4 56.4,53.4L56.3,53.4C56.2,53.4 56.1,53.3 56.1,53.2L56,53.1C56,53 55.9,53 55.8,53L55.7,53L55.6,53C55.5,53 55.5,53 55.4,53C55.3,53 55.3,53.1 55.3,53.1C55.3,53.1 55.3,53.2 55.2,53.2L55.2,53.8C55.2,53.8 55.2,53.9 55.1,53.9L55,54L54.9,54L54.8,54L54.7,54C54.7,54 54.6,54 54.6,53.9L54.5,53.8L54.4,53.7L54.3,53.7L54.2,53.7C54.1,53.7 54.1,53.7 54,53.7C53.9,53.7 53.9,53.8 53.9,53.8C53.9,53.9 53.8,53.9 53.8,54L53.8,54.3L53,54C53,54.1 53,54.1 53,54.2C53,54.3 53,54.3 52.9,54.4L52.8,54.5C52.7,54.5 52.7,54.5 52.6,54.5C52.5,54.5 52.5,54.5 52.4,54.4L52.3,54.3C52.2,54.3 52.2,54.2 52.1,54.2C52,54.2 52,54.2 51.9,54.3C51.8,54.3 51.8,54.4 51.8,54.4C51.8,54.5 51.8,54.5 51.8,54.6C51.8,54.7 51.8,54.8 51.9,54.8L52,54.9C52.1,55 52.1,55.1 52.1,55.1C52.1,55.2 52.1,55.2 52.1,55.3C52.1,55.4 52,55.4 52,55.5C51.9,55.5 51.9,55.6 51.8,55.6C51.8,55.6 51.7,55.6 51.6,55.6L51.5,55.6C51.4,55.6 51.4,55.6 51.3,55.6C51.2,55.6 51.1,55.6 51.1,55.7C51,55.7 51,55.8 51,55.9C51,56 51,56.1 51,56.1C51,56.2 51.1,56.3 51.1,56.3L51.2,56.4C51.3,56.5 51.3,56.6 51.3,56.7L51.3,57C51.3,57 51.3,57.1 51.2,57.1L51.1,57.2L51,57.2C50.9,57.2 50.9,57.2 50.8,57.2L50.7,57.2L50.6,57.2L50.5,57.2L50.4,57.2L50.3,57.2L50.2,57.2L50.1,57.3L50.1,58L50.3,58.2C50.7,58.4 50.6,59 50.1,59.1L50,59.1C49.5,59.1 49.4,59.8 49.9,60L50,60C50.4,60.1 50.4,60.7 50,60.9L49.9,60.9C49.4,61.1 49.5,61.7 50,61.8L50.1,61.8C50.5,61.8 50.7,62.4 50.3,62.7L50,63.1C49.9,63.1 49.9,63.2 49.9,63.2L49.9,63.9L50,64L50.9,64L51,64.1C51,64.1 51,64.2 51.1,64.2L51.1,64.5C51.1,64.6 51,64.7 51,64.8L50.9,64.9C50.8,65 50.8,65 50.8,65.1C50.8,65.2 50.8,65.3 50.8,65.3C50.8,65.4 50.9,65.4 50.9,65.5C51,65.5 51,65.6 51.1,65.6L51.6,65.6C51.7,65.6 51.8,65.6 51.8,65.7C51.9,65.7 51.9,65.8 51.9,65.9C51.9,66 51.9,66 51.9,66.1C51.9,66.2 51.9,66.3 51.8,66.3L51.7,66.4C51.6,66.5 51.6,66.6 51.6,66.6C51.6,66.7 51.6,66.7 51.6,66.8C51.6,66.9 51.7,66.9 51.7,66.9C51.8,66.9 51.8,67 51.9,67C52,67 52,67 52.1,66.9L52.2,66.8C52.3,66.8 52.3,66.7 52.4,66.7C52.5,66.7 52.5,66.7 52.6,66.7C52.7,66.7 52.7,66.8 52.7,66.8C52.7,66.9 52.8,66.9 52.8,67C52.8,67.1 52.8,67.1 52.8,67.2L53,67.7L53,68C53,68.1 53,68.1 53.1,68.2C53.1,68.3 53.2,68.3 53.2,68.3L53.6,68.3C53.7,68.3 53.7,68.2 53.7,68.2L53.8,68.1L53.9,68L54.1,68C54.2,68 54.2,68.1 54.2,68.1L54.3,68.2L54.3,68.8C54.3,68.8 54.3,68.9 54.4,68.9L54.5,69L54.9,69C55,69 55,68.9 55.1,68.9L55.2,68.8C55.3,68.7 55.3,68.7 55.4,68.6L55.7,68.6C55.8,68.6 55.8,68.7 55.9,68.7C55.9,68.8 56,68.9 56,69L56,69.3C56,69.3 56,69.4 56.1,69.4C56.1,69.4 56.2,69.4 56.2,69.5L56.4,69.5C56.5,69.5 56.5,69.5 56.6,69.4C56.7,69.4 56.7,69.3 56.8,69.2L56.9,69.1C56.9,69 57,68.9 57.1,68.9L57.4,68.9C57.5,68.9 57.6,68.9 57.6,69C57.7,69.1 57.7,69.1 57.7,69.2L57.7,69.3C57.7,69.5 57.9,69.6 58.1,69.6L58.2,69.6C58.4,69.6 58.6,69.5 58.7,69.2L58.7,69.1C58.7,69 58.8,68.9 58.8,68.9C58.9,68.8 58.9,68.8 59,68.8L59.3,68.8C59.4,68.8 59.4,68.9 59.5,69L59.6,69.1C59.6,69.2 59.7,69.2 59.8,69.3C59.9,69.3 59.9,69.4 60,69.4L60.2,69.4C60.2,69.4 60.3,69.4 60.3,69.3C60.3,69.3 60.3,69.2 60.4,69.2C60.4,69.1 60.4,69.1 60.4,69L60.4,68.9C60.4,68.8 60.4,68.7 60.5,68.6C60.6,68.5 60.6,68.5 60.7,68.5L61,68.5C61.1,68.5 61.2,68.6 61.2,68.7L61.3,68.8C61.3,68.9 61.4,68.9 61.5,68.9L61.9,68.9C62,68.9 62,68.8 62,68.8C62,68.8 62,68.7 62.1,68.7L62.1,68.6C62.1,68.5 62.1,68.5 62.1,68.4L62.1,68.3C62.1,68.2 62.1,68.2 62.1,68.1C62.1,68.1 62.1,68 62.2,68L62.3,67.9L62.5,67.9C62.5,67.9 62.6,67.9 62.6,68L62.8,68.2L63.2,68.2C63.3,68.2 63.3,68.1 63.3,68.1C63.3,68 63.4,68 63.4,67.9L63.4,67.8C63.4,67.7 63.4,67.7 63.4,67.6L63.3,67.5C63.3,67.4 63.3,67.4 63.3,67.3C63.3,67.2 63.3,67.2 63.4,67.1L63.5,67C63.6,67 63.6,67 63.7,67C63.8,67 63.8,67 63.9,67.1L64,67.2C64.1,67.2 64.1,67.3 64.2,67.3C64.3,67.3 64.3,67.3 64.4,67.2C64.5,67.2 64.5,67.1 64.5,67.1C64.5,67 64.5,67 64.5,66.9C64.5,66.8 64.5,66.7 64.4,66.7L64.3,66.6C64.2,66.5 64.2,66.4 64.2,66.4C64.2,66.3 64.2,66.3 64.2,66.2C64.2,66.1 64.3,66.1 64.3,66C64.4,66 64.4,65.9 64.5,65.9L65,65.9C65.1,65.9 65.2,65.9 65.2,65.8C65.3,65.8 65.3,65.7 65.3,65.6C65.3,65.5 65.3,65.4 65.3,65.4C65.3,65.3 65.2,65.2 65.2,65.2L65.1,65.1C65,65 65,64.9 65,64.8L65,64.7C65,64.6 65,64.6 65,64.5C65,64.5 65,64.4 65.1,64.4L65.2,64.3L65.3,64.3C65.4,64.3 65.4,64.2 65.5,64.3L66.1,64.3L66.2,64.2L66.2,64.1L66.2,64L66.2,63.9L66.2,63.8L66.2,63.7L66.2,63.6L66.2,63.5L66.1,63.4L67,63.1C66.6,62.9 66.7,62.3 67.2,62.2L67.3,62.2C67.8,62.2 67.9,61.5 67.4,61.3L67.3,61.3C66.9,61.1 66.9,60.5 67.3,60.4ZM58.6,66.5C55.4,66.5 52.9,63.9 52.9,60.8C52.9,57.6 55.5,55.1 58.6,55.1C61.7,55.1 64.3,57.7 64.3,60.8C64.3,64 61.7,66.5 58.6,66.5Z" style="fill:white;fill-rule:nonzero;"/>
        <path d="M58.6,56.8C56.4,56.8 54.6,58.6 54.6,60.8C54.6,63 56.4,64.8 58.6,64.8C60.8,64.8 62.6,63 62.6,60.8C62.5,58.6 60.8,56.8 58.6,56.8ZM55.9,61.5C55.7,61.5 55.4,61.3 55.4,61C55.4,60.8 55.6,60.5 55.9,60.5C56.1,60.5 56.4,60.7 56.4,61C56.3,61.3 56.1,61.5 55.9,61.5ZM58.6,61.9C58,61.9 57.5,61.4 57.5,60.8C57.5,60.2 58,59.7 58.6,59.7C59.2,59.7 59.7,60.2 59.7,60.8C59.6,61.4 59.1,61.9 58.6,61.9ZM59.9,63.7C59.7,63.7 59.4,63.5 59.4,63.2C59.4,63 59.6,62.7 59.9,62.7C60.2,62.7 60.4,62.9 60.4,63.2C60.3,63.5 60.1,63.7 59.9,63.7ZM59.9,58.8C59.7,58.8 59.4,58.6 59.4,58.3C59.4,58.1 59.6,57.8 59.9,57.8C60.2,57.8 60.4,58 60.4,58.3C60.3,58.6 60.1,58.8 59.9,58.8Z" style="fill:white;fill-rule:nonzero;"/>
        <path d="M31.1,61L31.2,61C31.7,60.8 31.6,60.2 31.1,60.1L31,60.1C30.8,60.1 30.6,59.9 30.6,59.7C30.6,59.5 30.6,59.3 30.8,59.2L30.9,59.1C31,59.1 31,59 31,59L31,58.9L31,58.8L31,58.7L31,58.6L31,58.5L31,58.4L31,58.3L30.9,58.2L30.8,58.2L30.7,58.2L30.6,58.2L30.5,58.2L30.4,58.2L30.3,58.2C30.2,58.2 30.2,58.2 30.1,58.2L30,58.2L29.9,58.1L29.8,58C29.8,57.9 29.8,57.9 29.8,57.8L29.8,57.7C29.8,57.6 29.9,57.5 29.9,57.4L30,57.3C30.1,57.2 30.1,57.2 30.1,57.1C30.1,57 30.1,56.9 30.1,56.9C30.1,56.8 30,56.8 30,56.7C29.9,56.7 29.9,56.6 29.8,56.6C29.8,56.6 29.7,56.6 29.6,56.6L29.5,56.6C29.4,56.6 29.4,56.6 29.3,56.6C29.2,56.6 29.1,56.6 29.1,56.5C29,56.5 29,56.4 29,56.3C29,56.2 29,56.2 29,56.1C29,56 29,55.9 29.1,55.9L29.2,55.8C29.3,55.7 29.3,55.6 29.3,55.6C29.3,55.5 29.3,55.5 29.3,55.4C29.3,55.3 29.2,55.3 29.2,55.3C29.1,55.3 29.1,55.2 29,55.2C28.9,55.2 28.9,55.2 28.8,55.3L28.7,55.4C28.6,55.4 28.6,55.5 28.5,55.5C28.4,55.5 28.4,55.5 28.3,55.5C28.2,55.5 28.2,55.4 28.2,55.4C28.2,55.3 28.1,55.3 28.1,55.2C28.1,55.1 28.1,55.1 28.1,55L28.2,54.9C28.2,54.8 28.2,54.8 28.2,54.7L28.2,54.6C28.2,54.5 28.2,54.5 28.1,54.4C28.1,54.3 28,54.3 28,54.3C27.9,54.3 27.9,54.3 27.8,54.3L27.7,54.3L27.6,54.3C27.5,54.3 27.5,54.4 27.5,54.4L27.4,54.5L27.3,54.6L27.2,54.6L27.1,54.6L27,54.6C26.9,54.6 26.9,54.5 26.9,54.5L26.8,54.4C26.8,54.3 26.8,54.3 26.8,54.2L26.8,54.1C26.8,54 26.8,54 26.8,53.9L26.8,53.8C26.8,53.8 26.8,53.7 26.7,53.7L26.6,53.6C26.5,53.6 26.5,53.6 26.4,53.6L26.3,53.6L26.2,53.6C26.1,53.6 26.1,53.7 26,53.7L25.9,53.8C25.8,53.9 25.8,53.9 25.7,54L25.6,54C25.5,54 25.5,54 25.4,54C25.3,54 25.3,53.9 25.2,53.9C25.2,53.8 25.1,53.7 25.1,53.6L25.1,53.5C25.1,53.4 25.1,53.4 25.1,53.3C25.1,53.3 25.1,53.2 25,53.2C25,53.2 24.9,53.2 24.9,53.1L24.8,53.1L24.7,53.1C24.6,53.1 24.6,53.1 24.5,53.2C24.4,53.2 24.4,53.3 24.3,53.4L24.2,53.5C24.2,53.6 24.1,53.7 24,53.7L23.9,53.7C23.8,53.7 23.8,53.7 23.7,53.7C23.6,53.7 23.5,53.7 23.5,53.6C23.4,53.5 23.4,53.5 23.4,53.4L23.4,53.3C23.3,52.8 22.6,52.8 22.5,53.3L22.5,53.4C22.5,53.5 22.4,53.6 22.4,53.6C22.3,53.7 22.3,53.7 22.2,53.7C22.1,53.7 22.1,53.7 22,53.7L21.9,53.7C21.8,53.7 21.8,53.6 21.7,53.5L21,52.7C21,52.6 20.9,52.6 20.8,52.5C20.7,52.5 20.7,52.4 20.6,52.4L20.5,52.4L20.4,52.4C20.4,52.4 20.3,52.4 20.3,52.5C20.3,52.5 20.3,52.6 20.2,52.6L20.2,52.9C20.2,53 20.2,53.1 20.1,53.2C20,53.3 20,53.3 19.9,53.3C19.8,53.3 19.8,53.3 19.7,53.3L19.6,53.3C19.5,53.3 19.4,53.2 19.4,53.1L19.3,53C19.3,52.9 19.2,52.9 19.1,52.9L19,52.9L18.9,52.9C18.8,52.9 18.8,52.9 18.7,52.9C18.6,52.9 18.6,53 18.6,53C18.6,53 18.6,53.1 18.5,53.1L18.5,53.7C18.5,53.7 18.5,53.8 18.4,53.8L18.3,53.9L18.2,53.9L18.1,53.9L18,53.9C18,53.9 17.9,53.9 17.9,53.8L17.8,53.7L17.7,53.6L17.6,53.6L17.5,53.6C17.4,53.6 17.4,53.6 17.3,53.6C17.2,53.6 17.2,53.7 17.2,53.7C17.2,53.8 17.1,53.8 17.1,53.9L17.1,54.2L17.2,54.3C17.2,54.4 17.2,54.4 17.2,54.5C17.2,54.6 17.2,54.6 17.1,54.7L17,54.8C16.9,54.8 16.9,54.8 16.8,54.8C16.7,54.8 16.7,54.8 16.6,54.7L16.5,54.6C16.4,54.6 16.4,54.5 16.3,54.5C16.2,54.5 16.2,54.5 16.1,54.6C16,54.6 16,54.7 16,54.7C16,54.8 16,54.8 16,54.9C16,55 16,55.1 16.1,55.1L16.2,55.2C16.3,55.3 16.3,55.4 16.3,55.4C16.3,55.5 16.3,55.5 16.3,55.6C16.3,55.7 16.2,55.7 16.2,55.8C16.1,55.8 16.1,55.9 16,55.9C16,55.9 15.9,55.9 15.8,55.9L15.7,55.9C15.6,55.9 15.6,55.9 15.5,55.9C15.4,55.9 15.3,55.9 15.3,56C15.2,56 15.2,56.1 15.2,56.2C15.2,56.3 15.2,56.4 15.2,56.4C15.2,56.5 15.3,56.6 15.3,56.6L15.4,56.7C15.5,56.8 15.5,56.9 15.5,57L15.5,57.3C15.5,57.3 15.5,57.4 15.4,57.4L15.3,57.5L15.2,57.5C15.1,57.5 15.1,57.5 15,57.5L14.9,57.5L14.8,57.5L14.7,57.5L14.6,57.5L14.5,57.5L14.4,57.5L14.3,57.6L14.3,58.2C14.3,58.2 14.3,58.3 14.4,58.3L14.6,58.5C14.8,58.6 14.9,58.8 14.8,59C14.8,59.2 14.6,59.3 14.4,59.4L14.3,59.4C13.8,59.4 13.7,60.1 14.2,60.3L14.3,60.3C14.7,60.4 14.7,61 14.3,61.2L14.2,61.2C13.7,61.4 13.8,62 14.3,62.1L14.4,62.1C14.7,62.1 14.9,62.5 14.8,62.7C14.8,62.8 14.7,62.9 14.6,62.9L14.5,63C14.4,63 14.4,63.1 14.4,63.1C14.4,63.1 14.4,63.2 14.3,63.2L14.3,63.8L14.4,63.9L15.3,63.9L15.5,64.1L15.5,64.4C15.5,64.5 15.4,64.6 15.4,64.7L15.3,64.8C15.2,64.9 15.2,64.9 15.2,65C15.2,65.1 15.2,65.2 15.2,65.2C15.2,65.3 15.3,65.3 15.3,65.4C15.4,65.4 15.4,65.5 15.5,65.5L16,65.5C16.1,65.5 16.2,65.5 16.2,65.6C16.3,65.6 16.3,65.7 16.3,65.8C16.3,65.9 16.3,65.9 16.3,66C16.3,66.1 16.3,66.2 16.2,66.2L16.1,66.3C16,66.4 16,66.5 16,66.5C16,66.6 16,66.6 16,66.7C16,66.8 16.1,66.8 16.1,66.8C16.2,66.8 16.2,66.9 16.3,66.9C16.4,66.9 16.4,66.9 16.5,66.8L16.6,66.7C16.7,66.7 16.7,66.6 16.8,66.6C16.9,66.6 16.9,66.6 17,66.6C17.1,66.6 17.1,66.7 17.1,66.7C17.1,66.8 17.2,66.8 17.2,66.9C17.2,67 17.2,67 17.2,67.1L17.1,67.2L17.1,67.5C17.1,67.6 17.1,67.6 17.2,67.7C17.2,67.8 17.3,67.8 17.3,67.8L17.7,67.8C17.8,67.8 17.8,67.7 17.8,67.7L17.9,67.6L18,67.5L18.3,67.5C18.4,67.5 18.4,67.6 18.4,67.6L18.5,67.7L18.5,68.3C18.5,68.3 18.5,68.4 18.6,68.4L18.7,68.5L19.1,68.5C19.2,68.5 19.2,68.4 19.3,68.4L19.4,68.3C19.5,68.2 19.5,68.2 19.6,68.1L19.9,68.1C20,68.1 20,68.2 20.1,68.2C20.1,68.3 20.2,68.4 20.2,68.5L20.2,68.8C20.2,68.8 20.2,68.9 20.3,68.9C20.3,68.9 20.4,68.9 20.4,69L20.6,69C20.7,69 20.7,69 20.8,68.9C20.9,68.9 20.9,68.8 21,68.7L21.1,68.6C21.1,68.5 21.2,68.4 21.3,68.4L21.6,68.4C21.7,68.4 21.8,68.4 21.8,68.5C21.9,68.6 21.9,68.6 21.9,68.7L21.9,68.8C21.9,68.9 22,69 22.1,69.1C22.2,69.2 22.3,69.2 22.4,69.2C22.5,69.2 22.6,69.2 22.7,69.1C22.8,69 22.8,68.9 22.9,68.8L22.9,68.7C22.9,68.6 23,68.5 23,68.5C23.1,68.4 23.1,68.4 23.2,68.4L23.5,68.4C23.6,68.4 23.6,68.5 23.7,68.6L23.8,68.7C23.8,68.8 23.9,68.8 24,68.9C24.1,68.9 24.1,69 24.2,69L24.4,69C24.4,69 24.5,69 24.5,68.9C24.5,68.9 24.5,68.8 24.6,68.8C24.6,68.7 24.6,68.7 24.6,68.6L24.6,68.5C24.6,68.4 24.6,68.3 24.7,68.2C24.8,68.1 24.8,68.1 24.9,68.1L25.2,68.1C25.3,68.1 25.4,68.2 25.4,68.3L25.5,68.4C25.5,68.5 25.6,68.5 25.7,68.5L26.1,68.5C26.2,68.5 26.2,68.4 26.2,68.4C26.2,68.4 26.2,68.3 26.3,68.3L26.3,68.2C26.3,68.1 26.3,68.1 26.3,68L26.3,67.9C26.3,67.8 26.3,67.8 26.3,67.7C26.3,67.7 26.3,67.6 26.4,67.6L26.5,67.5L26.8,67.5C26.8,67.5 26.9,67.5 26.9,67.6L27.1,67.8L27.5,67.8C27.6,67.8 27.6,67.7 27.6,67.7C27.6,67.6 27.7,67.6 27.7,67.5L27.7,67.4C27.7,67.3 27.7,67.3 27.7,67.2L27.6,67.1C27.6,67 27.6,67 27.6,66.9C27.6,66.8 27.6,66.8 27.7,66.7L27.8,66.6C27.9,66.6 27.9,66.6 28,66.6C28.1,66.6 28.1,66.6 28.2,66.7L28.3,66.8C28.4,66.8 28.4,66.9 28.5,66.9C28.6,66.9 28.6,66.9 28.7,66.8C28.8,66.8 28.8,66.7 28.8,66.7C28.8,66.6 28.8,66.6 28.8,66.5C28.8,66.4 28.8,66.3 28.7,66.3L29.2,67C29.1,66.9 29.1,66.8 29.1,66.8C29.1,66.7 29.1,66.7 29.1,66.6C29.1,66.5 29.2,66.5 29.2,66.4C29.3,66.4 29.3,66.3 29.4,66.3L29.9,66.3C30,66.3 30.1,66.3 30.1,66.2C30.2,66.2 30.2,66.1 30.2,66C30.2,65.9 30.2,65.8 30.2,65.8C30.2,65.7 30.1,65.6 30.1,65.6L30,65.5C29.9,65.4 29.9,65.3 29.9,65.2L29.9,65.1C29.9,65 29.9,65 29.9,64.9C29.9,64.9 29.9,64.8 30,64.8L30.1,64.7L30.2,64.7C30.3,64.7 30.3,64.6 30.4,64.7L31,64.7L31.1,64.6L31.1,64.5L31.1,64.4L31.1,64.3L31.1,64.2L31.1,64.1L31.1,64L31.1,63.9L31,63.8L30.9,63.7C30.8,63.6 30.7,63.6 30.7,63.5C30.6,63.2 30.7,62.9 31.1,62.9L31.2,62.9C31.7,62.9 31.8,62.2 31.3,62L31.2,62C30.7,61.8 30.7,61.2 31.1,61ZM22.4,67.2C19.2,67.2 16.7,64.6 16.7,61.5C16.7,58.4 19.3,55.8 22.4,55.8C25.6,55.8 28.1,58.4 28.1,61.5C28.1,64.6 25.6,67.2 22.4,67.2Z" style="fill:white;fill-rule:nonzero;"/>
        <path d="M22.4,57.5C20.2,57.5 18.4,59.3 18.4,61.5C18.4,63.7 20.2,65.5 22.4,65.5C24.6,65.5 26.4,63.7 26.4,61.5C26.4,59.3 24.6,57.5 22.4,57.5ZM19.7,62.2C19.5,62.2 19.2,62 19.2,61.7C19.2,61.5 19.4,61.2 19.7,61.2C19.9,61.2 20.2,61.4 20.2,61.7C20.2,62 20,62.2 19.7,62.2ZM22.4,62.5C21.8,62.5 21.3,62 21.3,61.4C21.3,60.8 21.8,60.3 22.4,60.3C23,60.3 23.5,60.8 23.5,61.4C23.5,62 23,62.5 22.4,62.5ZM23.7,64.4C23.5,64.4 23.2,64.2 23.2,63.9C23.2,63.6 23.4,63.4 23.7,63.4C23.9,63.4 24.2,63.6 24.2,63.9C24.2,64.2 24,64.4 23.7,64.4ZM23.7,59.5C23.5,59.5 23.2,59.3 23.2,59C23.2,58.8 23.4,58.5 23.7,58.5C23.9,58.5 24.2,58.7 24.2,59C24.2,59.3 24,59.5 23.7,59.5Z" style="fill:white;fill-rule:nonzero;"/>
    </g>
</svg>
